<svg width="300" height="300" viewBox="0 0 300 300" fill="none" xmlns="http://www.w3.org/2000/svg">
<path d="M224.07 131.836C225.365 132.473 226.783 132.821 228.225 132.856C228.306 132.846 228.385 132.821 228.456 132.781C228.527 132.741 228.589 132.688 228.64 132.624C228.69 132.559 228.727 132.486 228.748 132.407C228.77 132.329 228.776 132.246 228.765 132.166C228.645 131.221 227.58 132.031 224.625 130.666L224.775 129.556C224.85 129.241 224.475 128.731 224.07 128.881C223.665 129.031 223.56 129.511 223.44 130.381C223.32 131.251 223.26 131.431 224.07 131.836ZM67.5002 136.096C69.3052 135.605 71.0004 134.775 72.4952 133.651C73.0802 133.201 72.8852 132.151 72.7202 131.551C72.6732 131.395 72.5705 131.262 72.4316 131.178C72.2927 131.093 72.1275 131.063 71.9677 131.092C71.8078 131.122 71.6646 131.21 71.5654 131.339C71.4662 131.467 71.4181 131.628 71.4302 131.791C71.4587 132.116 71.519 132.437 71.6102 132.751C68.0552 135.346 66.6752 134.701 66.8852 135.751C66.9319 135.87 67.0187 135.97 67.1309 136.033C67.2431 136.096 67.3736 136.118 67.5002 136.096ZM63.4202 133.321C66.4202 133.321 65.4002 131.551 64.5902 131.821L63.4352 132.001C62.4452 127.306 63.2402 126.316 62.3852 126.286C62.2563 126.277 62.1292 126.32 62.0311 126.404C61.933 126.488 61.8717 126.607 61.8602 126.736C61.7543 128.59 61.8904 130.451 62.2652 132.271C62.4302 133.081 62.7302 133.321 63.4202 133.321ZM150.525 130.741C151.38 130.741 155.88 129.766 156.645 129.646C157.77 129.451 159.105 129.106 159.195 127.891C159.195 127.141 158.655 126.271 158.04 126.721C157.912 126.81 157.818 126.94 157.772 127.089C157.725 127.239 157.73 127.399 157.785 127.546C158.01 128.131 157.53 128.086 150.285 129.661C150.152 129.702 150.039 129.791 149.969 129.912C149.899 130.033 149.877 130.175 149.907 130.311C149.938 130.447 150.018 130.567 150.132 130.647C150.247 130.726 150.387 130.76 150.525 130.741ZM51.8702 94.0205C52.2002 94.3955 53.0102 94.0205 52.7702 93.4505C51.2702 89.7905 48.5102 85.7105 46.7702 81.6905C46.5002 81.0455 45.9602 79.9505 45.4352 79.8905C45.3695 79.8813 45.3025 79.8904 45.2416 79.9169C45.1807 79.9434 45.1283 79.9862 45.0902 80.0405C44.7602 80.4905 45.2402 81.7355 45.4652 82.2605C46.1552 83.7455 49.5002 91.3055 51.8702 94.0205ZM100.5 87.6905C100.528 87.8076 100.587 87.9154 100.669 88.003C100.752 88.0906 100.856 88.155 100.971 88.1899C101.087 88.2248 101.209 88.2289 101.326 88.2018C101.444 88.1747 101.552 88.1174 101.64 88.0355C102.879 86.9079 104.004 85.662 105 84.3155C109.5 98.7155 109.5 99.2255 110.205 99.2255C110.306 99.2227 110.406 99.1982 110.496 99.1536C110.587 99.1091 110.667 99.0455 110.731 98.9672C110.795 98.889 110.842 98.7979 110.867 98.7001C110.893 98.6023 110.897 98.5002 110.88 98.4005C109.2 93.0905 107.43 87.9005 105.9 82.6055C105.866 82.4739 105.794 82.3554 105.692 82.2648C105.591 82.1742 105.465 82.1157 105.33 82.0964C105.195 82.0772 105.058 82.0982 104.935 82.1567C104.813 82.2153 104.71 82.3088 104.64 82.4255C103.779 83.7804 102.773 85.0378 101.64 86.1755C100.74 82.0655 98.6402 72.6755 98.6402 72.6755C98.6024 72.5244 98.5061 72.3944 98.3725 72.3142C98.2389 72.2341 98.0789 72.2102 97.9277 72.248C97.7766 72.2858 97.6466 72.3821 97.5664 72.5157C97.4862 72.6494 97.4624 72.8094 97.5002 72.9605C98.0102 75.2855 100.185 86.6555 100.5 87.6905ZM22.3652 165.721C17.5352 163.411 13.2302 161.041 8.28022 158.431C7.32022 157.921 6.66022 159.676 8.16022 160.081C12.482 162.778 17.0903 164.987 21.9002 166.666C22.5002 166.831 22.9202 166.051 22.3652 165.721ZM26.2052 131.086C26.3083 131.177 26.4369 131.234 26.5736 131.25C26.7104 131.266 26.8487 131.24 26.9702 131.176C27.9602 130.696 26.6852 129.511 27.1652 122.386C39.3302 137.071 38.6552 136.696 39.1652 136.696C39.2708 136.702 39.3761 136.678 39.4687 136.627C39.5612 136.576 39.6372 136.499 39.6877 136.406C39.7381 136.313 39.7609 136.208 39.7534 136.102C39.7459 135.997 39.7083 135.895 39.6452 135.811C37.7402 133.411 29.4002 123.046 27.1802 120.226C27.0967 120.12 26.9847 120.04 26.8573 119.996C26.73 119.952 26.5927 119.945 26.4617 119.977C26.3307 120.009 26.2115 120.077 26.1182 120.174C26.0249 120.271 25.9614 120.393 25.9352 120.526C25.6303 123.265 25.5801 126.027 25.7852 128.776C21.2852 124.741 16.9802 120.466 12.4352 116.536C12.2976 116.425 12.1255 116.367 11.9491 116.371C11.7728 116.375 11.6034 116.441 11.4709 116.557C11.3383 116.673 11.251 116.833 11.2244 117.007C11.1978 117.182 11.2335 117.36 11.3252 117.511C13.0952 120.256 23.0852 128.251 26.2052 131.086ZM144.525 75.4505C144.525 75.5977 144.584 75.7389 144.688 75.843C144.792 75.9471 144.933 76.0055 145.08 76.0055C145.227 76.0055 145.369 75.9471 145.473 75.843C145.577 75.7389 145.635 75.5977 145.635 75.4505C145.892 69.9409 145.661 64.4194 144.945 58.9505C144.93 58.8062 144.873 58.6695 144.781 58.5569C144.69 58.4444 144.567 58.3608 144.429 58.3163C144.291 58.2719 144.143 58.2685 144.003 58.3065C143.863 58.3445 143.737 58.4223 143.64 58.5305C142.965 59.4005 144.585 62.1455 144.525 75.4505ZM185.115 101.506C196.53 82.2455 195.915 83.2055 195.825 82.8605C195.57 81.9905 194.85 82.4105 189.075 84.1505C190.575 78.8255 192.45 73.1405 193.695 67.7555C193.721 67.5814 193.681 67.4039 193.582 67.2579C193.484 67.112 193.335 67.0081 193.164 66.9667C192.992 66.9253 192.812 66.9495 192.658 67.0344C192.504 67.1193 192.387 67.2588 192.33 67.4255C190.635 73.4255 188.955 79.2905 187.335 85.0505C187.309 85.1696 187.314 85.2934 187.348 85.4102C187.383 85.5271 187.447 85.6332 187.534 85.7186C187.621 85.8041 187.728 85.8661 187.845 85.8988C187.963 85.9314 188.087 85.9338 188.205 85.9055C188.205 85.9055 192.18 84.6755 193.785 84.1505L184.2 100.996C184.144 101.116 184.135 101.253 184.175 101.38C184.216 101.506 184.303 101.613 184.42 101.678C184.536 101.742 184.672 101.761 184.801 101.729C184.93 101.697 185.043 101.617 185.115 101.506ZM292.365 145.501C291.585 145.126 277.155 154.096 277.005 154.201C276.48 154.576 277.005 155.506 277.545 155.221C278.415 154.831 292.2 147.166 292.665 146.341C292.701 146.266 292.721 146.185 292.725 146.102C292.73 146.019 292.717 145.936 292.689 145.858C292.662 145.78 292.619 145.709 292.563 145.647C292.507 145.586 292.44 145.536 292.365 145.501ZM254.175 128.356C254.175 128.356 268.635 117.331 271.335 115.231C271.92 114.766 271.335 113.731 270.645 113.806C267.923 113.87 265.213 114.177 262.545 114.721C266.417 110.59 269.846 106.065 272.775 101.221C273.27 100.411 272.07 99.5705 271.59 100.396C268.285 105.786 264.353 110.766 259.875 115.231C259.395 115.696 259.695 116.836 260.475 116.731C263.123 116.056 265.822 115.605 268.545 115.381C268.545 115.381 257.085 124.606 253.545 127.531C253.486 127.626 253.457 127.738 253.462 127.85C253.467 127.963 253.507 128.071 253.575 128.161C253.644 128.25 253.738 128.317 253.845 128.352C253.952 128.386 254.067 128.388 254.175 128.356ZM233.49 84.9305C242.7 69.0605 244.305 66.7505 242.76 66.3605C242.1 66.1955 242.13 66.2555 232.455 84.3605C232.41 84.494 232.413 84.6392 232.464 84.7706C232.515 84.9021 232.61 85.0114 232.734 85.0794C232.857 85.1474 233.001 85.1697 233.139 85.1425C233.277 85.1153 233.402 85.0402 233.49 84.9305Z" fill="#333232"/>
<path d="M276.001 182.835C269.881 163.53 254.416 148.68 233.536 142.11C233.522 141.728 233.482 141.347 233.416 140.97C239.116 138.48 240.391 129.915 239.131 122.46C240.226 120.675 243.136 111.495 240.991 112.755L237.076 115.065C236.521 113.565 235.876 112.17 235.186 110.79C235.336 108.39 233.146 104.1 229.291 101.295C225.751 98.7155 219.661 96.4055 210.781 100.095C203.851 102.975 196.036 109.335 194.851 118.575C193.351 130.575 197.326 136.395 189.901 147.54C181.696 143.826 172.951 141.446 163.996 140.49C163.996 139.818 163.951 139.147 163.861 138.48C167.686 136.545 168.496 130.245 168.661 128.19C173.161 124.29 173.686 116.52 170.161 116.34C171.067 110.774 171.413 105.131 171.196 99.4955C171.001 96.0005 169.501 95.2205 168.811 95.0705C168.324 94.9784 167.821 95.0252 167.359 95.2056C166.898 95.386 166.496 95.6926 166.201 96.0905C165.076 93.7955 162.916 94.0805 161.701 95.8205C161.581 95.2029 161.271 94.6385 160.813 94.2069C160.356 93.7754 159.774 93.4986 159.151 93.4157C158.527 93.3328 157.893 93.4479 157.339 93.7449C156.784 94.0418 156.337 94.5055 156.061 95.0705C155.77 94.4512 155.302 93.9324 154.715 93.5799C154.129 93.2275 153.451 93.0574 152.768 93.0911C152.084 93.1249 151.427 93.361 150.878 93.7696C150.329 94.1781 149.914 94.7406 149.686 95.3855C148.186 92.1305 144.361 92.8805 143.506 96.1805C142.381 93.6455 139.306 93.6605 138.241 96.6005C135.436 94.5305 133.231 96.6005 132.781 100.005C132.508 105.795 132.749 111.598 133.501 117.345C128.416 116.205 132.376 128.115 135.406 128.4C135.931 132.9 137.791 137.85 141.406 139.05C141.406 139.65 141.316 140.265 141.316 140.865C131.617 142.414 122.284 145.724 113.776 150.63C109.096 147.33 98.6857 142.845 88.6807 143.67C86.8679 139.84 85.5039 135.814 84.6157 131.67C83.9557 128.055 85.6507 126.63 85.6357 123.51C87.5778 119.597 88.0618 115.119 87.0007 110.88C82.2757 95.8805 53.7307 101.58 54.5407 118.05C54.6457 119.925 54.8107 121.8 54.9757 123.255C51.4507 124.32 51.9757 124.575 52.9507 128.865C53.4757 131.205 54.0757 133.14 56.5357 132.63C57.6607 137.505 60.4957 145.29 67.1857 145.29C67.5907 145.29 67.1857 145.035 67.5607 147.555C50.7757 154.86 29.7007 168.555 24.2407 192.555C22.9207 198.345 22.1257 206.565 25.9057 212.775C30.0607 219.69 37.4107 220.125 42.6907 219.78C41.4548 226.571 41.0569 233.488 41.5057 240.375C41.5084 240.472 41.5376 240.565 41.5899 240.646C41.6423 240.727 41.7158 240.792 41.8025 240.834C41.8892 240.875 41.9858 240.892 42.0816 240.883C42.1774 240.874 42.2687 240.838 42.3457 240.78C43.1557 240.3 41.5657 239.79 44.1007 219.675C58.2307 218.37 71.7007 212.295 84.1507 205.905C86.2057 207.405 88.2457 208.905 90.3607 210.255C92.0996 213.771 94.7643 216.747 98.0681 218.861C101.372 220.976 105.19 222.149 109.111 222.255C108.736 228.57 108.736 234.901 109.111 241.215C109.116 241.292 109.137 241.366 109.172 241.434C109.207 241.502 109.256 241.563 109.314 241.612C109.373 241.661 109.441 241.697 109.514 241.719C109.588 241.742 109.665 241.749 109.741 241.74C111.031 241.62 109.366 240.975 110.386 222.24C122.866 222.24 133.111 214.095 143.386 207.87C155.476 213.405 185.116 223.71 200.791 220.74C201.511 227.13 201.406 233.19 202.021 239.37C202.041 239.481 202.099 239.582 202.185 239.654C202.272 239.726 202.381 239.766 202.493 239.766C202.606 239.766 202.715 239.726 202.801 239.654C202.888 239.582 202.946 239.481 202.966 239.37C203.359 233.056 203.103 226.718 202.201 220.455C213.076 217.875 219.751 210.21 221.521 198.3C222.241 197.82 223.021 197.28 223.831 196.665C233.116 200.37 252.331 209.385 261.721 209.715C261.286 216.69 260.671 224.055 260.566 231.285C260.587 231.408 260.65 231.518 260.745 231.598C260.839 231.678 260.959 231.722 261.083 231.722C261.207 231.722 261.327 231.678 261.422 231.598C261.516 231.518 261.58 231.408 261.601 231.285C261.811 229.29 263.176 212.265 263.101 209.67C278.131 209.325 280.501 197.025 276.001 182.835ZM168.961 118.725C169.366 118.185 169.591 117.555 170.176 117.735C172.276 118.35 170.596 123.57 168.841 125.895C168.991 123.51 169.036 121.095 168.961 118.725ZM133.156 118.725C133.636 118.725 133.576 118.935 134.656 119.145L135.256 126.555C133.036 124.5 131.431 118.755 133.156 118.755V118.725ZM237.376 117.225C237.439 117.015 237.584 116.838 237.778 116.734C237.972 116.63 238.2 116.607 238.411 116.67C238.622 116.734 238.799 116.879 238.903 117.073C239.007 117.267 239.029 117.495 238.966 117.705C238.441 119.565 238.036 120.915 237.691 122.205C237.602 122.366 237.477 122.504 237.326 122.608C237.175 122.712 237.002 122.78 236.821 122.805C235.501 122.85 236.911 118.575 237.376 117.195V117.225ZM212.131 123.225C212.986 122.58 214.021 123.405 214.186 123.42C215.596 124.32 217.186 123.015 216.781 122.64L216.481 122.4C215.371 121.53 213.091 119.73 213.571 118.5C213.931 117.57 215.401 117.705 216.361 117.66C216.395 117.659 216.428 117.651 216.458 117.635C216.489 117.619 216.515 117.596 216.535 117.569C216.555 117.542 216.569 117.51 216.575 117.476C216.581 117.443 216.58 117.408 216.571 117.375C216.421 116.895 216.241 116.415 216.061 115.875C221.729 113.064 227.945 111.528 234.271 111.375C234.916 112.875 235.471 114.3 235.966 115.71C234.091 116.775 231.961 117.945 231.466 120.075C231.02 120.02 230.568 120.065 230.142 120.208C229.716 120.351 229.328 120.588 229.006 120.9C226.651 118.065 216.901 118.305 214.936 118.38C212.401 118.485 219.091 123.6 220.936 125.04C227.131 129.855 231.181 126.54 229.636 122.145C229.852 121.88 230.137 121.678 230.459 121.562C230.782 121.446 231.13 121.419 231.466 121.485C231.522 121.77 231.612 122.048 231.736 122.31C231.661 122.273 231.579 122.254 231.496 122.254C231.412 122.254 231.33 122.273 231.256 122.31C230.641 122.7 231.256 123.225 232.666 125.73C232.492 125.907 232.306 126.073 232.111 126.225C231.541 126.645 232.036 128.475 233.941 126.225C234.226 125.88 233.686 124.875 233.086 123.99C233.81 124.484 234.678 124.722 235.552 124.668C236.427 124.614 237.258 124.27 237.916 123.69C238.571 127.718 238.2 131.845 236.836 135.69C235.336 139.365 231.571 139.575 232.336 140.97C232.534 145.916 232.131 150.867 231.136 155.715C227.281 154.875 219.691 145.47 216.661 141.105C216.975 137.458 216.504 133.786 215.281 130.335C214.276 128.595 212.281 127.8 211.756 125.835C211.551 125.397 211.477 124.909 211.544 124.43C211.61 123.951 211.814 123.501 212.131 123.135V123.225ZM234.871 120.72C234.706 121.215 234.601 121.905 234.061 121.905C233.521 121.905 233.251 121.275 233.311 120.735C233.371 120.195 233.521 118.95 234.091 118.62C234.2 118.566 234.321 118.538 234.443 118.538C234.566 118.538 234.686 118.566 234.796 118.62C235.501 118.815 235.126 119.865 234.871 120.63V120.72ZM226.786 124.17C226.621 124.575 226.456 125.31 225.976 125.535C225.892 125.577 225.799 125.598 225.706 125.598C225.612 125.598 225.52 125.577 225.436 125.535C224.536 125.205 225.526 121.86 226.336 121.215C226.406 121.143 226.494 121.09 226.591 121.061C226.687 121.032 226.79 121.028 226.888 121.049C226.987 121.07 227.079 121.115 227.155 121.181C227.232 121.247 227.29 121.331 227.326 121.425C227.641 122.115 226.876 123.855 226.786 124.08V124.17ZM223.501 122.715C223.306 123.105 223.216 123.465 222.706 123.465C222.586 123.474 222.466 123.453 222.356 123.404C222.246 123.355 222.15 123.279 222.076 123.185C222.002 123.09 221.952 122.978 221.931 122.86C221.91 122.742 221.919 122.62 221.956 122.505C222.121 122.01 222.301 120.885 222.901 120.585C222.996 120.542 223.099 120.518 223.204 120.515C223.308 120.513 223.412 120.532 223.509 120.571C223.606 120.61 223.694 120.669 223.768 120.744C223.841 120.819 223.898 120.908 223.936 121.005C224.146 121.5 223.801 122.175 223.501 122.715ZM216.001 141.945C220.261 149.295 231.481 159.945 232.351 156.375C233.332 152.138 233.785 147.795 233.701 143.445C254.251 150.705 268.201 164.01 274.276 181.965C269.878 179.867 265.047 178.839 260.176 178.965C259.966 174.03 253.201 164.49 250.606 161.625C250.081 161.04 249.106 161.79 249.676 162.375C253.566 166.781 256.544 171.915 258.436 177.48C251.086 171.945 236.281 164.22 215.986 170.58C210.721 161.593 203.032 154.269 193.801 149.445C200.444 145.101 208.084 142.52 216.001 141.945ZM137.776 108.105C146.796 105.643 156.274 105.371 165.421 107.31C165.267 109.852 165.347 112.403 165.661 114.93H165.391C164.146 109.2 156.166 107.43 153.481 113.43C152.109 112.965 150.622 112.965 149.251 113.43C146.656 108.03 139.141 109.77 137.761 115.11H137.476C137.791 112.79 137.892 110.445 137.776 108.105ZM158.176 120.45C158.446 119.685 160.876 114.015 162.451 113.85C162.582 113.849 162.711 113.878 162.829 113.937C162.946 113.995 163.048 114.081 163.126 114.186C163.203 114.292 163.255 114.414 163.276 114.544C163.296 114.673 163.286 114.806 163.246 114.93C161.907 116.838 160.713 118.844 159.676 120.93C159.301 121.86 157.831 121.5 158.176 120.45ZM156.001 118.35C155.821 118.8 155.011 119.07 154.726 118.545C154.441 118.02 155.131 116.025 157.081 113.1C157.576 112.365 158.041 112.005 158.446 112.065C158.578 112.103 158.698 112.172 158.797 112.267C158.896 112.362 158.97 112.48 159.013 112.61C159.056 112.74 159.066 112.879 159.043 113.014C159.02 113.149 158.964 113.277 158.881 113.385C157.739 114.928 156.773 116.594 156.001 118.35ZM142.951 120.84C143.596 119.43 144.316 118.005 145.006 116.61C145.079 116.476 145.188 116.364 145.32 116.285C145.452 116.207 145.602 116.166 145.756 116.166C145.909 116.166 146.06 116.207 146.192 116.285C146.324 116.364 146.432 116.476 146.506 116.61C146.6 116.753 146.65 116.92 146.65 117.09C146.65 117.261 146.6 117.428 146.506 117.57C145.846 118.875 145.171 120.24 144.451 121.56C143.881 122.31 142.501 121.74 142.951 120.84ZM141.136 118.95L141.046 119.055C140.581 119.73 139.411 119.295 139.726 118.44C140.592 116.136 141.698 113.929 143.026 111.855C143.671 111.075 144.976 111.75 144.526 112.665C143.461 114.795 142.156 116.79 141.136 118.95ZM135.781 119.085C136.741 118.68 137.011 117.585 137.281 116.64L137.596 116.55C137.517 117.591 137.645 118.637 137.972 119.628C138.299 120.619 138.818 121.536 139.501 122.325C140.31 123.12 141.324 123.674 142.429 123.926C143.535 124.178 144.689 124.118 145.762 123.752C146.835 123.387 147.786 122.73 148.508 121.856C149.23 120.981 149.695 119.924 149.851 118.8C149.696 120.245 149.631 121.698 149.656 123.15C149.656 124.05 149.446 125.175 150.556 125.25H152.056C152.836 125.25 153.046 123.9 152.146 123.885H151.036C150.948 121.213 151.094 118.538 151.471 115.89C151.576 115.155 150.511 115.05 150.361 115.74C149.701 118.965 150.361 117.12 149.776 114.735C150.823 114.36 151.968 114.36 153.016 114.735C152.685 115.938 152.62 117.198 152.825 118.428C153.03 119.658 153.499 120.83 154.201 121.86C154.735 122.553 155.412 123.122 156.186 123.53C156.96 123.938 157.813 124.175 158.686 124.225C159.559 124.275 160.433 124.136 161.248 123.819C162.064 123.502 162.801 123.013 163.411 122.385C164.884 120.741 165.669 118.593 165.601 116.385H165.886C166.066 117.69 166.336 119.49 167.716 119.385C167.566 124.515 168.016 133.305 163.951 136.515C163.426 136.935 162.826 137.415 162.751 137.895C162.563 139.485 162.563 141.091 162.751 142.68C163.186 146.835 155.911 155.055 152.146 158.565C144.886 148.695 142.801 147.72 142.816 139.065C142.816 138.195 142.711 138.06 142.111 137.76C136.036 134.82 136.591 126.345 135.781 119.085ZM141.391 142.185C141.556 146.79 145.171 153.015 151.546 159.72C152.836 161.4 164.236 147.405 164.011 144.375V141.84C194.716 145.455 216.721 163.125 220.231 186.945C207.481 184.44 191.371 187.38 188.641 187.905C187.47 180.445 185.264 173.185 182.086 166.335C182.032 166.202 181.928 166.096 181.795 166.039C181.663 165.983 181.514 165.982 181.381 166.035C181.247 166.089 181.141 166.194 181.085 166.326C181.028 166.458 181.027 166.607 181.081 166.74C183.839 173.501 185.851 180.543 187.081 187.74C179.191 179.43 167.191 175.74 150.466 176.49C140.399 176.957 130.399 178.379 120.601 180.735C121.384 176.161 123.251 171.841 126.046 168.135C126.107 168.024 126.126 167.894 126.098 167.769C126.07 167.645 125.998 167.535 125.896 167.459C125.793 167.384 125.666 167.349 125.539 167.36C125.412 167.371 125.294 167.428 125.206 167.52C122.054 171.415 119.984 176.071 119.206 181.02C108.33 183.629 97.7691 187.406 87.7057 192.285C89.0857 162.9 116.251 147.15 141.391 142.185ZM76.3357 114.405C76.3203 115.83 76.4056 117.253 76.5907 118.665C71.1907 118.8 62.6107 120.9 56.2207 122.88C56.0557 121.56 55.6807 119.16 55.6657 117.735C62.0953 114.671 69.269 113.515 76.3357 114.405ZM71.5657 122.46C68.5657 127.56 69.2107 128.46 68.2057 128.46C68.093 128.467 67.9802 128.447 67.8769 128.401C67.7737 128.355 67.6829 128.285 67.6123 128.197C67.5418 128.109 67.4934 128.005 67.4714 127.894C67.4494 127.783 67.4543 127.669 67.4857 127.56C68.8507 122.4 70.1557 121.44 70.8157 121.32C70.9596 121.291 71.109 121.306 71.2445 121.362C71.3801 121.418 71.4957 121.514 71.5764 121.637C71.6571 121.759 71.6992 121.903 71.6973 122.05C71.6954 122.197 71.6496 122.34 71.5657 122.46ZM66.9307 123.585C66.3757 124.5 66.2407 125.775 65.4307 125.58C64.6207 125.385 65.2057 123.555 65.6857 122.58C66.1657 121.605 66.5857 121.59 66.8707 121.665C67.0313 121.709 67.1742 121.802 67.2791 121.931C67.3841 122.06 67.4459 122.219 67.4557 122.385C67.3969 122.827 67.215 123.243 66.9307 123.585ZM55.7707 126.585C55.6057 126.975 55.5907 128.175 54.7807 128.175C54.6231 128.182 54.468 128.135 54.3402 128.042C54.2123 127.95 54.1192 127.817 54.0757 127.665C53.9964 126.616 54.3301 125.577 55.0057 124.77C55.1451 124.646 55.3202 124.569 55.5062 124.55C55.6921 124.531 55.8792 124.571 56.0407 124.665C56.4007 124.905 56.3257 125.535 55.7707 126.54V126.585ZM56.3257 130.08C57.6907 125.175 58.4707 124.455 58.9357 124.35C59.0313 124.328 59.1312 124.334 59.224 124.365C59.3168 124.397 59.3988 124.454 59.4607 124.53C59.6646 124.767 59.767 125.074 59.7457 125.385L57.7657 130.5C57.7041 130.691 57.5691 130.85 57.3904 130.941C57.2118 131.033 57.0042 131.05 56.8132 130.988C56.6223 130.926 56.4636 130.791 56.3722 130.613C56.2808 130.434 56.2641 130.226 56.3257 130.035V130.08ZM57.8257 132.345C60.7057 131.505 61.6357 131.745 61.3207 127.365C61.2157 126.12 60.9757 123.285 62.2357 123.33C63.2557 123.33 63.2857 128.07 64.8007 129.54C66.3157 131.01 68.2807 129.975 69.9307 129.54C74.4307 128.31 73.4407 126.39 73.1107 120.435L76.8907 120.135C78.5857 128.925 80.8657 122.34 82.3957 121.35C83.3707 120.735 84.2107 122.085 84.3907 123.12C84.7357 125.34 82.8907 127.77 83.2807 131.025C84.1647 135.737 85.6782 140.308 87.7807 144.615C84.4957 150.855 75.0607 156.615 70.8607 158.895C69.0907 152.475 68.9407 144.045 67.8607 144.075C62.8807 144.105 59.6107 140.34 57.7657 132.3L57.8257 132.345ZM67.6957 148.995C67.9657 151.26 69.0757 160.995 70.6957 160.185C74.7757 158.265 87.1957 150.105 88.9657 144.855C91.5907 145.455 99.7807 143.865 112.501 151.53C103.114 157.137 95.5822 165.379 90.8407 175.23C78.7057 173.73 63.6907 171.855 51.0757 178.515C54.9307 169.425 57.2407 168.525 56.1457 167.805C56.089 167.767 56.0251 167.74 55.9577 167.726C55.8904 167.713 55.821 167.713 55.7538 167.727C55.6865 167.741 55.6228 167.769 55.5665 167.808C55.5101 167.847 55.4622 167.897 55.4257 167.955C55.0357 168.54 49.5607 177.585 49.4257 179.43C47.3107 180.72 42.7957 184.02 41.4457 186.615C35.9313 186.723 30.5576 188.376 25.9357 191.385C30.4957 173.73 44.9107 159.075 67.6357 148.95L67.6957 148.995ZM28.8007 214.5C23.0707 208.5 24.3007 198.465 25.4857 192.96C40.1257 183.345 59.4757 187.455 83.0257 205.2C75.1057 208.59 40.5007 226.635 28.8007 214.5ZM42.9607 186.585C54.8707 173.4 72.0907 174.24 90.2257 176.475C85.5757 187.2 85.1707 198.525 89.0557 207.765C75.5557 197.655 59.6107 186.54 42.9607 186.54V186.585ZM110.281 221.085C95.5057 221.085 87.5707 208.11 87.7807 193.71C108.781 184.275 127.126 179.445 147.226 178.05C165.586 176.775 177.946 180.12 186.046 188.55C146.476 197.415 130.141 221.04 110.281 221.04V221.085ZM201.001 219.435C186.316 222.75 162.001 214.08 144.721 207.165C172.261 190.905 197.041 184.77 220.426 188.415C222.271 205.17 215.371 216.18 201.001 219.435ZM221.806 196.725C222.584 188.052 220.751 179.344 216.541 171.72C232.651 167.55 246.256 169.98 258.076 179.13C242.551 180.285 226.906 192.405 221.791 196.725H221.806ZM262.606 208.38C253.426 208.38 234.106 199.38 225.211 195.75C234.721 188.55 245.986 180.915 259.546 180.375C264.843 180.048 270.126 181.207 274.801 183.72C278.821 197.28 276.811 208.29 262.591 208.38H262.606Z" fill="#333232"/>
</svg>
