<svg width="56.000000" height="56.000000" viewBox="0 0 56 56" fill="none" xmlns="http://www.w3.org/2000/svg" xmlns:xlink="http://www.w3.org/1999/xlink">
	<desc>
			Created with Pixso.
	</desc>
	<defs/>
	<rect id="Frame 236" rx="28.000000" width="56.000000" height="56.000000" fill="#C5B6F1" fill-opacity="1.000000"/>
	<rect id="CaretLeft" width="32.000000" height="32.000000" transform="translate(12.000000 12.000000)" fill="#FFFFFF" fill-opacity="0"/>
	<path id="Vector" d="M32.7 37.29C32.8 37.38 32.87 37.49 32.92 37.61C32.97 37.73 33 37.86 33 38C33 38.13 32.97 38.26 32.92 38.38C32.87 38.5 32.8 38.61 32.7 38.7C32.61 38.8 32.5 38.87 32.38 38.92C32.26 38.97 32.13 39 32 39C31.86 39 31.73 38.97 31.61 38.92C31.49 38.87 31.38 38.8 31.29 38.7L21.29 28.7C21.19 28.61 21.12 28.5 21.07 28.38C21.02 28.26 20.99 28.13 20.99 28C20.99 27.86 21.02 27.73 21.07 27.61C21.12 27.49 21.19 27.38 21.29 27.29L31.29 17.29C31.48 17.1 31.73 17 32 17C32.26 17 32.51 17.1 32.7 17.29C32.89 17.48 33 17.73 33 18C33 18.26 32.89 18.51 32.7 18.7L23.41 28L32.7 37.29Z" fill="#333232" fill-opacity="1.000000" fill-rule="nonzero"/>
</svg>
