<svg width="63" height="63" viewBox="0 0 63 63" fill="none" xmlns="http://www.w3.org/2000/svg">
<path d="M61.7648 11.2313L51.7648 1.23126C51.5327 0.998822 51.2569 0.814424 50.9534 0.688614C50.6499 0.562803 50.3246 0.498047 49.9961 0.498047C49.6676 0.498047 49.3422 0.562803 49.0387 0.688614C48.7352 0.814424 48.4595 0.998822 48.2273 1.23126L18.2273 31.2313C17.9953 31.4636 17.8112 31.7394 17.6858 32.0429C17.5603 32.3464 17.4958 32.6716 17.4961 33V43C17.4961 43.6631 17.7595 44.2989 18.2283 44.7678C18.6972 45.2366 19.3331 45.5 19.9961 45.5H29.9961C30.3245 45.5003 30.6497 45.4358 30.9532 45.3104C31.2567 45.1849 31.5325 45.0008 31.7648 44.7688L61.7648 14.7688C61.9973 14.5366 62.1817 14.2609 62.3075 13.9574C62.4333 13.6539 62.4981 13.3286 62.4981 13C62.4981 12.6715 62.4333 12.3462 62.3075 12.0427C62.1817 11.7392 61.9973 11.4634 61.7648 11.2313ZM28.9617 40.5H22.4961V34.0344L42.4961 14.0344L48.9617 20.5L28.9617 40.5ZM52.4961 16.9656L46.0305 10.5L49.9961 6.53439L56.4617 13L52.4961 16.9656ZM59.9961 30.5V58C59.9961 59.3261 59.4693 60.5979 58.5316 61.5355C57.5939 62.4732 56.3222 63 54.9961 63H4.99609C3.67001 63 2.39824 62.4732 1.46056 61.5355C0.522878 60.5979 -0.00390625 59.3261 -0.00390625 58V8.00001C-0.00390625 6.67393 0.522878 5.40216 1.46056 4.46448C2.39824 3.5268 3.67001 3.00001 4.99609 3.00001H32.4961C33.1591 3.00001 33.795 3.26341 34.2639 3.73225C34.7327 4.20109 34.9961 4.83697 34.9961 5.50001C34.9961 6.16305 34.7327 6.79894 34.2639 7.26778C33.795 7.73662 33.1591 8.00001 32.4961 8.00001H4.99609V58H54.9961V30.5C54.9961 29.837 55.2595 29.2011 55.7283 28.7322C56.1972 28.2634 56.8331 28 57.4961 28C58.1591 28 58.795 28.2634 59.2639 28.7322C59.7327 29.2011 59.9961 29.837 59.9961 30.5Z" fill="#333232"/>
</svg>
