<svg width="24.000000" height="24.000000" viewBox="0 0 24 24" fill="none" xmlns="http://www.w3.org/2000/svg" xmlns:xlink="http://www.w3.org/1999/xlink">
	<desc>
			Created with Pixso.
	</desc>
	<defs/>
	<rect id="Calendar" width="24.000000" height="24.000000" fill="#FFFFFF" fill-opacity="0"/>
	<path id="Vector" d="M19.5 3L17.25 3L17.25 2.25C17.25 2.05 17.17 1.85 17.03 1.71C16.88 1.57 16.69 1.5 16.5 1.5C16.3 1.5 16.11 1.57 15.96 1.71C15.82 1.85 15.75 2.05 15.75 2.25L15.75 3L8.25 3L8.25 2.25C8.25 2.05 8.17 1.85 8.03 1.71C7.88 1.57 7.69 1.5 7.5 1.5C7.3 1.5 7.11 1.57 6.96 1.71C6.82 1.85 6.75 2.05 6.75 2.25L6.75 3L4.5 3C4.1 3 3.72 3.15 3.43 3.43C3.15 3.72 3 4.1 3 4.5L3 19.5C3 19.89 3.15 20.27 3.43 20.56C3.72 20.84 4.1 21 4.5 21L19.5 21C19.89 21 20.27 20.84 20.56 20.56C20.84 20.27 21 19.89 21 19.5L21 4.5C21 4.1 20.84 3.72 20.56 3.43C20.27 3.15 19.89 3 19.5 3ZM6.75 4.5L6.75 5.25C6.75 5.44 6.82 5.64 6.96 5.78C7.11 5.92 7.3 6 7.5 6C7.69 6 7.88 5.92 8.03 5.78C8.17 5.64 8.25 5.44 8.25 5.25L8.25 4.5L15.75 4.5L15.75 5.25C15.75 5.44 15.82 5.64 15.96 5.78C16.11 5.92 16.3 6 16.5 6C16.69 6 16.88 5.92 17.03 5.78C17.17 5.64 17.25 5.44 17.25 5.25L17.25 4.5L19.5 4.5L19.5 7.5L4.5 7.5L4.5 4.5L6.75 4.5ZM19.5 19.5L4.5 19.5L4.5 9L19.5 9L19.5 19.5ZM10.5 11.25L10.5 17.25C10.5 17.44 10.42 17.64 10.28 17.78C10.13 17.92 9.94 18 9.75 18C9.55 18 9.36 17.92 9.21 17.78C9.07 17.64 9 17.44 9 17.25L9 12.46L8.58 12.67C8.4 12.75 8.2 12.77 8.01 12.71C7.82 12.64 7.66 12.51 7.57 12.33C7.48 12.15 7.47 11.95 7.53 11.76C7.6 11.57 7.73 11.41 7.91 11.32L9.41 10.57C9.52 10.52 9.65 10.49 9.78 10.5C9.91 10.5 10.03 10.54 10.14 10.61C10.25 10.67 10.34 10.77 10.4 10.88C10.46 10.99 10.5 11.12 10.5 11.25ZM16.04 14.1L14.25 16.5L15.75 16.5C15.94 16.5 16.13 16.57 16.28 16.71C16.42 16.85 16.5 17.05 16.5 17.25C16.5 17.44 16.42 17.64 16.28 17.78C16.13 17.92 15.94 18 15.75 18L12.75 18C12.61 18 12.47 17.96 12.35 17.88C12.23 17.81 12.14 17.71 12.07 17.58C12.01 17.46 11.99 17.32 12 17.18C12.01 17.04 12.06 16.91 12.14 16.8L14.84 13.2C14.9 13.12 14.95 13.02 14.97 12.92C15 12.82 15 12.72 14.98 12.62C14.97 12.52 14.93 12.42 14.87 12.34C14.82 12.25 14.74 12.18 14.66 12.12C14.57 12.07 14.48 12.03 14.38 12.01C14.28 11.99 14.17 11.99 14.07 12.02C13.97 12.04 13.88 12.08 13.8 12.14C13.72 12.2 13.65 12.28 13.6 12.37C13.55 12.46 13.48 12.54 13.4 12.6C13.33 12.66 13.24 12.71 13.14 12.73C13.04 12.76 12.94 12.77 12.84 12.76C12.74 12.74 12.65 12.71 12.56 12.66C12.47 12.61 12.4 12.54 12.34 12.46C12.28 12.39 12.23 12.29 12.21 12.2C12.18 12.1 12.18 12 12.19 11.9C12.21 11.8 12.24 11.71 12.3 11.62C12.54 11.19 12.93 10.86 13.38 10.67C13.84 10.48 14.35 10.44 14.83 10.57C15.31 10.7 15.73 10.98 16.03 11.38C16.33 11.77 16.5 12.25 16.5 12.75C16.5 13.23 16.34 13.71 16.04 14.1Z" fill="#333232" fill-opacity="1.000000" fill-rule="nonzero"/>
</svg>
