<svg width="56" height="56" viewBox="0 0 56 56" fill="none" xmlns="http://www.w3.org/2000/svg">
<rect width="56" height="56" rx="28" fill="#C5B6F1"/>
<path d="M37.7071 36.2931C37.8 36.386 37.8737 36.4963 37.924 36.6177C37.9743 36.7391 38.0001 36.8692 38.0001 37.0006C38.0001 37.132 37.9743 37.2621 37.924 37.3835C37.8737 37.5048 37.8 37.6151 37.7071 37.7081C37.6142 37.801 37.5039 37.8747 37.3825 37.9249C37.2611 37.9752 37.131 38.0011 36.9996 38.0011C36.8682 38.0011 36.7381 37.9752 36.6167 37.9249C36.4953 37.8747 36.385 37.801 36.2921 37.7081L27.9996 29.4143L19.7071 37.7081C19.5194 37.8957 19.2649 38.0011 18.9996 38.0011C18.7342 38.0011 18.4797 37.8957 18.2921 37.7081C18.1044 37.5204 17.999 37.2659 17.999 37.0006C17.999 36.7352 18.1044 36.4807 18.2921 36.2931L26.5858 28.0006L18.2921 19.7081C18.1044 19.5204 17.999 19.2659 17.999 19.0006C17.999 18.7352 18.1044 18.4807 18.2921 18.2931C18.4797 18.1054 18.7342 18 18.9996 18C19.2649 18 19.5194 18.1054 19.7071 18.2931L27.9996 26.5868L36.2921 18.2931C36.4797 18.1054 36.7342 18 36.9996 18C37.2649 18 37.5194 18.1054 37.7071 18.2931C37.8947 18.4807 38.0001 18.7352 38.0001 19.0006C38.0001 19.2659 37.8947 19.5204 37.7071 19.7081L29.4133 28.0006L37.7071 36.2931Z" fill="#333232"/>
</svg>
