<svg width="138" height="68" viewBox="0 0 138 68" fill="none" xmlns="http://www.w3.org/2000/svg">
<rect y="1" width="58" height="58" rx="29" fill="#5BB264"/>
<path d="M28.9996 6.4375C24.3394 6.4375 19.7839 7.81942 15.909 10.4085C12.0342 12.9976 9.01412 16.6775 7.23073 20.983C5.44734 25.2885 4.98073 30.0261 5.88989 34.5968C6.79906 39.1675 9.04317 43.3659 12.3384 46.6612C15.6337 49.9565 19.8322 52.2006 24.4028 53.1098C28.9735 54.0189 33.7111 53.5523 38.0166 51.7689C42.3221 49.9855 46.0021 46.9655 48.5911 43.0906C51.1802 39.2158 52.5621 34.6602 52.5621 30C52.5555 23.7529 50.071 17.7635 45.6536 13.3461C41.2362 8.92869 35.2468 6.4441 28.9996 6.4375ZM16.7834 45.7461C18.0946 43.6954 19.9009 42.0078 22.0358 40.8389C24.1708 39.6699 26.5656 39.0572 28.9996 39.0572C31.4337 39.0572 33.8285 39.6699 35.9634 40.8389C38.0984 42.0078 39.9047 43.6954 41.2159 45.7461C37.7231 48.4625 33.4245 49.9373 28.9996 49.9373C24.5748 49.9373 20.2762 48.4625 16.7834 45.7461ZM21.7496 28.1875C21.7496 26.7536 22.1748 25.3519 22.9715 24.1596C23.7681 22.9674 24.9004 22.0381 26.2252 21.4894C27.55 20.9406 29.0077 20.7971 30.414 21.0768C31.8204 21.3565 33.1122 22.047 34.1262 23.061C35.1401 24.0749 35.8306 25.3667 36.1103 26.7731C36.3901 28.1795 36.2465 29.6372 35.6978 30.962C35.149 32.2867 34.2198 33.419 33.0275 34.2157C31.8353 35.0123 30.4336 35.4375 28.9996 35.4375C27.0768 35.4375 25.2328 34.6737 23.8731 33.314C22.5135 31.9544 21.7496 30.1103 21.7496 28.1875ZM43.8984 43.2335C41.8769 40.3042 39.0345 38.038 35.7285 36.7198C37.5044 35.3212 38.8002 33.4038 39.4359 31.2345C40.0715 29.0652 40.0153 26.7518 39.2752 24.6158C38.535 22.4799 37.1477 20.6278 35.3061 19.3169C33.4645 18.006 31.2602 17.3016 28.9996 17.3016C26.7391 17.3016 24.5348 18.006 22.6932 19.3169C20.8516 20.6278 19.4642 22.4799 18.7241 24.6158C17.984 26.7518 17.9278 29.0652 18.5634 31.2345C19.1991 33.4038 20.4949 35.3212 22.2707 36.7198C18.9648 38.038 16.1224 40.3042 14.1009 43.2335C11.5466 40.3611 9.87703 36.8115 9.29334 33.0122C8.70965 29.2128 9.2367 25.3258 10.811 21.8191C12.3853 18.3123 14.9398 15.3355 18.1668 13.2469C21.3938 11.1584 25.1557 10.0472 28.9996 10.0472C32.8435 10.0472 36.6055 11.1584 39.8325 13.2469C43.0595 15.3355 45.614 18.3123 47.1883 21.8191C48.7626 25.3258 49.2896 29.2128 48.7059 33.0122C48.1223 36.8115 46.4527 40.3611 43.8984 43.2335Z" fill="#333232"/>
<g filter="url(#filter0_d_3008_15220)">
<rect x="40" y="1" width="58" height="58" rx="29" fill="#F5F07A" shape-rendering="crispEdges"/>
<path d="M68.9996 6.4375C64.3394 6.4375 59.7839 7.81942 55.909 10.4085C52.0342 12.9976 49.0141 16.6775 47.2307 20.983C45.4473 25.2885 44.9807 30.0261 45.8899 34.5968C46.7991 39.1675 49.0432 43.3659 52.3384 46.6612C55.6337 49.9565 59.8322 52.2006 64.4028 53.1098C68.9735 54.0189 73.7111 53.5523 78.0166 51.7689C82.3221 49.9855 86.0021 46.9655 88.5911 43.0906C91.1802 39.2158 92.5621 34.6602 92.5621 30C92.5555 23.7529 90.071 17.7635 85.6536 13.3461C81.2362 8.92869 75.2468 6.4441 68.9996 6.4375ZM56.7834 45.7461C58.0946 43.6954 59.9009 42.0078 62.0358 40.8389C64.1708 39.6699 66.5656 39.0572 68.9996 39.0572C71.4337 39.0572 73.8285 39.6699 75.9634 40.8389C78.0984 42.0078 79.9047 43.6954 81.2159 45.7461C77.7231 48.4625 73.4245 49.9373 68.9996 49.9373C64.5748 49.9373 60.2762 48.4625 56.7834 45.7461ZM61.7496 28.1875C61.7496 26.7536 62.1748 25.3519 62.9715 24.1596C63.7681 22.9674 64.9004 22.0381 66.2252 21.4894C67.55 20.9406 69.0077 20.7971 70.414 21.0768C71.8204 21.3565 73.1122 22.047 74.1262 23.061C75.1401 24.0749 75.8306 25.3667 76.1103 26.7731C76.3901 28.1795 76.2465 29.6372 75.6978 30.962C75.149 32.2867 74.2198 33.419 73.0275 34.2157C71.8353 35.0123 70.4336 35.4375 68.9996 35.4375C67.0768 35.4375 65.2328 34.6737 63.8731 33.314C62.5135 31.9544 61.7496 30.1103 61.7496 28.1875ZM83.8984 43.2335C81.8769 40.3042 79.0345 38.038 75.7285 36.7198C77.5044 35.3212 78.8002 33.4038 79.4359 31.2345C80.0715 29.0652 80.0153 26.7518 79.2752 24.6158C78.535 22.4799 77.1477 20.6278 75.3061 19.3169C73.4645 18.006 71.2602 17.3016 68.9996 17.3016C66.7391 17.3016 64.5348 18.006 62.6932 19.3169C60.8516 20.6278 59.4642 22.4799 58.7241 24.6158C57.984 26.7518 57.9278 29.0652 58.5634 31.2345C59.1991 33.4038 60.4949 35.3212 62.2707 36.7198C58.9648 38.038 56.1224 40.3042 54.1009 43.2335C51.5466 40.3611 49.877 36.8115 49.2933 33.0122C48.7097 29.2128 49.2367 25.3258 50.811 21.8191C52.3853 18.3123 54.9398 15.3355 58.1668 13.2469C61.3938 11.1584 65.1557 10.0472 68.9996 10.0472C72.8435 10.0472 76.6055 11.1584 79.8325 13.2469C83.0595 15.3355 85.614 18.3123 87.1883 21.8191C88.7626 25.3258 89.2896 29.2128 88.7059 33.0122C88.1223 36.8115 86.4527 40.3611 83.8984 43.2335Z" fill="#333232"/>
</g>
<g filter="url(#filter1_d_3008_15220)">
<rect x="80" y="1" width="58" height="58" rx="29" fill="#C5B6F1" shape-rendering="crispEdges"/>
<path d="M109 6.4375C104.339 6.4375 99.7839 7.81942 95.909 10.4085C92.0342 12.9976 89.0141 16.6775 87.2307 20.983C85.4473 25.2885 84.9807 30.0261 85.8899 34.5968C86.7991 39.1675 89.0432 43.3659 92.3384 46.6612C95.6337 49.9565 99.8322 52.2006 104.403 53.1098C108.974 54.0189 113.711 53.5523 118.017 51.7689C122.322 49.9855 126.002 46.9655 128.591 43.0906C131.18 39.2158 132.562 34.6602 132.562 30C132.556 23.7529 130.071 17.7635 125.654 13.3461C121.236 8.92869 115.247 6.4441 109 6.4375ZM96.7834 45.7461C98.0946 43.6954 99.9009 42.0078 102.036 40.8389C104.171 39.6699 106.566 39.0572 109 39.0572C111.434 39.0572 113.829 39.6699 115.963 40.8389C118.098 42.0078 119.905 43.6954 121.216 45.7461C117.723 48.4625 113.424 49.9373 109 49.9373C104.575 49.9373 100.276 48.4625 96.7834 45.7461ZM101.75 28.1875C101.75 26.7536 102.175 25.3519 102.971 24.1596C103.768 22.9674 104.9 22.0381 106.225 21.4894C107.55 20.9406 109.008 20.7971 110.414 21.0768C111.82 21.3565 113.112 22.047 114.126 23.061C115.14 24.0749 115.831 25.3667 116.11 26.7731C116.39 28.1795 116.247 29.6372 115.698 30.962C115.149 32.2867 114.22 33.419 113.028 34.2157C111.835 35.0123 110.434 35.4375 109 35.4375C107.077 35.4375 105.233 34.6737 103.873 33.314C102.513 31.9544 101.75 30.1103 101.75 28.1875ZM123.898 43.2335C121.877 40.3042 119.035 38.038 115.729 36.7198C117.504 35.3212 118.8 33.4038 119.436 31.2345C120.071 29.0652 120.015 26.7518 119.275 24.6158C118.535 22.4799 117.148 20.6278 115.306 19.3169C113.464 18.006 111.26 17.3016 109 17.3016C106.739 17.3016 104.535 18.006 102.693 19.3169C100.852 20.6278 99.4642 22.4799 98.7241 24.6158C97.984 26.7518 97.9278 29.0652 98.5634 31.2345C99.1991 33.4038 100.495 35.3212 102.271 36.7198C98.9648 38.038 96.1224 40.3042 94.1009 43.2335C91.5466 40.3611 89.877 36.8115 89.2933 33.0122C88.7097 29.2128 89.2367 25.3258 90.811 21.8191C92.3853 18.3123 94.9398 15.3355 98.1668 13.2469C101.394 11.1584 105.156 10.0472 109 10.0472C112.844 10.0472 116.605 11.1584 119.832 13.2469C123.059 15.3355 125.614 18.3123 127.188 21.8191C128.763 25.3258 129.29 29.2128 128.706 33.0122C128.122 36.8115 126.453 40.3611 123.898 43.2335Z" fill="#333232"/>
</g>
<defs>
<filter id="filter0_d_3008_15220" x="27" y="0" width="71" height="68" filterUnits="userSpaceOnUse" color-interpolation-filters="sRGB">
<feFlood flood-opacity="0" result="BackgroundImageFix"/>
<feColorMatrix in="SourceAlpha" type="matrix" values="0 0 0 0 0 0 0 0 0 0 0 0 0 0 0 0 0 0 127 0" result="hardAlpha"/>
<feOffset dx="-8" dy="4"/>
<feGaussianBlur stdDeviation="2.5"/>
<feComposite in2="hardAlpha" operator="out"/>
<feColorMatrix type="matrix" values="0 0 0 0 0.0395624 0 0 0 0 0.410437 0 0 0 0 0.26279 0 0 0 0.2 0"/>
<feBlend mode="normal" in2="BackgroundImageFix" result="effect1_dropShadow_3008_15220"/>
<feBlend mode="normal" in="SourceGraphic" in2="effect1_dropShadow_3008_15220" result="shape"/>
</filter>
<filter id="filter1_d_3008_15220" x="67" y="0" width="71" height="68" filterUnits="userSpaceOnUse" color-interpolation-filters="sRGB">
<feFlood flood-opacity="0" result="BackgroundImageFix"/>
<feColorMatrix in="SourceAlpha" type="matrix" values="0 0 0 0 0 0 0 0 0 0 0 0 0 0 0 0 0 0 127 0" result="hardAlpha"/>
<feOffset dx="-8" dy="4"/>
<feGaussianBlur stdDeviation="2.5"/>
<feComposite in2="hardAlpha" operator="out"/>
<feColorMatrix type="matrix" values="0 0 0 0 0.0395624 0 0 0 0 0.410437 0 0 0 0 0.26279 0 0 0 0.2 0"/>
<feBlend mode="normal" in2="BackgroundImageFix" result="effect1_dropShadow_3008_15220"/>
<feBlend mode="normal" in="SourceGraphic" in2="effect1_dropShadow_3008_15220" result="shape"/>
</filter>
</defs>
</svg>
