<svg width="28.000000" height="28.000000" viewBox="0 0 28 28" fill="none" xmlns="http://www.w3.org/2000/svg" xmlns:xlink="http://www.w3.org/1999/xlink">
	<desc>
			Created with Pixso.
	</desc>
	<defs/>
	<path id="Vector" d="M26.23 10.25C25.76 9.74 25.27 9.22 25.08 8.76C24.92 8.34 24.91 7.64 24.89 6.96C24.88 5.7 24.85 4.28 23.89 3.29C22.93 2.29 21.55 2.27 20.33 2.25C19.67 2.24 19 2.23 18.59 2.06C18.14 1.87 17.64 1.37 17.14 0.88C16.28 0.03 15.3 -0.94 14 -0.94C12.69 -0.94 11.71 0.03 10.85 0.88C10.35 1.37 9.85 1.87 9.4 2.06C9 2.23 8.32 2.24 7.66 2.25C6.44 2.27 5.06 2.29 4.1 3.29C3.14 4.28 3.12 5.7 3.1 6.96C3.08 7.64 3.07 8.34 2.91 8.76C2.72 9.22 2.23 9.74 1.76 10.25C0.93 11.14 0 12.15 0 13.5C0 14.84 0.93 15.85 1.76 16.74C2.23 17.25 2.72 17.77 2.91 18.23C3.07 18.65 3.08 19.35 3.1 20.03C3.11 21.29 3.14 22.71 4.1 23.7C5.06 24.7 6.44 24.72 7.66 24.74C8.32 24.75 8.99 24.76 9.4 24.93C9.85 25.12 10.35 25.62 10.85 26.11C11.71 26.96 12.69 27.93 14 27.93C15.3 27.93 16.28 26.96 17.14 26.11C17.64 25.62 18.14 25.12 18.59 24.93C19 24.76 19.67 24.75 20.33 24.74C21.55 24.72 22.93 24.7 23.89 23.7C24.85 22.71 24.88 21.29 24.89 20.03C24.91 19.35 24.92 18.65 25.08 18.23C25.27 17.77 25.76 17.25 26.23 16.74C27.06 15.85 28 14.84 28 13.5C28 12.15 27.06 11.14 26.23 10.25ZM24.78 15.31C24.19 15.96 23.57 16.62 23.24 17.44C22.92 18.23 22.91 19.13 22.89 20C22.88 20.9 22.87 21.85 22.48 22.25C22.09 22.64 21.18 22.66 20.3 22.67C19.46 22.69 18.58 22.7 17.82 23.03C17.03 23.36 16.39 24 15.76 24.62C15.14 25.24 14.5 25.87 14 25.87C13.5 25.87 12.85 25.24 12.23 24.62C11.61 24.01 10.96 23.36 10.17 23.03C9.41 22.7 8.53 22.69 7.69 22.67C6.82 22.66 5.9 22.65 5.51 22.25C5.12 21.84 5.11 20.91 5.1 20C5.08 19.13 5.07 18.23 4.75 17.44C4.42 16.62 3.8 15.96 3.21 15.31C2.61 14.67 2 14.01 2 13.5C2 12.98 2.61 12.32 3.21 11.68C3.8 11.04 4.42 10.37 4.75 9.55C5.07 8.76 5.08 7.86 5.1 6.99C5.11 6.09 5.12 5.14 5.51 4.75C5.9 4.35 6.81 4.33 7.69 4.32C8.53 4.3 9.41 4.29 10.17 3.96C10.96 3.63 11.6 2.99 12.23 2.37C12.85 1.75 13.5 1.12 14 1.12C14.5 1.12 15.14 1.75 15.76 2.37C16.38 2.98 17.03 3.63 17.82 3.96C18.58 4.29 19.46 4.3 20.3 4.32C21.17 4.33 22.09 4.34 22.48 4.75C22.87 5.15 22.88 6.08 22.89 6.99C22.91 7.86 22.92 8.76 23.24 9.55C23.57 10.37 24.19 11.03 24.78 11.68C25.38 12.32 26 12.98 26 13.5C26 14.01 25.38 14.67 24.78 15.31ZM13 14.53L13 7.31C13 7.03 13.1 6.77 13.29 6.58C13.48 6.38 13.73 6.28 14 6.28C14.26 6.28 14.51 6.38 14.7 6.58C14.89 6.77 15 7.03 15 7.31L15 14.53C15 14.8 14.89 15.06 14.7 15.26C14.51 15.45 14.26 15.56 14 15.56C13.73 15.56 13.48 15.45 13.29 15.26C13.1 15.06 13 14.8 13 14.53ZM15.5 19.17C15.5 19.47 15.41 19.77 15.24 20.03C15.08 20.28 14.84 20.48 14.57 20.6C14.3 20.71 14 20.74 13.7 20.68C13.41 20.62 13.14 20.48 12.93 20.26C12.73 20.04 12.58 19.77 12.52 19.47C12.47 19.17 12.5 18.86 12.61 18.58C12.72 18.29 12.92 18.05 13.16 17.88C13.41 17.71 13.7 17.62 14 17.62C14.39 17.62 14.78 17.78 15.06 18.07C15.34 18.36 15.5 18.76 15.5 19.17Z" fill="#E56E53" fill-opacity="1.000000" fill-rule="nonzero"/>
</svg>
