<svg width="24.000000" height="25.000000" viewBox="0 0 24 25" fill="none" xmlns="http://www.w3.org/2000/svg" xmlns:xlink="http://www.w3.org/1999/xlink">
	<desc>
			Created with Pixso.
	</desc>
	<defs/>
	<rect id="EyeClosed" width="24.000000" height="25.000000" fill="#FFFFFF" fill-opacity="0"/>
	<path id="Vector" d="M21.37 17.08C21.29 17.14 21.19 17.17 21.09 17.18C21 17.19 20.9 17.19 20.8 17.16C20.71 17.13 20.62 17.08 20.54 17.02C20.46 16.96 20.4 16.88 20.35 16.79L18.57 13.55C17.53 14.28 16.39 14.83 15.18 15.18L15.73 18.62C15.75 18.72 15.75 18.82 15.73 18.92C15.7 19.02 15.66 19.11 15.6 19.2C15.55 19.28 15.47 19.35 15.39 19.41C15.31 19.46 15.21 19.5 15.12 19.51C15.08 19.52 15.04 19.53 15 19.53C14.82 19.53 14.65 19.46 14.51 19.34C14.38 19.22 14.29 19.06 14.26 18.87L13.72 15.5C12.58 15.66 11.42 15.66 10.28 15.5L9.74 18.87C9.71 19.06 9.62 19.22 9.48 19.34C9.35 19.46 9.17 19.53 9 19.53C8.95 19.53 8.91 19.52 8.87 19.51C8.77 19.5 8.68 19.46 8.6 19.41C8.51 19.35 8.44 19.28 8.39 19.2C8.33 19.11 8.29 19.02 8.26 18.92C8.24 18.82 8.24 18.72 8.25 18.62L8.81 15.18C7.6 14.83 6.46 14.28 5.43 13.55L3.65 16.79C3.55 16.97 3.39 17.1 3.2 17.16C3 17.21 2.8 17.18 2.62 17.08C2.45 16.98 2.32 16.81 2.27 16.61C2.22 16.41 2.25 16.19 2.34 16.01L4.22 12.59C3.56 12 2.96 11.35 2.41 10.64C2.34 10.56 2.29 10.47 2.26 10.37C2.23 10.27 2.21 10.16 2.22 10.05C2.23 9.95 2.26 9.84 2.31 9.75C2.35 9.66 2.42 9.58 2.5 9.51C2.58 9.44 2.67 9.39 2.77 9.36C2.87 9.34 2.97 9.33 3.07 9.34C3.17 9.36 3.27 9.39 3.36 9.45C3.44 9.5 3.52 9.58 3.58 9.66C5.14 11.67 7.86 14.06 12 14.06C16.13 14.06 18.86 11.66 20.41 9.66C20.47 9.58 20.55 9.5 20.63 9.44C20.72 9.39 20.82 9.35 20.92 9.33C21.02 9.32 21.13 9.33 21.23 9.35C21.33 9.38 21.42 9.43 21.5 9.5C21.58 9.57 21.65 9.65 21.69 9.75C21.74 9.84 21.77 9.94 21.78 10.05C21.78 10.16 21.77 10.26 21.74 10.37C21.7 10.47 21.65 10.56 21.58 10.64C21.03 11.35 20.43 12 19.77 12.59L21.65 16.01C21.69 16.1 21.73 16.2 21.74 16.3C21.75 16.4 21.75 16.51 21.72 16.61C21.7 16.71 21.65 16.8 21.59 16.88C21.53 16.96 21.46 17.03 21.37 17.08Z" fill="#333232" fill-opacity="1.000000" fill-rule="nonzero"/>
	<path id="Vector" d="M21.37 17.08C21.29 17.14 21.19 17.17 21.09 17.18C21 17.19 20.9 17.19 20.8 17.16C20.71 17.13 20.62 17.08 20.54 17.02C20.46 16.96 20.4 16.88 20.35 16.79L18.57 13.55C17.53 14.28 16.39 14.83 15.18 15.18L15.73 18.62C15.75 18.72 15.75 18.82 15.73 18.92C15.7 19.02 15.66 19.11 15.6 19.2C15.55 19.28 15.47 19.35 15.39 19.41C15.31 19.46 15.21 19.5 15.12 19.51C15.08 19.52 15.04 19.53 15 19.53C14.82 19.53 14.65 19.46 14.51 19.34C14.38 19.22 14.29 19.06 14.26 18.87L13.72 15.5C12.58 15.66 11.42 15.66 10.28 15.5L9.74 18.87C9.71 19.06 9.62 19.22 9.48 19.34C9.35 19.46 9.17 19.53 9 19.53C8.95 19.53 8.91 19.52 8.87 19.51C8.77 19.5 8.68 19.46 8.6 19.41C8.51 19.35 8.44 19.28 8.39 19.2C8.33 19.11 8.29 19.02 8.26 18.92C8.24 18.82 8.24 18.72 8.25 18.62L8.81 15.18C7.6 14.83 6.46 14.28 5.43 13.55L3.65 16.79C3.55 16.97 3.39 17.1 3.2 17.16C3 17.21 2.8 17.18 2.62 17.08C2.45 16.98 2.32 16.81 2.27 16.61C2.22 16.41 2.25 16.19 2.34 16.01L4.22 12.59C3.56 12 2.96 11.35 2.41 10.64C2.34 10.56 2.29 10.47 2.26 10.37C2.23 10.27 2.21 10.16 2.22 10.05C2.23 9.95 2.26 9.84 2.31 9.75C2.35 9.66 2.42 9.58 2.5 9.51C2.58 9.44 2.67 9.39 2.77 9.36C2.87 9.34 2.97 9.33 3.07 9.34C3.17 9.36 3.27 9.39 3.36 9.45C3.44 9.5 3.52 9.58 3.58 9.66C5.14 11.67 7.86 14.06 12 14.06C16.13 14.06 18.86 11.66 20.41 9.66C20.47 9.58 20.55 9.5 20.63 9.44C20.72 9.39 20.82 9.35 20.92 9.33C21.02 9.32 21.13 9.33 21.23 9.35C21.33 9.38 21.42 9.43 21.5 9.5C21.58 9.57 21.65 9.65 21.69 9.75C21.74 9.84 21.77 9.94 21.78 10.05C21.78 10.16 21.77 10.26 21.74 10.37C21.7 10.47 21.65 10.56 21.58 10.64C21.03 11.35 20.43 12 19.77 12.59L21.65 16.01C21.69 16.1 21.73 16.2 21.74 16.3C21.75 16.4 21.75 16.51 21.72 16.61C21.7 16.71 21.65 16.8 21.59 16.88C21.53 16.96 21.46 17.03 21.37 17.08Z" fill="#000000" fill-opacity="0.200000" fill-rule="nonzero"/>
	<path id="Vector" d="M21.37 17.08C21.29 17.14 21.19 17.17 21.09 17.18C21 17.19 20.9 17.19 20.8 17.16C20.71 17.13 20.62 17.08 20.54 17.02C20.46 16.96 20.4 16.88 20.35 16.79L18.57 13.55C17.53 14.28 16.39 14.83 15.18 15.18L15.73 18.62C15.75 18.72 15.75 18.82 15.73 18.92C15.7 19.02 15.66 19.11 15.6 19.2C15.55 19.28 15.47 19.35 15.39 19.41C15.31 19.46 15.21 19.5 15.12 19.51C15.08 19.52 15.04 19.53 15 19.53C14.82 19.53 14.65 19.46 14.51 19.34C14.38 19.22 14.29 19.06 14.26 18.87L13.72 15.5C12.58 15.66 11.42 15.66 10.28 15.5L9.74 18.87C9.71 19.06 9.62 19.22 9.48 19.34C9.35 19.46 9.17 19.53 9 19.53C8.95 19.53 8.91 19.52 8.87 19.51C8.77 19.5 8.68 19.46 8.6 19.41C8.51 19.35 8.44 19.28 8.39 19.2C8.33 19.11 8.29 19.02 8.26 18.92C8.24 18.82 8.24 18.72 8.25 18.62L8.81 15.18C7.6 14.83 6.46 14.28 5.43 13.55L3.65 16.79C3.55 16.97 3.39 17.1 3.2 17.16C3 17.21 2.8 17.18 2.62 17.08C2.45 16.98 2.32 16.81 2.27 16.61C2.22 16.41 2.25 16.19 2.34 16.01L4.22 12.59C3.56 12 2.96 11.35 2.41 10.64C2.34 10.56 2.29 10.47 2.26 10.37C2.23 10.27 2.21 10.16 2.22 10.05C2.23 9.95 2.26 9.84 2.31 9.75C2.35 9.66 2.42 9.58 2.5 9.51C2.58 9.44 2.67 9.39 2.77 9.36C2.87 9.34 2.97 9.33 3.07 9.34C3.17 9.36 3.27 9.39 3.36 9.45C3.44 9.5 3.52 9.58 3.58 9.66C5.14 11.67 7.86 14.06 12 14.06C16.13 14.06 18.86 11.66 20.41 9.66C20.47 9.58 20.55 9.5 20.63 9.44C20.72 9.39 20.82 9.35 20.92 9.33C21.02 9.32 21.13 9.33 21.23 9.35C21.33 9.38 21.42 9.43 21.5 9.5C21.58 9.57 21.65 9.65 21.69 9.75C21.74 9.84 21.77 9.94 21.78 10.05C21.78 10.16 21.77 10.26 21.74 10.37C21.7 10.47 21.65 10.56 21.58 10.64C21.03 11.35 20.43 12 19.77 12.59L21.65 16.01C21.69 16.1 21.73 16.2 21.74 16.3C21.75 16.4 21.75 16.51 21.72 16.61C21.7 16.71 21.65 16.8 21.59 16.88C21.53 16.96 21.46 17.03 21.37 17.08Z" fill="#000000" fill-opacity="0.200000" fill-rule="nonzero"/>
	<path id="Vector" d="M21.37 17.08C21.29 17.14 21.19 17.17 21.09 17.18C21 17.19 20.9 17.19 20.8 17.16C20.71 17.13 20.62 17.08 20.54 17.02C20.46 16.96 20.4 16.88 20.35 16.79L18.57 13.55C17.53 14.28 16.39 14.83 15.18 15.18L15.73 18.62C15.75 18.72 15.75 18.82 15.73 18.92C15.7 19.02 15.66 19.11 15.6 19.2C15.55 19.28 15.47 19.35 15.39 19.41C15.31 19.46 15.21 19.5 15.12 19.51C15.08 19.52 15.04 19.53 15 19.53C14.82 19.53 14.65 19.46 14.51 19.34C14.38 19.22 14.29 19.06 14.26 18.87L13.72 15.5C12.58 15.66 11.42 15.66 10.28 15.5L9.74 18.87C9.71 19.06 9.62 19.22 9.48 19.34C9.35 19.46 9.17 19.53 9 19.53C8.95 19.53 8.91 19.52 8.87 19.51C8.77 19.5 8.68 19.46 8.6 19.41C8.51 19.35 8.44 19.28 8.39 19.2C8.33 19.11 8.29 19.02 8.26 18.92C8.24 18.82 8.24 18.72 8.25 18.62L8.81 15.18C7.6 14.83 6.46 14.28 5.43 13.55L3.65 16.79C3.55 16.97 3.39 17.1 3.2 17.16C3 17.21 2.8 17.18 2.62 17.08C2.45 16.98 2.32 16.81 2.27 16.61C2.22 16.41 2.25 16.19 2.34 16.01L4.22 12.59C3.56 12 2.96 11.35 2.41 10.64C2.34 10.56 2.29 10.47 2.26 10.37C2.23 10.27 2.21 10.16 2.22 10.05C2.23 9.95 2.26 9.84 2.31 9.75C2.35 9.66 2.42 9.58 2.5 9.51C2.58 9.44 2.67 9.39 2.77 9.36C2.87 9.34 2.97 9.33 3.07 9.34C3.17 9.36 3.27 9.39 3.36 9.45C3.44 9.5 3.52 9.58 3.58 9.66C5.14 11.67 7.86 14.06 12 14.06C16.13 14.06 18.86 11.66 20.41 9.66C20.47 9.58 20.55 9.5 20.63 9.44C20.72 9.39 20.82 9.35 20.92 9.33C21.02 9.32 21.13 9.33 21.23 9.35C21.33 9.38 21.42 9.43 21.5 9.5C21.58 9.57 21.65 9.65 21.69 9.75C21.74 9.84 21.77 9.94 21.78 10.05C21.78 10.16 21.77 10.26 21.74 10.37C21.7 10.47 21.65 10.56 21.58 10.64C21.03 11.35 20.43 12 19.77 12.59L21.65 16.01C21.69 16.1 21.73 16.2 21.74 16.3C21.75 16.4 21.75 16.51 21.72 16.61C21.7 16.71 21.65 16.8 21.59 16.88C21.53 16.96 21.46 17.03 21.37 17.08Z" fill="#000000" fill-opacity="0.200000" fill-rule="nonzero"/>
	<path id="Vector" d="M21.37 17.08C21.29 17.14 21.19 17.17 21.09 17.18C21 17.19 20.9 17.19 20.8 17.16C20.71 17.13 20.62 17.08 20.54 17.02C20.46 16.96 20.4 16.88 20.35 16.79L18.57 13.55C17.53 14.28 16.39 14.83 15.18 15.18L15.73 18.62C15.75 18.72 15.75 18.82 15.73 18.92C15.7 19.02 15.66 19.11 15.6 19.2C15.55 19.28 15.47 19.35 15.39 19.41C15.31 19.46 15.21 19.5 15.12 19.51C15.08 19.52 15.04 19.53 15 19.53C14.82 19.53 14.65 19.46 14.51 19.34C14.38 19.22 14.29 19.06 14.26 18.87L13.72 15.5C12.58 15.66 11.42 15.66 10.28 15.5L9.74 18.87C9.71 19.06 9.62 19.22 9.48 19.34C9.35 19.46 9.17 19.53 9 19.53C8.95 19.53 8.91 19.52 8.87 19.51C8.77 19.5 8.68 19.46 8.6 19.41C8.51 19.35 8.44 19.28 8.39 19.2C8.33 19.11 8.29 19.02 8.26 18.92C8.24 18.82 8.24 18.72 8.25 18.62L8.81 15.18C7.6 14.83 6.46 14.28 5.43 13.55L3.65 16.79C3.55 16.97 3.39 17.1 3.2 17.16C3 17.21 2.8 17.18 2.62 17.08C2.45 16.98 2.32 16.81 2.27 16.61C2.22 16.41 2.25 16.19 2.34 16.01L4.22 12.59C3.56 12 2.96 11.35 2.41 10.64C2.34 10.56 2.29 10.47 2.26 10.37C2.23 10.27 2.21 10.16 2.22 10.05C2.23 9.95 2.26 9.84 2.31 9.75C2.35 9.66 2.42 9.58 2.5 9.51C2.58 9.44 2.67 9.39 2.77 9.36C2.87 9.34 2.97 9.33 3.07 9.34C3.17 9.36 3.27 9.39 3.36 9.45C3.44 9.5 3.52 9.58 3.58 9.66C5.14 11.67 7.86 14.06 12 14.06C16.13 14.06 18.86 11.66 20.41 9.66C20.47 9.58 20.55 9.5 20.63 9.44C20.72 9.39 20.82 9.35 20.92 9.33C21.02 9.32 21.13 9.33 21.23 9.35C21.33 9.38 21.42 9.43 21.5 9.5C21.58 9.57 21.65 9.65 21.69 9.75C21.74 9.84 21.77 9.94 21.78 10.05C21.78 10.16 21.77 10.26 21.74 10.37C21.7 10.47 21.65 10.56 21.58 10.64C21.03 11.35 20.43 12 19.77 12.59L21.65 16.01C21.69 16.1 21.73 16.2 21.74 16.3C21.75 16.4 21.75 16.51 21.72 16.61C21.7 16.71 21.65 16.8 21.59 16.88C21.53 16.96 21.46 17.03 21.37 17.08Z" fill="#000000" fill-opacity="0.200000" fill-rule="nonzero"/>
	<path id="Vector" d="M21.37 17.08C21.29 17.14 21.19 17.17 21.09 17.18C21 17.19 20.9 17.19 20.8 17.16C20.71 17.13 20.62 17.08 20.54 17.02C20.46 16.96 20.4 16.88 20.35 16.79L18.57 13.55C17.53 14.28 16.39 14.83 15.18 15.18L15.73 18.62C15.75 18.72 15.75 18.82 15.73 18.92C15.7 19.02 15.66 19.11 15.6 19.2C15.55 19.28 15.47 19.35 15.39 19.41C15.31 19.46 15.21 19.5 15.12 19.51C15.08 19.52 15.04 19.53 15 19.53C14.82 19.53 14.65 19.46 14.51 19.34C14.38 19.22 14.29 19.06 14.26 18.87L13.72 15.5C12.58 15.66 11.42 15.66 10.28 15.5L9.74 18.87C9.71 19.06 9.62 19.22 9.48 19.34C9.35 19.46 9.17 19.53 9 19.53C8.95 19.53 8.91 19.52 8.87 19.51C8.77 19.5 8.68 19.46 8.6 19.41C8.51 19.35 8.44 19.28 8.39 19.2C8.33 19.11 8.29 19.02 8.26 18.92C8.24 18.82 8.24 18.72 8.25 18.62L8.81 15.18C7.6 14.83 6.46 14.28 5.43 13.55L3.65 16.79C3.55 16.97 3.39 17.1 3.2 17.16C3 17.21 2.8 17.18 2.62 17.08C2.45 16.98 2.32 16.81 2.27 16.61C2.22 16.41 2.25 16.19 2.34 16.01L4.22 12.59C3.56 12 2.96 11.35 2.41 10.64C2.34 10.56 2.29 10.47 2.26 10.37C2.23 10.27 2.21 10.16 2.22 10.05C2.23 9.95 2.26 9.84 2.31 9.75C2.35 9.66 2.42 9.58 2.5 9.51C2.58 9.44 2.67 9.39 2.77 9.36C2.87 9.34 2.97 9.33 3.07 9.34C3.17 9.36 3.27 9.39 3.36 9.45C3.44 9.5 3.52 9.58 3.58 9.66C5.14 11.67 7.86 14.06 12 14.06C16.13 14.06 18.86 11.66 20.41 9.66C20.47 9.58 20.55 9.5 20.63 9.44C20.72 9.39 20.82 9.35 20.92 9.33C21.02 9.32 21.13 9.33 21.23 9.35C21.33 9.38 21.42 9.43 21.5 9.5C21.58 9.57 21.65 9.65 21.69 9.75C21.74 9.84 21.77 9.94 21.78 10.05C21.78 10.16 21.77 10.26 21.74 10.37C21.7 10.47 21.65 10.56 21.58 10.64C21.03 11.35 20.43 12 19.77 12.59L21.65 16.01C21.69 16.1 21.73 16.2 21.74 16.3C21.75 16.4 21.75 16.51 21.72 16.61C21.7 16.71 21.65 16.8 21.59 16.88C21.53 16.96 21.46 17.03 21.37 17.08Z" fill="#000000" fill-opacity="0.200000" fill-rule="nonzero"/>
</svg>

