<svg width="19.000000" height="10.000000" viewBox="0 0 19 10" fill="none" xmlns="http://www.w3.org/2000/svg" xmlns:xlink="http://www.w3.org/1999/xlink">
	<desc>
			Created with Pixso.
	</desc>
	<defs/>
	<path id="Vector" d="M18.37 7.08C18.29 7.14 18.19 7.17 18.09 7.18C18 7.19 17.9 7.19 17.8 7.16C17.71 7.13 17.62 7.08 17.54 7.02C17.46 6.96 17.4 6.88 17.35 6.79L15.57 3.55C14.53 4.28 13.39 4.83 12.18 5.18L12.73 8.62C12.75 8.72 12.75 8.82 12.73 8.92C12.7 9.02 12.66 9.11 12.6 9.2C12.55 9.28 12.47 9.35 12.39 9.41C12.31 9.46 12.21 9.5 12.12 9.51C12.08 9.52 12.04 9.53 12 9.53C11.82 9.53 11.65 9.46 11.51 9.34C11.38 9.22 11.29 9.06 11.26 8.87L10.72 5.5C9.58 5.66 8.42 5.66 7.28 5.5L6.74 8.87C6.71 9.06 6.62 9.22 6.48 9.34C6.35 9.46 6.17 9.53 6 9.53C5.95 9.53 5.91 9.52 5.87 9.51C5.77 9.5 5.68 9.46 5.6 9.41C5.51 9.35 5.44 9.28 5.39 9.2C5.33 9.11 5.29 9.02 5.26 8.92C5.24 8.82 5.24 8.72 5.25 8.62L5.81 5.18C4.6 4.83 3.46 4.28 2.43 3.55L0.65 6.79C0.55 6.97 0.39 7.1 0.2 7.16C0 7.21 -0.2 7.18 -0.38 7.08C-0.55 6.98 -0.68 6.81 -0.73 6.61C-0.78 6.41 -0.75 6.19 -0.66 6.01L1.22 2.59C0.56 2 -0.04 1.35 -0.59 0.64C-0.66 0.56 -0.71 0.47 -0.74 0.37C-0.77 0.27 -0.79 0.16 -0.78 0.05C-0.77 -0.05 -0.74 -0.16 -0.69 -0.25C-0.65 -0.34 -0.58 -0.42 -0.5 -0.49C-0.42 -0.56 -0.33 -0.61 -0.23 -0.64C-0.13 -0.66 -0.03 -0.67 0.07 -0.66C0.17 -0.64 0.27 -0.61 0.36 -0.55C0.44 -0.5 0.52 -0.42 0.58 -0.34C2.14 1.67 4.86 4.06 9 4.06C13.13 4.06 15.86 1.66 17.41 -0.34C17.47 -0.42 17.55 -0.5 17.63 -0.56C17.72 -0.61 17.82 -0.65 17.92 -0.67C18.02 -0.68 18.13 -0.67 18.23 -0.65C18.33 -0.62 18.42 -0.57 18.5 -0.5C18.58 -0.43 18.65 -0.35 18.69 -0.25C18.74 -0.16 18.77 -0.06 18.78 0.05C18.78 0.16 18.77 0.26 18.74 0.37C18.7 0.47 18.65 0.56 18.58 0.64C18.03 1.35 17.43 2 16.77 2.59L18.65 6.01C18.69 6.1 18.73 6.2 18.74 6.3C18.75 6.4 18.75 6.51 18.72 6.61C18.7 6.71 18.65 6.8 18.59 6.88C18.53 6.96 18.46 7.03 18.37 7.08Z" fill="#333232" fill-opacity="1.000000" fill-rule="nonzero"/>
</svg>
