<svg width="320.000000" height="332.000000" viewBox="0 0 320 332" fill="none" xmlns="http://www.w3.org/2000/svg" xmlns:xlink="http://www.w3.org/1999/xlink">
	<desc>
			Created with Pixso.
	</desc>
	<defs/>
	<path id="Vector" d="M108.75 253C111.64 251.97 114.6 251.16 117.61 250.56L117.97 251.9C118.01 252.06 118.11 252.2 118.24 252.29C118.38 252.38 118.54 252.43 118.7 252.41L130.61 251.02C133.89 243.52 139.91 232.16 140 231.98C139.91 229.15 140 226.77 140 224.05C133.18 226.59 120.57 231.41 113.99 234.49C113.84 234.59 113.72 234.73 113.66 234.89C113.59 235.06 113.58 235.24 113.62 235.41C113.62 235.41 113.74 235.85 113.9 236.47C110.67 236.47 101.01 236 98.69 238.21C98.33 238.72 98.15 239.33 98.19 239.95C98.05 242.35 99.25 261 101.15 266.48C102.14 269.35 104.22 269.04 105.64 266.29C107.29 262.15 108.35 257.8 108.78 253.36C108.78 253.14 108.73 253.16 108.75 253ZM106.75 237.43C108.87 237.26 109.53 237.29 114.07 237.15C114.89 240.25 116.57 246.61 117.44 249.87C114.38 250.34 111.36 251.05 108.4 251.97C107.48 247.18 106.93 242.31 106.75 237.43Z" fill="#333232" fill-opacity="1.000000" fill-rule="nonzero"/>
	<path id="Vector" d="M269.5 84.63C269.93 84.01 269.37 83.23 268.9 82.62C270.24 81.25 271.72 80.02 273.32 78.97C276.03 77.62 278.5 75.86 280.65 73.73C281.54 72.81 283.21 70.91 282.58 69.79C281.96 68.67 280.84 68.6 279.32 69.25C279.98 68.56 280.51 67.76 280.91 66.89C281.4 65.53 280.24 64.43 277.74 65.44C278.65 63.99 278.86 62.47 277.32 61.74C276.08 61.15 274.27 62.56 273.22 63.49C271.16 65.28 269.23 67.22 267.43 69.28C266.33 66.98 264.59 64.33 262.4 65.16C260.22 66 261.91 69.75 263.03 71.8L259.06 74.54C258.46 74.21 257.79 74.06 257.11 74.1C252.6 74.87 231.89 90.61 229.79 90.61C228.18 90.61 205.22 79.62 185.37 76.44C185.33 76.32 185.26 76.21 185.17 76.13C185.07 76.05 184.95 76 184.83 75.99C181.37 75.4 177.86 75.13 174.34 75.2C174.24 75.21 174.13 75.24 174.04 75.29C173.95 75.34 173.87 75.41 173.8 75.5L172.33 75.5C171.98 74.08 170.69 70.82 170.24 69.56C171.43 68.53 173.07 68.01 173.92 66.35C175.5 63.28 175.43 57.94 174.99 54.51C176.96 53.01 177.02 50.6 176.56 48.14C176.39 47.15 175.85 44.9 175.01 44.34C174.54 44.02 173.54 44.34 172.68 44.65C171.83 42.66 171.83 43.57 172.18 42.77C172.34 42.4 172.43 42 172.46 41.6C173.38 41.88 175.3 40.03 174.64 37.58C174.29 36.71 173.87 35.87 173.37 35.07C173.61 34.48 174.13 33.76 172.49 31.58C171.78 30.82 170.87 30.28 169.85 30.04L169.05 30.04C168.47 29.2 167.62 28.58 166.64 28.3C165.16 27.92 163.59 28.14 162.27 28.91C161.92 29.17 161.64 29.52 161.29 29.76C160.5 29.28 159.59 29.03 158.67 29.03C157.74 29.03 156.84 29.28 156.05 29.76C155.58 29.94 155.16 30.22 154.81 30.57C154.45 30.91 154.17 31.33 153.99 31.79C153.13 31.49 152.22 31.38 151.32 31.45C150.42 31.53 149.54 31.79 148.74 32.22C145.72 33.86 143.47 36.61 142.45 39.89C142.42 40.38 142.42 40.88 142.45 41.37L142.26 41.37C139.64 40.99 136.3 47.2 138.97 52.04C139.29 52.61 139.69 53.15 140.07 53.78C141.19 55.53 140.76 56.05 143.25 58.18C143.99 58.81 144.11 58.76 144.57 59.14C145.02 59.52 144.85 59.33 145.11 60.31C145.25 60.89 145.51 61.43 145.86 61.9C146.21 62.38 146.66 62.78 147.17 63.08C147.36 64.79 148.08 66.4 149.25 67.66C149.62 68.07 150.05 68.42 150.53 68.71C150.65 68.78 150.8 68.82 150.94 68.83C151.47 72.08 152.12 76.3 152.39 78.1L150.84 78.93C148.8 79.75 146.83 80.7 144.92 81.78C144.77 81.88 144.66 82.04 144.62 82.22C142.77 83.19 141.02 84.12 140.02 84.71C126.15 92.93 86.74 147.13 86.34 149.61C86.29 149.75 86.29 149.91 86.34 150.05C86.9 150.95 87.59 151.77 88.38 152.48C88.14 152.92 87.85 153.34 87.51 153.71C84.01 156 78.77 159.41 75.96 162.44C75.76 162.62 75.61 162.84 75.53 163.09C75.44 163.34 75.43 163.61 75.48 163.87C75.53 164.13 75.65 164.37 75.82 164.57C75.99 164.77 76.22 164.92 76.46 165.01C76.99 165.18 77.08 165.13 80.48 163.26C79.55 164.08 78.78 165.08 78.23 166.2C78 167.16 78.88 167.71 79.98 167.54C80.6 167.38 81.19 167.12 81.72 166.77C81.41 167.26 81.24 167.83 81.24 168.4C81.24 168.98 81.41 169.55 81.72 170.04C83.47 172.24 88.05 165.31 90.46 163.6C91.44 164.84 92.77 167.73 94.88 166.96C96.72 166.28 94.71 162.25 94.88 161.08C95.59 160.4 96.35 159.77 97.16 159.2C98.5 160.19 100.05 160.9 101.68 161.27C104.57 161.27 134.66 130.93 136.95 128.51C136.13 136.22 131.98 169.34 132.86 175.78C133.26 178.69 140.27 179.11 143.22 179.27C142.33 200.22 141.74 231.95 141.58 232.28C136.95 242.25 135.69 244.97 134.13 247.99C131.3 253.4 119.38 273.37 118.04 277.91C117.85 278.63 117.83 278.91 118.58 280.23C116.33 282.6 114.24 285.11 112.32 287.76C111.36 289.5 115.49 305.77 118.41 311.53C119.07 312.82 120.15 314.81 121.6 314.76C125.97 314.6 125.95 298.93 125.83 294.55C125.83 294.41 125.78 294.28 125.69 294.18C126.48 293 127.35 291.87 128.28 290.79C128.83 291.18 129.42 291.51 130.03 291.81C130.62 292.07 131.28 291.61 131.77 291.21C137.59 286.64 168.98 247.57 175.71 229.14C178.76 220.73 182.84 209.1 183.99 200.86C184.7 195.65 184.76 190.38 184.18 185.15C184.18 185.08 184.21 185.01 184.26 184.95C184.32 184.9 184.39 184.87 184.46 184.87C184.54 184.87 184.61 184.9 184.66 184.95C184.71 185.01 184.74 185.08 184.74 185.15C185.62 190.41 185.79 195.76 185.25 201.05C183.96 212.49 174.92 236.32 170.1 245.08C174.26 244.31 182.71 242.63 186.8 241.41C200.43 237.27 213.02 224.93 214.12 211.07C214.47 204.54 214.47 198 214.12 191.47C214 182.46 212.83 173.49 210.62 164.75C214.33 162.74 217.72 160.38 218.82 158.22C221.18 153.59 214.94 126.97 213.58 119.5C221.04 120.32 233.74 121.81 239.67 117.18C246.45 111.73 261.09 96.41 269.5 84.63ZM124.89 293.59C121.74 291.68 117.34 287.16 116.68 283.62C117.39 282.71 118.14 281.87 118.84 280.93C121.21 284.54 124.16 287.73 127.58 290.37C126.62 291.39 125.72 292.46 124.89 293.59ZM263.82 72.28C263.91 72.23 263.97 72.14 264 72.03C264.02 71.93 264.01 71.82 263.96 71.73C263.34 70.59 261.51 66.59 262.79 66.14C263.52 65.86 264.17 66.32 264.71 66.92C265.53 67.97 266.18 69.15 266.61 70.42C266.64 70.52 266.7 70.61 266.79 70.68C266.87 70.75 266.96 70.8 267.07 70.82C267.18 70.84 267.29 70.83 267.39 70.79C267.49 70.76 267.58 70.69 267.64 70.61C269.39 68.67 273.48 64.25 275.79 63.07C277.53 62.16 277.95 63.84 273.67 67.75C272.69 68.5 271.74 69.29 270.84 70.14C270.79 70.21 270.76 70.29 270.76 70.37C270.76 70.46 270.79 70.54 270.84 70.61C270.84 71.06 271.21 71.57 271.84 71.1C273.36 69.76 274.96 68.54 276.64 67.41C277.5 66.81 278.5 66.42 279.54 66.3C279.02 67.9 274.14 72.27 273.72 72.75C273.59 72.87 273.51 73.04 273.5 73.22C273.49 73.4 273.55 73.57 273.66 73.71C273.78 73.84 273.95 73.93 274.12 73.94C274.3 73.96 274.48 73.9 274.62 73.79C276.56 72.53 279.95 69.6 281.12 70.03C282.29 70.47 278.81 73.72 277.94 74.48C272.92 78.83 274.21 76.04 268.41 81.94C265.89 79.17 262.99 76.78 259.8 74.82L263.82 72.28ZM187.89 155.77C187.59 153.37 187.22 150.77 186.77 148.06L187.52 147.06C191.02 142.58 192.06 135.44 191.73 129.84C193.6 138.02 195.09 146.07 196.22 154.06L187.89 155.77ZM161.9 96.01C157.31 92.51 149.91 86.49 145.61 82.37L152.6 78.88C159.02 84.87 164.52 91.78 168.91 99.38C175.62 111.7 180.6 124.88 183.71 138.56L158.79 103.35L162.04 96.62C162.08 96.51 162.09 96.4 162.07 96.29C162.04 96.18 161.99 96.08 161.9 96.01ZM173.71 76.21C173.82 76.4 175.03 78.97 176.86 83.46C176.86 83.65 176.53 88.01 176.37 89.55C174.14 88.66 172.04 87.49 170.11 86.06C170.5 84.54 172.23 77.64 172.35 76.09L173.71 76.21ZM167.51 94.96C167.63 94.65 167.76 94.23 167.9 93.74L169.07 94.35C169.73 94.78 169.47 93.46 170.06 97.3C170.06 97.94 170.24 98.66 170.27 99.45C169.47 98 168.47 96.44 167.53 94.96L167.51 94.96ZM166.53 93.49C163.23 88.82 159.47 84.48 155.31 80.54L168.47 86.25C167.97 87.45 167.23 91.14 166.55 93.49L166.53 93.49ZM179.97 103.72C178.22 98.96 176.88 93.63 176.21 92.24C176.25 91.8 176.25 91.36 176.21 90.93C176.47 91.02 176.73 91.08 177 91.1C177.17 91.1 177.33 91.04 177.46 90.93C177.59 90.83 177.67 90.67 177.7 90.51C177.84 89.93 178.07 87.02 178.1 86.37C183.18 99.19 187.43 112.33 190.81 125.7C180.93 104.72 182.45 110.79 179.99 103.72L179.97 103.72ZM194.42 137.04C190.44 117.97 183.43 94.17 175.46 76.54C178.39 76.55 181.31 76.78 184.2 77.24C185.69 90.51 184.44 90.05 185.44 90.58C186.44 91.1 192.43 93.51 193.32 93.88C193.23 95.22 194.49 133.66 194.44 137.04L194.42 137.04ZM174.31 45.46C175.22 47.44 175.54 49.65 175.24 51.81C175.09 52.36 174.8 52.86 174.39 53.25C173.98 53.65 173.47 53.92 172.91 54.04C172.36 54.16 171.78 54.13 171.24 53.94C170.7 53.75 170.23 53.42 169.87 52.98C169.04 51.22 168.41 49.38 168 47.48C168.47 46.87 173.5 45.65 174.31 45.46ZM150.26 62.91C149.62 62.62 148.97 62.36 148.31 62.14C147.86 61.96 147.46 61.68 147.14 61.32C146.82 60.95 146.59 60.52 146.46 60.06C146.33 59.59 146.31 59.11 146.4 58.63C146.49 58.16 146.69 57.71 146.98 57.33C148.08 56.4 149.07 56.45 149.98 57.83C150.56 58.9 150.54 58.98 150.8 59.09C150.88 59.12 150.96 59.14 151.04 59.14C151.13 59.14 151.21 59.12 151.28 59.08C151.36 59.05 151.42 59 151.48 58.94C151.53 58.87 151.57 58.8 151.59 58.72C151.85 57.63 151.89 56.5 151.71 55.39C151.5 54.18 151.47 48.84 151.5 48.67C152.01 48.94 152.59 49.06 153.16 49.03C156.33 48.91 156.96 47.29 158.21 45.96C159.66 46.1 159.96 46.8 161.6 45.96C162.37 45.52 163.08 44.98 163.7 44.36C164.2 44.56 164.69 44.81 165.15 45.09C166.2 45.59 167.38 45.75 168.52 45.53C169.66 45.31 170.71 44.74 171.5 43.88C171.69 44.25 171.86 44.62 172.02 45C170.41 45.5 168.9 46.26 167.55 47.25C167.25 47.62 167.69 49.61 167.79 50.08C166.33 50.26 164.91 50.72 163.61 51.42C163.35 50.52 162.78 48.82 161.87 48.35C161.59 48.27 161.3 48.27 161.03 48.35C159.45 48.6 153.81 50.29 153.13 51.22C152.53 51.86 154.23 56.85 154.75 57.67C156.76 60.78 162.65 59.87 163.75 56.24C164.03 55.02 164.03 53.76 163.75 52.54C164.26 52.54 165.78 52 165.96 51.95C167.16 54.66 167.51 54.81 168.91 57.73C168.72 57.88 168.4 58.15 168.14 58.32C166.9 59.14 166.64 59 166.71 59.35C166.73 59.42 166.77 59.48 166.83 59.52C166.89 59.56 166.97 59.57 167.04 59.56C167.77 59.45 168.49 59.25 169.17 58.97C169.58 58.81 169.92 58.51 170.11 58.13C170.6 57.03 167.9 52.89 166.83 51.65C167.04 51.65 167.53 51.3 167.9 51.11C168.38 53.07 168.72 54.6 170.6 55.37C171.15 55.58 171.73 55.67 172.31 55.65C172.9 55.62 173.47 55.48 173.99 55.23C174.27 58.3 174.22 63.29 172.75 66.02C172 67.43 170.15 67.97 168.96 69.14C168.61 69.47 168.84 69.95 168.96 70.45C170.9 75.84 170.94 75.83 170.83 76.53C170.32 79.42 169.6 82.28 168.68 85.08C168.24 84.89 163.33 82.29 153.72 78.55C153.42 76.58 151.84 66.05 151.33 64.12C151.36 63.43 151.28 63.28 150.26 62.82L150.26 62.91ZM162.5 55.79C161.94 57.69 159.3 58.51 157.41 57.99C155.52 57.46 155.4 56.5 154.51 54.24C154.09 53.37 153.8 52.44 153.65 51.5C154.23 50.87 160.54 49.58 161.32 49.45C162.43 51.34 162.84 53.55 162.5 55.7L162.5 55.79ZM94.11 160.59C93.45 161.24 94.34 163.35 94.48 165.18C94.48 165.34 94.48 166.02 94.38 166.07C93.42 166.39 92.52 164.94 91.98 164.07C91.44 163.19 90.9 162.01 90.04 162.32C88.3 163.14 84.24 168.52 82.65 169.08C81.85 167.54 86.44 163.16 86.6 162.91C86.67 162.8 86.7 162.67 86.7 162.54C86.7 162.41 86.67 162.28 86.6 162.17C86.53 162.06 86.43 161.97 86.31 161.91C86.2 161.85 86.07 161.82 85.94 161.83C85.62 161.83 85.41 162.11 84.92 162.55C83.43 164 81.73 165.21 79.87 166.14C81.56 164.21 83.36 162.39 85.27 160.68C85.37 160.58 85.43 160.46 85.46 160.33C85.46 160.33 85.1 159.41 84.38 159.77C83.37 160.33 78.44 163.17 76.88 163.91C76.67 163.77 76.8 163.56 76.88 163.35C79.35 160.33 84.77 156.67 88.09 154.34C88.48 153.94 88.8 153.48 89.05 152.98C91.35 155.12 93.8 157.09 96.39 158.86C95.59 159.39 94.83 159.96 94.11 160.59ZM134.78 176.46C134.39 176.22 134.12 175.99 134.06 175.68C133.1 168.55 138.45 128.19 138.36 126.61C138.36 126.51 138.34 126.42 138.31 126.34C138.27 126.25 138.22 126.17 138.15 126.11C138.08 126.04 138 125.99 137.92 125.96C137.83 125.92 137.74 125.91 137.64 125.91C136.75 125.91 138.33 125.91 116.06 147.2C114.6 148.58 103.38 159.3 101.51 160.02C98.94 159.83 89.27 152.13 87.7 149.7C90.74 143.56 127.62 93 140.37 85.27C141.35 84.68 143.03 83.75 144.86 82.77C145.5 83.37 146.18 83.92 146.91 84.4C150.96 88.24 156.61 93.02 160.89 96.62L157.55 103.23C157.5 103.32 157.47 103.42 157.47 103.52C157.47 103.62 157.5 103.72 157.55 103.81C184.65 142.65 184.25 142.21 184.43 142.21C186.16 151.19 187.24 160.28 187.66 169.41C187.66 171.87 187.66 171.66 187.76 171.49C187.87 171.31 187.76 171.61 187.76 171.61C183.54 176.22 141.68 180.51 134.78 176.46ZM231.38 118.63C223.47 119.73 214.52 118.09 212.79 118.02C211.83 113.36 209.91 108.96 207.16 105.08C207.12 105.03 207.06 104.99 206.99 104.98C206.92 104.96 206.85 104.98 206.79 105.01C206.73 105.05 206.69 105.11 206.67 105.18C206.65 105.25 206.66 105.32 206.69 105.38C207.7 107.44 211.09 116.33 211.93 118.49C211.67 119.33 219.83 153.03 217.52 157.57C215.46 161.67 203.46 166.84 199.12 168.33C198.27 158.61 196.87 148.94 194.93 139.38C195.52 134.36 194.75 104.47 194.53 93.42C194.52 93.29 194.48 93.17 194.4 93.07C194.33 92.96 194.23 92.88 194.11 92.83L186.26 89.53C186.23 85.38 185.96 81.24 185.48 77.12C205.07 80.51 227.89 91.69 229.79 91.71C232.55 91.71 253.07 76 257.32 75.37C259.2 75.08 267.31 82.15 268.26 84.1C259.97 95.66 245.42 110.85 238.67 116.1C236.5 117.55 233.99 118.42 231.38 118.63Z" fill="#333232" fill-opacity="1.000000" fill-rule="nonzero"/>
	<path id="Vector" d="M160.89 52.57C160.87 52.46 160.83 52.35 160.76 52.25C160.7 52.15 160.62 52.07 160.52 52C160.42 51.94 160.31 51.89 160.2 51.87C160.09 51.84 159.97 51.84 159.85 51.86C159.74 51.89 159.63 51.93 159.53 52C159.43 52.06 159.35 52.14 159.28 52.24C159.22 52.33 159.17 52.44 159.15 52.56C159.12 52.67 159.12 52.79 159.14 52.91C159.49 54.65 159.56 55.05 160.33 55.05C160.48 55.06 160.62 55.02 160.75 54.95C160.88 54.88 160.99 54.78 161.07 54.66C161.15 54.54 161.2 54.4 161.21 54.25C161.22 54.11 161.2 53.96 161.14 53.83C161.09 53.55 160.93 52.73 160.89 52.57ZM166.24 64.14C167.38 64.48 168.46 63.93 168.43 63.65C168.39 63.37 168.43 63.51 166.89 62.94C165.86 62.55 164.72 61.19 164.32 61.4C163.92 61.61 164.53 62.73 164.67 62.94C165.04 63.5 165.6 63.93 166.24 64.14ZM198.23 47.54C195.93 57.13 194.26 65.28 193.98 66.91C193.79 67.61 193.75 68.35 193.87 69.07C194.8 71.05 206.78 74.94 208.3 74.17C209.82 73.41 213.77 64.51 218.37 55.33C221.19 55.42 224 55.22 226.78 54.72C229.7 54.19 232.54 53.29 235.24 52.05C241.15 49.32 247.62 37.65 248.5 31.77C249.15 25.4 247.8 18.98 244.63 13.4C229.96 -12.03 186.93 1.66 190.43 29.9C191.43 36.37 194.12 42.45 198.23 47.54ZM208.89 68.35C208.89 68.64 208.58 68.6 207.14 68.35C204.21 67.99 201.37 67.08 198.77 65.68C197.54 65.02 197.21 64.88 197.33 64.58C197.46 64.28 197.72 64.39 199.61 64.91C199.78 64.91 205.2 66.66 206.76 67.2C208.77 68.11 208.89 68.11 208.89 68.35ZM208.58 39.92C210.44 40.01 212.3 39.63 213.98 38.8C215.54 39.55 217.22 40.01 218.95 40.15C216.01 45.62 210.05 56.77 208.12 62.71L200.71 60.66C202.46 56.36 206.32 46.3 208.54 39.92L208.58 39.92ZM207.96 38.47C206.66 38.27 205.45 37.65 204.54 36.7C203.62 35.76 203.03 34.53 202.88 33.22C202.39 29.73 204.63 25.81 208 26.74C210.12 27.32 210.38 28.99 210.01 31.11C209.7 32.65 208.56 36.51 207.93 38.4L207.96 38.47ZM212.72 34.27C212.91 33.13 213.34 32.04 213.98 31.07C214.29 30.55 214.73 30.12 215.27 29.83C215.81 29.55 216.42 29.42 217.02 29.47C218.32 29.85 218.88 32.3 217.81 33.83C216.78 35.19 215.51 36.35 214.05 37.23C213.55 36.93 213.15 36.49 212.9 35.96C212.66 35.43 212.58 34.84 212.69 34.27L212.72 34.27ZM196.65 12.06C204.49 2.64 219.23 -1.1 229.87 2.78C235.66 4.76 240.52 8.78 243.57 14.08C246.58 19.39 247.87 25.5 247.26 31.56C246.45 37 240.26 48.29 234.82 50.79C229.85 53.06 224.43 54.16 218.96 54C218.37 54 217.74 54 217.51 54.42C216.48 56.52 214.59 60.58 212.74 64.39C211.46 63.77 210.13 63.25 208.77 62.85C210.8 57.05 217.2 45.65 220.24 40.13C222.88 40.35 225.53 39.9 227.93 38.8C228.58 38.46 229.12 37.94 229.49 37.3C229.85 36.66 230.03 35.93 229.99 35.2C229.96 34.46 229.71 33.75 229.29 33.16C228.87 32.55 228.28 32.09 227.6 31.81C224.89 30.48 222.46 33.66 221.04 36.33C220.66 37.03 220.22 37.85 219.73 38.78C218.32 38.69 216.92 38.4 215.59 37.92C216.92 36.99 218.1 35.86 219.09 34.57C219.64 33.73 219.92 32.75 219.89 31.75C219.86 30.74 219.52 29.78 218.91 28.98C218.44 28.42 217.78 28.07 217.05 27.97C216.33 27.87 215.6 28.03 214.99 28.43C213.77 29.19 212.79 30.28 212.17 31.57C211.55 32.87 211.31 34.32 211.5 35.74C211.69 36.54 212.12 37.27 212.74 37.82C211.59 38.3 210.36 38.53 209.12 38.52C209.82 36.46 210.95 32.73 211.25 31.21C211.44 30.35 211.48 29.45 211.37 28.58C211.24 27.82 210.89 27.12 210.36 26.56C209.84 26 209.16 25.6 208.42 25.41C204.17 24.2 201.04 28.91 201.65 33.29C201.83 34.87 202.5 36.34 203.58 37.5C204.65 38.66 206.08 39.44 207.63 39.73C205.39 46.02 201.9 56.17 200.15 60.51L196.3 59.51C198.77 47.14 199.06 47.43 198.71 47.28C194.74 42.21 192.2 36.18 191.35 29.8C190.94 26.63 191.2 23.42 192.11 20.36C193.03 17.31 194.57 14.48 196.65 12.06ZM220.92 38.89C222.15 36.67 224.59 31.81 226.97 33C227.45 33.19 227.86 33.5 228.17 33.91C228.48 34.33 228.67 34.81 228.72 35.32C228.69 38.4 223.89 38.94 220.85 38.89L220.92 38.89ZM287.86 46.59C289.96 45.36 292.45 44.93 294.85 45.41C297.49 45.45 300 46.51 301.88 48.35C303.77 50.19 304.87 52.68 304.98 55.32C303.39 54.4 301.54 54.05 299.73 54.34C295.34 54.72 289.6 57.1 290.37 61.33C291 64.83 295.62 64.35 299.12 63.41C302.61 62.47 305.39 60.75 306.11 57.38C310.36 60.47 311.36 65.89 311.53 71.19C311.53 71.26 311.56 71.33 311.61 71.38C311.67 71.44 311.74 71.47 311.81 71.47C311.89 71.47 311.96 71.44 312.01 71.38C312.06 71.33 312.09 71.26 312.09 71.19C312.21 65.26 311.15 59.46 306.3 56.08C306.35 54.57 306.1 53.06 305.54 51.64C304.99 50.23 304.16 48.94 303.09 47.85C302.03 46.77 300.76 45.91 299.35 45.34C297.95 44.76 296.44 44.48 294.92 44.5C292.49 44.14 290.02 44.65 287.93 45.93C287.28 46.25 287.58 46.72 287.86 46.59ZM303.8 59.13C301.83 61.71 296.23 63.06 293.64 62.62C292.68 62.47 291.9 62.06 291.69 61.07C291.06 57.57 297.09 55.67 300.69 55.54C302.16 55.43 303.62 55.81 304.85 56.61C304.72 57.52 304.36 58.39 303.8 59.13ZM279.85 26.16C281.72 23.85 280.46 19.83 275.23 19.82C273.2 19.82 272.22 21.88 272.36 23.85C272.68 28.56 277.98 28.42 279.85 26.16ZM273.59 23.77C273.59 22.61 274.13 21.11 275.34 21.13C278.15 21.13 279.45 22.44 279.45 23.89C279.38 27.19 273.36 28.91 273.59 23.77ZM272.87 221.92C257.5 215.79 250.37 245.48 237.81 271C237.73 272.07 237.77 273.15 237.92 274.22C237.92 276.89 238.21 294.6 239.77 296.61C240.19 297.41 241.96 296.61 242.78 296.1C249.76 291.78 256.34 286.85 262.43 281.35C262.48 281.29 262.52 281.22 262.55 281.15C262.57 281.07 262.58 280.99 262.57 280.91C265.82 276.28 278.01 252.16 280.97 240.06C283.03 231.5 280.98 225.12 272.87 221.92ZM278.36 244.12C270.13 243.07 262.18 240.47 254.91 236.46C259.01 228.72 264.06 219.89 272.4 223.22C281.68 226.9 281.49 234.54 278.36 244.07L278.36 244.12ZM249.27 289.56C248.73 289.11 248.14 288.73 247.52 288.41C245.15 287.21 242.42 286.95 239.88 287.68C239.7 285.6 238.7 272.07 238.7 271.94C251.8 276.73 247.76 274.66 260.74 281.1C259.37 282.4 254.25 285.98 249.27 289.53L249.27 289.56ZM258.29 238.98C259.99 239.91 261.74 240.76 263.53 241.52C259.53 247.81 255.98 254.39 252.94 261.2C250 267.33 250.11 267.3 247.12 273.99C245.37 273.43 243.62 272.91 241.87 272.38C243.76 268.62 257.19 241.15 258.29 238.95L258.29 238.98ZM247.8 274.17C253.48 263.98 259.27 251.3 264.23 241.74C265.98 242.48 267.73 243.07 269.48 243.6C268.55 245.34 265.84 249.99 265.13 251.34C264.41 252.68 257.22 266.84 256.71 267.93C255.91 269.67 253.71 274.55 253.03 276.1C251.24 275.32 249.53 274.72 247.73 274.13L247.8 274.17ZM253.65 276.33C254.72 274.39 259.11 266.25 259.65 265.2C260.47 263.57 269.64 244.85 270.14 243.77C271.75 244.22 273.45 244.61 274.53 244.82C271.33 253.56 262.12 270.39 258.79 278.69C255.77 277.28 255.09 276.93 253.58 276.3L253.65 276.33ZM254.72 236.97L257.85 238.72C251.54 249.46 246.05 260.65 241.41 272.21L238.79 271.4C248.95 249.77 249.42 246.93 254.65 236.94L254.72 236.97ZM261.93 280.21L259.29 278.95C262.14 273.36 271.05 259.01 275.13 244.94C276.11 245.12 277.07 245.27 277.99 245.4C273.5 257.38 268.11 269.01 261.85 280.18L261.93 280.21ZM207.14 291.56C207.84 290.98 208.34 290.2 208.57 289.32C208.8 288.45 208.74 287.52 208.42 286.68C208.27 285.46 207.71 284.33 206.84 283.47C205.96 282.61 204.81 282.08 203.59 281.96C202.37 281.84 201.15 282.13 200.12 282.8C199.09 283.47 198.31 284.47 197.93 285.63C195.69 284.18 193.26 282.64 190.93 281.18C192.68 278.85 197.82 279.88 198.35 281.79C198.36 281.86 198.4 281.93 198.46 281.97C198.52 282.01 198.6 282.03 198.67 282.02C198.75 282.01 198.81 281.97 198.86 281.91C198.9 281.85 198.92 281.77 198.91 281.7C198.64 278.66 192.32 276.87 189.76 280.46C187.51 279.08 184.71 277.4 182.37 276.12C184.38 274.37 188.87 275.35 189.36 277.17C189.38 277.23 189.43 277.29 189.49 277.32C189.54 277.35 189.61 277.36 189.68 277.35C189.74 277.34 189.8 277.3 189.84 277.25C189.88 277.2 189.9 277.13 189.9 277.07C189.67 274.24 183.82 272.33 181.16 275.44C180.05 274.82 178.87 274.3 177.66 273.9C177.44 273.81 177.2 273.78 176.96 273.83C176.73 273.87 176.51 273.98 176.33 274.15C171.91 279.65 156.99 293.95 150.1 295.61C149.93 295.64 149.77 295.71 149.63 295.82C149.49 295.93 149.39 296.07 149.32 296.23C149.26 296.4 149.24 296.57 149.27 296.75C149.29 296.92 149.37 297.08 149.48 297.22C150.99 298.76 152.72 300.06 154.62 301.08C152.87 302.83 151.5 304.4 150.49 305.54C149.96 306.1 149.68 316.8 150.14 319.16C150.21 319.39 150.36 319.59 150.56 319.71C152.76 321.22 181.14 333.49 184.04 331.85C185.99 330.74 209.15 306.64 209.52 305.91C210.08 304.75 209.89 297.06 209.85 293.99C209.71 293.06 207.98 292.06 207.14 291.56ZM151.19 314.65L151.19 310.75C158.45 314.24 175.06 321.37 181.35 323.37C182.96 323.89 183.1 323.82 183.94 323.37C188.75 320.29 205.73 301.17 208.84 298.25L208.84 301.94C199.4 311.39 183.36 327.96 183.07 327.02C181.33 326.92 152.69 315.35 151.19 314.65ZM206.71 285.67C207.33 286.72 207.67 287.93 207.68 289.16C207.68 289.55 207.58 289.94 207.4 290.29C207.22 290.64 206.97 290.94 206.65 291.17C205.18 290.19 202.4 288.37 199.12 286.24C200.92 282.69 204.92 282.64 206.64 285.67L206.71 285.67ZM150.75 296.85C158.2 294.65 172.35 281.02 177.1 275.11C178.25 275.43 179.35 275.88 180.39 276.45C178.64 279.71 180.51 283.27 181.18 282.76C181.54 282.49 180.88 282.38 180.77 280.67C180.73 279.42 181.01 278.18 181.6 277.07C184.01 278.32 186.84 279.97 189.24 281.35C187.77 284.62 189.53 287.85 190.15 287.38C190.76 286.91 189.87 287.01 189.76 285.3C189.72 284.18 189.93 283.06 190.39 282.03C192.86 283.48 195.38 284.98 197.68 286.4C197.33 287.27 197.19 288.21 197.27 289.15C197.36 290.09 197.67 290.99 198.17 291.78C198.2 291.81 198.22 291.84 198.26 291.86C198.29 291.88 198.33 291.89 198.36 291.89C198.4 291.9 198.44 291.9 198.47 291.89C198.51 291.88 198.55 291.86 198.57 291.84C198.6 291.81 198.63 291.78 198.65 291.75C198.67 291.72 198.68 291.68 198.68 291.65C198.69 291.61 198.69 291.57 198.68 291.53C198.67 291.5 198.65 291.46 198.63 291.43C198.31 290.74 198.16 289.98 198.17 289.22C198.19 288.46 198.37 287.71 198.71 287.03C202.79 289.51 206.08 291.59 207.09 292.27C206.9 292.45 188.66 308.67 182.45 313.49C178.38 312.43 156.99 301.82 150.75 296.85ZM151.42 306.59C159.34 310.08 177.33 318.19 181.47 318.98C182.19 319.12 182.47 319.17 183.83 318.09C189.66 313.42 208.59 293.62 208.77 293.83C208.78 293.88 208.78 293.93 208.77 293.99L208.77 297.48C204.87 300.61 183.19 323.37 182.84 322.28C181.09 322.28 152.67 310.69 151.22 310.05C151.19 309.31 151.35 307.36 151.42 306.59ZM183.26 330.67C181.51 331.67 154.88 320.85 151.31 318.65C151.18 317.53 151.11 316.41 151.12 315.29C158.78 319.07 181.05 328.47 183.1 328.38C186.09 328.23 207.23 304.44 208.73 302.78C208.75 303.67 208.66 304.56 208.47 305.43C208.17 306.01 184.41 330.03 183.26 330.67ZM38.39 232.15C38.51 234.02 38.6 235.64 38.6 237.16C38.6 237.4 38.69 237.62 38.85 237.78C39.02 237.94 39.24 238.04 39.47 238.04C39.7 238.04 39.93 237.94 40.09 237.78C40.25 237.62 40.35 237.4 40.35 237.16C40.35 235.54 40.26 233.93 40.14 232.02C40.12 231.79 40.01 231.58 39.84 231.43C39.66 231.27 39.43 231.19 39.2 231.21C38.97 231.23 38.75 231.34 38.6 231.51C38.45 231.69 38.37 231.92 38.39 232.15ZM304.82 197.1C304.7 197.11 304.59 197.14 304.49 197.19C304.39 197.24 304.29 197.31 304.22 197.4C304.15 197.48 304.09 197.58 304.05 197.69C304.02 197.8 304 197.92 304.01 198.03C304.12 199.64 304.22 201.37 304.22 203.04C304.22 203.28 304.32 203.5 304.48 203.66C304.64 203.83 304.87 203.92 305.1 203.92C305.33 203.92 305.55 203.83 305.72 203.66C305.88 203.5 305.97 203.28 305.97 203.04C305.97 201.3 305.87 199.55 305.74 197.91C305.74 197.79 305.71 197.68 305.66 197.58C305.61 197.48 305.54 197.38 305.45 197.31C305.36 197.23 305.26 197.18 305.16 197.14C305.05 197.11 304.93 197.09 304.82 197.1ZM33.86 227.79C34.09 227.79 34.31 227.7 34.48 227.54C34.64 227.37 34.73 227.15 34.73 226.92C34.73 226.69 34.64 226.47 34.48 226.3C34.31 226.14 34.09 226.05 33.86 226.05C31.74 226.05 29.98 226.2 28.23 226.17C28 226.17 27.77 226.26 27.6 226.43C27.44 226.59 27.34 226.81 27.34 227.04C27.34 227.27 27.43 227.5 27.59 227.66C27.76 227.83 27.98 227.92 28.21 227.92C30.01 227.95 31.99 227.88 33.86 227.79ZM299.4 191.93C297.3 191.93 295.53 192.05 293.77 192.07C293.54 192.07 293.31 192.16 293.15 192.33C292.98 192.49 292.89 192.71 292.89 192.94C292.89 193.18 292.98 193.4 293.15 193.56C293.31 193.72 293.54 193.82 293.77 193.82C295.66 193.82 297.61 193.82 299.5 193.68C299.73 193.66 299.95 193.56 300.1 193.38C300.26 193.21 300.34 192.98 300.32 192.75C300.31 192.52 300.2 192.3 300.03 192.15C299.86 191.99 299.63 191.92 299.4 191.93ZM37.92 216.99C38.02 218.6 38.13 220.33 38.13 222.01C38.13 222.24 38.22 222.46 38.39 222.62C38.55 222.78 38.77 222.88 39 222.88C39.23 222.88 39.45 222.79 39.62 222.63C39.78 222.46 39.87 222.24 39.87 222.01C39.87 220.26 39.77 218.51 39.66 216.87C39.65 216.64 39.54 216.42 39.37 216.27C39.19 216.12 38.96 216.04 38.73 216.06C38.5 216.07 38.28 216.18 38.13 216.36C37.98 216.53 37.9 216.76 37.92 216.99ZM305.5 187.89C305.5 186.14 305.39 184.4 305.27 182.75C305.26 182.52 305.15 182.31 304.97 182.15C304.8 182 304.57 181.92 304.34 181.94C304.1 181.96 303.89 182.06 303.74 182.24C303.58 182.42 303.51 182.64 303.52 182.87C303.63 184.48 303.73 186.21 303.73 187.89C303.73 188.12 303.82 188.35 303.99 188.51C304.15 188.67 304.38 188.77 304.61 188.77C304.84 188.77 305.07 188.67 305.23 188.51C305.4 188.35 305.5 188.12 305.5 187.89ZM50.82 227.57C50.94 227.56 51.05 227.54 51.15 227.49C51.26 227.44 51.35 227.37 51.43 227.29C51.51 227.2 51.57 227.1 51.61 227C51.65 226.89 51.66 226.77 51.66 226.66C51.64 226.43 51.54 226.22 51.37 226.06C51.2 225.91 50.98 225.82 50.75 225.82C48.63 225.91 46.87 225.98 45.1 225.94C44.87 225.94 44.65 226.03 44.48 226.2C44.32 226.36 44.23 226.58 44.23 226.82C44.23 227.05 44.32 227.27 44.48 227.43C44.65 227.6 44.87 227.69 45.1 227.69C46.97 227.72 48.93 227.66 50.82 227.57ZM316.36 191.7C314.61 191.79 312.67 191.84 310.73 191.84C310.61 191.84 310.5 191.85 310.39 191.9C310.28 191.94 310.18 192 310.1 192.08C310.02 192.16 309.95 192.26 309.9 192.36C309.86 192.47 309.84 192.58 309.84 192.7C309.84 192.93 309.93 193.16 310.09 193.32C310.25 193.49 310.48 193.59 310.71 193.59C312.7 193.59 314.31 193.59 316.43 193.45C316.54 193.44 316.66 193.42 316.76 193.37C316.86 193.32 316.96 193.25 317.04 193.17C317.11 193.09 317.18 192.99 317.21 192.88C317.25 192.77 317.27 192.66 317.27 192.54C317.25 192.31 317.14 192.1 316.97 191.95C316.81 191.79 316.59 191.7 316.36 191.7ZM10.64 175.78C10.87 175.95 60.18 168.65 62.29 167.35C62.41 167.27 62.5 167.16 62.56 167.02C62.62 166.89 62.65 166.75 62.64 166.6C62.64 164.35 59.69 143.18 58.27 137.9C58.09 137.25 57.92 136.61 57.52 136.38C54.84 134.77 7.7 143.65 4.89 145.47C4.81 145.52 4.74 145.58 4.69 145.65C4.64 145.72 4.61 145.8 4.59 145.89C3.99 148 9.12 174.73 10.64 175.78ZM5.66 146.31C9.01 144.79 51.8 136.96 56.7 137.57C57.88 140.63 61.07 163.04 61.28 166.32C58.85 167.04 11.3 175.2 11.13 175.24C10.95 175.27 10.94 175.48 10.57 174.38C9.03 169.77 5.57 150.26 5.66 146.31Z" fill="#333232" fill-opacity="1.000000" fill-rule="nonzero"/>
	<path id="Vector" d="M66.42 168.68C66.52 168.5 66.56 168.3 66.55 168.1C66.55 165.33 62.55 134.59 61.14 132.14C61.02 131.96 60.87 131.81 60.68 131.71C60.49 131.6 60.28 131.56 60.07 131.56C54.2 130.85 4.72 140.46 1.47 142.71C1.01 143.02 1.08 143.81 1.13 144.64C1.41 149.22 6.39 179.35 8.14 179.18C8.33 179.18 8.26 179.04 7.81 179.96C5.07 185.55 -0.11 203.45 0 207.06C0 208.58 0.35 210.54 1.85 210.44C12.66 209.11 65.62 200.76 80.85 197.64C81.44 197.52 81.83 196.98 81.81 196.09C81.63 194.61 81.18 193.17 80.48 191.86C78.35 187.87 69.49 172.07 66.42 168.68ZM8.24 178.64C6.88 176.9 1.85 146.89 2.24 143.56C6.09 141.58 54.9 132.19 60.01 132.96C61.42 136.79 65.04 164.46 65.27 167.79C59.07 169.91 16.16 176.81 8.24 178.64ZM9.01 179.16C10.48 178.79 60.58 170.45 65.16 169.25C67.67 171.57 78.98 191.58 79.71 193.28C69.66 195.03 10.05 204.93 1.27 206.26C1.4 200.98 6.84 182.54 9.01 179.16Z" fill="#333232" fill-opacity="1.000000" fill-rule="nonzero"/>
	<path id="Vector" d="M15.15 198.09C16.67 197.86 48.92 193.98 60.57 190.81C60.65 190.79 60.71 190.75 60.75 190.68C60.78 190.62 60.79 190.54 60.78 190.47C60.76 190.4 60.71 190.34 60.65 190.3C60.58 190.26 60.51 190.25 60.43 190.27C58.15 190.74 30.23 194.47 15.11 197.55C15.07 197.54 15.03 197.54 14.99 197.56C14.95 197.57 14.91 197.59 14.88 197.62C14.84 197.65 14.82 197.68 14.8 197.72C14.79 197.76 14.78 197.8 14.78 197.84C14.79 197.89 14.8 197.93 14.82 197.96C14.84 198 14.87 198.03 14.9 198.06C14.94 198.08 14.98 198.1 15.02 198.1C15.06 198.11 15.11 198.1 15.15 198.09ZM38.72 76.33C38.06 77.81 37.52 79.33 37.07 80.88C37.05 81.13 37.12 81.38 37.27 81.58C39.03 84.24 57.12 104.66 61.83 107.53C62.48 107.93 63.25 108.21 63.72 107.64C67.15 103.37 71.62 100.06 76.7 98.03C80.84 96.56 85.18 95.74 89.56 95.6C93.06 95.28 93.67 94.93 95.01 92.64C96.6 89.62 98.7 86.91 101.23 84.63C104.46 81.8 108.03 79.41 111.87 77.52C112.05 77.42 112.18 77.27 112.26 77.08C112.33 76.9 112.35 76.7 112.29 76.5C111.7 75 110.92 73.58 109.97 72.27C110.6 72.06 111.3 71.87 111.3 71.24C111.3 69.49 96.06 47.4 91.83 43.24C91.4 42.8 90.77 42.22 90.19 42.26C81.45 42.75 72.94 51.01 68.02 58.22C62.37 58.01 58.72 57.5 52.29 60.21C47.75 62.14 43.66 64.99 40.27 68.58C39.75 69.12 36.18 72.9 36.13 73.2C36.08 73.5 36.18 73.5 38.72 76.33ZM108.61 75.84C101.32 77.08 96.67 83.16 93.25 89.75C91.73 92.69 91.87 92.83 90.26 92.8C87.45 92.64 84.63 92.74 81.84 93.11C79.79 93.42 77.78 93.92 75.83 94.62C71.39 96.19 66.31 101.23 63.6 104.98C63.54 105.05 63.47 105.12 63.38 105.17C63.3 105.21 63.21 105.24 63.11 105.25C63.01 105.26 62.92 105.25 62.83 105.21C62.74 105.18 62.65 105.13 62.58 105.07C56.91 99.2 46.86 88.91 41.81 83C41.56 82.74 41.98 82.35 42.23 82.63C45.5 86.13 53.94 94.51 62.99 103.63C66.04 99.73 70.76 95 75.43 93.36C77.97 92.45 80.62 91.86 83.31 91.61C85.82 91.42 88.35 91.42 90.87 91.61C91.9 90.42 97 76.91 108.57 75.4C108.6 75.43 108.63 75.46 108.65 75.5C108.67 75.53 108.68 75.58 108.68 75.62C108.69 75.66 108.68 75.7 108.66 75.74C108.65 75.78 108.62 75.81 108.59 75.84L108.61 75.84ZM90.17 43.68C93.67 46.13 107.89 67.21 109.74 70.91C106.53 71.92 103.43 73.27 100.48 74.91C97.69 76.31 95.25 78.32 93.34 80.78C91.42 83.25 90.08 86.11 89.4 89.16C83.13 78.94 74.38 67.69 68.56 59.41C68.91 59.18 78.73 44.36 90.17 43.68ZM52.68 61.18C59.05 58.6 62.58 59.2 67.86 59.43C73.1 68.39 82.52 81.02 88.72 89.3C83 87.94 76.97 88.77 71.83 91.63C68.73 93.38 64.96 97.58 62.64 100.18C59.28 97.49 39.92 76.84 36.81 73.34C41.6 67.91 46.02 63.84 52.68 61.11L52.68 61.18ZM20.7 105.68C20.27 105.37 19.76 105.2 19.23 105.18C18.71 105.17 18.19 105.3 17.73 105.57C17.4 105.72 17.11 105.93 16.86 106.19C16.61 106.45 16.42 106.76 16.29 107.1C16.16 107.44 16.1 107.8 16.11 108.16C16.12 108.52 16.2 108.87 16.34 109.2C16.49 109.53 16.7 109.83 16.96 110.08C17.22 110.33 17.53 110.52 17.87 110.65C18.21 110.78 18.56 110.84 18.92 110.83C19.29 110.82 19.64 110.74 19.97 110.6C20.5 110.48 20.97 110.21 21.34 109.81C21.71 109.42 21.95 108.92 22.03 108.39C22.11 107.86 22.02 107.31 21.79 106.83C21.55 106.34 21.17 105.94 20.7 105.68ZM19.55 109.18C18.33 109.56 17.59 109.18 17.3 108.58C16.74 107.34 17.44 105.43 19.25 105.99C20.53 106.46 21.56 108.62 19.55 109.27L19.55 109.18ZM109.55 25.6C110.06 26.63 112.41 26.25 113.45 25.91C113.99 25.74 114.34 25.55 114.39 25.02C114.55 23.71 114.72 12.33 114.13 11.23C114.07 11.12 113.97 11.02 113.86 10.96C113.74 10.9 113.61 10.87 113.48 10.88C111.62 10.88 109.76 11.15 107.98 11.69C107.26 12.13 108.92 24.44 109.55 25.6ZM108.34 12.11C109.96 11.88 111.59 11.8 113.22 11.88C113.32 13.17 113.04 24.39 113.03 24.57C112.29 24.83 111.5 24.93 110.72 24.85C110.6 24.44 110.39 23.36 110.13 22C109.36 18.73 108.76 15.43 108.34 12.11ZM19.01 90.91C19.18 90.99 19.36 91.04 19.55 91.04C19.74 91.04 19.92 90.99 20.09 90.91C20.77 90.49 21.3 89.88 21.63 89.16C21.67 89.04 21.69 88.92 21.67 88.79C21.65 88.67 21.6 88.56 21.52 88.46C20.69 87.46 11.53 76.84 10.41 77.5C9.04 78.39 7.74 79.39 6.52 80.48C6.47 80.52 6.43 80.58 6.4 80.64C6.37 80.7 6.36 80.76 6.36 80.83C6.32 81.74 16.49 89.89 19.01 90.91ZM10.62 77.96C11.9 78.89 16.2 84.21 20.18 88.91C20.01 89.18 19.8 89.42 19.55 89.63C15.36 86.95 11.36 83.98 7.58 80.74C8.53 79.74 9.55 78.81 10.62 77.96ZM38.07 39.35C38.45 32.57 42.4 29.41 46.53 28.61C45.36 32.91 45.55 38.51 49.79 39.23C51.82 39.56 52.82 38.51 54.28 37.29C60.56 32.04 55.49 26.79 48.41 27.16C51.05 19.91 57.15 14.01 65.24 13.82C65.31 13.82 65.38 13.79 65.44 13.74C65.49 13.69 65.52 13.62 65.52 13.54C65.52 13.47 65.49 13.4 65.44 13.34C65.38 13.29 65.31 13.26 65.24 13.26C56.5 13.09 49.64 19.39 46.93 27.26C42.26 28.07 37.63 31.57 37.51 39.25C37.5 39.29 37.5 39.32 37.51 39.36C37.52 39.4 37.54 39.43 37.56 39.46C37.58 39.49 37.6 39.52 37.64 39.54C37.67 39.56 37.7 39.58 37.74 39.58C37.78 39.59 37.81 39.59 37.85 39.58C37.89 39.57 37.92 39.56 37.95 39.54C37.98 39.52 38.01 39.49 38.03 39.46C38.05 39.43 38.06 39.39 38.07 39.35ZM48.01 28.4C50.62 28.23 54.49 29.03 55.56 31.39C56.17 32.74 55.56 34.4 53.39 36.22C52.81 36.81 52.13 37.31 51.4 37.71C48.78 38.83 45.88 35.59 48.01 28.4ZM53.01 275.9C51.32 275.44 49.56 275.33 47.83 275.57C46.1 275.81 44.43 276.39 42.93 277.29C41.43 278.18 40.12 279.37 39.08 280.77C38.04 282.18 37.29 283.78 36.88 285.49C36.11 289.02 36.76 292.72 38.71 295.77C40.66 298.82 43.73 300.96 47.26 301.74C50.79 302.52 54.48 301.86 57.53 299.91C60.57 297.96 62.72 294.88 63.49 291.35C63.82 289.64 63.82 287.89 63.47 286.19C63.12 284.49 62.44 282.87 61.46 281.43C60.49 280 59.24 278.77 57.79 277.82C56.34 276.87 54.71 276.21 53.01 275.9ZM58.41 290.16C57.71 292.96 56.03 295.42 53.68 297.08C51.32 298.75 48.45 299.52 45.58 299.26C42.95 298.23 40.76 296.3 39.41 293.81C38.05 291.32 37.62 288.44 38.18 285.66C38.83 282.79 40.49 280.26 42.86 278.51C45.23 276.77 48.14 275.94 51.07 276.18C53.73 277.28 55.92 279.28 57.25 281.84C58.58 284.4 58.96 287.34 58.34 290.16L58.41 290.16Z" fill="#333232" fill-opacity="1.000000" fill-rule="nonzero"/>
	<path id="Vector" d="M76.4 280.8C74.88 280.27 73.25 280.14 71.66 280.43C71 278.92 70.19 277.48 69.25 276.14C70.38 275.11 73.5 272.24 72.75 270.89C70.07 267.68 66.89 264.93 63.33 262.75C61.85 261.92 60.21 261.39 58.52 261.19C57.4 261.35 54.74 265.71 54.14 266.69C53.76 266.69 52.39 266.25 52.29 266.2C52.29 264.94 51.92 260.38 50.78 259.86C49.51 259.39 48.19 259.07 46.85 258.9C45.61 258.7 34.42 260.75 33.6 262.26C33.06 263.27 34.32 267.11 34.69 268.18C33.74 268.69 32.84 269.28 31.97 269.93C30.22 271.17 30.7 271.11 30.38 270.98C30 270.79 29.59 270.68 29.17 270.62C27.78 269.81 26.14 269.5 24.54 269.75C22.93 270.27 19.13 278.92 18.52 281.15C18.32 281.71 18.26 282.31 18.36 282.9C18.78 284.05 21.58 284.98 22.75 285.35C22.43 287.6 22.43 289.89 22.75 292.14C21.21 292.56 18.01 293.51 18.18 295.08C18.36 296.66 22.45 307.05 24.15 307.88C25.08 308.4 26.11 308.72 27.17 308.82C28.23 308.92 29.3 308.79 30.31 308.45C30.88 308.17 31.43 307.85 31.96 307.49C32.66 308.02 33.39 308.49 34.14 308.94C33.6 310.29 32.39 313.3 32.78 314.67C32.97 315.39 33.55 315.61 34.35 315.91C36.58 316.72 48.55 319.59 50.36 319.27C51.05 319.17 51.41 318.45 51.62 317.77C52.01 316.21 52.24 314.62 52.31 313.02C53.21 312.93 54.1 312.8 54.98 312.62C55.53 313.57 56.22 314.43 57.03 315.16C57.92 315.79 58.68 315.47 59.69 314.82C60.18 315.46 60.92 316.33 61.7 316.42C63.68 316.65 71.85 308.94 72.69 307.37C73.39 306.06 70.84 303.71 69.7 302.68C70.93 300.82 71.9 298.81 72.57 296.69C73.83 296.88 75.11 296.95 76.39 296.9C76.96 296.9 77.63 296.69 77.87 296.15C78.94 293.71 78.63 284.49 77.87 282.14C77.77 281.46 76.98 281.01 76.4 280.8ZM76.82 282.41C77.42 284.68 77.61 293.28 76.74 295.5C75.22 295.65 73.7 295.58 72.2 295.29C72.04 295.26 71.88 295.3 71.74 295.38C71.61 295.47 71.51 295.61 71.47 295.76C70.77 298.13 69.69 300.36 68.27 302.38C68.17 302.51 68.12 302.68 68.14 302.85C68.16 303.01 68.24 303.17 68.37 303.27C69.6 304.25 70.64 305.43 71.45 306.77C70.58 308.21 63.73 314.48 61.84 315C61.56 315 60.79 313.95 60.6 313.67C59.96 312.7 59.37 311.69 58.85 310.64C58.78 310.49 58.65 310.37 58.49 310.31C58.33 310.25 58.15 310.25 57.99 310.31C52.92 312.22 50.99 311.1 50.99 312.36C51 314.25 50.69 316.12 50.09 317.91C45.97 317.46 41.92 316.56 38.01 315.21C38.2 313.34 38.72 311.52 39.55 309.84C40.08 308.67 37.98 309 34.06 305.01C33.93 304.89 33.76 304.82 33.59 304.82C33.42 304.82 33.25 304.89 33.13 305.01C31.38 306.44 29.1 307.84 28.65 307.61C27.76 307.18 23.64 297.85 23.4 295.96C24.64 295.09 26.06 294.49 27.55 294.2C27.7 294.16 27.84 294.06 27.93 293.92C28.02 293.78 28.06 293.62 28.04 293.45C27.61 290.97 27.61 288.44 28.04 285.96C28.06 285.81 28.03 285.65 27.95 285.52C27.86 285.39 27.73 285.3 27.58 285.26C26.26 284.91 24.99 284.4 23.8 283.74C23.42 283.46 23.45 283.47 23.49 283.18C24.62 279.09 26.44 275.23 28.86 271.75C29.8 271.48 32.36 273.36 33.23 274.02C33.32 274.11 33.45 274.16 33.57 274.16C33.7 274.16 33.82 274.11 33.92 274.02C34.72 273.19 35.59 272.42 36.51 271.71C39.17 269.7 39.88 269.96 39.66 269.26C38.85 267.5 38.4 265.61 38.33 263.68C38.6 263.45 38.9 263.27 39.24 263.15C40.87 262.5 42.55 261.98 44.26 261.57C46.33 261 48.46 260.65 50.61 260.54C50.98 260.7 51.31 262.29 51.4 262.78C52.04 266.28 51.61 267 52.11 267.05C57.1 267.54 58.12 268.93 58.47 268.31C59.44 266.62 60.57 265.02 61.84 263.54C62.21 263.17 62.19 262.99 63.3 263.62C66.59 265.78 69.54 268.41 72.05 271.45C72.31 271.9 70.03 274.32 68.37 275.74C67.79 276.25 68.62 276.47 70.12 279.34C71.63 282.21 71.28 283.02 72.08 282.84C73.63 282.47 75.23 282.32 76.82 282.41ZM319.7 136.13C316.03 134.63 312.18 133.61 308.25 133.1C305.38 132.65 302 132.19 299.15 131.83C301.9 127.94 310.04 118.1 311.4 115.7C311.79 115.06 311.05 114.14 310.51 113.6C307.46 110.35 301.58 109.12 297.07 108.42C294.48 108 283.67 106.67 281.83 107.54C279.62 108.6 263.31 133.1 262.82 136.83C262.82 137.46 263.03 137.71 263.65 137.93C266.22 138.88 277.82 140.35 280.41 140.96C276.91 147.09 261.35 167.8 259.83 170.72C259.46 171.46 259.69 171.9 260.13 172.03C261.7 172.66 263.32 173.16 264.98 173.54C265.61 173.73 266.99 172.87 269 171.65C278.03 166.22 316.77 140.63 319.75 137.32C319.83 137.24 319.9 137.15 319.94 137.04C319.98 136.94 320 136.83 319.99 136.71C319.99 136.6 319.96 136.49 319.91 136.39C319.86 136.29 319.79 136.2 319.7 136.13ZM282.09 157.14C267.22 166.96 262.19 169.83 262.02 169.95C264.42 166.29 279.31 145.88 281.86 141C281.91 140.9 281.93 140.8 281.93 140.7C281.93 140.59 281.91 140.49 281.86 140.39C281.82 140.3 281.75 140.22 281.67 140.15C281.59 140.09 281.49 140.04 281.39 140.02C279.64 139.39 266.9 138.02 263.89 136.95C264.28 133.7 280.17 109.09 282.09 108.1C284.01 107.12 302.69 109.35 306.19 111.85C304.35 115.44 294.2 128.01 292.56 130.93C292.22 131.53 292.12 132.1 292.76 132.26C293.41 132.42 309.86 134.35 313.45 135.52C309.07 139.18 286.99 153.85 282.09 157.07L282.09 157.14ZM169.83 50.11C169.83 50.27 169.94 50.46 170.2 51.48C170.27 51.7 170.42 51.88 170.62 51.99C170.83 52.1 171.06 52.13 171.29 52.07C171.51 52 171.7 51.85 171.81 51.65C171.92 51.45 171.95 51.21 171.88 50.99C171.71 50.3 171.55 49.73 171.44 49.44C171.34 49.25 171.17 49.1 170.97 49.03C170.76 48.96 170.54 48.96 170.34 49.05C170.13 49.13 169.97 49.28 169.88 49.48C169.79 49.68 169.77 49.9 169.83 50.11Z" fill="#333232" fill-opacity="1.000000" fill-rule="nonzero"/>
</svg>
