<svg width="200" height="56" viewBox="0 0 200 56" fill="none" xmlns="http://www.w3.org/2000/svg">
<rect x="1" y="1" width="198" height="54" rx="19" fill="white" stroke="#333232" stroke-width="2"/>
<rect x="6" y="6" width="94" height="44" rx="15" fill="url(#paint0_linear_1271_21994)"/>
<path d="M26.18 35L21.54 21H24.24L28.38 33.66H27.04L31.34 21H33.74L37.92 33.66H36.62L40.86 21H43.34L38.7 35H35.94L32.12 23.58H32.84L28.96 35H26.18ZM48.6581 26.82H55.6181V28.96H48.6581V26.82ZM48.8581 32.82H56.7581V35H46.2581V21H56.4781V23.18H48.8581V32.82ZM60.4566 35V21H63.0566V32.8H70.3766V35H60.4566ZM73.2292 35V21H75.8292V32.8H83.1492V35H73.2292Z" fill="#333232"/>
<path d="M119.14 35V21H126.04C127.6 21 128.973 21.2867 130.16 21.86C131.347 22.42 132.273 23.22 132.94 24.26C133.607 25.3 133.94 26.54 133.94 27.98C133.94 29.4333 133.607 30.6867 132.94 31.74C132.273 32.78 131.347 33.5867 130.16 34.16C128.973 34.72 127.6 35 126.04 35H119.14ZM123.86 31.32H125.84C126.507 31.32 127.087 31.1933 127.58 30.94C128.087 30.6867 128.48 30.3133 128.76 29.82C129.04 29.3133 129.18 28.7 129.18 27.98C129.18 27.2733 129.04 26.6733 128.76 26.18C128.48 25.6867 128.087 25.3133 127.58 25.06C127.087 24.8067 126.507 24.68 125.84 24.68H123.86V31.32ZM143.023 35.32C141.877 35.32 140.817 35.14 139.843 34.78C138.883 34.42 138.05 33.9133 137.343 33.26C136.637 32.5933 136.083 31.8133 135.683 30.92C135.297 30.0267 135.103 29.0533 135.103 28C135.103 26.9333 135.297 25.96 135.683 25.08C136.083 24.1867 136.637 23.4133 137.343 22.76C138.05 22.0933 138.883 21.58 139.843 21.22C140.817 20.86 141.87 20.68 143.003 20.68C144.15 20.68 145.203 20.86 146.163 21.22C147.123 21.58 147.957 22.0933 148.663 22.76C149.37 23.4133 149.917 24.1867 150.303 25.08C150.703 25.96 150.903 26.9333 150.903 28C150.903 29.0533 150.703 30.0267 150.303 30.92C149.917 31.8133 149.37 32.5933 148.663 33.26C147.957 33.9133 147.123 34.42 146.163 34.78C145.203 35.14 144.157 35.32 143.023 35.32ZM143.003 31.5C143.443 31.5 143.85 31.42 144.223 31.26C144.61 31.1 144.943 30.8733 145.223 30.58C145.517 30.2733 145.743 29.9067 145.903 29.48C146.063 29.04 146.143 28.5467 146.143 28C146.143 27.4533 146.063 26.9667 145.903 26.54C145.743 26.1 145.517 25.7333 145.223 25.44C144.943 25.1333 144.61 24.9 144.223 24.74C143.85 24.58 143.443 24.5 143.003 24.5C142.563 24.5 142.15 24.58 141.763 24.74C141.39 24.9 141.057 25.1333 140.763 25.44C140.483 25.7333 140.263 26.1 140.103 26.54C139.943 26.9667 139.863 27.4533 139.863 28C139.863 28.5467 139.943 29.04 140.103 29.48C140.263 29.9067 140.483 30.2733 140.763 30.58C141.057 30.8733 141.39 31.1 141.763 31.26C142.15 31.42 142.563 31.5 143.003 31.5ZM152.617 35V21H156.497L163.617 29.52H161.817V21H166.417V35H162.537L155.417 26.48H157.217V35H152.617ZM173.011 26.2H179.251V29.6H173.011V26.2ZM173.331 31.44H180.331V35H168.691V21H180.071V24.56H173.331V31.44Z" fill="#333232"/>
<defs>
<linearGradient id="paint0_linear_1271_21994" x1="6" y1="28" x2="100" y2="28" gradientUnits="userSpaceOnUse">
<stop offset="0.106" stop-color="#C5B6F1"/>
<stop offset="0.371" stop-color="#C6B7F2"/>
<stop offset="0.716" stop-color="#F6F17B"/>
<stop offset="0.891" stop-color="#F5F07A"/>
<stop offset="1" stop-color="#F5F07A"/>
</linearGradient>
</defs>
</svg>
