<svg width="24" height="28" viewBox="0 0 24 28" fill="none" xmlns="http://www.w3.org/2000/svg">
<path d="M2.99983 7.5C2.99983 5.51088 3.79001 3.60322 5.19653 2.1967C6.60305 0.790176 8.51071 0 10.4998 0C12.489 0 14.3966 0.790176 15.8031 2.1967C17.2097 3.60322 17.9998 5.51088 17.9998 7.5C17.9998 7.76522 17.8945 8.01957 17.7069 8.20711C17.5194 8.39464 17.265 8.5 16.9998 8.5C16.7346 8.5 16.4803 8.39464 16.2927 8.20711C16.1052 8.01957 15.9998 7.76522 15.9998 7.5C15.9998 6.04131 15.4204 4.64236 14.3889 3.61091C13.3575 2.57946 11.9585 2 10.4998 2C9.04114 2 7.64219 2.57946 6.61074 3.61091C5.57929 4.64236 4.99983 6.04131 4.99983 7.5C4.99983 7.76522 4.89447 8.01957 4.70694 8.20711C4.5194 8.39464 4.26505 8.5 3.99983 8.5C3.73461 8.5 3.48026 8.39464 3.29272 8.20711C3.10519 8.01957 2.99983 7.76522 2.99983 7.5ZM20.4998 13C19.9165 12.9994 19.3423 13.1451 18.8298 13.4237C18.6767 12.9499 18.4242 12.5141 18.0892 12.1456C17.7542 11.7771 17.3444 11.4844 16.8872 11.2869C16.4301 11.0894 15.936 10.9918 15.4381 11.0005C14.9401 11.0092 14.4498 11.1241 13.9998 11.3375V7.5C13.9998 6.57174 13.6311 5.6815 12.9747 5.02513C12.3183 4.36875 11.4281 4 10.4998 4C9.57157 4 8.68133 4.36875 8.02496 5.02513C7.36858 5.6815 6.99983 6.57174 6.99983 7.5V17.5L6.52233 16.7337C6.05538 15.9313 5.28879 15.3472 4.39119 15.11C3.4936 14.8728 2.53852 15.0018 1.73608 15.4688C0.933633 15.9357 0.349548 16.7023 0.112314 17.5999C-0.124919 18.4975 0.00413218 19.4526 0.471079 20.255L4.13608 26.505C4.19755 26.6267 4.28326 26.7346 4.38795 26.822C4.49264 26.9094 4.6141 26.9744 4.74486 27.0131C4.87562 27.0518 5.01291 27.0634 5.1483 27.0471C5.28368 27.0308 5.41431 26.987 5.53213 26.9183C5.64996 26.8497 5.7525 26.7576 5.83346 26.6479C5.91441 26.5382 5.97206 26.413 6.00287 26.2802C6.03368 26.1473 6.037 26.0096 6.01261 25.8754C5.98823 25.7413 5.93666 25.6135 5.86108 25.5L2.19983 19.25C2.09704 19.0793 2.0293 18.8898 2.00057 18.6926C1.97184 18.4954 1.98269 18.2944 2.03249 18.1014C2.0823 17.9085 2.17005 17.7274 2.29063 17.5687C2.41121 17.4101 2.5622 17.277 2.73477 17.1773C2.90735 17.0777 3.09805 17.0134 3.29575 16.9883C3.49344 16.9632 3.69416 16.9777 3.88618 17.031C4.07821 17.0843 4.25768 17.1753 4.41412 17.2988C4.57056 17.4222 4.70083 17.5756 4.79733 17.75L4.81483 17.7787L7.14983 21.5287C7.26447 21.7137 7.43634 21.8563 7.63933 21.9347C7.84233 22.0132 8.06538 22.0233 8.27464 21.9635C8.48389 21.9037 8.66792 21.7772 8.7988 21.6033C8.92968 21.4295 9.00026 21.2176 8.99983 21V7.5C8.99983 7.10218 9.15786 6.72064 9.43917 6.43934C9.72047 6.15804 10.102 6 10.4998 6C10.8977 6 11.2792 6.15804 11.5605 6.43934C11.8418 6.72064 11.9998 7.10218 11.9998 7.5V16C11.9998 16.2652 12.1052 16.5196 12.2927 16.7071C12.4803 16.8946 12.7346 17 12.9998 17C13.265 17 13.5194 16.8946 13.7069 16.7071C13.8945 16.5196 13.9998 16.2652 13.9998 16V14.5C13.9998 14.1022 14.1579 13.7206 14.4392 13.4393C14.7205 13.158 15.102 13 15.4998 13C15.8977 13 16.2792 13.158 16.5605 13.4393C16.8418 13.7206 16.9998 14.1022 16.9998 14.5V17C16.9998 17.2652 17.1052 17.5196 17.2927 17.7071C17.4803 17.8946 17.7346 18 17.9998 18C18.265 18 18.5194 17.8946 18.7069 17.7071C18.8945 17.5196 18.9998 17.2652 18.9998 17V16.5C18.9998 16.1022 19.1579 15.7206 19.4392 15.4393C19.7205 15.158 20.102 15 20.4998 15C20.8977 15 21.2792 15.158 21.5605 15.4393C21.8418 15.7206 21.9998 16.1022 21.9998 16.5V21C21.9998 23.7013 21.1123 25.5375 21.1048 25.5525C20.9864 25.7897 20.967 26.0643 21.0509 26.3158C21.1348 26.5673 21.3152 26.7752 21.5523 26.8937C21.6911 26.9639 21.8444 27.0003 21.9998 27C22.1856 27.0001 22.3678 26.9485 22.5258 26.8509C22.6839 26.7533 22.8117 26.6136 22.8948 26.4475C22.9411 26.3563 24.0011 24.1975 24.0011 21V16.5C24.0011 16.0403 23.9105 15.585 23.7345 15.1603C23.5586 14.7356 23.3006 14.3497 22.9755 14.0247C22.6504 13.6997 22.2644 13.4419 21.8396 13.2661C21.4148 13.0902 20.9596 12.9998 20.4998 13Z" fill="#333232"/>
</svg>
