<svg width="708" height="741" viewBox="0 0 708 741" fill="none" xmlns="http://www.w3.org/2000/svg">
<rect width="708" height="800" rx="40" fill="white"/>
<path d="M87.4162 72.2585V69.7472H88.5518C89.0258 69.7472 89.4167 69.6671 89.7244 69.5071C90.0384 69.3471 90.2938 69.1316 90.4908 68.8608C90.6939 68.5838 90.8632 68.2822 90.9986 67.956L91.2663 67.282L84.6186 53.0909H87.647L92.6051 64.0227L97.0185 53.0909H100.01L93.473 68.7223C93.196 69.3501 92.8759 69.9318 92.5128 70.4673C92.1558 71.0028 91.6787 71.4368 91.0817 71.7692C90.4846 72.0954 89.6937 72.2585 88.7088 72.2585H87.4162ZM109.368 72V57.8182H115.249C116.849 57.8182 118.117 58.1598 119.053 58.843C119.989 59.5201 120.456 60.4403 120.456 61.6037C120.456 62.4347 120.192 63.0933 119.662 63.5795C119.133 64.0658 118.431 64.392 117.557 64.5582C118.191 64.6321 118.773 64.8229 119.302 65.1307C119.832 65.4323 120.256 65.8385 120.576 66.3494C120.903 66.8603 121.066 67.4697 121.066 68.1776C121.066 68.9285 120.872 69.5933 120.484 70.1719C120.096 70.7443 119.533 71.1937 118.794 71.5199C118.062 71.84 117.179 72 116.145 72H109.368ZM111.962 69.6918H116.145C116.828 69.6918 117.363 69.5286 117.751 69.2024C118.139 68.8762 118.333 68.433 118.333 67.8729C118.333 67.2143 118.139 66.6972 117.751 66.3217C117.363 65.9401 116.828 65.7493 116.145 65.7493H111.962V69.6918ZM111.962 63.7273H115.277C115.794 63.7273 116.237 63.6534 116.606 63.5057C116.982 63.358 117.268 63.1487 117.465 62.8778C117.668 62.6009 117.77 62.2746 117.77 61.8991C117.77 61.3513 117.545 60.9235 117.096 60.6158C116.646 60.308 116.031 60.1541 115.249 60.1541H111.962V63.7273ZM128.221 72.3139C127.323 72.3139 126.51 72.1477 125.784 71.8153C125.057 71.4768 124.482 70.9875 124.057 70.3473C123.639 69.7071 123.429 68.9223 123.429 67.9929C123.429 67.1927 123.583 66.5341 123.891 66.017C124.199 65.5 124.614 65.0907 125.137 64.7891C125.661 64.4875 126.245 64.2597 126.892 64.1058C127.538 63.9519 128.197 63.835 128.868 63.755C129.717 63.6565 130.406 63.5765 130.936 63.5149C131.465 63.4472 131.85 63.3395 132.09 63.1918C132.33 63.044 132.45 62.804 132.45 62.4716V62.407C132.45 61.6006 132.222 60.9759 131.767 60.5327C131.317 60.0895 130.646 59.8679 129.754 59.8679C128.824 59.8679 128.092 60.0741 127.556 60.4865C127.027 60.8928 126.661 61.3452 126.458 61.8438L123.863 61.2528C124.171 60.3911 124.62 59.6955 125.211 59.1662C125.808 58.6307 126.495 58.2429 127.27 58.0028C128.046 57.7566 128.861 57.6335 129.717 57.6335C130.283 57.6335 130.883 57.7012 131.517 57.8366C132.158 57.9659 132.755 58.206 133.309 58.5568C133.869 58.9077 134.327 59.4093 134.684 60.0618C135.041 60.7081 135.22 61.5483 135.22 62.5824V72H132.524V70.0611H132.413C132.234 70.4181 131.967 70.7689 131.61 71.1136C131.253 71.4583 130.794 71.7446 130.234 71.9723C129.674 72.2 129.003 72.3139 128.221 72.3139ZM128.821 70.098C129.585 70.098 130.237 69.9472 130.779 69.6456C131.327 69.344 131.742 68.95 132.025 68.4638C132.315 67.9714 132.459 67.4451 132.459 66.8849V65.0568C132.361 65.1553 132.17 65.2476 131.887 65.3338C131.61 65.4138 131.293 65.4846 130.936 65.5462C130.579 65.6016 130.231 65.6539 129.892 65.7031C129.554 65.7462 129.271 65.7831 129.043 65.8139C128.507 65.8816 128.018 65.9955 127.575 66.1555C127.138 66.3156 126.787 66.5464 126.522 66.848C126.264 67.1435 126.135 67.5374 126.135 68.0298C126.135 68.7131 126.387 69.2301 126.892 69.581C127.396 69.9257 128.04 70.098 128.821 70.098ZM144.871 72.2862C143.498 72.2862 142.316 71.9754 141.325 71.3537C140.34 70.7259 139.583 69.861 139.054 68.7592C138.524 67.6574 138.26 66.3956 138.26 64.9737C138.26 63.5334 138.531 62.2623 139.072 61.1605C139.614 60.0526 140.377 59.1877 141.362 58.5661C142.347 57.9444 143.507 57.6335 144.843 57.6335C145.92 57.6335 146.88 57.8336 147.724 58.2337C148.567 58.6276 149.247 59.1816 149.764 59.8956C150.287 60.6096 150.598 61.4437 150.697 62.3977H148.01C147.862 61.733 147.523 61.1605 146.994 60.6804C146.471 60.2003 145.769 59.9602 144.889 59.9602C144.12 59.9602 143.446 60.1634 142.867 60.5696C142.295 60.9697 141.848 61.5421 141.528 62.2869C141.208 63.0256 141.048 63.8996 141.048 64.9091C141.048 65.9432 141.205 66.8357 141.519 67.5866C141.833 68.3376 142.276 68.9193 142.849 69.3317C143.427 69.7441 144.107 69.9503 144.889 69.9503C145.412 69.9503 145.886 69.8549 146.311 69.6641C146.742 69.4671 147.102 69.187 147.391 68.8239C147.687 68.4607 147.893 68.0237 148.01 67.5128H150.697C150.598 68.4299 150.3 69.2486 149.801 69.9688C149.302 70.6889 148.635 71.2552 147.797 71.6676C146.966 72.08 145.991 72.2862 144.871 72.2862ZM166.642 72.2862C165.245 72.2862 164.041 71.9877 163.032 71.3906C162.028 70.7874 161.253 69.9411 160.705 68.8516C160.163 67.7559 159.893 66.4725 159.893 65.0014C159.893 63.5488 160.163 62.2685 160.705 61.1605C161.253 60.0526 162.016 59.1877 162.995 58.5661C163.98 57.9444 165.131 57.6335 166.448 57.6335C167.248 57.6335 168.024 57.7659 168.775 58.0305C169.526 58.2952 170.2 58.7107 170.797 59.277C171.394 59.8433 171.865 60.5788 172.209 61.4837C172.554 62.3823 172.726 63.4749 172.726 64.7614V65.7401H161.453V63.6719H170.021C170.021 62.9455 169.873 62.3023 169.578 61.7422C169.282 61.1759 168.867 60.7296 168.331 60.4034C167.802 60.0772 167.18 59.9141 166.466 59.9141C165.691 59.9141 165.014 60.1049 164.435 60.4865C163.863 60.862 163.42 61.3544 163.106 61.9638C162.798 62.567 162.644 63.2225 162.644 63.9304V65.5462C162.644 66.4941 162.81 67.3004 163.143 67.9652C163.481 68.63 163.952 69.1378 164.555 69.4886C165.158 69.8333 165.863 70.0057 166.67 70.0057C167.193 70.0057 167.67 69.9318 168.101 69.7841C168.532 69.6302 168.904 69.4025 169.218 69.1009C169.532 68.7992 169.772 68.4268 169.938 67.9837L172.551 68.4545C172.342 69.224 171.966 69.898 171.425 70.4766C170.889 71.049 170.215 71.4953 169.403 71.8153C168.596 72.1293 167.676 72.2862 166.642 72.2862ZM196.111 69.6179L195.853 76.0625H193.147V72H191.384V69.6179H196.111ZM175.789 57.8182H178.495V69.6087H183.397V57.8182H186.103V69.6087H191.005V57.8182H193.711V72H175.789V57.8182ZM204.982 72.2862C203.584 72.2862 202.381 71.9877 201.372 71.3906C200.368 70.7874 199.593 69.9411 199.045 68.8516C198.503 67.7559 198.232 66.4725 198.232 65.0014C198.232 63.5488 198.503 62.2685 199.045 61.1605C199.593 60.0526 200.356 59.1877 201.335 58.5661C202.32 57.9444 203.471 57.6335 204.788 57.6335C205.588 57.6335 206.364 57.7659 207.115 58.0305C207.865 58.2952 208.539 58.7107 209.137 59.277C209.734 59.8433 210.204 60.5788 210.549 61.4837C210.894 62.3823 211.066 63.4749 211.066 64.7614V65.7401H199.793V63.6719H208.361C208.361 62.9455 208.213 62.3023 207.918 61.7422C207.622 61.1759 207.207 60.7296 206.671 60.4034C206.142 60.0772 205.52 59.9141 204.806 59.9141C204.031 59.9141 203.354 60.1049 202.775 60.4865C202.203 60.862 201.759 61.3544 201.445 61.9638C201.138 62.567 200.984 63.2225 200.984 63.9304V65.5462C200.984 66.4941 201.15 67.3004 201.482 67.9652C201.821 68.63 202.292 69.1378 202.895 69.4886C203.498 69.8333 204.203 70.0057 205.009 70.0057C205.533 70.0057 206.01 69.9318 206.441 69.7841C206.871 69.6302 207.244 69.4025 207.558 69.1009C207.872 68.7992 208.112 68.4268 208.278 67.9837L210.891 68.4545C210.682 69.224 210.306 69.898 209.764 70.4766C209.229 71.049 208.555 71.4953 207.742 71.8153C206.936 72.1293 206.016 72.2862 204.982 72.2862ZM201.972 55.593C201.535 55.593 201.153 55.433 200.827 55.1129C200.501 54.7867 200.338 54.4112 200.338 53.9865C200.338 53.5249 200.501 53.1402 200.827 52.8324C201.153 52.5246 201.535 52.3707 201.972 52.3707C202.433 52.3707 202.818 52.5246 203.126 52.8324C203.44 53.1402 203.597 53.5249 203.597 53.9865C203.597 54.4112 203.44 54.7867 203.126 55.1129C202.818 55.433 202.433 55.593 201.972 55.593ZM207.401 55.593C206.964 55.593 206.582 55.433 206.256 55.1129C205.93 54.7867 205.767 54.4112 205.767 53.9865C205.767 53.5249 205.93 53.1402 206.256 52.8324C206.582 52.5246 206.964 52.3707 207.401 52.3707C207.862 52.3707 208.247 52.5246 208.555 52.8324C208.869 53.1402 209.026 53.5249 209.026 53.9865C209.026 54.4112 208.869 54.7867 208.555 55.1129C208.247 55.433 207.862 55.593 207.401 55.593ZM230.622 63.718V66.1094H222.94V63.718H230.622ZM223.715 57.8182V72H221.01V57.8182H223.715ZM232.551 57.8182V72H229.855V57.8182H232.551ZM242.357 72.2862C240.959 72.2862 239.756 71.9877 238.747 71.3906C237.743 70.7874 236.968 69.9411 236.42 68.8516C235.878 67.7559 235.607 66.4725 235.607 65.0014C235.607 63.5488 235.878 62.2685 236.42 61.1605C236.968 60.0526 237.731 59.1877 238.71 58.5661C239.695 57.9444 240.846 57.6335 242.163 57.6335C242.963 57.6335 243.739 57.7659 244.49 58.0305C245.24 58.2952 245.914 58.7107 246.512 59.277C247.109 59.8433 247.579 60.5788 247.924 61.4837C248.269 62.3823 248.441 63.4749 248.441 64.7614V65.7401H237.168V63.6719H245.736C245.736 62.9455 245.588 62.3023 245.293 61.7422C244.997 61.1759 244.582 60.7296 244.046 60.4034C243.517 60.0772 242.895 59.9141 242.181 59.9141C241.406 59.9141 240.729 60.1049 240.15 60.4865C239.578 60.862 239.134 61.3544 238.82 61.9638C238.513 62.567 238.359 63.2225 238.359 63.9304V65.5462C238.359 66.4941 238.525 67.3004 238.857 67.9652C239.196 68.63 239.667 69.1378 240.27 69.4886C240.873 69.8333 241.578 70.0057 242.384 70.0057C242.908 70.0057 243.385 69.9318 243.816 69.7841C244.246 69.6302 244.619 69.4025 244.933 69.1009C245.247 68.7992 245.487 68.4268 245.653 67.9837L248.266 68.4545C248.057 69.224 247.681 69.898 247.139 70.4766C246.604 71.049 245.93 71.4953 245.117 71.8153C244.311 72.1293 243.391 72.2862 242.357 72.2862ZM250.253 60.2003V57.8182H262.219V60.2003H257.593V72H254.897V60.2003H250.253ZM272.02 72V57.8182H283.589V72H280.884V60.2003H274.707V72H272.02ZM287.28 77.3182V57.8182H289.976V60.1172H290.206C290.367 59.8217 290.597 59.4801 290.899 59.0923C291.201 58.7045 291.619 58.366 292.155 58.0767C292.69 57.7812 293.398 57.6335 294.278 57.6335C295.423 57.6335 296.445 57.9228 297.344 58.5014C298.242 59.08 298.947 59.9141 299.458 61.0036C299.975 62.093 300.233 63.4041 300.233 64.9368C300.233 66.4695 299.978 67.7836 299.467 68.8793C298.956 69.9687 298.255 70.8089 297.362 71.3999C296.47 71.9846 295.451 72.277 294.306 72.277C293.444 72.277 292.739 72.1323 292.192 71.843C291.65 71.5537 291.225 71.2152 290.917 70.8274C290.61 70.4396 290.373 70.0949 290.206 69.7933H290.04V77.3182H287.28ZM289.985 64.9091C289.985 65.9062 290.13 66.7803 290.419 67.5312C290.708 68.2822 291.127 68.87 291.675 69.2947C292.222 69.7133 292.893 69.9226 293.687 69.9226C294.512 69.9226 295.202 69.7041 295.756 69.267C296.309 68.8239 296.728 68.2237 297.011 67.4666C297.3 66.7095 297.445 65.857 297.445 64.9091C297.445 63.9735 297.304 63.1333 297.02 62.3885C296.743 61.6437 296.325 61.0559 295.765 60.625C295.211 60.1941 294.518 59.9787 293.687 59.9787C292.887 59.9787 292.21 60.1849 291.656 60.5973C291.108 61.0097 290.693 61.5852 290.41 62.3239C290.126 63.0625 289.985 63.9242 289.985 64.9091ZM309.3 72.2862C307.971 72.2862 306.81 71.9815 305.819 71.3722C304.828 70.7628 304.059 69.9103 303.511 68.8146C302.963 67.719 302.689 66.4387 302.689 64.9737C302.689 63.5026 302.963 62.2161 303.511 61.1143C304.059 60.0125 304.828 59.157 305.819 58.5476C306.81 57.9382 307.971 57.6335 309.3 57.6335C310.63 57.6335 311.79 57.9382 312.781 58.5476C313.772 59.157 314.541 60.0125 315.089 61.1143C315.637 62.2161 315.911 63.5026 315.911 64.9737C315.911 66.4387 315.637 67.719 315.089 68.8146C314.541 69.9103 313.772 70.7628 312.781 71.3722C311.79 71.9815 310.63 72.2862 309.3 72.2862ZM309.309 69.9688C310.171 69.9688 310.885 69.741 311.452 69.2855C312.018 68.83 312.436 68.2237 312.707 67.4666C312.984 66.7095 313.123 65.8755 313.123 64.9645C313.123 64.0597 312.984 63.2287 312.707 62.4716C312.436 61.7083 312.018 61.0959 311.452 60.6342C310.885 60.1726 310.171 59.9418 309.309 59.9418C308.442 59.9418 307.721 60.1726 307.149 60.6342C306.583 61.0959 306.161 61.7083 305.884 62.4716C305.613 63.2287 305.478 64.0597 305.478 64.9645C305.478 65.8755 305.613 66.7095 305.884 67.4666C306.161 68.2237 306.583 68.83 307.149 69.2855C307.721 69.741 308.442 69.9688 309.309 69.9688ZM325.105 72.2862C323.708 72.2862 322.504 71.9877 321.495 71.3906C320.491 70.7874 319.716 69.9411 319.168 68.8516C318.626 67.7559 318.355 66.4725 318.355 65.0014C318.355 63.5488 318.626 62.2685 319.168 61.1605C319.716 60.0526 320.479 59.1877 321.458 58.5661C322.443 57.9444 323.594 57.6335 324.911 57.6335C325.711 57.6335 326.487 57.7659 327.238 58.0305C327.989 58.2952 328.663 58.7107 329.26 59.277C329.857 59.8433 330.328 60.5788 330.672 61.4837C331.017 62.3823 331.189 63.4749 331.189 64.7614V65.7401H319.916V63.6719H328.484C328.484 62.9455 328.336 62.3023 328.041 61.7422C327.745 61.1759 327.33 60.7296 326.794 60.4034C326.265 60.0772 325.643 59.9141 324.929 59.9141C324.154 59.9141 323.477 60.1049 322.898 60.4865C322.326 60.862 321.882 61.3544 321.569 61.9638C321.261 62.567 321.107 63.2225 321.107 63.9304V65.5462C321.107 66.4941 321.273 67.3004 321.605 67.9652C321.944 68.63 322.415 69.1378 323.018 69.4886C323.621 69.8333 324.326 70.0057 325.132 70.0057C325.656 70.0057 326.133 69.9318 326.564 69.7841C326.994 69.6302 327.367 69.4025 327.681 69.1009C327.995 68.7992 328.235 68.4268 328.401 67.9837L331.014 68.4545C330.805 69.224 330.429 69.898 329.887 70.4766C329.352 71.049 328.678 71.4953 327.865 71.8153C327.059 72.1293 326.139 72.2862 325.105 72.2862ZM334.252 72V57.8182H337.013V63.7642H338.343L343.024 57.8182H346.44L340.946 64.7152L346.504 72H343.079L338.804 66.331H337.013V72H334.252ZM347.855 60.2003V57.8182H359.821V60.2003H355.195V72H352.499V60.2003H347.855ZM368.054 72.2862C366.725 72.2862 365.564 71.9815 364.573 71.3722C363.582 70.7628 362.813 69.9103 362.265 68.8146C361.717 67.719 361.443 66.4387 361.443 64.9737C361.443 63.5026 361.717 62.2161 362.265 61.1143C362.813 60.0125 363.582 59.157 364.573 58.5476C365.564 57.9382 366.725 57.6335 368.054 57.6335C369.384 57.6335 370.544 57.9382 371.535 58.5476C372.526 59.157 373.295 60.0125 373.843 61.1143C374.391 62.2161 374.665 63.5026 374.665 64.9737C374.665 66.4387 374.391 67.719 373.843 68.8146C373.295 69.9103 372.526 70.7628 371.535 71.3722C370.544 71.9815 369.384 72.2862 368.054 72.2862ZM368.063 69.9688C368.925 69.9688 369.639 69.741 370.205 69.2855C370.772 68.83 371.19 68.2237 371.461 67.4666C371.738 66.7095 371.877 65.8755 371.877 64.9645C371.877 64.0597 371.738 63.2287 371.461 62.4716C371.19 61.7083 370.772 61.0959 370.205 60.6342C369.639 60.1726 368.925 59.9418 368.063 59.9418C367.195 59.9418 366.475 60.1726 365.903 60.6342C365.337 61.0959 364.915 61.7083 364.638 62.4716C364.367 63.2287 364.232 64.0597 364.232 64.9645C364.232 65.8755 364.367 66.7095 364.638 67.4666C364.915 68.2237 365.337 68.83 365.903 69.2855C366.475 69.741 367.195 69.9688 368.063 69.9688ZM377.746 72V57.8182H383.628C385.228 57.8182 386.496 58.1598 387.432 58.843C388.367 59.5201 388.835 60.4403 388.835 61.6037C388.835 62.4347 388.571 63.0933 388.041 63.5795C387.512 64.0658 386.81 64.392 385.936 64.5582C386.57 64.6321 387.152 64.8229 387.681 65.1307C388.21 65.4323 388.635 65.8385 388.955 66.3494C389.281 66.8603 389.445 67.4697 389.445 68.1776C389.445 68.9285 389.251 69.5933 388.863 70.1719C388.475 70.7443 387.912 71.1937 387.173 71.5199C386.441 71.84 385.558 72 384.523 72H377.746ZM380.341 69.6918H384.523C385.207 69.6918 385.742 69.5286 386.13 69.2024C386.518 68.8762 386.712 68.433 386.712 67.8729C386.712 67.2143 386.518 66.6972 386.13 66.3217C385.742 65.9401 385.207 65.7493 384.523 65.7493H380.341V69.6918ZM380.341 63.7273H383.656C384.173 63.7273 384.616 63.6534 384.985 63.5057C385.361 63.358 385.647 63.1487 385.844 62.8778C386.047 62.6009 386.148 62.2746 386.148 61.8991C386.148 61.3513 385.924 60.9235 385.474 60.6158C385.025 60.308 384.41 60.1541 383.628 60.1541H380.341V63.7273ZM101.783 90.2401H98.902C98.7912 89.6245 98.585 89.0829 98.2834 88.6151C97.9818 88.1473 97.6125 87.7502 97.1754 87.424C96.7384 87.0978 96.2491 86.8516 95.7074 86.6854C95.1719 86.5192 94.6025 86.4361 93.9993 86.4361C92.9098 86.4361 91.9342 86.71 91.0724 87.2578C90.2169 87.8056 89.5398 88.6089 89.0412 89.6676C88.5488 90.7263 88.3026 92.0189 88.3026 93.5455C88.3026 95.0843 88.5488 96.383 89.0412 97.4418C89.5398 98.5005 90.2199 99.3007 91.0817 99.8423C91.9434 100.384 92.9129 100.655 93.9901 100.655C94.5871 100.655 95.1534 100.575 95.6889 100.415C96.2306 100.249 96.7199 100.005 97.157 99.6854C97.594 99.3653 97.9633 98.9744 98.2649 98.5128C98.5727 98.045 98.785 97.5095 98.902 96.9062L101.783 96.9155C101.629 97.8449 101.33 98.7005 100.887 99.4822C100.45 100.258 99.8868 100.929 99.1974 101.495C98.5142 102.055 97.7325 102.489 96.8523 102.797C95.9721 103.105 95.0118 103.259 93.9716 103.259C92.3343 103.259 90.8755 102.871 89.5952 102.095C88.3149 101.313 87.3054 100.196 86.5668 98.7436C85.8343 97.291 85.468 95.5582 85.468 93.5455C85.468 91.5265 85.8374 89.7938 86.576 88.3473C87.3146 86.8946 88.3241 85.7805 89.6044 85.005C90.8847 84.2232 92.3404 83.8324 93.9716 83.8324C94.9749 83.8324 95.9105 83.977 96.7784 84.2663C97.6525 84.5495 98.4373 84.968 99.1328 85.522C99.8284 86.0698 100.404 86.7408 100.859 87.5348C101.315 88.3227 101.623 89.2244 101.783 90.2401ZM110.949 103.286C109.619 103.286 108.459 102.982 107.468 102.372C106.477 101.763 105.707 100.91 105.16 99.8146C104.612 98.719 104.338 97.4387 104.338 95.9737C104.338 94.5026 104.612 93.2161 105.16 92.1143C105.707 91.0125 106.477 90.157 107.468 89.5476C108.459 88.9382 109.619 88.6335 110.949 88.6335C112.278 88.6335 113.439 88.9382 114.43 89.5476C115.421 90.157 116.19 91.0125 116.738 92.1143C117.286 93.2161 117.559 94.5026 117.559 95.9737C117.559 97.4387 117.286 98.719 116.738 99.8146C116.19 100.91 115.421 101.763 114.43 102.372C113.439 102.982 112.278 103.286 110.949 103.286ZM110.958 100.969C111.82 100.969 112.534 100.741 113.1 100.286C113.666 99.83 114.085 99.2237 114.356 98.4666C114.633 97.7095 114.771 96.8755 114.771 95.9645C114.771 95.0597 114.633 94.2287 114.356 93.4716C114.085 92.7083 113.666 92.0959 113.1 91.6342C112.534 91.1726 111.82 90.9418 110.958 90.9418C110.09 90.9418 109.37 91.1726 108.797 91.6342C108.231 92.0959 107.809 92.7083 107.532 93.4716C107.262 94.2287 107.126 95.0597 107.126 95.9645C107.126 96.8755 107.262 97.7095 107.532 98.4666C107.809 99.2237 108.231 99.83 108.797 100.286C109.37 100.741 110.09 100.969 110.958 100.969ZM119.801 99.2514H122.626C122.663 99.83 122.925 100.276 123.411 100.59C123.903 100.904 124.54 101.061 125.322 101.061C126.116 101.061 126.793 100.892 127.353 100.553C127.913 100.209 128.194 99.6761 128.194 98.956C128.194 98.5251 128.086 98.1496 127.87 97.8295C127.661 97.5033 127.363 97.2509 126.975 97.0724C126.593 96.8939 126.141 96.8047 125.618 96.8047H123.309V94.6349H125.618C126.399 94.6349 126.984 94.4564 127.372 94.0994C127.76 93.7424 127.953 93.2962 127.953 92.7607C127.953 92.1821 127.744 91.7173 127.326 91.3665C126.913 91.0095 126.338 90.831 125.599 90.831C124.848 90.831 124.223 91.0002 123.725 91.3388C123.226 91.6712 122.965 92.102 122.94 92.6314H120.152C120.17 91.8374 120.41 91.1418 120.872 90.5447C121.34 89.9415 121.967 89.4737 122.755 89.1413C123.549 88.8028 124.451 88.6335 125.461 88.6335C126.513 88.6335 127.424 88.8028 128.194 89.1413C128.963 89.4799 129.557 89.9477 129.975 90.5447C130.4 91.1418 130.613 91.8281 130.613 92.6037C130.613 93.3854 130.379 94.0256 129.911 94.5241C129.449 95.0166 128.846 95.3705 128.101 95.5859V95.7337C128.649 95.7706 129.135 95.9368 129.56 96.2322C129.985 96.5277 130.317 96.9186 130.557 97.4048C130.797 97.8911 130.917 98.442 130.917 99.0575C130.917 99.9254 130.677 100.676 130.197 101.31C129.723 101.944 129.065 102.434 128.221 102.778C127.384 103.117 126.427 103.286 125.35 103.286C124.303 103.286 123.365 103.123 122.534 102.797C121.709 102.464 121.053 101.997 120.567 101.393C120.087 100.79 119.832 100.076 119.801 99.2514ZM132.383 107.09V100.609H133.537C133.833 100.338 134.082 100.015 134.285 99.6392C134.494 99.2637 134.67 98.8175 134.811 98.3004C134.959 97.7834 135.082 97.1802 135.181 96.4908C135.279 95.7952 135.365 95.0012 135.439 94.1087L135.882 88.8182H145.521V100.609H147.7V107.09H145.004V103H135.116V107.09H132.383ZM136.492 100.609H142.825V91.1818H138.357L138.061 94.1087C137.92 95.5982 137.741 96.8909 137.526 97.9865C137.31 99.076 136.966 99.95 136.492 100.609ZM154.526 103.314C153.627 103.314 152.815 103.148 152.088 102.815C151.362 102.477 150.787 101.987 150.362 101.347C149.943 100.707 149.734 99.9223 149.734 98.9929C149.734 98.1927 149.888 97.5341 150.196 97.017C150.503 96.5 150.919 96.0907 151.442 95.7891C151.965 95.4875 152.55 95.2597 153.196 95.1058C153.843 94.9519 154.501 94.835 155.172 94.755C156.022 94.6565 156.711 94.5765 157.24 94.5149C157.77 94.4472 158.154 94.3395 158.395 94.1918C158.635 94.044 158.755 93.804 158.755 93.4716V93.407C158.755 92.6006 158.527 91.9759 158.071 91.5327C157.622 91.0895 156.951 90.8679 156.059 90.8679C155.129 90.8679 154.397 91.0741 153.861 91.4865C153.332 91.8928 152.966 92.3452 152.762 92.8438L150.168 92.2528C150.476 91.3911 150.925 90.6955 151.516 90.1662C152.113 89.6307 152.799 89.2429 153.575 89.0028C154.35 88.7566 155.166 88.6335 156.022 88.6335C156.588 88.6335 157.188 88.7012 157.822 88.8366C158.462 88.9659 159.059 89.206 159.613 89.5568C160.173 89.9077 160.632 90.4093 160.989 91.0618C161.346 91.7081 161.525 92.5483 161.525 93.5824V103H158.828V101.061H158.718C158.539 101.418 158.271 101.769 157.914 102.114C157.557 102.458 157.099 102.745 156.539 102.972C155.979 103.2 155.308 103.314 154.526 103.314ZM155.126 101.098C155.889 101.098 156.542 100.947 157.083 100.646C157.631 100.344 158.047 99.95 158.33 99.4638C158.619 98.9714 158.764 98.4451 158.764 97.8849V96.0568C158.665 96.1553 158.475 96.2476 158.191 96.3338C157.914 96.4138 157.597 96.4846 157.24 96.5462C156.883 96.6016 156.536 96.6539 156.197 96.7031C155.859 96.7462 155.575 96.7831 155.348 96.8139C154.812 96.8816 154.323 96.9955 153.88 97.1555C153.443 97.3156 153.092 97.5464 152.827 97.848C152.569 98.1435 152.439 98.5374 152.439 99.0298C152.439 99.7131 152.692 100.23 153.196 100.581C153.701 100.926 154.344 101.098 155.126 101.098ZM167.907 99.1314L174.157 88.8182H177.131V103H174.425V92.6776L168.202 103H165.202V88.8182H167.907V99.1314ZM172.976 84.017H175.247C175.247 85.0573 174.878 85.9036 174.139 86.5561C173.407 87.2024 172.416 87.5256 171.166 87.5256C169.923 87.5256 168.935 87.2024 168.202 86.5561C167.47 85.9036 167.104 85.0573 167.104 84.017H169.366C169.366 84.4787 169.501 84.888 169.772 85.245C170.043 85.5959 170.507 85.7713 171.166 85.7713C171.812 85.7713 172.274 85.5959 172.551 85.245C172.834 84.8942 172.976 84.4848 172.976 84.017ZM179.083 91.2003V88.8182H191.049V91.2003H186.423V103H183.727V91.2003H179.083ZM199.421 103.286C198.024 103.286 196.821 102.988 195.811 102.391C194.808 101.787 194.032 100.941 193.484 99.8516C192.943 98.7559 192.672 97.4725 192.672 96.0014C192.672 94.5488 192.943 93.2685 193.484 92.1605C194.032 91.0526 194.795 90.1877 195.774 89.5661C196.759 88.9444 197.91 88.6335 199.227 88.6335C200.027 88.6335 200.803 88.7659 201.554 89.0305C202.305 89.2952 202.979 89.7107 203.576 90.277C204.173 90.8433 204.644 91.5788 204.989 92.4837C205.333 93.3823 205.506 94.4749 205.506 95.7614V96.7401H194.232V94.6719H202.8C202.8 93.9455 202.653 93.3023 202.357 92.7422C202.062 92.1759 201.646 91.7296 201.111 91.4034C200.581 91.0772 199.96 90.9141 199.246 90.9141C198.47 90.9141 197.793 91.1049 197.214 91.4865C196.642 91.862 196.199 92.3544 195.885 92.9638C195.577 93.567 195.423 94.2225 195.423 94.9304V96.5462C195.423 97.4941 195.589 98.3004 195.922 98.9652C196.26 99.63 196.731 100.138 197.335 100.489C197.938 100.833 198.643 101.006 199.449 101.006C199.972 101.006 200.449 100.932 200.88 100.784C201.311 100.63 201.683 100.402 201.997 100.101C202.311 99.7992 202.551 99.4268 202.717 98.9837L205.33 99.4545C205.121 100.224 204.746 100.898 204.204 101.477C203.668 102.049 202.994 102.495 202.182 102.815C201.375 103.129 200.455 103.286 199.421 103.286ZM221.423 103.286C220.051 103.286 218.869 102.975 217.878 102.354C216.893 101.726 216.136 100.861 215.607 99.7592C215.077 98.6574 214.812 97.3956 214.812 95.9737C214.812 94.5334 215.083 93.2623 215.625 92.1605C216.167 91.0526 216.93 90.1877 217.915 89.5661C218.9 88.9444 220.06 88.6335 221.396 88.6335C222.473 88.6335 223.433 88.8336 224.276 89.2337C225.12 89.6276 225.8 90.1816 226.317 90.8956C226.84 91.6096 227.151 92.4437 227.249 93.3977H224.562C224.415 92.733 224.076 92.1605 223.547 91.6804C223.024 91.2003 222.322 90.9602 221.442 90.9602C220.672 90.9602 219.998 91.1634 219.42 91.5696C218.847 91.9697 218.401 92.5421 218.081 93.2869C217.761 94.0256 217.601 94.8996 217.601 95.9091C217.601 96.9432 217.758 97.8357 218.072 98.5866C218.386 99.3376 218.829 99.9193 219.401 100.332C219.98 100.744 220.66 100.95 221.442 100.95C221.965 100.95 222.439 100.855 222.864 100.664C223.295 100.467 223.655 100.187 223.944 99.8239C224.239 99.4607 224.446 99.0237 224.562 98.5128H227.249C227.151 99.4299 226.852 100.249 226.354 100.969C225.855 101.689 225.187 102.255 224.35 102.668C223.519 103.08 222.544 103.286 221.423 103.286ZM230.202 103V88.8182H236.083C237.683 88.8182 238.951 89.1598 239.887 89.843C240.823 90.5201 241.29 91.4403 241.29 92.6037C241.29 93.4347 241.026 94.0933 240.496 94.5795C239.967 95.0658 239.265 95.392 238.391 95.5582C239.025 95.6321 239.607 95.8229 240.136 96.1307C240.666 96.4323 241.09 96.8385 241.41 97.3494C241.737 97.8603 241.9 98.4697 241.9 99.1776C241.9 99.9285 241.706 100.593 241.318 101.172C240.93 101.744 240.367 102.194 239.628 102.52C238.896 102.84 238.013 103 236.979 103H230.202ZM232.796 100.692H236.979C237.662 100.692 238.197 100.529 238.585 100.202C238.973 99.8762 239.167 99.433 239.167 98.8729C239.167 98.2143 238.973 97.6972 238.585 97.3217C238.197 96.9401 237.662 96.7493 236.979 96.7493H232.796V100.692ZM232.796 94.7273H236.111C236.628 94.7273 237.071 94.6534 237.44 94.5057C237.816 94.358 238.102 94.1487 238.299 93.8778C238.502 93.6009 238.604 93.2746 238.604 92.8991C238.604 92.3513 238.379 91.9235 237.93 91.6158C237.48 91.308 236.865 91.1541 236.083 91.1541H232.796V94.7273ZM250.902 103.286C249.572 103.286 248.412 102.982 247.421 102.372C246.43 101.763 245.661 100.91 245.113 99.8146C244.565 98.719 244.291 97.4387 244.291 95.9737C244.291 94.5026 244.565 93.2161 245.113 92.1143C245.661 91.0125 246.43 90.157 247.421 89.5476C248.412 88.9382 249.572 88.6335 250.902 88.6335C252.231 88.6335 253.392 88.9382 254.383 89.5476C255.374 90.157 256.143 91.0125 256.691 92.1143C257.239 93.2161 257.513 94.5026 257.513 95.9737C257.513 97.4387 257.239 98.719 256.691 99.8146C256.143 100.91 255.374 101.763 254.383 102.372C253.392 102.982 252.231 103.286 250.902 103.286ZM250.911 100.969C251.773 100.969 252.487 100.741 253.053 100.286C253.619 99.83 254.038 99.2237 254.309 98.4666C254.586 97.7095 254.724 96.8755 254.724 95.9645C254.724 95.0597 254.586 94.2287 254.309 93.4716C254.038 92.7083 253.619 92.0959 253.053 91.6342C252.487 91.1726 251.773 90.9418 250.911 90.9418C250.043 90.9418 249.323 91.1726 248.751 91.6342C248.184 92.0959 247.763 92.7083 247.486 93.4716C247.215 94.2287 247.079 95.0597 247.079 95.9645C247.079 96.8755 247.215 97.7095 247.486 98.4666C247.763 99.2237 248.184 99.83 248.751 100.286C249.323 100.741 250.043 100.969 250.911 100.969ZM263.299 99.1314L269.55 88.8182H272.523V103H269.818V92.6776L263.595 103H260.594V88.8182H263.299V99.1314ZM268.368 84.017H270.64C270.64 85.0573 270.27 85.9036 269.532 86.5561C268.799 87.2024 267.808 87.5256 266.559 87.5256C265.315 87.5256 264.327 87.2024 263.595 86.5561C262.862 85.9036 262.496 85.0573 262.496 84.017H264.758C264.758 84.4787 264.894 84.888 265.164 85.245C265.435 85.5959 265.9 85.7713 266.559 85.7713C267.205 85.7713 267.667 85.5959 267.944 85.245C268.227 84.8942 268.368 84.4848 268.368 84.017ZM283.116 103V88.8182H294.684V103H291.979V91.2003H285.802V103H283.116ZM304.488 103.286C303.09 103.286 301.887 102.988 300.877 102.391C299.874 101.787 299.099 100.941 298.551 99.8516C298.009 98.7559 297.738 97.4725 297.738 96.0014C297.738 94.5488 298.009 93.2685 298.551 92.1605C299.099 91.0526 299.862 90.1877 300.841 89.5661C301.825 88.9444 302.976 88.6335 304.294 88.6335C305.094 88.6335 305.869 88.7659 306.62 89.0305C307.371 89.2952 308.045 89.7107 308.642 90.277C309.239 90.8433 309.71 91.5788 310.055 92.4837C310.4 93.3823 310.572 94.4749 310.572 95.7614V96.7401H299.299V94.6719H307.867C307.867 93.9455 307.719 93.3023 307.424 92.7422C307.128 92.1759 306.713 91.7296 306.177 91.4034C305.648 91.0772 305.026 90.9141 304.312 90.9141C303.537 90.9141 302.859 91.1049 302.281 91.4865C301.708 91.862 301.265 92.3544 300.951 92.9638C300.644 93.567 300.49 94.2225 300.49 94.9304V96.5462C300.49 97.4941 300.656 98.3004 300.988 98.9652C301.327 99.63 301.798 100.138 302.401 100.489C303.004 100.833 303.709 101.006 304.515 101.006C305.038 101.006 305.516 100.932 305.946 100.784C306.377 100.63 306.75 100.402 307.064 100.101C307.377 99.7992 307.618 99.4268 307.784 98.9837L310.397 99.4545C310.187 100.224 309.812 100.898 309.27 101.477C308.735 102.049 308.061 102.495 307.248 102.815C306.442 103.129 305.522 103.286 304.488 103.286ZM313.635 108.318V88.8182H316.331V91.1172H316.562C316.722 90.8217 316.953 90.4801 317.254 90.0923C317.556 89.7045 317.975 89.366 318.51 89.0767C319.046 88.7812 319.753 88.6335 320.634 88.6335C321.779 88.6335 322.8 88.9228 323.699 89.5014C324.598 90.08 325.302 90.9141 325.813 92.0036C326.33 93.093 326.589 94.4041 326.589 95.9368C326.589 97.4695 326.334 98.7836 325.823 99.8793C325.312 100.969 324.61 101.809 323.718 102.4C322.825 102.985 321.806 103.277 320.661 103.277C319.8 103.277 319.095 103.132 318.547 102.843C318.005 102.554 317.581 102.215 317.273 101.827C316.965 101.44 316.728 101.095 316.562 100.793H316.396V108.318H313.635ZM316.34 95.9091C316.34 96.9062 316.485 97.7803 316.774 98.5312C317.064 99.2822 317.482 99.87 318.03 100.295C318.578 100.713 319.249 100.923 320.043 100.923C320.868 100.923 321.557 100.704 322.111 100.267C322.665 99.8239 323.084 99.2237 323.367 98.4666C323.656 97.7095 323.801 96.857 323.801 95.9091C323.801 94.9735 323.659 94.1333 323.376 93.3885C323.099 92.6437 322.68 92.0559 322.12 91.625C321.566 91.1941 320.874 90.9787 320.043 90.9787C319.243 90.9787 318.566 91.1849 318.012 91.5973C317.464 92.0097 317.048 92.5852 316.765 93.3239C316.482 94.0625 316.34 94.9242 316.34 95.9091ZM329.682 103V88.8182H335.563C337.164 88.8182 338.432 89.1598 339.367 89.843C340.303 90.5201 340.771 91.4403 340.771 92.6037C340.771 93.4347 340.506 94.0933 339.977 94.5795C339.447 95.0658 338.746 95.392 337.872 95.5582C338.506 95.6321 339.087 95.8229 339.617 96.1307C340.146 96.4323 340.571 96.8385 340.891 97.3494C341.217 97.8603 341.38 98.4697 341.38 99.1776C341.38 99.9285 341.186 100.593 340.798 101.172C340.411 101.744 339.847 102.194 339.109 102.52C338.376 102.84 337.493 103 336.459 103H329.682ZM332.276 100.692H336.459C337.142 100.692 337.678 100.529 338.066 100.202C338.453 99.8762 338.647 99.433 338.647 98.8729C338.647 98.2143 338.453 97.6972 338.066 97.3217C337.678 96.9401 337.142 96.7493 336.459 96.7493H332.276V100.692ZM332.276 94.7273H335.591C336.108 94.7273 336.551 94.6534 336.921 94.5057C337.296 94.358 337.582 94.1487 337.779 93.8778C337.982 93.6009 338.084 93.2746 338.084 92.8991C338.084 92.3513 337.859 91.9235 337.41 91.6158C336.961 91.308 336.345 91.1541 335.563 91.1541H332.276V94.7273ZM346.486 93.6932H350.604C352.34 93.6932 353.675 94.1241 354.611 94.9858C355.547 95.8475 356.014 96.9586 356.014 98.3189C356.014 99.2053 355.805 100.002 355.387 100.71C354.968 101.418 354.356 101.978 353.549 102.391C352.743 102.797 351.761 103 350.604 103H344.409V88.8182H347.114V100.618H350.604C351.398 100.618 352.05 100.412 352.561 99.9993C353.072 99.5807 353.328 99.0483 353.328 98.402C353.328 97.7187 353.072 97.1617 352.561 96.7308C352.05 96.2938 351.398 96.0753 350.604 96.0753H346.486V93.6932ZM358.027 103V88.8182H360.788V103H358.027ZM367.198 99.1314L373.449 88.8182H376.422V103H373.716V92.6776L367.493 103H364.493V88.8182H367.198V99.1314ZM372.267 84.017H374.538C374.538 85.0573 374.169 85.9036 373.43 86.5561C372.698 87.2024 371.707 87.5256 370.457 87.5256C369.214 87.5256 368.226 87.2024 367.493 86.5561C366.761 85.9036 366.395 85.0573 366.395 84.017H368.657C368.657 84.4787 368.792 84.888 369.063 85.245C369.334 85.5959 369.798 85.7713 370.457 85.7713C371.103 85.7713 371.565 85.5959 371.842 85.245C372.125 84.8942 372.267 84.4848 372.267 84.017ZM387.014 103V88.8182H398.583V103H395.878V91.2003H389.701V103H387.014ZM402.274 108.318V88.8182H404.97V91.1172H405.201C405.361 90.8217 405.592 90.4801 405.893 90.0923C406.195 89.7045 406.613 89.366 407.149 89.0767C407.684 88.7812 408.392 88.6335 409.272 88.6335C410.417 88.6335 411.439 88.9228 412.338 89.5014C413.236 90.08 413.941 90.9141 414.452 92.0036C414.969 93.093 415.228 94.4041 415.228 95.9368C415.228 97.4695 414.972 98.7836 414.461 99.8793C413.95 100.969 413.249 101.809 412.356 102.4C411.464 102.985 410.445 103.277 409.3 103.277C408.438 103.277 407.734 103.132 407.186 102.843C406.644 102.554 406.219 102.215 405.912 101.827C405.604 101.44 405.367 101.095 405.201 100.793H405.034V108.318H402.274ZM404.979 95.9091C404.979 96.9062 405.124 97.7803 405.413 98.5312C405.702 99.2822 406.121 99.87 406.669 100.295C407.217 100.713 407.887 100.923 408.681 100.923C409.506 100.923 410.196 100.704 410.75 100.267C411.304 99.8239 411.722 99.2237 412.005 98.4666C412.295 97.7095 412.439 96.857 412.439 95.9091C412.439 94.9735 412.298 94.1333 412.015 93.3885C411.738 92.6437 411.319 92.0559 410.759 91.625C410.205 91.1941 409.512 90.9787 408.681 90.9787C407.881 90.9787 407.204 91.1849 406.65 91.5973C406.102 92.0097 405.687 92.5852 405.404 93.3239C405.121 94.0625 404.979 94.9242 404.979 95.9091ZM424.294 103.286C422.965 103.286 421.805 102.982 420.814 102.372C419.823 101.763 419.053 100.91 418.505 99.8146C417.958 98.719 417.684 97.4387 417.684 95.9737C417.684 94.5026 417.958 93.2161 418.505 92.1143C419.053 91.0125 419.823 90.157 420.814 89.5476C421.805 88.9382 422.965 88.6335 424.294 88.6335C425.624 88.6335 426.784 88.9382 427.775 89.5476C428.766 90.157 429.536 91.0125 430.083 92.1143C430.631 93.2161 430.905 94.5026 430.905 95.9737C430.905 97.4387 430.631 98.719 430.083 99.8146C429.536 100.91 428.766 101.763 427.775 102.372C426.784 102.982 425.624 103.286 424.294 103.286ZM424.304 100.969C425.165 100.969 425.879 100.741 426.446 100.286C427.012 99.83 427.431 99.2237 427.701 98.4666C427.978 97.7095 428.117 96.8755 428.117 95.9645C428.117 95.0597 427.978 94.2287 427.701 93.4716C427.431 92.7083 427.012 92.0959 426.446 91.6342C425.879 91.1726 425.165 90.9418 424.304 90.9418C423.436 90.9418 422.716 91.1726 422.143 91.6342C421.577 92.0959 421.155 92.7083 420.878 93.4716C420.607 94.2287 420.472 95.0597 420.472 95.9645C420.472 96.8755 420.607 97.7095 420.878 98.4666C421.155 99.2237 421.577 99.83 422.143 100.286C422.716 100.741 423.436 100.969 424.304 100.969ZM440.099 103.286C438.702 103.286 437.498 102.988 436.489 102.391C435.485 101.787 434.71 100.941 434.162 99.8516C433.62 98.7559 433.35 97.4725 433.35 96.0014C433.35 94.5488 433.62 93.2685 434.162 92.1605C434.71 91.0526 435.473 90.1877 436.452 89.5661C437.437 88.9444 438.588 88.6335 439.905 88.6335C440.705 88.6335 441.481 88.7659 442.232 89.0305C442.983 89.2952 443.657 89.7107 444.254 90.277C444.851 90.8433 445.322 91.5788 445.666 92.4837C446.011 93.3823 446.183 94.4749 446.183 95.7614V96.7401H434.91V94.6719H443.478C443.478 93.9455 443.33 93.3023 443.035 92.7422C442.74 92.1759 442.324 91.7296 441.789 91.4034C441.259 91.0772 440.637 90.9141 439.923 90.9141C439.148 90.9141 438.471 91.1049 437.892 91.4865C437.32 91.862 436.877 92.3544 436.563 92.9638C436.255 93.567 436.101 94.2225 436.101 94.9304V96.5462C436.101 97.4941 436.267 98.3004 436.6 98.9652C436.938 99.63 437.409 100.138 438.012 100.489C438.615 100.833 439.32 101.006 440.127 101.006C440.65 101.006 441.127 100.932 441.558 100.784C441.989 100.63 442.361 100.402 442.675 100.101C442.989 99.7992 443.229 99.4268 443.395 98.9837L446.008 99.4545C445.799 100.224 445.423 100.898 444.882 101.477C444.346 102.049 443.672 102.495 442.86 102.815C442.053 103.129 441.133 103.286 440.099 103.286ZM449.246 103V88.8182H452.007V94.7642H453.337L458.018 88.8182H461.434L455.94 95.7152L461.499 103H458.073L453.798 97.331H452.007V103H449.246ZM462.849 91.2003V88.8182H474.815V91.2003H470.189V103H467.493V91.2003H462.849Z" fill="#333232"/>
<path d="M301.07 225.836C302.365 226.473 303.783 226.821 305.225 226.856C305.306 226.846 305.385 226.821 305.456 226.781C305.527 226.741 305.589 226.688 305.64 226.624C305.69 226.559 305.727 226.486 305.748 226.407C305.77 226.329 305.776 226.246 305.765 226.166C305.645 225.221 304.58 226.031 301.625 224.666L301.775 223.556C301.85 223.241 301.475 222.731 301.07 222.881C300.665 223.031 300.56 223.511 300.44 224.381C300.32 225.251 300.26 225.431 301.07 225.836ZM144.5 230.096C146.305 229.605 148 228.775 149.495 227.651C150.08 227.201 149.885 226.151 149.72 225.551C149.673 225.395 149.57 225.262 149.432 225.178C149.293 225.093 149.128 225.063 148.968 225.092C148.808 225.122 148.665 225.21 148.565 225.339C148.466 225.467 148.418 225.628 148.43 225.791C148.459 226.116 148.519 226.437 148.61 226.751C145.055 229.346 143.675 228.701 143.885 229.751C143.932 229.87 144.019 229.97 144.131 230.033C144.243 230.096 144.374 230.118 144.5 230.096ZM140.42 227.321C143.42 227.321 142.4 225.551 141.59 225.821L140.435 226.001C139.445 221.306 140.24 220.316 139.385 220.286C139.256 220.277 139.129 220.32 139.031 220.404C138.933 220.488 138.872 220.607 138.86 220.736C138.754 222.59 138.89 224.451 139.265 226.271C139.43 227.081 139.73 227.321 140.42 227.321ZM227.525 224.741C228.38 224.741 232.88 223.766 233.645 223.646C234.77 223.451 236.105 223.106 236.195 221.891C236.195 221.141 235.655 220.271 235.04 220.721C234.912 220.81 234.818 220.94 234.772 221.089C234.725 221.239 234.73 221.399 234.785 221.546C235.01 222.131 234.53 222.086 227.285 223.661C227.152 223.702 227.039 223.791 226.969 223.912C226.899 224.033 226.877 224.175 226.907 224.311C226.938 224.447 227.018 224.567 227.132 224.647C227.247 224.726 227.387 224.76 227.525 224.741ZM128.87 188.021C129.2 188.396 130.01 188.021 129.77 187.451C128.27 183.791 125.51 179.711 123.77 175.691C123.5 175.046 122.96 173.951 122.435 173.891C122.369 173.881 122.302 173.89 122.242 173.917C122.181 173.943 122.128 173.986 122.09 174.041C121.76 174.491 122.24 175.736 122.465 176.261C123.155 177.746 126.5 185.306 128.87 188.021ZM177.5 181.691C177.528 181.808 177.587 181.915 177.669 182.003C177.752 182.091 177.856 182.155 177.971 182.19C178.087 182.225 178.209 182.229 178.326 182.202C178.444 182.175 178.552 182.117 178.64 182.036C179.879 180.908 181.004 179.662 182 178.316C186.5 192.716 186.5 193.226 187.205 193.226C187.306 193.223 187.406 193.198 187.496 193.154C187.587 193.109 187.667 193.045 187.731 192.967C187.795 192.889 187.842 192.798 187.867 192.7C187.893 192.602 187.897 192.5 187.88 192.401C186.2 187.091 184.43 181.901 182.9 176.606C182.866 176.474 182.794 176.355 182.692 176.265C182.591 176.174 182.465 176.116 182.33 176.096C182.195 176.077 182.058 176.098 181.935 176.157C181.813 176.215 181.71 176.309 181.64 176.426C180.779 177.78 179.773 179.038 178.64 180.176C177.74 176.066 175.64 166.676 175.64 166.676C175.602 166.524 175.506 166.394 175.373 166.314C175.239 166.234 175.079 166.21 174.928 166.248C174.777 166.286 174.647 166.382 174.566 166.516C174.486 166.649 174.462 166.809 174.5 166.961C175.01 169.286 177.185 180.656 177.5 181.691ZM99.3652 259.721C94.5352 257.411 90.2302 255.041 85.2802 252.431C84.3202 251.921 83.6602 253.676 85.1602 254.081C89.482 256.778 94.0903 258.987 98.9002 260.666C99.5002 260.831 99.9202 260.051 99.3652 259.721ZM103.205 225.086C103.308 225.177 103.437 225.234 103.574 225.25C103.71 225.266 103.849 225.24 103.97 225.176C104.96 224.696 103.685 223.511 104.165 216.386C116.33 231.071 115.655 230.696 116.165 230.696C116.271 230.702 116.376 230.678 116.469 230.627C116.561 230.576 116.637 230.499 116.688 230.406C116.738 230.313 116.761 230.208 116.753 230.102C116.746 229.997 116.708 229.895 116.645 229.811C114.74 227.411 106.4 217.046 104.18 214.226C104.097 214.12 103.985 214.04 103.857 213.996C103.73 213.952 103.593 213.945 103.462 213.977C103.331 214.009 103.211 214.077 103.118 214.174C103.025 214.271 102.961 214.393 102.935 214.526C102.63 217.265 102.58 220.027 102.785 222.776C98.2852 218.741 93.9802 214.466 89.4352 210.536C89.2976 210.425 89.1255 210.367 88.9491 210.371C88.7728 210.375 88.6034 210.441 88.4709 210.557C88.3383 210.673 88.251 210.833 88.2244 211.007C88.1978 211.182 88.2335 211.36 88.3252 211.511C90.0952 214.256 100.085 222.251 103.205 225.086ZM221.525 169.451C221.525 169.598 221.584 169.739 221.688 169.843C221.792 169.947 221.933 170.006 222.08 170.006C222.227 170.006 222.369 169.947 222.473 169.843C222.577 169.739 222.635 169.598 222.635 169.451C222.892 163.941 222.661 158.419 221.945 152.951C221.93 152.806 221.873 152.67 221.781 152.557C221.69 152.444 221.567 152.361 221.429 152.316C221.291 152.272 221.143 152.268 221.003 152.306C220.863 152.344 220.737 152.422 220.64 152.531C219.965 153.401 221.585 156.146 221.525 169.451ZM262.115 195.506C273.53 176.246 272.915 177.206 272.825 176.861C272.57 175.991 271.85 176.411 266.075 178.151C267.575 172.826 269.45 167.141 270.695 161.756C270.721 161.581 270.681 161.404 270.582 161.258C270.484 161.112 270.335 161.008 270.164 160.967C269.992 160.925 269.812 160.949 269.658 161.034C269.504 161.119 269.387 161.259 269.33 161.426C267.635 167.426 265.955 173.291 264.335 179.051C264.309 179.17 264.314 179.293 264.348 179.41C264.383 179.527 264.447 179.633 264.534 179.719C264.621 179.804 264.728 179.866 264.845 179.899C264.963 179.931 265.087 179.934 265.205 179.906C265.205 179.906 269.18 178.676 270.785 178.151L261.2 194.996C261.144 195.116 261.135 195.253 261.175 195.38C261.216 195.506 261.303 195.613 261.42 195.678C261.536 195.742 261.672 195.761 261.801 195.729C261.93 195.697 262.043 195.617 262.115 195.506ZM369.365 239.501C368.585 239.126 354.155 248.096 354.005 248.201C353.48 248.576 354.005 249.506 354.545 249.221C355.415 248.831 369.2 241.166 369.665 240.341C369.701 240.266 369.721 240.185 369.725 240.102C369.73 240.019 369.717 239.936 369.689 239.858C369.662 239.78 369.619 239.709 369.563 239.647C369.507 239.586 369.44 239.536 369.365 239.501ZM331.175 222.356C331.175 222.356 345.635 211.331 348.335 209.231C348.92 208.766 348.335 207.731 347.645 207.806C344.923 207.87 342.213 208.177 339.545 208.721C343.417 204.59 346.846 200.065 349.775 195.221C350.27 194.411 349.07 193.571 348.59 194.396C345.285 199.786 341.353 204.766 336.875 209.231C336.395 209.696 336.695 210.836 337.475 210.731C340.123 210.056 342.822 209.605 345.545 209.381C345.545 209.381 334.085 218.606 330.545 221.531C330.486 221.626 330.457 221.738 330.462 221.85C330.467 221.963 330.507 222.071 330.575 222.161C330.644 222.25 330.738 222.317 330.845 222.352C330.952 222.386 331.067 222.388 331.175 222.356ZM310.49 178.931C319.7 163.061 321.305 160.751 319.76 160.361C319.1 160.196 319.13 160.256 309.455 178.361C309.41 178.494 309.413 178.639 309.464 178.771C309.515 178.902 309.61 179.011 309.734 179.079C309.857 179.147 310.001 179.17 310.139 179.143C310.277 179.115 310.402 179.04 310.49 178.931Z" fill="#333232"/>
<path d="M353.001 276.835C346.881 257.53 331.416 242.68 310.536 236.11C310.522 235.728 310.482 235.347 310.416 234.97C316.116 232.48 317.391 223.915 316.131 216.46C317.226 214.675 320.136 205.495 317.991 206.755L314.076 209.065C313.521 207.565 312.876 206.17 312.186 204.79C312.336 202.39 310.146 198.1 306.291 195.295C302.751 192.715 296.661 190.405 287.781 194.095C280.851 196.975 273.036 203.335 271.851 212.575C270.351 224.575 274.326 230.395 266.901 241.54C258.696 237.826 249.951 235.446 240.996 234.49C240.996 233.818 240.951 233.147 240.861 232.48C244.686 230.545 245.496 224.245 245.661 222.19C250.161 218.29 250.686 210.52 247.161 210.34C248.067 204.774 248.413 199.131 248.196 193.495C248.001 190 246.501 189.22 245.811 189.07C245.324 188.978 244.821 189.025 244.359 189.206C243.898 189.386 243.496 189.693 243.201 190.09C242.076 187.795 239.916 188.08 238.701 189.82C238.581 189.203 238.271 188.638 237.813 188.207C237.356 187.775 236.774 187.499 236.151 187.416C235.527 187.333 234.893 187.448 234.339 187.745C233.784 188.042 233.337 188.506 233.061 189.07C232.77 188.451 232.302 187.932 231.715 187.58C231.129 187.228 230.451 187.057 229.768 187.091C229.084 187.125 228.427 187.361 227.878 187.77C227.329 188.178 226.914 188.741 226.686 189.385C225.186 186.13 221.361 186.88 220.506 190.18C219.381 187.645 216.306 187.66 215.241 190.6C212.436 188.53 210.231 190.6 209.781 194.005C209.508 199.795 209.749 205.598 210.501 211.345C205.416 210.205 209.376 222.115 212.406 222.4C212.931 226.9 214.791 231.85 218.406 233.05C218.406 233.65 218.316 234.265 218.316 234.865C208.617 236.414 199.284 239.724 190.776 244.63C186.096 241.33 175.686 236.845 165.681 237.67C163.868 233.84 162.504 229.814 161.616 225.67C160.956 222.055 162.651 220.63 162.636 217.51C164.578 213.597 165.062 209.119 164.001 204.88C159.276 189.88 130.731 195.58 131.541 212.05C131.646 213.925 131.811 215.8 131.976 217.255C128.451 218.32 128.976 218.575 129.951 222.865C130.476 225.205 131.076 227.14 133.536 226.63C134.661 231.505 137.496 239.29 144.186 239.29C144.591 239.29 144.186 239.035 144.561 241.555C127.776 248.86 106.701 262.555 101.241 286.555C99.9207 292.345 99.1257 300.565 102.906 306.775C107.061 313.69 114.411 314.125 119.691 313.78C118.455 320.571 118.057 327.488 118.506 334.375C118.508 334.472 118.538 334.565 118.59 334.646C118.642 334.727 118.716 334.792 118.803 334.834C118.889 334.875 118.986 334.892 119.082 334.883C119.177 334.874 119.269 334.838 119.346 334.78C120.156 334.3 118.566 333.79 121.101 313.675C135.231 312.37 148.701 306.295 161.151 299.905C163.206 301.405 165.246 302.905 167.361 304.255C169.1 307.771 171.764 310.747 175.068 312.861C178.372 314.976 182.19 316.149 186.111 316.255C185.736 322.57 185.736 328.901 186.111 335.215C186.116 335.292 186.137 335.366 186.172 335.434C186.207 335.502 186.256 335.563 186.314 335.612C186.373 335.661 186.441 335.697 186.514 335.719C186.588 335.742 186.665 335.749 186.741 335.74C188.031 335.62 186.366 334.975 187.386 316.24C199.866 316.24 210.111 308.095 220.386 301.87C232.476 307.405 262.116 317.71 277.791 314.74C278.511 321.13 278.406 327.19 279.021 333.37C279.041 333.481 279.099 333.582 279.185 333.654C279.272 333.726 279.381 333.766 279.493 333.766C279.606 333.766 279.715 333.726 279.801 333.654C279.888 333.582 279.946 333.481 279.966 333.37C280.359 327.056 280.103 320.718 279.201 314.455C290.076 311.875 296.751 304.21 298.521 292.3C299.241 291.82 300.021 291.28 300.831 290.665C310.116 294.37 329.331 303.385 338.721 303.715C338.286 310.69 337.671 318.055 337.566 325.285C337.587 325.408 337.65 325.518 337.745 325.598C337.839 325.678 337.959 325.722 338.083 325.722C338.207 325.722 338.327 325.678 338.422 325.598C338.516 325.518 338.58 325.408 338.601 325.285C338.811 323.29 340.176 306.265 340.101 303.67C355.131 303.325 357.501 291.025 353.001 276.835ZM245.961 212.725C246.366 212.185 246.591 211.555 247.176 211.735C249.276 212.35 247.596 217.57 245.841 219.895C245.991 217.51 246.036 215.095 245.961 212.725ZM210.156 212.725C210.636 212.725 210.576 212.935 211.656 213.145L212.256 220.555C210.036 218.5 208.431 212.755 210.156 212.755V212.725ZM314.376 211.225C314.439 211.015 314.584 210.838 314.778 210.734C314.972 210.63 315.2 210.607 315.411 210.67C315.622 210.734 315.799 210.879 315.903 211.073C316.007 211.267 316.029 211.495 315.966 211.705C315.441 213.565 315.036 214.915 314.691 216.205C314.602 216.366 314.477 216.504 314.326 216.608C314.175 216.712 314.002 216.78 313.821 216.805C312.501 216.85 313.911 212.575 314.376 211.195V211.225ZM289.131 217.225C289.986 216.58 291.021 217.405 291.186 217.42C292.596 218.32 294.186 217.015 293.781 216.64L293.481 216.4C292.371 215.53 290.091 213.73 290.571 212.5C290.931 211.57 292.401 211.705 293.361 211.66C293.395 211.659 293.428 211.651 293.458 211.635C293.489 211.619 293.515 211.596 293.535 211.569C293.555 211.542 293.569 211.51 293.575 211.476C293.581 211.443 293.58 211.408 293.571 211.375C293.421 210.895 293.241 210.415 293.061 209.875C298.729 207.064 304.945 205.528 311.271 205.375C311.916 206.875 312.471 208.3 312.966 209.71C311.091 210.775 308.961 211.945 308.466 214.075C308.02 214.02 307.568 214.065 307.142 214.208C306.716 214.351 306.328 214.588 306.006 214.9C303.651 212.065 293.901 212.305 291.936 212.38C289.401 212.485 296.091 217.6 297.936 219.04C304.131 223.855 308.181 220.54 306.636 216.145C306.852 215.88 307.137 215.678 307.459 215.562C307.782 215.446 308.13 215.419 308.466 215.485C308.522 215.77 308.612 216.048 308.736 216.31C308.661 216.273 308.579 216.254 308.496 216.254C308.412 216.254 308.33 216.273 308.256 216.31C307.641 216.7 308.256 217.225 309.666 219.73C309.492 219.907 309.306 220.073 309.111 220.225C308.541 220.645 309.036 222.475 310.941 220.225C311.226 219.88 310.686 218.875 310.086 217.99C310.81 218.484 311.678 218.722 312.552 218.668C313.427 218.614 314.258 218.27 314.916 217.69C315.571 221.718 315.2 225.845 313.836 229.69C312.336 233.365 308.571 233.575 309.336 234.97C309.534 239.916 309.131 244.867 308.136 249.715C304.281 248.875 296.691 239.47 293.661 235.105C293.975 231.458 293.504 227.786 292.281 224.335C291.276 222.595 289.281 221.8 288.756 219.835C288.551 219.397 288.477 218.909 288.544 218.43C288.61 217.951 288.814 217.501 289.131 217.135V217.225ZM311.871 214.72C311.706 215.215 311.601 215.905 311.061 215.905C310.521 215.905 310.251 215.275 310.311 214.735C310.371 214.195 310.521 212.95 311.091 212.62C311.2 212.566 311.321 212.538 311.443 212.538C311.566 212.538 311.686 212.566 311.796 212.62C312.501 212.815 312.126 213.865 311.871 214.63V214.72ZM303.786 218.17C303.621 218.575 303.456 219.31 302.976 219.535C302.892 219.577 302.799 219.598 302.706 219.598C302.612 219.598 302.52 219.577 302.436 219.535C301.536 219.205 302.526 215.86 303.336 215.215C303.406 215.143 303.494 215.09 303.591 215.061C303.687 215.032 303.79 215.028 303.888 215.049C303.987 215.07 304.079 215.115 304.155 215.181C304.232 215.247 304.29 215.331 304.326 215.425C304.641 216.115 303.876 217.855 303.786 218.08V218.17ZM300.501 216.715C300.306 217.105 300.216 217.465 299.706 217.465C299.586 217.474 299.466 217.453 299.356 217.404C299.246 217.355 299.15 217.279 299.076 217.185C299.002 217.09 298.952 216.978 298.931 216.86C298.91 216.742 298.919 216.62 298.956 216.505C299.121 216.01 299.301 214.885 299.901 214.585C299.996 214.542 300.099 214.518 300.204 214.515C300.308 214.513 300.412 214.532 300.509 214.571C300.606 214.61 300.694 214.669 300.768 214.744C300.841 214.819 300.898 214.908 300.936 215.005C301.146 215.5 300.801 216.175 300.501 216.715ZM293.001 235.945C297.261 243.295 308.481 253.945 309.351 250.375C310.332 246.138 310.785 241.795 310.701 237.445C331.251 244.705 345.201 258.01 351.276 275.965C346.878 273.867 342.047 272.839 337.176 272.965C336.966 268.03 330.201 258.49 327.606 255.625C327.081 255.04 326.106 255.79 326.676 256.375C330.566 260.781 333.544 265.915 335.436 271.48C328.086 265.945 313.281 258.22 292.986 264.58C287.721 255.593 280.032 248.269 270.801 243.445C277.444 239.101 285.084 236.52 293.001 235.945ZM214.776 202.105C223.796 199.643 233.274 199.371 242.421 201.31C242.267 203.852 242.347 206.403 242.661 208.93H242.391C241.146 203.2 233.166 201.43 230.481 207.43C229.109 206.965 227.622 206.965 226.251 207.43C223.656 202.03 216.141 203.77 214.761 209.11H214.476C214.791 206.79 214.892 204.445 214.776 202.105ZM235.176 214.45C235.446 213.685 237.876 208.015 239.451 207.85C239.582 207.849 239.711 207.878 239.829 207.937C239.946 207.995 240.048 208.081 240.126 208.186C240.203 208.292 240.255 208.414 240.276 208.544C240.296 208.673 240.286 208.806 240.246 208.93C238.907 210.838 237.713 212.844 236.676 214.93C236.301 215.86 234.831 215.5 235.176 214.45ZM233.001 212.35C232.821 212.8 232.011 213.07 231.726 212.545C231.441 212.02 232.131 210.025 234.081 207.1C234.576 206.365 235.041 206.005 235.446 206.065C235.578 206.103 235.698 206.172 235.797 206.267C235.896 206.362 235.97 206.48 236.013 206.61C236.056 206.74 236.066 206.879 236.043 207.014C236.02 207.149 235.964 207.277 235.881 207.385C234.739 208.928 233.773 210.594 233.001 212.35ZM219.951 214.84C220.596 213.43 221.316 212.005 222.006 210.61C222.079 210.476 222.188 210.364 222.32 210.285C222.452 210.207 222.602 210.166 222.756 210.166C222.909 210.166 223.06 210.207 223.192 210.285C223.324 210.364 223.432 210.476 223.506 210.61C223.6 210.753 223.65 210.92 223.65 211.09C223.65 211.261 223.6 211.428 223.506 211.57C222.846 212.875 222.171 214.24 221.451 215.56C220.881 216.31 219.501 215.74 219.951 214.84ZM218.136 212.95L218.046 213.055C217.581 213.73 216.411 213.295 216.726 212.44C217.592 210.136 218.698 207.929 220.026 205.855C220.671 205.075 221.976 205.75 221.526 206.665C220.461 208.795 219.156 210.79 218.136 212.95ZM212.781 213.085C213.741 212.68 214.011 211.585 214.281 210.64L214.596 210.55C214.517 211.591 214.645 212.637 214.972 213.628C215.299 214.619 215.818 215.536 216.501 216.325C217.31 217.12 218.324 217.674 219.429 217.926C220.535 218.178 221.689 218.118 222.762 217.752C223.835 217.387 224.786 216.73 225.508 215.856C226.23 214.981 226.695 213.924 226.851 212.8C226.696 214.245 226.631 215.698 226.656 217.15C226.656 218.05 226.446 219.175 227.556 219.25H229.056C229.836 219.25 230.046 217.9 229.146 217.885H228.036C227.948 215.213 228.094 212.538 228.471 209.89C228.576 209.155 227.511 209.05 227.361 209.74C226.701 212.965 227.361 211.12 226.776 208.735C227.823 208.36 228.968 208.36 230.016 208.735C229.685 209.938 229.62 211.198 229.825 212.428C230.03 213.658 230.499 214.83 231.201 215.86C231.735 216.553 232.412 217.122 233.186 217.53C233.96 217.938 234.813 218.175 235.686 218.225C236.559 218.275 237.433 218.136 238.248 217.819C239.064 217.502 239.801 217.013 240.411 216.385C241.884 214.741 242.669 212.593 242.601 210.385H242.886C243.066 211.69 243.336 213.49 244.716 213.385C244.566 218.515 245.016 227.305 240.951 230.515C240.426 230.935 239.826 231.415 239.751 231.895C239.563 233.485 239.563 235.091 239.751 236.68C240.186 240.835 232.911 249.055 229.146 252.565C221.886 242.695 219.801 241.72 219.816 233.065C219.816 232.195 219.711 232.06 219.111 231.76C213.036 228.82 213.591 220.345 212.781 213.085ZM218.391 236.185C218.556 240.79 222.171 247.015 228.546 253.72C229.836 255.4 241.236 241.405 241.011 238.375V235.84C271.716 239.455 293.721 257.125 297.231 280.945C284.481 278.44 268.371 281.38 265.641 281.905C264.47 274.445 262.264 267.185 259.086 260.335C259.032 260.202 258.928 260.096 258.795 260.039C258.663 259.983 258.514 259.982 258.381 260.035C258.247 260.089 258.141 260.194 258.085 260.326C258.028 260.458 258.027 260.607 258.081 260.74C260.839 267.501 262.851 274.543 264.081 281.74C256.191 273.43 244.191 269.74 227.466 270.49C217.399 270.957 207.399 272.379 197.601 274.735C198.384 270.161 200.251 265.841 203.046 262.135C203.107 262.024 203.126 261.894 203.098 261.769C203.07 261.645 202.998 261.535 202.896 261.459C202.793 261.384 202.666 261.349 202.539 261.36C202.412 261.371 202.294 261.428 202.206 261.52C199.054 265.415 196.984 270.071 196.206 275.02C185.33 277.629 174.769 281.406 164.706 286.285C166.086 256.9 193.251 241.15 218.391 236.185ZM153.336 208.405C153.32 209.83 153.406 211.253 153.591 212.665C148.191 212.8 139.611 214.9 133.221 216.88C133.056 215.56 132.681 213.16 132.666 211.735C139.095 208.671 146.269 207.515 153.336 208.405ZM148.566 216.46C145.566 221.56 146.211 222.46 145.206 222.46C145.093 222.467 144.98 222.447 144.877 222.401C144.774 222.355 144.683 222.285 144.612 222.197C144.542 222.109 144.493 222.005 144.471 221.894C144.449 221.783 144.454 221.669 144.486 221.56C145.851 216.4 147.156 215.44 147.816 215.32C147.96 215.291 148.109 215.306 148.245 215.362C148.38 215.418 148.496 215.514 148.576 215.637C148.657 215.759 148.699 215.903 148.697 216.05C148.695 216.197 148.65 216.34 148.566 216.46ZM143.931 217.585C143.376 218.5 143.241 219.775 142.431 219.58C141.621 219.385 142.206 217.555 142.686 216.58C143.166 215.605 143.586 215.59 143.871 215.665C144.031 215.709 144.174 215.802 144.279 215.931C144.384 216.06 144.446 216.219 144.456 216.385C144.397 216.827 144.215 217.243 143.931 217.585ZM132.771 220.585C132.606 220.975 132.591 222.175 131.781 222.175C131.623 222.182 131.468 222.135 131.34 222.042C131.212 221.95 131.119 221.817 131.076 221.665C130.996 220.616 131.33 219.577 132.006 218.77C132.145 218.646 132.32 218.569 132.506 218.55C132.692 218.531 132.879 218.571 133.041 218.665C133.401 218.905 133.326 219.535 132.771 220.54V220.585ZM133.326 224.08C134.691 219.175 135.471 218.455 135.936 218.35C136.031 218.328 136.131 218.334 136.224 218.365C136.317 218.397 136.399 218.454 136.461 218.53C136.665 218.767 136.767 219.074 136.746 219.385L134.766 224.5C134.704 224.691 134.569 224.85 134.39 224.941C134.212 225.033 134.004 225.05 133.813 224.988C133.622 224.926 133.464 224.791 133.372 224.613C133.281 224.434 133.264 224.226 133.326 224.035V224.08ZM134.826 226.345C137.706 225.505 138.636 225.745 138.321 221.365C138.216 220.12 137.976 217.285 139.236 217.33C140.256 217.33 140.286 222.07 141.801 223.54C143.316 225.01 145.281 223.975 146.931 223.54C151.431 222.31 150.441 220.39 150.111 214.435L153.891 214.135C155.586 222.925 157.866 216.34 159.396 215.35C160.371 214.735 161.211 216.085 161.391 217.12C161.736 219.34 159.891 221.77 160.281 225.025C161.165 229.737 162.678 234.308 164.781 238.615C161.496 244.855 152.061 250.615 147.861 252.895C146.091 246.475 145.941 238.045 144.861 238.075C139.881 238.105 136.611 234.34 134.766 226.3L134.826 226.345ZM144.696 242.995C144.966 245.26 146.076 254.995 147.696 254.185C151.776 252.265 164.196 244.105 165.966 238.855C168.591 239.455 176.781 237.865 189.501 245.53C180.114 251.137 172.582 259.379 167.841 269.23C155.706 267.73 140.691 265.855 128.076 272.515C131.931 263.425 134.241 262.525 133.146 261.805C133.089 261.767 133.025 261.74 132.958 261.726C132.89 261.713 132.821 261.713 132.754 261.727C132.687 261.741 132.623 261.769 132.566 261.808C132.51 261.847 132.462 261.897 132.426 261.955C132.036 262.54 126.561 271.585 126.426 273.43C124.311 274.72 119.796 278.02 118.446 280.615C112.931 280.723 107.558 282.376 102.936 285.385C107.496 267.73 121.911 253.075 144.636 242.95L144.696 242.995ZM105.801 308.5C100.071 302.5 101.301 292.465 102.486 286.96C117.126 277.345 136.476 281.455 160.026 299.2C152.106 302.59 117.501 320.635 105.801 308.5ZM119.961 280.585C131.871 267.4 149.091 268.24 167.226 270.475C162.576 281.2 162.171 292.525 166.056 301.765C152.556 291.655 136.611 280.54 119.961 280.54V280.585ZM187.281 315.085C172.506 315.085 164.571 302.11 164.781 287.71C185.781 278.275 204.126 273.445 224.226 272.05C242.586 270.775 254.946 274.12 263.046 282.55C223.476 291.415 207.141 315.04 187.281 315.04V315.085ZM278.001 313.435C263.316 316.75 239.001 308.08 221.721 301.165C249.261 284.905 274.041 278.77 297.426 282.415C299.271 299.17 292.371 310.18 278.001 313.435ZM298.806 290.725C299.584 282.052 297.751 273.344 293.541 265.72C309.651 261.55 323.256 263.98 335.076 273.13C319.551 274.285 303.906 286.405 298.791 290.725H298.806ZM339.606 302.38C330.426 302.38 311.106 293.38 302.211 289.75C311.721 282.55 322.986 274.915 336.546 274.375C341.843 274.048 347.126 275.207 351.801 277.72C355.821 291.28 353.811 302.29 339.591 302.38H339.606Z" fill="#333232"/>
<rect x="81" y="370" width="398" height="62" rx="19" stroke="#333232" stroke-width="2"/>
<path d="M105.598 408V393.455H107.793V399.776H115.044V393.455H117.246V408H115.044V401.658H107.793V408H105.598ZM123.446 408.241C122.755 408.241 122.13 408.114 121.571 407.858C121.012 407.598 120.57 407.221 120.243 406.729C119.921 406.236 119.76 405.633 119.76 404.918C119.76 404.302 119.878 403.795 120.115 403.398C120.352 403 120.671 402.685 121.074 402.453C121.476 402.221 121.926 402.046 122.423 401.928C122.92 401.809 123.427 401.719 123.943 401.658C124.597 401.582 125.127 401.52 125.534 401.473C125.941 401.421 126.237 401.338 126.422 401.224C126.607 401.111 126.699 400.926 126.699 400.67V400.621C126.699 400 126.524 399.52 126.173 399.179C125.828 398.838 125.312 398.668 124.625 398.668C123.91 398.668 123.347 398.826 122.935 399.143C122.527 399.456 122.246 399.804 122.089 400.188L120.094 399.733C120.33 399.07 120.676 398.535 121.131 398.128C121.59 397.716 122.118 397.418 122.714 397.233C123.311 397.044 123.938 396.949 124.597 396.949C125.032 396.949 125.494 397.001 125.982 397.105C126.474 397.205 126.933 397.389 127.359 397.659C127.79 397.929 128.143 398.315 128.418 398.817C128.692 399.314 128.83 399.96 128.83 400.756V408H126.756V406.509H126.67C126.533 406.783 126.327 407.053 126.053 407.318C125.778 407.583 125.425 407.804 124.994 407.979C124.563 408.154 124.047 408.241 123.446 408.241ZM123.908 406.537C124.495 406.537 124.997 406.421 125.413 406.189C125.835 405.957 126.154 405.654 126.372 405.28C126.595 404.901 126.706 404.496 126.706 404.065V402.659C126.63 402.735 126.483 402.806 126.266 402.872C126.053 402.934 125.809 402.988 125.534 403.036C125.259 403.078 124.992 403.118 124.732 403.156C124.471 403.189 124.253 403.218 124.078 403.241C123.666 403.294 123.29 403.381 122.949 403.504C122.613 403.627 122.343 403.805 122.139 404.037C121.94 404.264 121.841 404.567 121.841 404.946C121.841 405.472 122.035 405.869 122.423 406.139C122.812 406.404 123.306 406.537 123.908 406.537ZM131.012 405.116H133.185C133.213 405.562 133.415 405.905 133.789 406.146C134.167 406.388 134.658 406.509 135.259 406.509C135.87 406.509 136.391 406.378 136.821 406.118C137.252 405.853 137.468 405.443 137.468 404.889C137.468 404.558 137.385 404.269 137.219 404.023C137.058 403.772 136.828 403.578 136.53 403.44C136.237 403.303 135.889 403.234 135.486 403.234H133.711V401.565H135.486C136.087 401.565 136.537 401.428 136.836 401.153C137.134 400.879 137.283 400.536 137.283 400.124C137.283 399.679 137.122 399.321 136.8 399.051C136.483 398.777 136.04 398.639 135.472 398.639C134.894 398.639 134.414 398.769 134.03 399.03C133.647 399.286 133.445 399.617 133.426 400.024H131.282C131.296 399.413 131.48 398.878 131.836 398.419C132.195 397.955 132.678 397.595 133.284 397.339C133.895 397.079 134.589 396.949 135.365 396.949C136.175 396.949 136.876 397.079 137.468 397.339C138.06 397.6 138.516 397.96 138.838 398.419C139.165 398.878 139.328 399.406 139.328 400.003C139.328 400.604 139.149 401.097 138.789 401.48C138.434 401.859 137.97 402.131 137.397 402.297V402.411C137.818 402.439 138.192 402.567 138.519 402.794C138.846 403.021 139.101 403.322 139.286 403.696C139.471 404.07 139.563 404.494 139.563 404.967C139.563 405.635 139.378 406.213 139.009 406.7C138.644 407.188 138.138 407.564 137.489 407.83C136.845 408.09 136.109 408.22 135.28 408.22C134.475 408.22 133.753 408.095 133.114 407.844C132.48 407.588 131.975 407.228 131.601 406.764C131.232 406.3 131.035 405.751 131.012 405.116ZM141.756 408V397.091H146.28C147.511 397.091 148.486 397.354 149.206 397.879C149.926 398.4 150.286 399.108 150.286 400.003C150.286 400.642 150.082 401.149 149.675 401.523C149.268 401.897 148.728 402.148 148.055 402.276C148.543 402.332 148.991 402.479 149.398 402.716C149.805 402.948 150.132 403.26 150.378 403.653C150.629 404.046 150.754 404.515 150.754 405.06C150.754 405.637 150.605 406.149 150.307 406.594C150.009 407.034 149.575 407.38 149.007 407.631C148.444 407.877 147.764 408 146.969 408H141.756ZM143.751 406.224H146.969C147.494 406.224 147.906 406.099 148.205 405.848C148.503 405.597 148.652 405.256 148.652 404.825C148.652 404.319 148.503 403.921 148.205 403.632C147.906 403.339 147.494 403.192 146.969 403.192H143.751V406.224ZM143.751 401.636H146.301C146.699 401.636 147.04 401.58 147.324 401.466C147.613 401.352 147.833 401.191 147.984 400.983C148.141 400.77 148.219 400.519 148.219 400.23C148.219 399.809 148.046 399.48 147.7 399.243C147.355 399.006 146.881 398.888 146.28 398.888H143.751V401.636ZM156.259 408.241C155.567 408.241 154.942 408.114 154.384 407.858C153.825 407.598 153.382 407.221 153.055 406.729C152.733 406.236 152.572 405.633 152.572 404.918C152.572 404.302 152.691 403.795 152.928 403.398C153.164 403 153.484 402.685 153.886 402.453C154.289 402.221 154.739 402.046 155.236 401.928C155.733 401.809 156.24 401.719 156.756 401.658C157.409 401.582 157.939 401.52 158.347 401.473C158.754 401.421 159.05 401.338 159.234 401.224C159.419 401.111 159.511 400.926 159.511 400.67V400.621C159.511 400 159.336 399.52 158.986 399.179C158.64 398.838 158.124 398.668 157.438 398.668C156.723 398.668 156.159 398.826 155.747 399.143C155.34 399.456 155.058 399.804 154.902 400.188L152.906 399.733C153.143 399.07 153.489 398.535 153.943 398.128C154.402 397.716 154.93 397.418 155.527 397.233C156.124 397.044 156.751 396.949 157.409 396.949C157.845 396.949 158.306 397.001 158.794 397.105C159.286 397.205 159.746 397.389 160.172 397.659C160.603 397.929 160.955 398.315 161.23 398.817C161.505 399.314 161.642 399.96 161.642 400.756V408H159.568V406.509H159.483C159.346 406.783 159.14 407.053 158.865 407.318C158.59 407.583 158.238 407.804 157.807 407.979C157.376 408.154 156.86 408.241 156.259 408.241ZM156.72 406.537C157.307 406.537 157.809 406.421 158.226 406.189C158.647 405.957 158.967 405.654 159.185 405.28C159.407 404.901 159.518 404.496 159.518 404.065V402.659C159.443 402.735 159.296 402.806 159.078 402.872C158.865 402.934 158.621 402.988 158.347 403.036C158.072 403.078 157.804 403.118 157.544 403.156C157.284 403.189 157.066 403.218 156.891 403.241C156.479 403.294 156.102 403.381 155.761 403.504C155.425 403.627 155.155 403.805 154.952 404.037C154.753 404.264 154.653 404.567 154.653 404.946C154.653 405.472 154.848 405.869 155.236 406.139C155.624 406.404 156.119 406.537 156.72 406.537ZM171.864 401.629V403.469H165.955V401.629H171.864ZM166.551 397.091V408H164.471V397.091H166.551ZM173.348 397.091V408H171.275V397.091H173.348ZM178.27 405.024L183.078 397.091H185.365V408H183.284V400.06L178.498 408H176.189V397.091H178.27V405.024ZM192.922 408.22C191.847 408.22 190.922 407.991 190.145 407.531C189.373 407.067 188.777 406.416 188.355 405.578C187.939 404.735 187.73 403.748 187.73 402.616C187.73 401.499 187.939 400.514 188.355 399.662C188.777 398.81 189.364 398.144 190.117 397.666C190.874 397.188 191.76 396.949 192.773 396.949C193.389 396.949 193.985 397.051 194.563 397.254C195.141 397.458 195.659 397.777 196.118 398.213C196.578 398.649 196.94 399.214 197.205 399.911C197.47 400.602 197.603 401.442 197.603 402.432V403.185H188.931V401.594H195.522C195.522 401.035 195.408 400.54 195.181 400.109C194.953 399.674 194.634 399.33 194.222 399.08C193.815 398.829 193.337 398.703 192.787 398.703C192.191 398.703 191.67 398.85 191.225 399.143C190.784 399.432 190.444 399.811 190.202 400.28C189.965 400.744 189.847 401.248 189.847 401.793V403.036C189.847 403.765 189.975 404.385 190.23 404.896C190.491 405.408 190.853 405.798 191.317 406.068C191.781 406.333 192.323 406.466 192.944 406.466C193.346 406.466 193.713 406.409 194.044 406.295C194.376 406.177 194.662 406.002 194.904 405.77C195.145 405.538 195.33 405.251 195.458 404.911L197.468 405.273C197.307 405.865 197.018 406.383 196.601 406.828C196.189 407.268 195.671 407.612 195.046 407.858C194.426 408.099 193.718 408.22 192.922 408.22ZM205.252 408V397.091H214.151V408H212.07V398.923H207.319V408H205.252ZM216.99 412.091V397.091H219.064V398.859H219.241C219.365 398.632 219.542 398.369 219.774 398.071C220.006 397.773 220.328 397.512 220.74 397.29C221.152 397.062 221.696 396.949 222.374 396.949C223.254 396.949 224.04 397.171 224.732 397.616C225.423 398.062 225.965 398.703 226.358 399.541C226.756 400.379 226.955 401.388 226.955 402.567C226.955 403.746 226.758 404.757 226.365 405.599C225.972 406.437 225.432 407.084 224.746 407.538C224.059 407.988 223.276 408.213 222.395 408.213C221.732 408.213 221.19 408.102 220.768 407.879C220.352 407.657 220.025 407.396 219.788 407.098C219.552 406.8 219.369 406.535 219.241 406.303H219.114V412.091H216.99ZM219.071 402.545C219.071 403.312 219.182 403.985 219.405 404.562C219.627 405.14 219.949 405.592 220.371 405.919C220.792 406.241 221.308 406.402 221.919 406.402C222.554 406.402 223.084 406.234 223.51 405.898C223.936 405.557 224.258 405.095 224.476 404.513C224.698 403.93 224.81 403.275 224.81 402.545C224.81 401.826 224.701 401.179 224.483 400.607C224.27 400.034 223.948 399.581 223.517 399.25C223.091 398.919 222.558 398.753 221.919 398.753C221.304 398.753 220.783 398.911 220.357 399.229C219.935 399.546 219.616 399.989 219.398 400.557C219.18 401.125 219.071 401.788 219.071 402.545ZM233.929 408.22C232.906 408.22 232.014 407.986 231.251 407.517C230.489 407.048 229.897 406.393 229.476 405.55C229.054 404.707 228.844 403.722 228.844 402.595C228.844 401.464 229.054 400.474 229.476 399.626C229.897 398.779 230.489 398.121 231.251 397.652C232.014 397.183 232.906 396.949 233.929 396.949C234.952 396.949 235.844 397.183 236.607 397.652C237.369 398.121 237.961 398.779 238.382 399.626C238.804 400.474 239.014 401.464 239.014 402.595C239.014 403.722 238.804 404.707 238.382 405.55C237.961 406.393 237.369 407.048 236.607 407.517C235.844 407.986 234.952 408.22 233.929 408.22ZM233.936 406.438C234.599 406.438 235.148 406.262 235.584 405.912C236.019 405.562 236.341 405.095 236.55 404.513C236.763 403.93 236.869 403.289 236.869 402.588C236.869 401.892 236.763 401.253 236.55 400.67C236.341 400.083 236.019 399.612 235.584 399.257C235.148 398.902 234.599 398.724 233.936 398.724C233.268 398.724 232.714 398.902 232.274 399.257C231.839 399.612 231.514 400.083 231.301 400.67C231.093 401.253 230.989 401.892 230.989 402.588C230.989 403.289 231.093 403.93 231.301 404.513C231.514 405.095 231.839 405.562 232.274 405.912C232.714 406.262 233.268 406.438 233.936 406.438ZM246.086 408.22C245.011 408.22 244.086 407.991 243.309 407.531C242.538 407.067 241.941 406.416 241.52 405.578C241.103 404.735 240.895 403.748 240.895 402.616C240.895 401.499 241.103 400.514 241.52 399.662C241.941 398.81 242.528 398.144 243.281 397.666C244.038 397.188 244.924 396.949 245.937 396.949C246.553 396.949 247.149 397.051 247.727 397.254C248.305 397.458 248.823 397.777 249.282 398.213C249.742 398.649 250.104 399.214 250.369 399.911C250.634 400.602 250.767 401.442 250.767 402.432V403.185H242.095V401.594H248.686C248.686 401.035 248.572 400.54 248.345 400.109C248.118 399.674 247.798 399.33 247.386 399.08C246.979 398.829 246.501 398.703 245.951 398.703C245.355 398.703 244.834 398.85 244.389 399.143C243.949 399.432 243.608 399.811 243.366 400.28C243.129 400.744 243.011 401.248 243.011 401.793V403.036C243.011 403.765 243.139 404.385 243.395 404.896C243.655 405.408 244.017 405.798 244.481 406.068C244.945 406.333 245.487 406.466 246.108 406.466C246.51 406.466 246.877 406.409 247.208 406.295C247.54 406.177 247.826 406.002 248.068 405.77C248.309 405.538 248.494 405.251 248.622 404.911L250.632 405.273C250.471 405.865 250.182 406.383 249.765 406.828C249.353 407.268 248.835 407.612 248.21 407.858C247.59 408.099 246.882 408.22 246.086 408.22ZM253.123 408V397.091H255.246V401.665H256.269L259.87 397.091H262.498L258.272 402.396L262.548 408H259.913L256.624 403.639H255.246V408H253.123ZM263.586 398.923V397.091H272.791V398.923H269.233V408H267.159V398.923H263.586ZM277.704 408.241C277.013 408.241 276.388 408.114 275.829 407.858C275.27 407.598 274.827 407.221 274.501 406.729C274.179 406.236 274.018 405.633 274.018 404.918C274.018 404.302 274.136 403.795 274.373 403.398C274.61 403 274.929 402.685 275.332 402.453C275.734 402.221 276.184 402.046 276.681 401.928C277.178 401.809 277.685 401.719 278.201 401.658C278.854 401.582 279.385 401.52 279.792 401.473C280.199 401.421 280.495 401.338 280.68 401.224C280.864 401.111 280.957 400.926 280.957 400.67V400.621C280.957 400 280.781 399.52 280.431 399.179C280.085 398.838 279.569 398.668 278.883 398.668C278.168 398.668 277.604 398.826 277.192 399.143C276.785 399.456 276.504 399.804 276.347 400.188L274.352 399.733C274.588 399.07 274.934 398.535 275.388 398.128C275.848 397.716 276.376 397.418 276.972 397.233C277.569 397.044 278.196 396.949 278.854 396.949C279.29 396.949 279.752 397.001 280.239 397.105C280.732 397.205 281.191 397.389 281.617 397.659C282.048 397.929 282.401 398.315 282.675 398.817C282.95 399.314 283.087 399.96 283.087 400.756V408H281.013V406.509H280.928C280.791 406.783 280.585 407.053 280.31 407.318C280.036 407.583 279.683 407.804 279.252 407.979C278.821 408.154 278.305 408.241 277.704 408.241ZM278.165 406.537C278.753 406.537 279.254 406.421 279.671 406.189C280.093 405.957 280.412 405.654 280.63 405.28C280.853 404.901 280.964 404.496 280.964 404.065V402.659C280.888 402.735 280.741 402.806 280.523 402.872C280.31 402.934 280.067 402.988 279.792 403.036C279.517 403.078 279.25 403.118 278.989 403.156C278.729 403.189 278.511 403.218 278.336 403.241C277.924 403.294 277.548 403.381 277.207 403.504C276.871 403.627 276.601 403.805 276.397 404.037C276.198 404.264 276.099 404.567 276.099 404.946C276.099 405.472 276.293 405.869 276.681 406.139C277.069 406.404 277.564 406.537 278.165 406.537Z" fill="#333232"/>
<path d="M528.414 394.171L522.829 388.585C522.643 388.399 522.423 388.252 522.18 388.151C521.937 388.051 521.677 387.999 521.414 387.999C521.152 387.999 520.892 388.051 520.649 388.151C520.406 388.252 520.186 388.399 520 388.585L504.586 404C504.4 404.185 504.252 404.405 504.151 404.648C504.051 404.891 503.999 405.151 504 405.414V411C504 411.53 504.211 412.039 504.586 412.414C504.961 412.789 505.47 413 506 413H511.586C511.849 413.001 512.109 412.949 512.352 412.849C512.595 412.748 512.815 412.6 513 412.414L528.414 397C528.6 396.814 528.747 396.594 528.847 396.351C528.948 396.108 529 395.848 529 395.586C529 395.323 528.948 395.063 528.847 394.82C528.747 394.577 528.6 394.357 528.414 394.171ZM511.586 411H506V405.414L517 394.414L522.586 400L511.586 411ZM524 398.585L518.414 393L521.414 390L527 395.585L524 398.585Z" fill="#333232"/>
<path d="M571 391H549C548.735 391 548.48 391.105 548.293 391.293C548.105 391.48 548 391.735 548 392C548 392.265 548.105 392.52 548.293 392.707C548.48 392.895 548.735 393 549 393H550V411C550 411.53 550.211 412.039 550.586 412.414C550.961 412.789 551.47 413 552 413H568C568.53 413 569.039 412.789 569.414 412.414C569.789 412.039 570 411.53 570 411V393H571C571.265 393 571.52 392.895 571.707 392.707C571.895 392.52 572 392.265 572 392C572 391.735 571.895 391.48 571.707 391.293C571.52 391.105 571.265 391 571 391ZM568 411H552V393H568V411ZM554 388C554 387.735 554.105 387.48 554.293 387.293C554.48 387.105 554.735 387 555 387H565C565.265 387 565.52 387.105 565.707 387.293C565.895 387.48 566 387.735 566 388C566 388.265 565.895 388.52 565.707 388.707C565.52 388.895 565.265 389 565 389H555C554.735 389 554.48 388.895 554.293 388.707C554.105 388.52 554 388.265 554 388Z" fill="#333232"/>
<rect x="80" y="498" width="335" height="56" rx="20" fill="#C5B6F1"/>
<path d="M193.303 518.455V533H190.689V520.642H184.325V533H181.712V518.455H193.303ZM201.099 533.213C200.034 533.213 199.11 532.979 198.329 532.51C197.548 532.041 196.942 531.385 196.511 530.543C196.085 529.7 195.872 528.715 195.872 527.588C195.872 526.461 196.085 525.474 196.511 524.626C196.942 523.779 197.548 523.121 198.329 522.652C199.11 522.183 200.034 521.949 201.099 521.949C202.164 521.949 203.088 522.183 203.869 522.652C204.65 523.121 205.254 523.779 205.68 524.626C206.111 525.474 206.326 526.461 206.326 527.588C206.326 528.715 206.111 529.7 205.68 530.543C205.254 531.385 204.65 532.041 203.869 532.51C203.088 532.979 202.164 533.213 201.099 533.213ZM201.113 531.153C201.691 531.153 202.174 530.995 202.562 530.678C202.95 530.356 203.239 529.925 203.429 529.385C203.623 528.845 203.72 528.244 203.72 527.581C203.72 526.913 203.623 526.31 203.429 525.77C203.239 525.225 202.95 524.792 202.562 524.47C202.174 524.148 201.691 523.987 201.113 523.987C200.521 523.987 200.029 524.148 199.636 524.47C199.248 524.792 198.957 525.225 198.762 525.77C198.573 526.31 198.478 526.913 198.478 527.581C198.478 528.244 198.573 528.845 198.762 529.385C198.957 529.925 199.248 530.356 199.636 530.678C200.029 530.995 200.521 531.153 201.113 531.153ZM207.543 536.168V530.884H208.409C208.641 530.704 208.835 530.46 208.991 530.152C209.148 529.839 209.276 529.473 209.375 529.051C209.479 528.625 209.564 528.149 209.631 527.624C209.697 527.093 209.756 526.523 209.808 525.912L210.121 522.091H218.004V530.884H219.695V536.168H217.209V533H210.071V536.168H207.543ZM211.051 530.884H215.547V524.165H212.351L212.18 525.912C212.086 527.067 211.96 528.057 211.804 528.881C211.648 529.705 211.397 530.372 211.051 530.884ZM221.017 524.2V522.091H230.563V524.2H227.033V533H224.547V524.2H221.017ZM232.61 533V522.091H237.191C238.484 522.091 239.504 522.349 240.252 522.865C241.005 523.381 241.381 524.101 241.381 525.024C241.381 525.635 241.168 526.134 240.742 526.523C240.321 526.906 239.746 527.164 239.016 527.297C239.589 527.344 240.091 527.489 240.522 527.73C240.958 527.972 241.299 528.289 241.545 528.682C241.791 529.075 241.914 529.527 241.914 530.038C241.914 530.64 241.755 531.163 241.438 531.608C241.126 532.048 240.669 532.392 240.067 532.638C239.471 532.879 238.746 533 237.894 533H232.61ZM235.018 530.976H237.894C238.368 530.976 238.739 530.865 239.009 530.642C239.279 530.415 239.414 530.107 239.414 529.719C239.414 529.269 239.279 528.916 239.009 528.661C238.739 528.4 238.368 528.27 237.894 528.27H235.018V530.976ZM235.018 526.608H237.241C237.591 526.608 237.892 526.558 238.143 526.459C238.394 526.355 238.585 526.21 238.718 526.026C238.851 525.836 238.917 525.611 238.917 525.351C238.917 524.977 238.763 524.683 238.455 524.47C238.152 524.257 237.731 524.151 237.191 524.151H235.018V526.608ZM248.865 533.213C247.772 533.213 246.827 532.986 246.032 532.531C245.241 532.072 244.632 531.423 244.206 530.585C243.78 529.742 243.567 528.75 243.567 527.609C243.567 526.487 243.78 525.502 244.206 524.655C244.637 523.803 245.239 523.14 246.01 522.666C246.782 522.188 247.689 521.949 248.73 521.949C249.403 521.949 250.037 522.058 250.634 522.276C251.235 522.489 251.766 522.82 252.225 523.27C252.689 523.72 253.053 524.293 253.319 524.989C253.584 525.68 253.716 526.504 253.716 527.46V528.249H244.775V526.516H251.252C251.247 526.023 251.141 525.585 250.932 525.202C250.724 524.813 250.433 524.508 250.059 524.286C249.689 524.063 249.258 523.952 248.766 523.952C248.24 523.952 247.779 524.08 247.381 524.335C246.983 524.586 246.673 524.918 246.451 525.33C246.233 525.737 246.122 526.184 246.117 526.672V528.185C246.117 528.819 246.233 529.364 246.465 529.818C246.697 530.268 247.021 530.614 247.438 530.855C247.855 531.092 248.342 531.21 248.901 531.21C249.275 531.21 249.614 531.158 249.917 531.054C250.22 530.945 250.482 530.786 250.705 530.578C250.927 530.37 251.096 530.112 251.209 529.804L253.61 530.074C253.458 530.708 253.169 531.262 252.743 531.736C252.322 532.205 251.782 532.569 251.124 532.83C250.466 533.085 249.713 533.213 248.865 533.213ZM255.891 537.091V522.091H258.42V523.895H258.569C258.701 523.63 258.888 523.348 259.13 523.05C259.371 522.747 259.698 522.489 260.11 522.276C260.522 522.058 261.048 521.949 261.687 521.949C262.53 521.949 263.29 522.164 263.967 522.595C264.648 523.021 265.188 523.653 265.586 524.491C265.988 525.325 266.19 526.348 266.19 527.56C266.19 528.758 265.993 529.776 265.6 530.614C265.207 531.452 264.672 532.091 263.995 532.531C263.318 532.972 262.551 533.192 261.694 533.192C261.069 533.192 260.55 533.088 260.138 532.879C259.727 532.671 259.395 532.42 259.144 532.126C258.898 531.828 258.706 531.546 258.569 531.281H258.462V537.091H255.891ZM258.413 527.545C258.413 528.251 258.512 528.869 258.711 529.399C258.915 529.929 259.206 530.344 259.585 530.642C259.968 530.936 260.432 531.082 260.977 531.082C261.545 531.082 262.021 530.931 262.404 530.628C262.788 530.32 263.076 529.901 263.271 529.371C263.469 528.836 263.569 528.227 263.569 527.545C263.569 526.868 263.472 526.267 263.278 525.741C263.084 525.216 262.795 524.804 262.411 524.506C262.028 524.207 261.549 524.058 260.977 524.058C260.427 524.058 259.961 524.203 259.577 524.491C259.194 524.78 258.903 525.185 258.704 525.706C258.51 526.227 258.413 526.84 258.413 527.545ZM267.425 536.168V530.884H268.292C268.524 530.704 268.718 530.46 268.874 530.152C269.031 529.839 269.158 529.473 269.258 529.051C269.362 528.625 269.447 528.149 269.513 527.624C269.58 527.093 269.639 526.523 269.691 525.912L270.004 522.091H277.887V530.884H279.577V536.168H277.092V533H269.954V536.168H267.425ZM270.934 530.884H275.43V524.165H272.234L272.063 525.912C271.969 527.067 271.843 528.057 271.687 528.881C271.531 529.705 271.28 530.372 270.934 530.884ZM283.975 529.52L288.343 522.091H290.985V533H288.5V525.564L284.146 533H281.497V522.091H283.975V529.52ZM292.404 524.2V522.091H301.95V524.2H298.42V533H295.934V524.2H292.404ZM305.737 525.642H308.954C310.346 525.642 311.423 525.981 312.186 526.658C312.948 527.335 313.332 528.223 313.336 529.321C313.332 530.036 313.156 530.67 312.811 531.224C312.47 531.778 311.973 532.214 311.319 532.531C310.671 532.844 309.882 533 308.954 533H303.997V522.091H306.475V530.891H308.954C309.513 530.891 309.972 530.749 310.332 530.464C310.692 530.176 310.872 529.806 310.872 529.357C310.872 528.883 310.692 528.497 310.332 528.199C309.972 527.901 309.513 527.751 308.954 527.751H305.737V525.642Z" fill="#333232"/>
</svg>
