<svg width="16.000000" height="9.000000" viewBox="0 0 16 9" fill="none" xmlns="http://www.w3.org/2000/svg" xmlns:xlink="http://www.w3.org/1999/xlink">
	<desc>
			Created with Pixso.
	</desc>
	<defs/>
	<path id="Vector" d="M15.53 0.53L8.03 8.03C7.96 8.1 7.87 8.15 7.78 8.19C7.69 8.23 7.59 8.25 7.5 8.25C7.4 8.25 7.3 8.23 7.21 8.19C7.12 8.15 7.03 8.1 6.96 8.03L-0.54 0.53C-0.68 0.39 -0.76 0.19 -0.76 0C-0.76 -0.2 -0.68 -0.39 -0.54 -0.53C-0.39 -0.68 -0.2 -0.75 6.1e-5 -0.75C0.19 -0.75 0.38 -0.68 0.53 -0.53L7.5 6.43L14.46 -0.53C14.53 -0.6 14.62 -0.66 14.71 -0.7C14.8 -0.74 14.9 -0.75 15 -0.75C15.09 -0.75 15.19 -0.74 15.28 -0.7C15.37 -0.66 15.46 -0.6 15.53 -0.53C15.6 -0.47 15.65 -0.38 15.69 -0.29C15.73 -0.2 15.75 -0.1 15.75 0C15.75 0.09 15.73 0.19 15.69 0.28C15.65 0.37 15.6 0.46 15.53 0.53Z" fill="#333232" fill-opacity="1.000000" fill-rule="nonzero"/>
</svg>
