<svg width="17" height="16" viewBox="0 0 17 16" fill="none" xmlns="http://www.w3.org/2000/svg">
<path d="M9.35996 0.974543L10.5998 4.79024C10.7542 5.26559 11.1972 5.58742 11.697 5.58742H15.709C16.5289 5.58742 16.8698 6.63652 16.2065 7.11841L12.9607 9.47664C12.5563 9.77042 12.3871 10.2912 12.5416 10.7665L13.7814 14.5822C14.0347 15.3619 13.1423 16.0103 12.479 15.5284L9.23319 13.1702C8.82884 12.8764 8.2813 12.8764 7.87695 13.1702L4.63113 15.5284C3.96786 16.0103 3.07544 15.3619 3.32879 14.5822L4.56858 10.7665C4.72303 10.2912 4.55383 9.77042 4.14948 9.47664L0.903654 7.11841C0.240387 6.63652 0.581261 5.58742 1.4011 5.58742H5.41316C5.91297 5.58742 6.35594 5.26559 6.51039 4.79024L7.75018 0.974544C8.00353 0.194828 9.10662 0.194828 9.35996 0.974543Z" fill="#F5F07A" stroke="black" stroke-width="0.307377"/>
</svg>
