<svg width="42" height="40" viewBox="0 0 42 40" fill="none" xmlns="http://www.w3.org/2000/svg">
<path d="M19.3392 1.96979C19.8258 0.472068 21.9447 0.472068 22.4313 1.96978L25.9176 12.6993C26.2354 13.6776 27.1471 14.3399 28.1757 14.3399H39.4574C41.0322 14.3399 41.6869 16.3551 40.4129 17.2807L31.2858 23.9119C30.4536 24.5165 30.1054 25.5882 30.4233 26.5665L33.9095 37.296C34.3962 38.7937 32.682 40.0392 31.4079 39.1135L22.2809 32.4824C21.4487 31.8777 20.3218 31.8777 19.4896 32.4824L10.3626 39.1135C9.08855 40.0392 7.37435 38.7937 7.86099 37.296L11.3472 26.5665C11.6651 25.5882 11.3169 24.5165 10.4847 23.9119L1.35763 17.2807C0.0835896 16.3551 0.738358 14.3399 2.31315 14.3399H13.5948C14.6234 14.3399 15.5351 13.6776 15.853 12.6993L19.3392 1.96979Z" fill="#DAD6D6" stroke="#333232" stroke-width="0.748721"/>
</svg>
