<svg width="80" height="80" viewBox="0 0 80 80" fill="none" xmlns="http://www.w3.org/2000/svg">
<path d="M76.5009 46.9993C76.2383 47.1962 75.9394 47.3396 75.6214 47.421C75.3034 47.5025 74.9724 47.5206 74.6474 47.4741C74.3224 47.4277 74.0097 47.3177 73.7272 47.1504C73.4447 46.9832 73.1979 46.7619 73.0009 46.4993C71.4941 44.4738 69.5328 42.8305 67.2748 41.7015C65.0169 40.5725 62.5254 39.9895 60.0009 39.9993C59.5093 39.9992 59.0286 39.8542 58.619 39.5824C58.2094 39.3106 57.8889 38.9241 57.6978 38.4711C57.568 38.1636 57.5012 37.8331 57.5012 37.4993C57.5012 37.1654 57.568 36.835 57.6978 36.5274C57.8889 36.0744 58.2094 35.6879 58.619 35.4161C59.0286 35.1443 59.5093 34.9993 60.0009 34.9993C61.4037 34.9991 62.7782 34.6056 63.9685 33.8634C65.1588 33.1213 66.1171 32.0602 66.7346 30.8006C67.3521 29.5411 67.6039 28.1337 67.4616 26.7382C67.3192 25.3427 66.7884 24.0151 65.9294 22.9062C65.0703 21.7973 63.9175 20.9515 62.6019 20.4649C61.2863 19.9784 59.8605 19.8705 58.4867 20.1536C57.1128 20.4367 55.8459 21.0994 54.8298 22.0664C53.8137 23.0335 53.0891 24.2661 52.7384 25.6243C52.6564 25.9423 52.5125 26.2411 52.3149 26.5035C52.1174 26.7659 51.8701 26.9869 51.5872 27.1537C51.3042 27.3206 50.9912 27.4301 50.666 27.476C50.3407 27.5218 50.0096 27.5032 49.6916 27.4211C49.3735 27.3391 49.0748 27.1951 48.8123 26.9976C48.5499 26.8001 48.329 26.5528 48.1621 26.2698C47.9952 25.9869 47.8858 25.6739 47.8399 25.3486C47.794 25.0234 47.8126 24.6923 47.8947 24.3743C48.3814 22.4909 49.301 20.7471 50.5803 19.2816C51.8596 17.8161 53.4632 16.6695 55.2636 15.9329C57.064 15.1962 59.0115 14.8899 60.9511 15.0384C62.8907 15.1869 64.7689 15.786 66.4362 16.788C68.1035 17.7901 69.5139 19.1675 70.5553 20.8106C71.5966 22.4536 72.2401 24.3171 72.4345 26.2526C72.6289 28.1882 72.3689 30.1424 71.6752 31.9597C70.9815 33.7771 69.8731 35.4075 68.4384 36.7211C71.8378 38.193 74.793 40.5287 77.0103 43.4961C77.2073 43.7594 77.3504 44.059 77.4314 44.3777C77.5124 44.6964 77.5298 45.028 77.4824 45.3534C77.4351 45.6788 77.3241 45.9917 77.1556 46.2741C76.9872 46.5565 76.7647 46.8029 76.5009 46.9993ZM59.6634 66.2493C59.8443 66.5338 59.9658 66.852 60.0205 67.1847C60.0752 67.5174 60.0621 67.8577 59.9819 68.1852C59.9017 68.5127 59.756 68.8206 59.5537 69.0903C59.3514 69.3601 59.0967 69.5861 58.8048 69.7549C58.5129 69.9236 58.1898 70.0315 57.8551 70.0722C57.5204 70.1129 57.1809 70.0854 56.8571 69.9914C56.5333 69.8975 56.2318 69.739 55.9708 69.5256C55.7098 69.3121 55.4947 69.048 55.3384 68.7493C53.7636 66.0826 51.5207 63.8726 48.831 62.3374C46.1414 60.8021 43.0979 59.9947 40.0009 59.9947C36.904 59.9947 33.8605 60.8021 31.1709 62.3374C28.4812 63.8726 26.2383 66.0826 24.6634 68.7493C24.5072 69.048 24.2921 69.3121 24.0311 69.5256C23.7701 69.739 23.4686 69.8975 23.1448 69.9914C22.821 70.0854 22.4815 70.1129 22.1468 70.0722C21.8121 70.0315 21.489 69.9236 21.1971 69.7549C20.9052 69.5861 20.6504 69.3601 20.4482 69.0903C20.2459 68.8206 20.1002 68.5127 20.02 68.1852C19.9398 67.8577 19.9267 67.5174 19.9814 67.1847C20.0361 66.852 20.1576 66.5338 20.3384 66.2493C22.7622 62.0848 26.4578 58.8076 30.8822 56.8993C28.3926 54.9931 26.5629 52.3547 25.6503 49.355C24.7377 46.3552 24.7881 43.1449 25.7944 40.1752C26.8007 37.2056 28.7123 34.6259 31.2605 32.7989C33.8087 30.9718 36.8654 29.9892 40.0009 29.9892C43.1365 29.9892 46.1931 30.9718 48.7414 32.7989C51.2896 34.6259 53.2012 37.2056 54.2075 40.1752C55.2138 43.1449 55.2642 46.3552 54.3516 49.355C53.439 52.3547 51.6093 54.9931 49.1197 56.8993C53.5441 58.8076 57.2397 62.0848 59.6634 66.2493ZM40.0009 54.9993C41.9788 54.9993 43.9122 54.4128 45.5566 53.314C47.2011 52.2151 48.4829 50.6534 49.2397 48.8261C49.9966 46.9988 50.1946 44.9882 49.8088 43.0484C49.4229 41.1085 48.4705 39.3267 47.072 37.9282C45.6735 36.5297 43.8917 35.5773 41.9518 35.1914C40.012 34.8056 38.0014 35.0036 36.1741 35.7605C34.3468 36.5173 32.7851 37.7991 31.6863 39.4436C30.5874 41.088 30.0009 43.0214 30.0009 44.9993C30.0009 47.6514 31.0545 50.195 32.9299 52.0703C34.8052 53.9457 37.3488 54.9993 40.0009 54.9993ZM22.5009 37.4993C22.5009 36.8362 22.2376 36.2003 21.7687 35.7315C21.2999 35.2626 20.664 34.9993 20.0009 34.9993C18.5982 34.9991 17.2236 34.6056 16.0333 33.8634C14.8431 33.1213 13.8848 32.0602 13.2673 30.8006C12.6498 29.5411 12.398 28.1337 12.5403 26.7382C12.6827 25.3427 13.2135 24.0151 14.0725 22.9062C14.9316 21.7973 16.0844 20.9515 17.4 20.4649C18.7156 19.9784 20.1414 19.8705 21.5152 20.1536C22.8891 20.4367 24.156 21.0994 25.1721 22.0664C26.1882 23.0335 26.9128 24.2661 27.2634 25.6243C27.4292 26.2666 27.8433 26.8167 28.4147 27.1537C28.9861 27.4907 29.668 27.5869 30.3103 27.4211C30.9526 27.2554 31.5028 26.8412 31.8398 26.2698C32.1768 25.6984 32.273 25.0166 32.1072 24.3743C31.6205 22.4909 30.7009 20.7471 29.4216 19.2816C28.1423 17.8161 26.5387 16.6695 24.7383 15.9329C22.9379 15.1962 20.9904 14.8899 19.0508 15.0384C17.1112 15.1869 15.233 15.786 13.5657 16.788C11.8984 17.7901 10.488 19.1675 9.44664 20.8106C8.40531 22.4536 7.76184 24.3171 7.56741 26.2526C7.37299 28.1882 7.63298 30.1424 8.32671 31.9597C9.02043 33.7771 10.1287 35.4075 11.5634 36.7211C8.16746 38.1944 5.21568 40.53 3.00095 43.4961C2.60271 44.0266 2.43149 44.6935 2.52497 45.3501C2.61844 46.0068 2.96895 46.5995 3.49939 46.9977C4.02982 47.3959 4.69673 47.5672 5.3534 47.4737C6.01007 47.3802 6.60271 47.0297 7.00095 46.4993C8.50778 44.4738 10.4691 42.8305 12.7271 41.7015C14.985 40.5725 17.4765 39.9895 20.0009 39.9993C20.664 39.9993 21.2999 39.7359 21.7687 39.267C22.2376 38.7982 22.5009 38.1623 22.5009 37.4993Z" fill="#333232"/>
</svg>
