<svg width="65.000000" height="55.000000" viewBox="0 0 65 55" fill="none" xmlns="http://www.w3.org/2000/svg" xmlns:xlink="http://www.w3.org/1999/xlink">
	<desc>
			Created with Pixso.
	</desc>
	<defs/>
	<path id="Vector" d="M64.5 52C64.5 52.66 64.23 53.29 63.76 53.76C63.29 54.23 62.66 54.5 62 54.5L2 54.5C1.33 54.5 0.7 54.23 0.23 53.76C-0.24 53.29 -0.5 52.66 -0.5 52L-0.5 2C-0.5 1.33 -0.24 0.7 0.23 0.23C0.7 -0.24 1.33 -0.5 2 -0.5C2.66 -0.5 3.29 -0.24 3.76 0.23C4.23 0.7 4.5 1.33 4.5 2L4.5 35.96L20.23 20.23C20.46 19.99 20.73 19.81 21.04 19.68C21.34 19.56 21.67 19.49 22 19.49C22.32 19.49 22.65 19.56 22.95 19.68C23.26 19.81 23.53 19.99 23.76 20.23L32 28.46L48.46 12L42 12C41.33 12 40.7 11.73 40.23 11.26C39.76 10.79 39.5 10.16 39.5 9.5C39.5 8.83 39.76 8.2 40.23 7.73C40.7 7.26 41.33 7 42 7L54.5 7C55.16 7 55.79 7.26 56.26 7.73C56.73 8.2 57 8.83 57 9.5L57 22C57 22.66 56.73 23.29 56.26 23.76C55.79 24.23 55.16 24.5 54.5 24.5C53.83 24.5 53.2 24.23 52.73 23.76C52.26 23.29 52 22.66 52 22L52 15.53L33.76 33.76C33.53 34 33.26 34.18 32.95 34.31C32.65 34.43 32.32 34.5 32 34.5C31.67 34.5 31.34 34.43 31.04 34.31C30.73 34.18 30.46 34 30.23 33.76L22 25.53L4.5 43.03L4.5 49.5L62 49.5C62.66 49.5 63.29 49.76 63.76 50.23C64.23 50.7 64.5 51.33 64.5 52Z" fill="#333232" fill-opacity="1.000000" fill-rule="nonzero"/>
</svg>
