<svg width="375" height="375" viewBox="0 0 375 375" fill="none" xmlns="http://www.w3.org/2000/svg">
<path fill-rule="evenodd" clip-rule="evenodd" d="M179.756 107.347C178.893 109.222 179.756 109.109 179.943 108.772C180.411 107.979 181.066 107.314 181.85 106.833C182.635 106.352 183.525 106.072 184.443 106.015C185.188 105.995 185.934 106.026 186.675 106.109C187.668 106.24 187.893 106.353 187.987 106.109C188.081 105.865 181.875 102.715 179.756 107.347ZM214.425 97.1278C214.449 97.0532 214.442 96.9722 214.407 96.9021C214.372 96.8321 214.311 96.7785 214.237 96.7528C207.281 93.3778 202.987 101.572 203.943 102.003C204.281 102.134 204.225 101.853 205.237 100.672C209.662 95.6278 214.218 97.8028 214.425 97.1278ZM210 90.3216C210.3 90.5466 211.162 90.0966 209.231 89.0091C206.625 87.5466 201.262 88.1466 201.281 88.8216C201.3 89.4966 208.875 89.7403 210 90.3216ZM195.581 119.459C194.7 116.59 193.125 102.209 192.337 102.303C191.55 102.397 193.293 120.865 195.131 120.828C196.284 120.719 197.415 120.441 198.487 120.003C198.975 119.815 201.881 118.634 201.618 118.128C201.356 117.622 199.668 119.178 195.581 119.459ZM216.131 115.54C216.239 116.198 216.308 116.862 216.337 117.528C216.675 123.959 211.65 124.54 211.425 124.728C211.2 124.915 210.881 125.553 213.206 124.728C220.781 122.197 215.231 110.197 216.131 115.54ZM162.562 131.684C162.599 131.715 162.646 131.731 162.693 131.731C162.741 131.731 162.788 131.715 162.825 131.684C162.855 131.647 162.872 131.601 162.872 131.553C162.872 131.505 162.855 131.459 162.825 131.422C127.65 101.815 103.35 81.5466 57.4497 44.0653C57.4146 44.031 57.3675 44.0117 57.3184 44.0117C57.2694 44.0117 57.2222 44.031 57.1872 44.0653C57.1528 44.1004 57.1336 44.1475 57.1336 44.1966C57.1336 44.2456 57.1528 44.2928 57.1872 44.3278C98.9997 79.5216 121.518 98.1778 162.562 131.684ZM99.8434 160.053L109.968 162.265C110.018 162.265 110.066 162.246 110.101 162.21C110.136 162.175 110.156 162.128 110.156 162.078C110.156 162.028 110.136 161.98 110.101 161.945C110.066 161.91 110.018 161.89 109.968 161.89L99.8997 159.472C-16.5003 131.572 -23.8316 132.903 99.8434 160.053ZM131.925 209.122C131.954 209.088 131.97 209.044 131.97 209C131.97 208.955 131.954 208.912 131.925 208.878C131.904 208.834 131.867 208.799 131.822 208.782C131.776 208.764 131.726 208.765 131.681 208.784C101.156 220.428 85.7247 225.959 15.5247 253.784C15.5011 253.792 15.4794 253.805 15.461 253.822C15.4425 253.839 15.4276 253.86 15.4171 253.882C15.4066 253.905 15.4008 253.93 15.3999 253.955C15.3991 253.98 15.4033 254.004 15.4122 254.028C15.433 254.077 15.4719 254.116 15.5208 254.137C15.5697 254.158 15.6249 254.159 15.6747 254.14C91.0497 225.678 123.581 212.403 131.925 209.122Z" fill="#333232"/>
<path fill-rule="evenodd" clip-rule="evenodd" d="M351.056 186.888C343.998 175.451 333.931 166.175 321.956 160.075C321.019 154.694 311.212 105.475 267.844 94.1315C267.844 94.1315 270.168 38.8377 232.443 36.9815C193.931 35.1065 179.062 56.5377 179.081 56.4815C179.1 56.4252 156.318 69.3815 175.668 111.681C179.681 137.5 196.612 152.725 223.593 145.844L226.462 151.619C223.8 151.9 202.612 154.544 178.818 171.325C124.106 209.875 103.125 292.506 121.443 324.381C123.293 327.923 125.958 330.976 129.217 333.287C132.477 335.598 136.239 337.102 140.193 337.675C182.531 343.75 200.325 291.063 204.881 248.5C209.456 256.188 215.568 265.769 222.843 275.744C222.206 286.225 219.093 315.588 222 335.744C222.002 335.769 222.009 335.793 222.021 335.814C222.033 335.836 222.048 335.856 222.068 335.871C222.087 335.887 222.109 335.899 222.133 335.906C222.156 335.913 222.181 335.915 222.206 335.913C222.252 335.901 222.294 335.874 222.324 335.837C222.355 335.8 222.372 335.754 222.375 335.706C220.631 318.831 223.012 285.306 223.237 276.288C224.418 277.919 225.656 279.55 226.987 281.181C226.818 283.881 225.731 291.925 225.112 301.638C223.425 328.956 226.987 338.406 226.556 335.688C224.043 315.663 227.062 289.6 227.362 281.706C250.031 311.257 285 345.306 320.625 334.188C380.231 315.531 368.493 216.475 351.056 186.888ZM266.381 138.588C246.487 149.425 245.887 149.838 246.656 158.2C246.075 158.556 245.475 158.931 244.893 159.325H244.743C243.881 150.738 243.75 148.506 250.762 144.325L264.375 135.888L266.381 138.588ZM244.875 160.6H244.987L246.993 161.444C249.543 184.806 240.375 193.694 233.025 241.656C231.825 240.719 230.475 239.575 229.481 238.713C232.987 215.144 245.006 184.431 245.362 170.65C245.415 167.293 245.252 163.936 244.875 160.6ZM246.262 159.7L246.768 159.381V160.15L246.206 159.925L246.262 159.7ZM224.587 146.256C224.212 145.581 224.175 144.869 223.687 145C192.412 152.069 175.125 128.931 175.95 101.875C177.208 100.116 178.613 98.4666 180.15 96.944C180.628 96.4861 181.156 96.0835 181.725 95.744C181.796 95.7147 181.854 95.6606 181.889 95.5916C181.923 95.5227 181.932 95.4436 181.912 95.369C181.668 94.6002 177.562 96.0252 176.043 99.8502C176.681 88.6002 180 72.8315 192.543 63.8502C192.543 63.8502 235.05 98.7815 237.544 99.0065C240.037 99.2315 239.587 88.1315 245.25 86.2565C250.912 84.3815 256.256 86.5565 256.35 94.094C256.242 97.0314 255.368 99.8897 253.816 102.386C252.264 104.882 250.087 106.929 247.5 108.325C252.474 117.716 258.035 126.784 264.15 135.475C247.8 145.15 245.25 145.806 243.975 150.119C242.733 148.989 241.368 148.002 239.906 147.175C232.893 143.388 225.225 145.656 224.587 146.256ZM224.793 146.669C225.075 146.669 233.419 143.706 243.637 150.55C243.479 151.246 243.384 151.956 243.356 152.669C237.093 148.431 230.231 148.488 226.481 150.794L224.793 146.669ZM179.531 172.319C204.6 154.338 226.875 152.275 226.875 152.275C227.568 152.275 226.875 151.488 226.875 151.3C231.975 149.425 238.556 151.075 243.487 153.419C243.51 155.236 243.629 157.051 243.844 158.856C243.506 158.706 235.668 155.444 235.462 155.875C235.256 156.306 243.656 159.944 243.844 160.019C234.468 166.075 233.381 167.913 244.068 161.144C244.397 164.258 244.528 167.389 244.462 170.519C244.106 183.85 232.537 213.269 229.181 238.3C225.221 234.749 221.506 230.934 218.062 226.881C212.606 220.675 211.275 219.663 209.418 210.325C207.787 202.056 187.537 182.2 185.493 187.825C182.175 184.863 180.131 186.981 180.656 189.531C178.612 188.631 177.45 190.863 177.656 193.281C176.568 192.475 174.806 193.15 175.181 196.863C175.687 201.738 179.175 210.325 180.187 213.288C184.987 227.2 190.331 229.431 188.325 235.131C185.175 244.056 168.75 257.369 161.25 263.2C169.818 231.006 175.781 218.2 175.2 217.994C174.618 217.788 168.712 234.531 167.7 237.85C162.598 234.059 156.639 231.587 150.352 230.655C144.065 229.723 137.644 230.359 131.662 232.506C142.5 209.238 157.95 187.806 179.531 172.319ZM131.381 233.163C137.409 231.278 143.78 230.754 150.034 231.629C156.289 232.505 162.271 234.758 167.55 238.225L166.931 240.1C153.937 231.756 140.062 231.156 130.293 235.525C130.65 234.794 131.006 233.969 131.381 233.163ZM140.418 336.025C136.72 335.483 133.205 334.067 130.163 331.896C127.12 329.724 124.639 326.859 122.925 323.538C109.8 300.7 119.456 260.538 130.031 236.2C139.518 232.45 153.075 232.769 166.818 240.55C164.812 247.375 163.387 251.463 160.762 263.594C153.45 269.331 146.343 274.206 138.6 281.669C135.632 284.342 132.983 287.35 130.706 290.631C130.676 290.668 130.659 290.715 130.659 290.763C130.659 290.811 130.676 290.857 130.706 290.894C130.741 290.928 130.788 290.948 130.837 290.948C130.886 290.948 130.933 290.928 130.968 290.894C133.281 287.674 135.954 284.73 138.937 282.119C151.481 270.344 194.981 242.519 189.168 230.331C185.418 222.569 183.375 220.131 180.937 213.138C179.1 208.508 177.535 203.775 176.25 198.963C175.068 193.619 176.681 193 177.787 194.463C179.662 204.644 191.962 222.588 195.656 231.588C198.29 237.039 201.2 242.352 204.375 247.506C199.537 289.225 181.725 342.156 140.418 336.025ZM320.231 332.969C298.612 339.7 277.106 329.369 258.131 313.094C224.118 283.881 198.75 235.488 196.875 231.1C193.743 223.375 178.425 199.225 178.912 192.344C179.362 185.894 187.537 200.856 191.662 207.344C191.744 207.493 191.882 207.604 192.046 207.651C192.209 207.699 192.385 207.679 192.534 207.597C192.683 207.515 192.794 207.377 192.841 207.214C192.889 207.05 192.869 206.874 192.787 206.725C190.047 201.502 186.867 196.521 183.281 191.838C180.431 188.575 181.106 183.475 189.075 193.713C195.656 202.169 195.6 205.113 196.818 204.438C196.89 204.399 196.953 204.346 197.004 204.282C197.055 204.218 197.093 204.145 197.116 204.067C197.139 203.988 197.146 203.906 197.136 203.825C197.127 203.744 197.102 203.665 197.062 203.594C194.218 198.273 190.701 193.338 186.6 188.913C185.587 183.531 206.568 201.756 208.331 210.494C208.824 213.745 209.797 216.904 211.218 219.869C213.6 224.331 224.662 235.844 230.306 240.494C254.962 261.119 273.881 260.688 298.837 272.069C307.519 276.044 314.475 280.731 317.475 287.069C317.49 287.101 317.51 287.13 317.536 287.154C317.562 287.178 317.593 287.196 317.626 287.208C317.659 287.221 317.694 287.226 317.729 287.225C317.764 287.223 317.799 287.215 317.831 287.2C317.863 287.185 317.892 287.165 317.916 287.139C317.94 287.113 317.958 287.082 317.97 287.049C317.983 287.016 317.988 286.981 317.987 286.946C317.985 286.911 317.977 286.876 317.962 286.844C314.943 280.338 307.912 275.594 299.1 271.431C296.118 270.044 292.912 268.75 289.612 267.513C290.437 261.55 291.637 255.1 292.837 249.213C305.279 245.933 318.377 246.084 330.741 249.649C343.104 253.215 354.271 260.061 363.056 269.463C360 298.563 347.868 324.381 320.231 332.969ZM363.168 269.331C343.125 247.506 313.294 242.444 292.875 249.044C293.1 247.938 293.381 246.663 293.606 245.631C317.456 239.763 346.106 245.463 363.356 265.656C363.378 265.672 363.404 265.68 363.431 265.68C363.458 265.68 363.484 265.672 363.506 265.656C363.412 266.913 363.3 268.131 363.168 269.331ZM293.681 245.275C298.894 221.631 303.056 213.044 302.512 212.838C302.481 212.81 302.441 212.795 302.4 212.795C302.358 212.795 302.318 212.81 302.287 212.838C295.687 231.419 291.544 245.106 289.256 267.456C264.881 258.344 253.05 257.256 233.343 241.75C241.218 195.438 250.462 184.244 247.912 161.688C256.181 165.138 258.393 165.175 247.781 160.506C247.781 160.281 247.631 159.119 247.575 158.781C256.725 152.781 255.637 152.519 247.443 157.619C246.787 150.344 246.975 150.119 266.625 138.869C269.12 142.22 271.806 145.425 274.669 148.469C274.669 148.469 300.506 151.806 316.05 157.844C329.812 164.069 342.562 173.95 350.344 187.281C358.294 200.894 366 233.913 363.469 265.413C346.219 244.206 316.875 239.088 293.681 245.275Z" fill="#333232"/>
</svg>
