<svg width="320" height="332" viewBox="0 0 320 332" fill="none" xmlns="http://www.w3.org/2000/svg">
<path d="M108.753 253.004C111.644 251.977 114.605 251.163 117.614 250.568L117.978 251.908C118.019 252.066 118.115 252.204 118.249 252.296C118.382 252.389 118.545 252.43 118.707 252.412L130.619 251.021C133.897 243.522 139.914 232.162 140 231.988C139.914 229.152 140 226.769 140 224.055C133.186 226.595 120.579 231.414 113.99 234.493C113.841 234.59 113.726 234.73 113.66 234.896C113.595 235.061 113.583 235.243 113.626 235.415C113.626 235.415 113.747 235.85 113.903 236.476C110.678 236.476 101.019 236.007 98.6959 238.216C98.3346 238.721 98.1571 239.335 98.193 239.956C98.0543 242.357 99.2508 261.007 101.158 266.487C102.147 269.358 104.227 269.044 105.649 266.296C107.295 262.156 108.352 257.804 108.788 253.369C108.788 253.143 108.736 253.161 108.753 253.004ZM106.759 237.433C108.875 237.259 109.534 237.294 114.077 237.155C114.892 240.252 116.574 246.619 117.441 249.872C114.381 250.348 111.362 251.052 108.406 251.978C107.486 247.179 106.935 242.317 106.759 237.433Z" fill="#333232"/>
<path d="M269.501 84.6305C269.937 84.0195 269.378 83.234 268.906 82.6231C270.243 81.2499 271.725 80.0266 273.328 78.9749C276.031 77.6289 278.503 75.8612 280.65 73.7382C281.541 72.8131 283.219 70.9104 282.589 69.7932C281.96 68.6761 280.842 68.6063 279.322 69.2521C279.98 68.5613 280.518 67.7647 280.912 66.8956C281.401 65.5341 280.248 64.4344 277.749 65.4468C278.658 63.998 278.867 62.4794 277.329 61.7462C276.089 61.1527 274.271 62.5666 273.223 63.4918C271.164 65.2887 269.231 67.225 267.439 69.287C266.338 66.9829 264.59 64.3296 262.406 65.1675C260.221 66.0054 261.916 69.7583 263.035 71.8006L259.068 74.5412C258.468 74.2179 257.791 74.0668 257.111 74.1048C252.602 74.8728 231.894 90.6177 229.797 90.6177C228.189 90.6177 205.227 79.6207 185.375 76.4438C185.337 76.3249 185.266 76.2192 185.17 76.1389C185.074 76.0586 184.957 76.007 184.833 75.99C181.371 75.3998 177.86 75.1368 174.348 75.2045C174.242 75.2116 174.138 75.2419 174.045 75.2931C173.951 75.3444 173.87 75.4154 173.807 75.5012H172.339C171.989 74.0873 170.696 70.8231 170.242 69.5663C171.43 68.5364 173.073 68.0128 173.929 66.3545C175.502 63.2823 175.432 57.9409 174.995 54.5196C176.97 53.0184 177.022 50.6096 176.568 48.1483C176.393 47.1533 175.851 44.9016 175.012 44.343C174.541 44.0288 173.544 44.343 172.688 44.6572C171.832 42.6673 171.832 43.575 172.181 42.772C172.344 42.4019 172.438 42.0059 172.461 41.6025C173.387 41.8818 175.309 40.0315 174.645 37.5877C174.297 36.7129 173.87 35.8715 173.37 35.0741C173.614 34.4806 174.139 33.7649 172.496 31.583C171.789 30.8207 170.87 30.286 169.857 30.0469H169.053C168.474 29.206 167.622 28.5897 166.642 28.3013C165.162 27.9244 163.593 28.1438 162.273 28.9123C161.923 29.1741 161.644 29.5232 161.294 29.7676C160.504 29.2883 159.598 29.0349 158.673 29.0349C157.749 29.0349 156.842 29.2883 156.052 29.7676C155.589 29.9489 155.168 30.2217 154.814 30.5697C154.459 30.9176 154.179 31.3336 153.99 31.7924C153.134 31.4973 152.225 31.3837 151.322 31.4589C150.42 31.534 149.543 31.7962 148.747 32.2288C145.728 33.864 143.47 36.6145 142.456 39.8918C142.428 40.386 142.428 40.8814 142.456 41.3756H142.264C139.643 40.9915 136.305 47.2057 138.979 52.0409C139.293 52.6169 139.695 53.1581 140.08 53.7865C141.198 55.532 140.761 56.0557 143.26 58.1853C143.994 58.8137 144.116 58.7613 144.571 59.1453C145.025 59.5294 144.85 59.3373 145.112 60.3149C145.255 60.8907 145.511 61.4325 145.865 61.9089C146.219 62.3853 146.664 62.7869 147.174 63.0903C147.36 64.7977 148.089 66.4006 149.254 67.6637C149.623 68.076 150.053 68.4293 150.53 68.711C150.658 68.7833 150.802 68.8252 150.949 68.8332C151.473 72.0799 152.12 76.3042 152.4 78.1021L150.844 78.94C148.809 79.7578 146.83 80.7083 144.92 81.7852C144.77 81.8888 144.664 82.0444 144.623 82.2216C142.771 83.1991 141.023 84.1243 140.027 84.7178C126.152 92.9393 86.7454 147.139 86.3434 149.618C86.2991 149.76 86.2991 149.912 86.3434 150.054C86.9083 150.954 87.5965 151.771 88.388 152.48C88.1441 152.925 87.851 153.341 87.5143 153.72C84.0192 156.006 78.7767 159.41 75.9632 162.447C75.7659 162.623 75.6178 162.847 75.5337 163.098C75.4495 163.348 75.4322 163.616 75.4833 163.875C75.5345 164.134 75.6524 164.375 75.8254 164.575C75.9985 164.775 76.2206 164.926 76.47 165.013C76.9942 165.188 77.0816 165.136 80.4893 163.268C79.5527 164.088 78.7868 165.085 78.235 166.2C78.0078 167.16 78.8815 167.719 79.9825 167.544C80.6019 167.382 81.1917 167.123 81.73 166.776C81.4148 167.263 81.2471 167.829 81.2471 168.409C81.2471 168.988 81.4148 169.555 81.73 170.041C83.4775 172.24 88.056 165.31 90.4676 163.6C91.4462 164.839 92.7743 167.737 94.8888 166.968C96.7237 166.288 94.714 162.255 94.8888 161.086C95.5998 160.404 96.3591 159.774 97.1606 159.201C98.5086 160.199 100.05 160.907 101.687 161.278C104.57 161.278 134.662 130.94 136.951 128.514C136.13 136.229 131.989 169.342 132.862 175.784C133.264 178.699 140.272 179.118 143.225 179.275C142.334 200.221 141.74 231.956 141.582 232.287C136.951 242.254 135.693 244.977 134.138 247.997C131.307 253.408 119.389 273.378 118.043 277.916C117.851 278.632 117.834 278.911 118.585 280.238C116.333 282.603 114.243 285.116 112.329 287.761C111.368 289.507 115.492 305.775 118.41 311.536C119.074 312.827 120.158 314.817 121.608 314.765C125.977 314.608 125.96 298.933 125.837 294.551C125.837 294.416 125.787 294.286 125.697 294.185C126.489 293.004 127.353 291.873 128.284 290.798C128.839 291.18 129.424 291.519 130.031 291.811C130.625 292.073 131.29 291.619 131.779 291.217C137.598 286.644 168.983 247.578 175.711 229.145C178.77 220.732 182.841 209.106 183.995 200.867C184.7 195.658 184.764 190.382 184.187 185.157C184.187 185.083 184.216 185.012 184.269 184.96C184.321 184.907 184.392 184.878 184.466 184.878C184.541 184.878 184.612 184.907 184.664 184.96C184.717 185.012 184.746 185.083 184.746 185.157C185.621 190.412 185.792 195.76 185.253 201.059C183.96 212.493 174.925 236.319 170.102 245.082C174.261 244.314 182.719 242.638 186.808 241.417C200.439 237.28 213.021 224.938 214.122 211.079C214.478 204.549 214.478 198.005 214.122 191.476C214.004 182.462 212.831 173.493 210.627 164.752C214.331 162.744 217.722 160.388 218.823 158.223C221.182 153.597 214.943 126.978 213.58 119.507C221.042 120.327 233.746 121.811 239.67 117.185C246.451 111.739 261.095 96.413 269.501 84.6305ZM124.894 293.591C121.748 291.689 117.344 287.168 116.68 283.624C117.397 282.716 118.148 281.879 118.847 280.936C121.215 284.546 124.168 287.737 127.585 290.379C126.625 291.396 125.726 292.468 124.894 293.591ZM263.821 72.2894C263.911 72.2318 263.976 72.1418 264.002 72.0379C264.028 71.934 264.014 71.8241 263.961 71.7308C263.349 70.5962 261.514 66.5989 262.79 66.145C263.524 65.8657 264.171 66.3196 264.712 66.9305C265.54 67.9788 266.184 69.1591 266.617 70.4216C266.65 70.5243 266.709 70.6162 266.79 70.6876C266.871 70.7589 266.969 70.8071 267.075 70.8268C267.181 70.8465 267.29 70.8371 267.391 70.7996C267.492 70.762 267.581 70.6978 267.648 70.6136C269.396 68.6761 273.485 64.2598 275.792 63.0728C277.539 62.1651 277.959 63.8409 273.677 67.7509C272.694 68.4999 271.749 69.2981 270.846 70.1424C270.796 70.2109 270.77 70.2934 270.77 70.378C270.77 70.4626 270.796 70.5451 270.846 70.6136C270.846 71.0675 271.213 71.5737 271.842 71.1024C273.361 69.7705 274.967 68.5401 276.648 67.4193C277.506 66.8103 278.503 66.4262 279.549 66.3021C279.025 67.908 274.149 72.2719 273.73 72.7607C273.597 72.8798 273.516 73.0463 273.504 73.2243C273.493 73.4024 273.552 73.5778 273.669 73.7127C273.786 73.8477 273.951 73.9315 274.129 73.9461C274.307 73.9606 274.484 73.9048 274.621 73.7906C276.561 72.5338 279.951 69.6012 281.122 70.0376C282.292 70.474 278.815 73.7207 277.941 74.4888C272.926 78.8352 274.219 76.0423 268.417 81.9423C265.892 79.179 262.992 76.7818 259.802 74.8204L263.821 72.2894ZM187.892 155.779C187.595 153.371 187.228 150.77 186.773 148.064L187.525 147.069C191.02 142.583 192.068 135.444 191.736 129.84C193.606 138.027 195.091 146.074 196.227 154.069L187.892 155.779ZM161.906 96.0115C157.31 92.5204 149.918 86.4982 145.619 82.3787L152.609 78.8876C159.028 84.8763 164.522 91.7823 168.914 99.3804C175.628 111.701 180.609 124.888 183.715 138.568L158.795 103.36L162.046 96.6225C162.089 96.5187 162.099 96.4042 162.073 96.2947C162.048 96.1852 161.99 96.0863 161.906 96.0115ZM173.719 76.2169C173.824 76.4089 175.03 78.9749 176.865 83.461C176.865 83.653 176.533 88.0169 176.375 89.553C174.145 88.6698 172.042 87.496 170.119 86.0618C170.504 84.5432 172.234 77.6483 172.356 76.0947L173.719 76.2169ZM167.516 94.9642C167.638 94.65 167.76 94.231 167.9 93.7423L169.071 94.3532C169.735 94.7896 169.473 93.463 170.067 97.3032C170.067 97.9491 170.242 98.6648 170.277 99.4503C169.473 98.0015 168.477 96.4479 167.533 94.9642H167.516ZM166.537 93.4979C163.235 88.8204 159.477 84.4818 155.318 80.5459L168.477 86.2539C167.97 87.4583 167.236 91.1414 166.554 93.4979H166.537ZM179.975 103.727C178.228 98.9615 176.882 93.6376 176.218 92.2411C176.258 91.8056 176.258 91.3674 176.218 90.9319C176.471 91.026 176.736 91.0847 177.005 91.1065C177.173 91.1084 177.337 91.0494 177.465 90.9403C177.594 90.8313 177.678 90.6795 177.704 90.513C177.843 89.937 178.071 87.0219 178.105 86.376C183.189 99.1963 187.433 112.333 190.81 125.703C180.936 104.722 182.457 110.796 179.993 103.727H179.975ZM194.427 137.05C190.443 117.971 183.435 94.1787 175.467 76.5485C178.393 76.5502 181.315 76.7836 184.204 77.2468C185.69 90.513 184.449 90.0592 185.445 90.5828C186.441 91.1065 192.435 93.5154 193.326 93.8819C193.239 95.226 194.497 133.663 194.445 137.05H194.427ZM174.313 45.4602C175.224 47.446 175.546 49.6512 175.24 51.814C175.097 52.3645 174.805 52.8647 174.395 53.259C173.985 53.6534 173.473 53.9263 172.917 54.0476C172.361 54.1688 171.782 54.1335 171.245 53.9456C170.708 53.7578 170.234 53.4247 169.875 52.9835C169.041 51.229 168.413 49.3838 168.005 47.485C168.477 46.8741 173.51 45.6522 174.313 45.4602ZM150.268 62.9157C149.629 62.6254 148.976 62.3691 148.31 62.1477C147.864 61.9643 147.465 61.6812 147.145 61.32C146.825 60.9589 146.591 60.5293 146.463 60.0642C146.335 59.5991 146.315 59.1109 146.405 58.6369C146.495 58.163 146.692 57.7159 146.982 57.33C148.083 56.4048 149.079 56.4572 149.988 57.8362C150.565 58.901 150.547 58.9882 150.809 59.093C150.884 59.1261 150.966 59.1427 151.048 59.1418C151.13 59.141 151.211 59.1226 151.286 59.0878C151.36 59.0531 151.426 59.0029 151.48 58.9406C151.533 58.8783 151.573 58.8052 151.596 58.7264C151.855 57.6338 151.896 56.501 151.718 55.3924C151.508 54.188 151.473 48.8465 151.508 48.672C152.019 48.9407 152.592 49.0674 153.168 49.0386C156.331 48.9164 156.961 47.293 158.219 45.9664C159.669 46.106 159.966 46.8042 161.609 45.9664C162.378 45.5293 163.084 44.989 163.706 44.3605C164.208 44.5659 164.693 44.811 165.156 45.0936C166.204 45.5967 167.385 45.7512 168.527 45.5344C169.668 45.3176 170.71 44.741 171.5 43.8892C171.692 44.2557 171.867 44.6223 172.024 45.0063C170.418 45.504 168.906 46.265 167.55 47.2581C167.253 47.6247 167.69 49.6146 167.795 50.0859C166.331 50.2698 164.915 50.7257 163.619 51.43C163.356 50.5223 162.78 48.8291 161.871 48.3578C161.598 48.2742 161.306 48.2742 161.032 48.3578C159.459 48.6022 153.815 50.2954 153.133 51.2205C152.539 51.8664 154.234 56.8587 154.759 57.6791C156.768 60.7862 162.657 59.8785 163.758 56.2477C164.031 55.0292 164.031 53.7656 163.758 52.5471C164.265 52.5471 165.785 52.006 165.96 51.9536C167.166 54.6592 167.516 54.8164 168.914 57.7314C168.721 57.8885 168.407 58.1504 168.145 58.3249C166.904 59.1453 166.642 59.0057 166.712 59.3548C166.732 59.4241 166.777 59.4836 166.838 59.5222C166.899 59.5607 166.972 59.5757 167.044 59.5643C167.777 59.4596 168.494 59.2601 169.176 58.9708C169.584 58.8187 169.92 58.5199 170.119 58.1329C170.609 57.0332 167.9 52.8962 166.834 51.6569C167.044 51.6569 167.533 51.3078 167.9 51.1158C168.389 53.0708 168.721 54.6069 170.609 55.3749C171.154 55.5806 171.735 55.6743 172.318 55.6503C172.901 55.6263 173.472 55.4851 173.999 55.2353C174.278 58.3075 174.226 63.2998 172.758 66.0228C172.007 67.4367 170.154 67.9779 168.966 69.1474C168.616 69.479 168.844 69.9503 168.966 70.4565C170.906 75.8503 170.941 75.8329 170.836 76.5311C170.321 79.4291 169.603 82.2873 168.686 85.0843C168.25 84.8923 163.339 82.2914 153.728 78.5559C153.431 76.5835 151.84 66.0577 151.334 64.1202C151.369 63.4394 151.281 63.2823 150.268 62.8285V62.9157ZM162.5 55.7939C161.941 57.6965 159.302 58.5169 157.415 57.9933C155.528 57.4696 155.405 56.5095 154.514 54.2403C154.096 53.3734 153.808 52.4501 153.658 51.4998C154.234 50.8714 160.543 49.5797 161.329 49.4575C162.432 51.3422 162.846 53.551 162.5 55.7066V55.7939ZM94.1199 160.597C93.4558 161.243 94.3471 163.355 94.4869 165.188C94.4869 165.345 94.4869 166.026 94.382 166.078C93.4209 166.392 92.5296 164.944 91.9879 164.071C91.4462 163.198 90.9044 162.011 90.0482 162.325C88.3006 163.146 84.2464 168.522 82.6562 169.081C81.8523 167.544 86.4483 163.163 86.6056 162.919C86.673 162.807 86.7083 162.678 86.7077 162.547C86.7071 162.416 86.6706 162.288 86.6021 162.176C86.5336 162.065 86.4358 161.974 86.3194 161.914C86.2029 161.854 86.0722 161.827 85.9415 161.837C85.627 161.837 85.4172 162.116 84.9279 162.552C83.4397 164.003 81.7362 165.216 79.8776 166.148C81.5627 164.217 83.3661 162.392 85.2774 160.684C85.3718 160.587 85.4383 160.467 85.4697 160.335C85.4697 160.335 85.1027 159.41 84.3862 159.777C83.3727 160.335 78.4447 163.181 76.8894 163.914C76.6797 163.774 76.802 163.565 76.8894 163.355C79.3534 160.335 84.7707 156.67 88.0909 154.348C88.4806 153.947 88.805 153.488 89.0521 152.987C91.3516 155.124 93.8047 157.09 96.3916 158.869C95.5947 159.391 94.8355 159.969 94.1199 160.597ZM134.785 176.464C134.4 176.22 134.121 175.993 134.068 175.679C133.107 168.557 138.454 128.2 138.367 126.611C138.367 126.518 138.348 126.426 138.312 126.34C138.276 126.254 138.223 126.176 138.156 126.111C138.089 126.046 138.01 125.995 137.923 125.961C137.837 125.927 137.744 125.911 137.651 125.913C136.759 125.913 138.332 125.913 116.069 147.209C114.601 148.588 103.382 159.305 101.512 160.021C98.943 159.829 89.2793 152.131 87.7065 149.705C90.7472 143.561 127.62 93.0092 140.377 85.2763C141.355 84.6828 143.033 83.7577 144.868 82.7802C145.502 83.3779 146.186 83.921 146.912 84.4036C150.967 88.2438 156.611 93.0266 160.892 96.6225L157.555 103.238C157.504 103.326 157.477 103.425 157.477 103.526C157.477 103.627 157.504 103.727 157.555 103.814C184.659 142.653 184.257 142.216 184.431 142.216C186.169 151.191 187.25 160.281 187.664 169.412C187.664 171.873 187.664 171.664 187.769 171.489C187.874 171.315 187.769 171.612 187.769 171.612C183.54 176.22 141.687 180.514 134.785 176.464ZM231.387 118.634C223.471 119.734 214.524 118.093 212.794 118.023C211.832 113.37 209.916 108.966 207.167 105.088C207.125 105.032 207.063 104.993 206.994 104.98C206.924 104.967 206.853 104.981 206.793 105.019C206.734 105.056 206.69 105.115 206.672 105.183C206.654 105.251 206.662 105.323 206.695 105.385C207.708 107.445 211.099 116.33 211.937 118.494C211.675 119.332 219.836 153.039 217.529 157.577C215.467 161.679 203.462 166.846 199.128 168.33C198.271 158.612 196.871 148.95 194.934 139.389C195.528 134.361 194.759 104.477 194.532 93.4281C194.525 93.2997 194.483 93.1758 194.408 93.0708C194.334 92.9658 194.232 92.8839 194.113 92.8346L186.266 89.5355C186.231 85.3873 185.968 81.2442 185.48 77.1246C205.07 80.511 227.892 91.7 229.797 91.7174C232.558 91.7174 253.074 76.0074 257.32 75.379C259.208 75.0823 267.316 82.1518 268.26 84.1068C259.977 95.6624 245.42 110.849 238.674 116.103C236.502 117.554 233.993 118.426 231.387 118.634Z" fill="#333232"/>
<path d="M160.898 52.5772C160.876 52.4624 160.832 52.3531 160.767 52.2554C160.703 52.1577 160.621 52.0736 160.524 52.0079C160.427 51.9421 160.319 51.8961 160.204 51.8723C160.09 51.8485 159.972 51.8475 159.857 51.8693C159.742 51.8911 159.633 51.9353 159.535 51.9994C159.438 52.0635 159.353 52.1461 159.288 52.2427C159.222 52.3393 159.176 52.4478 159.152 52.5622C159.128 52.6766 159.127 52.7945 159.149 52.9093C159.499 54.6571 159.569 55.0592 160.338 55.0592C160.483 55.0597 160.627 55.0239 160.755 54.9551C160.883 54.8863 160.992 54.7867 161.072 54.6652C161.152 54.5437 161.2 54.4042 161.212 54.2594C161.225 54.1145 161.201 53.9689 161.142 53.8357C161.09 53.556 160.933 52.7345 160.898 52.5772ZM166.248 64.148C167.385 64.4801 168.469 63.9382 168.434 63.6586C168.399 63.3789 168.434 63.5188 166.895 62.942C165.864 62.5574 164.727 61.1941 164.325 61.4039C163.923 61.6136 164.535 62.7322 164.674 62.942C165.049 63.5093 165.603 63.9341 166.248 64.148ZM198.23 47.5434C195.939 57.1391 194.26 65.2841 193.98 66.9096C193.795 67.6168 193.759 68.3551 193.876 69.0769C194.802 71.052 206.78 74.9497 208.301 74.1807C209.823 73.4116 213.774 64.515 218.373 55.3388C221.19 55.4288 224.009 55.2238 226.784 54.7271C229.705 54.1913 232.548 53.293 235.247 52.0529C241.157 49.3262 247.626 37.6506 248.501 31.7778C249.156 25.4017 247.806 18.98 244.636 13.4078C229.966 -12.0234 186.934 1.66228 190.431 29.9076C191.43 36.3706 194.12 42.4548 198.23 47.5434ZM208.896 68.3603C208.896 68.64 208.581 68.605 207.147 68.3603C204.214 67.9919 201.375 67.0853 198.772 65.6861C197.548 65.0219 197.215 64.8821 197.338 64.585C197.46 64.2878 197.722 64.3927 199.611 64.917C199.786 64.917 205.206 66.6649 206.762 67.2067C208.773 68.1156 208.896 68.1156 208.896 68.3603ZM208.581 39.9228C210.448 40.0196 212.309 39.6343 213.984 38.8041C215.541 39.5581 217.225 40.0146 218.95 40.15C216.012 45.6208 210.05 56.7721 208.126 62.7147L200.712 60.6698C202.461 56.37 206.325 46.3024 208.546 39.9228H208.581ZM207.969 38.472C206.664 38.2749 205.459 37.6553 204.54 36.7081C203.621 35.761 203.038 34.5386 202.881 33.2285C202.391 29.7328 204.629 25.8176 208.004 26.744C210.12 27.3207 210.382 28.9987 210.015 31.1136C209.7 32.6517 208.564 36.5145 207.934 38.4021L207.969 38.472ZM212.725 34.2772C212.912 33.1335 213.341 32.0429 213.984 31.0786C214.29 30.553 214.737 30.1236 215.275 29.8394C215.813 29.5551 216.42 29.4274 217.027 29.4706C218.321 29.8551 218.88 32.3021 217.813 33.8402C216.788 35.2 215.512 36.351 214.054 37.2311C213.552 36.9367 213.153 36.4959 212.909 35.9679C212.665 35.4398 212.589 34.8499 212.69 34.2772H212.725ZM196.656 12.062C204.489 2.64108 219.23 -1.09932 229.879 2.78091C235.663 4.76584 240.529 8.78489 243.57 14.0895C246.585 19.3917 247.874 25.5003 247.259 31.568C246.455 37.0038 240.265 48.295 234.827 50.7944C229.855 53.0614 224.43 54.1615 218.967 54.0104C218.373 54.0104 217.743 54.0104 217.516 54.4299C216.485 56.5273 214.596 60.5824 212.743 64.3927C211.463 63.7749 210.135 63.2606 208.773 62.8546C210.802 57.0517 217.201 45.6557 220.244 40.1325C222.88 40.3583 225.53 39.9007 227.938 38.8041C228.588 38.4619 229.127 37.9412 229.492 37.3033C229.857 36.6654 230.033 35.9367 229.998 35.2027C229.963 34.4687 229.719 33.7599 229.295 33.1595C228.872 32.559 228.285 32.0918 227.605 31.8127C224.895 30.4844 222.465 33.6655 221.048 36.3397C220.664 37.0388 220.226 37.8603 219.737 38.7867C218.323 38.6938 216.928 38.4055 215.593 37.9302C216.923 36.9961 218.102 35.8644 219.09 34.5743C219.644 33.7386 219.924 32.7518 219.893 31.75C219.861 30.7481 219.52 29.7807 218.915 28.9812C218.44 28.4298 217.78 28.0705 217.059 27.9707C216.338 27.871 215.605 28.0376 214.998 28.4394C213.774 29.1915 212.792 30.281 212.172 31.577C211.552 32.8729 211.319 34.3203 211.501 35.7454C211.691 36.5498 212.125 37.2761 212.743 37.8253C211.596 38.3002 210.364 38.538 209.123 38.5245C209.823 36.462 210.959 32.7391 211.256 31.2185C211.443 30.3515 211.484 29.4597 211.379 28.5792C211.243 27.8233 210.893 27.1227 210.368 26.5614C209.844 26.0002 209.169 25.6023 208.424 25.4156C204.175 24.2096 201.045 28.9113 201.657 33.2984C201.83 34.8706 202.505 36.3452 203.582 37.5038C204.659 38.6624 206.081 39.4432 207.637 39.7305C205.399 46.0228 201.901 56.1778 200.153 60.5125L196.306 59.5162C198.772 47.1414 199.069 47.4385 198.719 47.2812C194.746 42.2177 192.204 36.182 191.358 29.8027C190.945 26.6395 191.204 23.4251 192.117 20.3685C193.03 17.3119 194.576 14.4817 196.656 12.062ZM220.926 38.8915C222.15 36.6718 224.598 31.8127 226.976 33.0013C227.452 33.1928 227.866 33.5106 228.174 33.9203C228.482 34.33 228.672 34.816 228.724 35.3259C228.69 38.4021 223.898 38.944 220.856 38.8915H220.926ZM287.861 46.5996C289.968 45.3608 292.457 44.9379 294.855 45.411C297.49 45.4581 300.006 46.5111 301.889 48.3538C303.771 50.1966 304.877 52.6895 304.979 55.3213C303.395 54.4025 301.543 54.0569 299.734 54.3425C295.345 54.7271 289.61 57.1041 290.379 61.3339C291.008 64.8297 295.625 64.3577 299.122 63.4139C302.619 62.4701 305.399 60.7572 306.116 57.3838C310.365 60.4775 311.362 65.8958 311.537 71.1918C311.537 71.266 311.566 71.3371 311.619 71.3896C311.671 71.442 311.742 71.4715 311.816 71.4715C311.891 71.4715 311.962 71.442 312.014 71.3896C312.067 71.3371 312.096 71.266 312.096 71.1918C312.219 65.2666 311.152 59.4637 306.308 56.0904C306.358 54.5729 306.099 53.061 305.548 51.6464C304.996 50.2317 304.163 48.9437 303.099 47.8603C302.034 46.777 300.761 45.9207 299.356 45.3435C297.952 44.7663 296.444 44.48 294.925 44.5021C292.498 44.1478 290.023 44.6549 287.931 45.9354C287.284 46.25 287.581 46.7219 287.861 46.5996ZM303.808 59.1317C301.832 61.7185 296.237 63.0643 293.649 62.6274C292.687 62.4701 291.9 62.068 291.69 61.0718C291.061 57.5761 297.093 55.6709 300.696 55.5486C302.162 55.4362 303.625 55.811 304.857 56.6147C304.725 57.5286 304.364 58.3943 303.808 59.1317ZM279.853 26.1672C281.724 23.86 280.465 19.8399 275.236 19.8225C273.208 19.8225 272.229 21.8849 272.369 23.86C272.683 28.5617 277.982 28.4219 279.853 26.1672ZM273.593 23.7726C273.593 22.619 274.135 21.1159 275.341 21.1334C278.156 21.1334 279.45 22.4442 279.45 23.895C279.38 27.1984 273.365 28.9113 273.593 23.7726ZM272.876 221.927C257.506 215.792 250.372 245.488 237.817 271.006C237.738 272.079 237.773 273.157 237.922 274.222C237.922 276.896 238.219 294.602 239.775 296.612C240.195 297.416 241.961 296.612 242.783 296.105C249.763 291.786 256.341 286.849 262.437 281.354C262.489 281.294 262.528 281.225 262.552 281.15C262.576 281.074 262.585 280.995 262.577 280.917C265.829 276.285 278.017 252.164 280.972 240.069C283.035 231.505 280.989 225.125 272.876 221.927ZM278.366 244.124C270.138 243.07 262.182 240.473 254.918 236.469C259.01 228.726 264.063 219.899 272.404 223.22C281.689 226.908 281.496 234.546 278.366 244.072V244.124ZM249.27 289.568C248.733 289.118 248.147 288.731 247.522 288.415C245.159 287.214 242.429 286.952 239.88 287.681C239.706 285.601 238.709 272.072 238.709 271.95C251.806 276.739 247.766 274.659 260.741 281.109C259.377 282.402 254.254 285.985 249.27 289.533V289.568ZM258.293 238.986C259.998 239.917 261.749 240.763 263.538 241.52C259.531 247.813 255.989 254.391 252.942 261.201C250.005 267.336 250.109 267.301 247.119 273.995C245.371 273.436 243.622 272.911 241.874 272.387C243.762 268.629 257.191 241.153 258.293 238.951V238.986ZM247.801 274.17C253.484 263.98 259.272 251.308 264.238 241.747C265.986 242.481 267.735 243.076 269.484 243.6C268.557 245.348 265.847 249.997 265.13 251.343C264.413 252.689 257.226 266.846 256.719 267.93C255.915 269.678 253.712 274.554 253.03 276.11C251.246 275.323 249.532 274.729 247.731 274.135L247.801 274.17ZM253.659 276.337C254.726 274.397 259.115 266.252 259.657 265.203C260.478 263.578 269.641 244.858 270.148 243.775C271.757 244.229 273.453 244.614 274.537 244.823C271.337 253.563 262.122 270.394 258.8 278.697C255.775 277.281 255.093 276.931 253.589 276.302L253.659 276.337ZM254.726 236.976L257.856 238.723C251.548 249.461 246.054 260.655 241.419 272.212L238.796 271.408C248.955 249.77 249.428 246.938 254.656 236.941L254.726 236.976ZM261.93 280.217L259.289 278.959C262.14 273.366 271.057 259.016 275.131 244.946C276.111 245.121 277.072 245.278 277.999 245.4C273.506 257.385 268.111 269.012 261.86 280.182L261.93 280.217ZM207.147 291.561C207.844 290.984 208.342 290.203 208.571 289.328C208.8 288.453 208.749 287.529 208.424 286.684C208.275 285.467 207.717 284.336 206.839 283.477C205.962 282.619 204.819 282.085 203.598 281.963C202.377 281.841 201.15 282.138 200.12 282.806C199.091 283.473 198.319 284.471 197.932 285.636C195.694 284.185 193.264 282.647 190.938 281.179C192.687 278.854 197.827 279.885 198.352 281.79C198.363 281.865 198.404 281.931 198.465 281.975C198.525 282.02 198.601 282.038 198.675 282.026C198.75 282.015 198.816 281.974 198.86 281.914C198.905 281.853 198.923 281.777 198.911 281.703C198.649 278.662 192.319 276.879 189.766 280.462C187.511 279.081 184.713 277.403 182.37 276.127C184.381 274.38 188.875 275.358 189.364 277.176C189.387 277.238 189.432 277.29 189.489 277.323C189.547 277.355 189.615 277.366 189.68 277.354C189.745 277.341 189.803 277.306 189.845 277.254C189.886 277.202 189.908 277.138 189.906 277.071C189.679 274.24 183.821 272.335 181.163 275.446C180.05 274.822 178.879 274.307 177.666 273.908C177.445 273.816 177.201 273.79 176.966 273.833C176.73 273.877 176.512 273.988 176.337 274.152C171.914 279.658 156.998 293.956 150.109 295.616C149.936 295.642 149.772 295.713 149.636 295.822C149.499 295.932 149.393 296.075 149.329 296.238C149.265 296.401 149.246 296.578 149.272 296.751C149.298 296.924 149.37 297.087 149.479 297.224C150.992 298.759 152.725 300.061 154.62 301.087C152.872 302.835 151.508 304.408 150.494 305.544C149.969 306.103 149.689 316.8 150.144 319.16C150.212 319.391 150.361 319.589 150.564 319.719C152.767 321.222 181.146 333.492 184.049 331.849C185.99 330.748 209.158 306.645 209.525 305.911C210.085 304.757 209.892 297.067 209.857 293.99C209.718 293.064 207.986 292.068 207.147 291.561ZM151.193 314.65V310.752C158.45 314.248 175.061 321.379 181.356 323.372C182.965 323.896 183.104 323.826 183.944 323.372C188.752 320.296 205.731 301.174 208.843 298.255V301.943C199.401 311.399 183.367 327.969 183.069 327.025C181.338 326.92 152.697 315.349 151.193 314.65ZM206.71 285.671C207.339 286.729 207.676 287.935 207.689 289.166C207.683 289.558 207.587 289.943 207.408 290.292C207.229 290.64 206.972 290.943 206.658 291.176C205.189 290.198 202.409 288.38 199.121 286.247C200.922 282.699 204.927 282.647 206.64 285.671H206.71ZM150.756 296.857C158.205 294.655 172.351 281.021 177.107 275.114C178.251 275.432 179.355 275.884 180.394 276.46C178.646 279.711 180.517 283.276 181.181 282.769C181.548 282.49 180.884 282.385 180.779 280.672C180.734 279.421 181.017 278.179 181.601 277.071C184.014 278.33 186.846 279.973 189.242 281.354C187.773 284.622 189.539 287.855 190.151 287.384C190.763 286.912 189.871 287.017 189.766 285.304C189.724 284.18 189.939 283.062 190.396 282.035C192.861 283.486 195.379 284.989 197.687 286.405C197.332 287.276 197.191 288.219 197.276 289.156C197.361 290.093 197.67 290.996 198.177 291.788C198.2 291.818 198.229 291.843 198.261 291.862C198.294 291.881 198.33 291.893 198.367 291.898C198.405 291.903 198.443 291.9 198.479 291.89C198.515 291.88 198.549 291.864 198.579 291.841C198.609 291.818 198.634 291.789 198.653 291.756C198.672 291.724 198.684 291.688 198.689 291.65C198.694 291.613 198.691 291.575 198.681 291.539C198.671 291.503 198.655 291.468 198.632 291.439C198.317 290.744 198.162 289.988 198.177 289.226C198.192 288.464 198.378 287.715 198.719 287.034C202.793 289.516 206.081 291.596 207.095 292.278C206.902 292.452 188.665 308.672 182.457 313.496C178.383 312.43 156.998 301.821 150.756 296.857ZM151.42 306.592C159.341 310.088 177.334 318.198 181.478 318.985C182.195 319.125 182.475 319.177 183.839 318.093C189.662 313.427 208.598 293.623 208.773 293.833C208.782 293.885 208.782 293.938 208.773 293.99V297.486C204.874 300.615 183.192 323.372 182.842 322.288C181.094 322.288 152.679 310.7 151.228 310.053C151.193 309.319 151.35 307.362 151.42 306.592ZM183.262 330.678C181.513 331.674 154.883 320.855 151.315 318.653C151.181 317.539 151.117 316.418 151.123 315.297C158.782 319.072 181.059 328.476 183.104 328.388C186.094 328.231 207.235 304.443 208.738 302.782C208.756 303.675 208.668 304.567 208.476 305.439C208.179 306.016 184.416 330.031 183.262 330.678ZM38.393 232.151C38.5154 234.022 38.6028 235.647 38.6028 237.168C38.6028 237.4 38.6949 237.622 38.8589 237.786C39.0228 237.95 39.2452 238.042 39.4771 238.042C39.709 238.042 39.9313 237.95 40.0953 237.786C40.2593 237.622 40.3514 237.4 40.3514 237.168C40.3514 235.542 40.2639 233.934 40.1415 232.029C40.1253 231.797 40.0176 231.581 39.8422 231.429C39.6668 231.277 39.4379 231.2 39.2061 231.216C38.9742 231.233 38.7583 231.34 38.6058 231.516C38.4533 231.691 38.3767 231.92 38.393 232.151ZM304.822 197.107C304.708 197.114 304.596 197.143 304.494 197.193C304.391 197.244 304.299 197.314 304.225 197.401C304.15 197.487 304.093 197.588 304.057 197.696C304.022 197.805 304.008 197.92 304.018 198.033C304.123 199.641 304.228 201.372 304.228 203.05C304.228 203.282 304.32 203.504 304.484 203.668C304.648 203.832 304.87 203.924 305.102 203.924C305.334 203.924 305.556 203.832 305.72 203.668C305.884 203.504 305.976 203.282 305.976 203.05C305.976 201.302 305.871 199.554 305.749 197.911C305.742 197.797 305.713 197.685 305.662 197.583C305.612 197.48 305.541 197.389 305.455 197.314C305.369 197.239 305.268 197.182 305.16 197.146C305.051 197.111 304.936 197.098 304.822 197.107ZM33.8642 227.799C34.0961 227.799 34.3184 227.707 34.4824 227.543C34.6464 227.379 34.7385 227.157 34.7385 226.925C34.7385 226.694 34.6464 226.471 34.4824 226.307C34.3184 226.144 34.0961 226.051 33.8642 226.051C31.7484 226.051 29.9824 226.209 28.2338 226.174C28.0003 226.174 27.7761 226.265 27.6093 226.429C27.4426 226.592 27.3466 226.814 27.342 227.048C27.342 227.28 27.4341 227.502 27.5981 227.666C27.7621 227.83 27.9844 227.922 28.2163 227.922C30.0173 227.957 31.9932 227.887 33.8642 227.799ZM299.402 191.933C297.303 191.933 295.537 192.056 293.771 192.073C293.539 192.073 293.317 192.165 293.153 192.329C292.989 192.493 292.897 192.715 292.897 192.947C292.897 193.179 292.989 193.401 293.153 193.565C293.317 193.729 293.539 193.821 293.771 193.821C295.66 193.821 297.618 193.821 299.507 193.681C299.738 193.667 299.955 193.562 300.109 193.388C300.263 193.215 300.342 192.987 300.328 192.755C300.314 192.523 300.209 192.306 300.035 192.152C299.861 191.998 299.633 191.92 299.402 191.933ZM37.9209 216.998C38.0258 218.606 38.1307 220.336 38.1307 222.014C38.1352 222.244 38.2287 222.464 38.3917 222.627C38.5547 222.79 38.7745 222.883 39.005 222.888C39.2368 222.888 39.4592 222.796 39.6232 222.632C39.7871 222.468 39.8793 222.246 39.8793 222.014C39.8793 220.266 39.7743 218.518 39.6694 216.875C39.6532 216.643 39.5455 216.428 39.3701 216.275C39.1946 216.123 38.9658 216.046 38.7339 216.063C38.5021 216.079 38.2861 216.186 38.1337 216.362C37.9812 216.537 37.9046 216.766 37.9209 216.998ZM305.504 187.896C305.504 186.148 305.399 184.4 305.277 182.757C305.261 182.525 305.153 182.31 304.977 182.157C304.802 182.005 304.573 181.928 304.341 181.944C304.109 181.961 303.893 182.068 303.741 182.244C303.589 182.419 303.512 182.648 303.528 182.88C303.633 184.488 303.738 186.218 303.738 187.896C303.738 188.128 303.83 188.35 303.994 188.514C304.158 188.678 304.38 188.77 304.612 188.77C304.846 188.77 305.07 188.678 305.237 188.515C305.404 188.352 305.5 188.129 305.504 187.896ZM50.8253 227.572C50.9401 227.568 51.053 227.541 51.1573 227.492C51.2617 227.444 51.3555 227.376 51.4335 227.292C51.5114 227.207 51.572 227.108 51.6116 227C51.6513 226.893 51.6693 226.778 51.6646 226.663C51.6469 226.435 51.5434 226.221 51.3748 226.065C51.2061 225.91 50.9849 225.824 50.7553 225.824C48.6396 225.912 46.8735 225.982 45.1075 225.947C44.8756 225.947 44.6532 226.039 44.4893 226.203C44.3253 226.366 44.2332 226.589 44.2332 226.821C44.2332 227.052 44.3253 227.275 44.4893 227.438C44.6532 227.602 44.8756 227.694 45.1075 227.694C46.9784 227.729 48.9368 227.66 50.8253 227.572ZM316.363 191.706C314.614 191.794 312.673 191.846 310.732 191.846C310.617 191.841 310.502 191.86 310.394 191.901C310.286 191.942 310.187 192.004 310.104 192.084C310.02 192.164 309.954 192.26 309.909 192.366C309.864 192.473 309.84 192.587 309.841 192.702C309.84 192.936 309.932 193.16 310.096 193.327C310.259 193.493 310.481 193.589 310.715 193.594C312.708 193.594 314.317 193.594 316.433 193.454C316.547 193.45 316.66 193.422 316.765 193.374C316.869 193.326 316.963 193.258 317.041 193.174C317.119 193.089 317.179 192.99 317.219 192.882C317.259 192.775 317.277 192.66 317.272 192.545C317.25 192.318 317.146 192.107 316.978 191.952C316.81 191.797 316.591 191.71 316.363 191.706ZM10.6432 175.783C10.8705 175.958 60.1801 168.652 62.2959 167.359C62.413 167.273 62.5066 167.159 62.5678 167.028C62.6289 166.896 62.6557 166.752 62.6456 166.607C62.6456 164.352 59.6905 143.186 58.2742 137.907C58.0993 137.261 57.9245 136.614 57.5223 136.387C54.847 134.779 7.70562 143.658 4.89043 145.476C4.81413 145.521 4.74821 145.581 4.69699 145.654C4.64576 145.726 4.61039 145.808 4.59317 145.895C3.99866 148.01 9.12196 174.735 10.6432 175.783ZM5.6598 146.314C9.01705 144.794 51.8045 136.963 56.7005 137.575C57.8895 140.634 61.0719 163.041 61.2817 166.327C58.8512 167.044 11.3077 175.206 11.1328 175.241C10.958 175.276 10.9405 175.486 10.5733 174.385C9.03453 169.771 5.57237 150.265 5.6598 146.314Z" fill="#333232"/>
<path d="M66.4279 168.68C66.5231 168.504 66.5657 168.305 66.5504 168.105C66.5504 165.336 62.5585 134.597 61.1404 132.142C61.0292 131.961 60.8718 131.812 60.6842 131.711C60.4966 131.61 60.2855 131.561 60.0724 131.567C54.2071 130.853 4.7288 140.467 1.47227 142.713C1.01705 143.027 1.08708 143.81 1.13961 144.646C1.41974 149.227 6.39208 179.356 8.14291 179.182C8.3355 179.182 8.26546 179.043 7.81025 179.966C5.07896 185.556 -0.103476 203.46 0.00157298 207.065C0.00157298 208.58 0.351737 210.548 1.85745 210.443C12.66 209.12 65.6225 200.76 80.8547 197.643C81.4499 197.521 81.8351 196.981 81.8176 196.093C81.6379 194.613 81.1869 193.179 80.487 191.861C78.351 187.872 69.4918 172.076 66.4279 168.68ZM8.24796 178.642C6.88231 176.9 1.85745 146.893 2.24263 143.567C6.09444 141.581 54.9074 132.194 60.0198 132.96C61.4205 136.792 65.0447 164.466 65.2723 167.792C59.0744 169.917 16.1617 176.813 8.24796 178.642ZM9.01832 179.165C10.489 178.799 60.5801 170.457 65.1673 169.255C67.6709 171.571 78.9813 191.582 79.7166 193.289C69.6669 195.03 10.0513 204.94 1.27967 206.264C1.40223 200.987 6.8473 182.543 9.01832 179.165Z" fill="#333232"/>
<path d="M15.1518 198.097C16.6719 197.87 48.9254 193.985 60.5793 190.817C60.6512 190.799 60.7127 190.752 60.7504 190.688C60.788 190.624 60.7988 190.548 60.7803 190.476C60.7617 190.404 60.7154 190.342 60.6515 190.305C60.5876 190.267 60.5114 190.256 60.4396 190.275C58.1507 190.747 30.2303 194.475 15.1169 197.555C15.0751 197.547 15.0322 197.549 14.9914 197.561C14.9506 197.572 14.9129 197.593 14.8813 197.621C14.8496 197.65 14.8248 197.685 14.8087 197.724C14.7926 197.763 14.7857 197.806 14.7884 197.848C14.7912 197.891 14.8035 197.932 14.8245 197.969C14.8455 198.006 14.8746 198.037 14.9096 198.061C14.9446 198.085 14.9846 198.101 15.0266 198.107C15.0686 198.113 15.1114 198.11 15.1518 198.097ZM38.7217 76.3356C38.069 77.812 37.5202 79.3324 37.0793 80.8855C37.0533 81.1347 37.122 81.3846 37.2715 81.5854C39.0362 84.2454 57.1199 104.667 61.8373 107.537C62.4838 107.94 63.2526 108.22 63.7243 107.642C67.1512 103.371 71.6235 100.062 76.7061 98.035C80.8428 96.5691 85.18 95.7487 89.5656 95.6025C93.06 95.2875 93.6715 94.9375 95.0169 92.6451C96.6039 89.6282 98.7094 86.9151 101.237 84.6304C104.46 81.8081 108.037 79.4196 111.877 77.5256C112.05 77.4274 112.186 77.2742 112.261 77.0903C112.337 76.9064 112.35 76.7024 112.297 76.5106C111.706 75.0053 110.925 73.582 109.973 72.2757C110.602 72.0657 111.301 71.8732 111.301 71.2432C111.301 69.4933 96.0652 47.4089 91.8369 43.2441C91.4001 42.8066 90.7711 42.2291 90.1946 42.2641C81.4585 42.7541 72.9496 51.0138 68.0224 58.2236C62.379 58.0136 58.7273 57.5061 52.2976 60.2186C47.7584 62.1483 43.6661 64.996 40.2767 68.5833C39.7526 69.1258 36.1883 72.9057 36.1358 73.2032C36.0834 73.5007 36.1883 73.5007 38.7217 76.3356ZM108.61 75.8456C101.324 77.0881 96.6767 83.1604 93.2522 89.7577C91.7321 92.6976 91.8719 92.8376 90.2644 92.8026C87.4536 92.6432 84.634 92.7486 81.8429 93.1176C79.7957 93.4241 77.7828 93.9281 75.8325 94.6226C71.3946 96.1975 66.3102 101.237 63.602 104.982C63.5445 105.059 63.4713 105.123 63.3874 105.17C63.3034 105.217 63.2106 105.245 63.1149 105.253C63.0192 105.262 62.9228 105.25 62.8321 105.218C62.7415 105.186 62.6585 105.136 62.5886 105.07C56.9102 99.2074 46.8637 88.9177 41.8143 83.0029C41.5697 82.7404 41.989 82.3554 42.2336 82.6354C45.5009 86.1353 53.9399 94.5176 62.9905 103.635C66.0481 99.7324 70.7656 95.0075 75.4306 93.3626C77.9745 92.4538 80.6215 91.8659 83.3105 91.6126C85.8287 91.4211 88.3578 91.4211 90.876 91.6126C91.9068 90.4227 97.0087 76.9131 108.575 75.4081C108.609 75.433 108.637 75.4652 108.657 75.5024C108.676 75.5395 108.687 75.5806 108.689 75.6227C108.691 75.6647 108.683 75.7066 108.666 75.7452C108.65 75.7838 108.624 75.8181 108.593 75.8456H108.61ZM90.1771 43.6816C93.6715 46.1315 107.894 67.2184 109.746 70.9108C106.532 71.9306 103.43 73.2732 100.486 74.9181C97.6977 76.3179 95.2567 78.3229 93.3404 80.7872C91.4241 83.2514 90.0808 86.1127 89.4083 89.1627C83.1358 78.943 74.3823 67.6909 68.5641 59.4136C68.9135 59.1861 78.7329 44.364 90.1771 43.6816ZM52.6819 61.181C59.0593 58.6086 62.5886 59.2036 67.8652 59.4311C73.1068 68.3908 82.5243 81.0255 88.7269 89.3027C83.0021 87.9459 76.9779 88.7758 71.8314 91.6301C68.7388 93.3801 64.9648 97.58 62.641 100.187C59.2864 97.4925 39.9273 76.8431 36.8173 73.3432C41.6046 67.9183 46.0251 63.841 52.6819 61.111V61.181ZM20.708 105.682C20.2761 105.379 19.7656 105.207 19.2384 105.189C18.7112 105.17 18.1898 105.305 17.7377 105.577C17.4085 105.724 17.1114 105.935 16.8634 106.197C16.6154 106.459 16.4213 106.768 16.2923 107.105C16.1634 107.442 16.1019 107.801 16.1116 108.162C16.1213 108.523 16.2018 108.879 16.3487 109.208C16.4955 109.538 16.7058 109.836 16.9675 110.084C17.2291 110.333 17.5371 110.527 17.8737 110.656C18.2104 110.785 18.5692 110.847 18.9295 110.837C19.2899 110.827 19.6449 110.747 19.9741 110.6C20.5001 110.484 20.9787 110.212 21.3465 109.818C21.7143 109.424 21.9538 108.928 22.0334 108.394C22.113 107.861 22.0289 107.316 21.7922 106.832C21.5555 106.347 21.1773 105.946 20.708 105.682ZM19.5548 109.182C18.3318 109.567 17.5979 109.182 17.3009 108.587C16.7418 107.345 17.4407 105.437 19.2578 105.997C20.5333 106.47 21.5641 108.622 19.5548 109.27V109.182ZM109.554 25.6046C110.06 26.6371 112.419 26.2521 113.45 25.9196C113.992 25.7446 114.341 25.5521 114.393 25.0271C114.551 23.7146 114.725 12.34 114.131 11.2375C114.07 11.1219 113.976 11.027 113.861 10.9648C113.746 10.9025 113.615 10.8756 113.485 10.8875C111.621 10.8823 109.766 11.1536 107.981 11.6925C107.265 12.13 108.925 24.4496 109.554 25.6046ZM108.348 12.1125C109.962 11.8812 111.594 11.805 113.223 11.885C113.328 13.1799 113.048 24.3971 113.031 24.5721C112.292 24.837 111.504 24.9327 110.724 24.8521C110.602 24.4496 110.392 23.3646 110.13 21.9997C109.36 18.7382 108.765 15.4377 108.348 12.1125ZM19.0132 90.9127C19.1808 90.9987 19.3665 91.0435 19.5548 91.0435C19.7432 91.0435 19.9288 90.9987 20.0964 90.9127C20.7715 90.4957 21.3068 89.8863 21.634 89.1627C21.6784 89.0469 21.6921 88.9216 21.6738 88.7989C21.6554 88.6762 21.6056 88.5604 21.5292 88.4627C20.6905 87.4653 11.5351 76.8431 10.4169 77.5081C9.04397 78.3983 7.74137 79.3928 6.52062 80.483C6.47142 80.527 6.432 80.581 6.40492 80.6413C6.37783 80.7015 6.36368 80.7669 6.36337 80.833C6.32843 81.7429 16.4972 89.8977 19.0132 90.9127ZM10.6266 77.9631C11.902 78.8905 16.2002 84.2104 20.1838 88.9177C20.0124 89.188 19.8002 89.43 19.5548 89.6352C15.3665 86.9504 11.3676 83.9801 7.58642 80.7455C8.53431 79.7487 9.55013 78.819 10.6266 77.9631ZM38.0753 39.3592C38.4596 32.5694 42.4083 29.4195 46.5318 28.6145C45.3611 32.9194 45.5533 38.5192 49.799 39.2367C51.8258 39.5692 52.8217 38.5192 54.2894 37.2942C60.5619 32.0444 55.4949 26.7945 48.4187 27.162C51.057 19.9172 57.1548 14.0199 65.2444 13.8274C65.3185 13.8274 65.3896 13.7979 65.4421 13.7454C65.4945 13.6929 65.5239 13.6217 65.5239 13.5474C65.5239 13.4732 65.4945 13.402 65.4421 13.3495C65.3896 13.2969 65.3185 13.2674 65.2444 13.2674C56.5083 13.0924 49.6418 19.3923 46.9336 27.267C42.2686 28.072 37.6384 31.5719 37.5161 39.2542C37.5093 39.291 37.5097 39.3287 37.5174 39.3653C37.5251 39.4019 37.5399 39.4367 37.561 39.4675C37.582 39.4984 37.609 39.5248 37.6403 39.5453C37.6716 39.5657 37.7066 39.5798 37.7433 39.5867C37.78 39.5936 37.8177 39.5932 37.8543 39.5854C37.8908 39.5777 37.9255 39.5629 37.9563 39.5418C37.9871 39.5207 38.0135 39.4937 38.0339 39.4623C38.0543 39.431 38.0684 39.3959 38.0753 39.3592ZM48.0169 28.4045C50.6202 28.2295 54.499 29.0345 55.5648 31.3969C56.1764 32.7444 55.5648 34.4068 53.3983 36.2268C52.8101 36.817 52.1391 37.318 51.4065 37.7142C48.7857 38.8342 45.8853 35.5968 48.0169 28.4045ZM53.0139 275.9C51.3259 275.447 49.5644 275.337 47.8333 275.576C46.1021 275.815 44.4362 276.398 42.9335 277.292C41.4308 278.186 40.1218 279.371 39.0834 280.779C38.0451 282.187 37.2983 283.788 36.8871 285.489C36.111 289.024 36.7684 292.722 38.7147 295.771C40.661 298.82 43.7369 300.969 47.2656 301.746C50.7943 302.524 54.4868 301.865 57.5308 299.916C60.5748 297.967 62.721 294.886 63.4972 291.352C63.8287 289.647 63.8201 287.894 63.4719 286.192C63.1236 284.491 62.4426 282.876 61.4681 281.439C60.4936 280.003 59.2448 278.774 57.7939 277.823C56.3429 276.872 54.7183 276.219 53.0139 275.9ZM58.4128 290.162C57.7117 292.962 56.0334 295.419 53.6813 297.088C51.3292 298.757 48.4585 299.528 45.5883 299.262C42.9534 298.23 40.7661 296.302 39.4111 293.815C38.0561 291.328 37.6202 288.442 38.1801 285.664C38.8339 282.796 40.4966 280.259 42.8642 278.518C45.2318 276.776 48.1462 275.946 51.0745 276.18C53.7353 277.281 55.9231 279.287 57.2526 281.844C58.5821 284.402 58.9682 287.347 58.3429 290.162H58.4128Z" fill="#333232"/>
<path d="M76.4086 280.8C74.8852 280.275 73.2525 280.148 71.6663 280.433C71.0088 278.925 70.1997 277.488 69.2514 276.144C70.3888 275.111 73.5037 272.24 72.7512 270.892C70.0733 267.688 66.8939 264.939 63.3366 262.752C61.8512 261.92 60.2156 261.39 58.5243 261.194C57.4044 261.352 54.7445 265.711 54.1495 266.691C53.7645 266.691 52.3996 266.253 52.2946 266.201C52.2946 264.941 51.9271 260.389 50.7897 259.864C49.5177 259.396 48.1969 259.073 46.8523 258.901C45.6099 258.709 34.4278 260.757 33.6054 262.262C33.0629 263.278 34.3229 267.111 34.6903 268.179C33.7466 268.699 32.8402 269.284 31.978 269.93C30.228 271.172 30.7005 271.12 30.3855 270.98C30.0048 270.798 29.5969 270.68 29.1781 270.63C27.7802 269.81 26.1412 269.501 24.5408 269.755C22.9308 270.28 19.1335 278.927 18.521 281.151C18.3206 281.711 18.2664 282.314 18.3635 282.901C18.7835 284.056 21.5834 284.984 22.7558 285.352C22.4321 287.604 22.4321 289.891 22.7558 292.144C21.2159 292.564 18.0135 293.509 18.1885 295.085C18.3635 296.66 22.4584 307.059 24.1558 307.881C25.0856 308.401 26.1139 308.722 27.1746 308.821C28.2354 308.921 29.3052 308.797 30.3155 308.459C30.8845 308.175 31.434 307.853 31.9605 307.496C32.6604 308.021 33.3954 308.494 34.1479 308.949C33.6054 310.297 32.3979 313.308 32.7829 314.673C32.9754 315.391 33.5529 315.619 34.3579 315.916C36.5803 316.721 48.5497 319.592 50.3697 319.277C51.0521 319.172 51.4196 318.454 51.6296 317.772C52.0184 316.218 52.2471 314.628 52.3121 313.028C53.2108 312.939 54.1044 312.805 54.9895 312.625C55.53 313.577 56.2215 314.434 57.0369 315.163C57.9294 315.794 58.6818 315.479 59.6968 314.831C60.1868 315.461 60.9217 316.336 61.7092 316.424C63.6866 316.651 71.8588 308.949 72.6987 307.374C73.3987 306.061 70.8438 303.715 69.7064 302.682C70.9368 300.83 71.9028 298.815 72.5762 296.695C73.8384 296.886 75.1157 296.956 76.3911 296.905C76.9686 296.905 77.6335 296.695 77.8785 296.153C78.946 293.719 78.631 284.494 77.8785 282.148C77.7735 281.466 76.986 281.01 76.4086 280.8ZM76.8286 282.411C77.4235 284.687 77.616 293.282 76.7411 295.505C75.2281 295.654 73.7015 295.583 72.2088 295.295C72.0494 295.268 71.8856 295.301 71.7496 295.389C71.6135 295.476 71.5152 295.611 71.4738 295.768C70.7769 298.134 69.6949 300.37 68.2714 302.385C68.17 302.518 68.1243 302.686 68.1439 302.852C68.1635 303.019 68.2468 303.171 68.3764 303.277C69.6042 304.251 70.6474 305.436 71.4563 306.778C70.5813 308.214 63.7391 314.481 61.8492 315.006C61.5692 315.006 60.7992 313.956 60.6067 313.676C59.9603 312.704 59.3759 311.692 58.8568 310.647C58.781 310.495 58.6511 310.376 58.4925 310.315C58.3339 310.253 58.158 310.253 57.9994 310.314C52.9246 312.223 50.9996 311.102 50.9996 312.363C51.0019 314.25 50.6945 316.124 50.0897 317.912C45.9773 317.465 41.9275 316.56 38.0152 315.216C38.2041 313.347 38.7257 311.527 39.5551 309.842C40.0801 308.669 37.9802 309.002 34.0604 305.01C33.9342 304.893 33.7686 304.829 33.5966 304.829C33.4247 304.829 33.2591 304.893 33.1329 305.01C31.383 306.446 29.1081 307.846 28.6531 307.619C27.7606 307.181 23.6483 297.851 23.4033 295.96C24.648 295.092 26.0609 294.496 27.5506 294.21C27.7095 294.165 27.8467 294.064 27.9368 293.925C28.0269 293.787 28.0638 293.62 28.0406 293.457C27.6118 290.978 27.6118 288.444 28.0406 285.965C28.0674 285.812 28.0353 285.655 27.9509 285.525C27.8664 285.395 27.7359 285.302 27.5856 285.264C26.2664 284.919 24.9963 284.407 23.8058 283.741C23.4208 283.461 23.4558 283.479 23.4908 283.181C24.6235 279.095 26.4399 275.23 28.8631 271.75C29.808 271.488 32.3629 273.361 33.2379 274.026C33.3293 274.115 33.4517 274.164 33.5791 274.164C33.7065 274.164 33.8289 274.115 33.9204 274.026C34.7244 273.192 35.5902 272.419 36.5103 271.715C39.1701 269.702 39.8876 269.965 39.6601 269.264C38.8557 267.508 38.4038 265.611 38.3302 263.68C38.6014 263.455 38.9091 263.277 39.2401 263.155C40.8739 262.509 42.5524 261.982 44.2624 261.58C46.3352 261.002 48.4656 260.655 50.6147 260.547C50.9822 260.704 51.3146 262.297 51.4021 262.787C52.0496 266.288 51.6121 267.006 52.1196 267.059C57.1069 267.549 58.1218 268.932 58.4718 268.319C59.4422 266.622 60.5732 265.021 61.8492 263.54C62.2167 263.173 62.1992 262.997 63.3016 263.628C66.5952 265.781 69.545 268.419 72.0513 271.453C72.3138 271.908 70.0388 274.323 68.3764 275.741C67.7989 276.249 68.6214 276.477 70.1263 279.347C71.6313 282.218 71.2813 283.024 72.0863 282.849C73.638 282.477 75.235 282.33 76.8286 282.411ZM319.701 136.136C316.032 134.637 312.186 133.619 308.256 133.108C305.386 132.652 302.009 132.197 299.157 131.83C301.904 127.944 310.041 118.106 311.406 115.707C311.791 115.06 311.056 114.149 310.514 113.607C307.469 110.351 301.589 109.125 297.074 108.425C294.484 108.005 283.67 106.675 281.832 107.55C279.628 108.6 263.318 133.108 262.828 136.836C262.828 137.466 263.038 137.712 263.651 137.939C266.223 138.884 277.825 140.355 280.415 140.968C276.915 147.094 261.358 167.803 259.836 170.727C259.468 171.462 259.696 171.9 260.133 172.04C261.708 172.665 263.329 173.168 264.981 173.545C265.611 173.738 266.993 172.88 269.005 171.654C278.035 166.228 316.778 140.635 319.753 137.326C319.835 137.249 319.9 137.154 319.942 137.05C319.985 136.945 320.004 136.832 319.999 136.719C319.994 136.606 319.965 136.496 319.913 136.395C319.862 136.295 319.789 136.206 319.701 136.136ZM282.095 157.143C267.221 166.963 262.198 169.834 262.023 169.956C264.421 166.298 279.312 145.887 281.867 141.003C281.912 140.908 281.935 140.805 281.934 140.701C281.934 140.597 281.91 140.494 281.865 140.4C281.82 140.306 281.754 140.223 281.673 140.158C281.591 140.092 281.496 140.046 281.395 140.022C279.645 139.392 266.906 138.027 263.896 136.959C264.281 133.703 280.17 109.09 282.095 108.11C284.02 107.13 302.692 109.353 306.191 111.856C304.354 115.445 294.204 128.014 292.559 130.937C292.227 131.532 292.122 132.11 292.769 132.267C293.417 132.425 309.866 134.35 313.454 135.523C309.079 139.182 286.995 153.851 282.095 157.072V157.143ZM169.837 50.1147C169.837 50.2722 169.942 50.4648 170.205 51.4801C170.274 51.7003 170.425 51.8853 170.627 51.9963C170.83 52.1073 171.067 52.1356 171.29 52.0753C171.512 52.0103 171.7 51.8594 171.812 51.6559C171.923 51.4523 171.95 51.2128 171.885 50.9899C171.71 50.3072 171.552 49.7295 171.447 49.4494C171.345 49.2572 171.175 49.1099 170.971 49.0361C170.766 48.9624 170.541 48.9676 170.34 49.0507C170.139 49.1337 169.976 49.2888 169.883 49.4855C169.79 49.6822 169.774 49.9065 169.837 50.1147Z" fill="#333232"/>
</svg>
