<svg width="66" height="66" viewBox="0 0 66 66" fill="none" xmlns="http://www.w3.org/2000/svg">
<path d="M33 0.501953C26.5721 0.501953 20.2886 2.40805 14.944 5.97919C9.59938 9.55034 5.43378 14.6261 2.97393 20.5647C0.514082 26.5033 -0.129527 33.038 1.12449 39.3424C2.37851 45.6468 5.47384 51.4377 10.019 55.9829C14.5642 60.5281 20.3552 63.6235 26.6596 64.8775C32.964 66.1315 39.4986 65.4879 45.4372 63.028C51.3758 60.5682 56.4516 56.4026 60.0228 51.058C63.5939 45.7134 65.5 39.4298 65.5 33.002C65.4909 24.3852 62.0639 16.124 55.9709 10.031C49.878 3.93807 41.6168 0.511053 33 0.501953ZM16.15 54.7207C17.9586 51.8922 20.45 49.5645 23.3948 47.9521C26.3395 46.3398 29.6427 45.4946 33 45.4946C36.3573 45.4946 39.6605 46.3398 42.6053 47.9521C45.55 49.5645 48.0415 51.8922 49.85 54.7207C45.0323 58.4675 39.1032 60.5017 33 60.5017C26.8968 60.5017 20.9677 58.4675 16.15 54.7207ZM23 30.502C23 28.5241 23.5865 26.5907 24.6853 24.9463C25.7841 23.3018 27.3459 22.02 29.1732 21.2632C31.0004 20.5063 33.0111 20.3082 34.9509 20.6941C36.8907 21.08 38.6726 22.0324 40.0711 23.4309C41.4696 24.8294 42.422 26.6112 42.8079 28.5511C43.1937 30.4909 42.9957 32.5015 42.2388 34.3288C41.4819 36.156 40.2002 37.7178 38.5557 38.8167C36.9112 39.9155 34.9778 40.502 33 40.502C30.3478 40.502 27.8043 39.4484 25.9289 37.573C24.0536 35.6977 23 33.1541 23 30.502ZM53.55 51.2551C50.7618 47.2147 46.8412 44.0889 42.2813 42.2707C44.7307 40.3415 46.518 37.6969 47.3948 34.7048C48.2715 31.7126 48.1941 28.5216 47.1732 25.5755C46.1523 22.6295 44.2387 20.0747 41.6986 18.2666C39.1584 16.4585 36.118 15.4869 33 15.4869C29.8821 15.4869 26.8416 16.4585 24.3015 18.2666C21.7613 20.0747 19.8477 22.6295 18.8268 25.5755C17.806 28.5216 17.7285 31.7126 18.6052 34.7048C19.482 37.6969 21.2693 40.3415 23.7188 42.2707C19.1588 44.0889 15.2382 47.2147 12.45 51.2551C8.92679 47.2931 6.62399 42.3971 5.8189 37.1566C5.01382 31.9162 5.74078 26.5547 7.91225 21.7179C10.0837 16.881 13.6071 12.775 18.0582 9.89425C22.5092 7.0135 27.6981 5.48085 33 5.48085C38.3019 5.48085 43.4908 7.0135 47.9419 9.89425C52.3929 12.775 55.9163 16.881 58.0878 21.7179C60.2592 26.5547 60.9862 31.9162 60.1811 37.1566C59.376 42.3971 57.0732 47.2931 53.55 51.2551Z" fill="#333232"/>
</svg>
