<svg width="32" height="32" viewBox="0 0 32 32" fill="none" xmlns="http://www.w3.org/2000/svg">
<path d="M30.6004 18.8009C30.4953 18.8797 30.3758 18.937 30.2486 18.9696C30.1213 19.0022 29.989 19.0094 29.859 18.9908C29.729 18.9723 29.6039 18.9283 29.4909 18.8613C29.3779 18.7944 29.2792 18.7059 29.2004 18.6009C28.5976 17.7907 27.8131 17.1334 26.9099 16.6818C26.0068 16.2302 25.0102 15.997 24.0004 16.0009C23.8037 16.0009 23.6115 15.9429 23.4476 15.8341C23.2837 15.7254 23.1556 15.5708 23.0791 15.3896C23.0272 15.2666 23.0005 15.1344 23.0005 15.0009C23.0005 14.8673 23.0272 14.7352 23.0791 14.6121C23.1556 14.4309 23.2837 14.2763 23.4476 14.1676C23.6115 14.0589 23.8037 14.0009 24.0004 14.0009C24.5615 14.0008 25.1113 13.8434 25.5874 13.5466C26.0635 13.2497 26.4469 12.8252 26.6938 12.3214C26.9408 11.8176 27.0416 11.2546 26.9846 10.6965C26.9277 10.1383 26.7154 9.60722 26.3717 9.16365C26.0281 8.72009 25.567 8.38178 25.0408 8.18714C24.5145 7.99251 23.9442 7.94937 23.3947 8.0626C22.8451 8.17584 22.3384 8.44092 21.9319 8.82774C21.5255 9.21455 21.2357 9.7076 21.0954 10.2509C21.0625 10.3781 21.005 10.4976 20.926 10.6026C20.847 10.7075 20.748 10.7959 20.6349 10.8627C20.5217 10.9294 20.3965 10.9732 20.2664 10.9916C20.1363 11.0099 20.0038 11.0025 19.8766 10.9696C19.7494 10.9368 19.6299 10.8792 19.5249 10.8002C19.42 10.7212 19.3316 10.6223 19.2648 10.5091C19.1981 10.3959 19.1543 10.2707 19.136 10.1406C19.1176 10.0105 19.125 9.87809 19.1579 9.75087C19.3526 8.99752 19.7204 8.3 20.2321 7.71381C20.7438 7.12763 21.3853 6.66896 22.1054 6.37431C22.8256 6.07966 23.6046 5.95715 24.3804 6.01654C25.1563 6.07592 25.9075 6.31556 26.5745 6.71639C27.2414 7.11721 27.8056 7.66816 28.2221 8.3254C28.6386 8.98263 28.896 9.72801 28.9738 10.5022C29.0516 11.2764 28.9476 12.0581 28.6701 12.7851C28.3926 13.512 27.9493 14.1642 27.3754 14.6896C28.7351 15.2784 29.9172 16.2126 30.8041 17.3996C30.8829 17.5049 30.9402 17.6248 30.9726 17.7523C31.005 17.8797 31.0119 18.0124 30.993 18.1425C30.9741 18.2727 30.9296 18.3978 30.8623 18.5108C30.7949 18.6238 30.7059 18.7223 30.6004 18.8009ZM23.8654 26.5009C23.9377 26.6147 23.9863 26.742 24.0082 26.875C24.0301 27.0081 24.0248 27.1443 23.9928 27.2753C23.9607 27.4063 23.9024 27.5294 23.8215 27.6373C23.7406 27.7452 23.6387 27.8356 23.5219 27.9031C23.4051 27.9706 23.2759 28.0138 23.142 28.0301C23.0082 28.0463 22.8724 28.0353 22.7428 27.9977C22.6133 27.9602 22.4927 27.8968 22.3883 27.8114C22.2839 27.726 22.1979 27.6204 22.1354 27.5009C21.5054 26.4342 20.6083 25.5502 19.5324 24.9361C18.4565 24.322 17.2392 23.999 16.0004 23.999C14.7616 23.999 13.5442 24.322 12.4683 24.9361C11.3925 25.5502 10.4953 26.4342 9.86538 27.5009C9.80286 27.6204 9.71682 27.726 9.61243 27.8114C9.50803 27.8968 9.38744 27.9602 9.25792 27.9977C9.12839 28.0353 8.9926 28.0463 8.85871 28.0301C8.72483 28.0138 8.59562 27.9706 8.47885 27.9031C8.36209 27.8356 8.26018 27.7452 8.17926 27.6373C8.09835 27.5294 8.0401 27.4063 8.00801 27.2753C7.97592 27.1443 7.97066 27.0081 7.99255 26.875C8.01444 26.742 8.06303 26.6147 8.13538 26.5009C9.10488 24.8351 10.5831 23.5242 12.3529 22.7609C11.357 21.9984 10.6252 20.9431 10.2601 19.7432C9.89509 18.5433 9.91525 17.2591 10.3178 16.0713C10.7203 14.8834 11.4849 13.8515 12.5042 13.1207C13.5235 12.3899 14.7462 11.9969 16.0004 11.9969C17.2546 11.9969 18.4773 12.3899 19.4965 13.1207C20.5158 13.8515 21.2805 14.8834 21.683 16.0713C22.0855 17.2591 22.1057 18.5433 21.7406 19.7432C21.3756 20.9431 20.6437 21.9984 19.6479 22.7609C21.4176 23.5242 22.8959 24.8351 23.8654 26.5009ZM16.0004 22.0009C16.7915 22.0009 17.5649 21.7663 18.2227 21.3268C18.8805 20.8872 19.3931 20.2625 19.6959 19.5316C19.9986 18.8007 20.0779 17.9964 19.9235 17.2205C19.7692 16.4446 19.3882 15.7319 18.8288 15.1724C18.2694 14.613 17.5567 14.2321 16.7807 14.0777C16.0048 13.9234 15.2006 14.0026 14.4696 14.3054C13.7387 14.6081 13.114 15.1208 12.6745 15.7786C12.235 16.4364 12.0004 17.2097 12.0004 18.0009C12.0004 19.0617 12.4218 20.0792 13.172 20.8293C13.9221 21.5794 14.9395 22.0009 16.0004 22.0009ZM9.00038 15.0009C9.00038 14.7357 8.89502 14.4813 8.70749 14.2938C8.51995 14.1062 8.2656 14.0009 8.00038 14.0009C7.43929 14.0008 6.88946 13.8434 6.41334 13.5466C5.93722 13.2497 5.5539 12.8252 5.30692 12.3214C5.05994 11.8176 4.95919 11.2546 5.01613 10.6965C5.07306 10.1383 5.2854 9.60722 5.62901 9.16365C5.97263 8.72009 6.43375 8.38178 6.96 8.18714C7.48626 7.99251 8.05654 7.94937 8.60609 8.0626C9.15563 8.17584 9.66241 8.44092 10.0688 8.82774C10.4753 9.21455 10.7651 9.7076 10.9054 10.2509C10.9717 10.5078 11.1373 10.7279 11.3659 10.8627C11.5945 10.9975 11.8672 11.0359 12.1241 10.9696C12.3811 10.9033 12.6011 10.7377 12.7359 10.5091C12.8707 10.2805 12.9092 10.0078 12.8429 9.75087C12.6482 8.99752 12.2803 8.3 11.7686 7.71381C11.2569 7.12763 10.6155 6.66896 9.89532 6.37431C9.17516 6.07966 8.39617 5.95715 7.62033 6.01654C6.84449 6.07592 6.09321 6.31556 5.42629 6.71639C4.75936 7.11721 4.19519 7.66816 3.77866 8.3254C3.36212 8.98263 3.10473 9.72801 3.02697 10.5022C2.9492 11.2764 3.05319 12.0581 3.33068 12.7851C3.60817 13.512 4.0515 14.1642 4.62538 14.6896C3.26698 15.2789 2.08627 16.2132 1.20038 17.3996C1.04108 17.6118 0.972598 17.8786 1.00999 18.1412C1.04738 18.4039 1.18758 18.641 1.39975 18.8003C1.61193 18.9595 1.87869 19.028 2.14136 18.9906C2.40403 18.9533 2.64108 18.813 2.80038 18.6009C3.40311 17.7907 4.18765 17.1334 5.09083 16.6818C5.99401 16.2302 6.9906 15.997 8.00038 16.0009C8.2656 16.0009 8.51995 15.8955 8.70749 15.708C8.89502 15.5204 9.00038 15.2661 9.00038 15.0009Z" fill="#333232"/>
</svg>
