<svg width="74.000000" height="70.000000" viewBox="0 0 74 70" fill="none" xmlns="http://www.w3.org/2000/svg" xmlns:xlink="http://www.w3.org/1999/xlink">
	<desc>
			Created with Pixso.
	</desc>
	<defs/>
	<path id="Star 1" d="M32.22 2.16L26.62 19.4C26.01 21.25 24.29 22.51 22.34 22.51L4.21 22.51C-0.15 22.51 -1.96 28.08 1.57 30.64L16.23 41.3C17.81 42.44 18.47 44.47 17.87 46.33L12.27 63.57C10.92 67.71 15.66 71.16 19.19 68.6L33.85 57.94C35.43 56.8 37.56 56.8 39.14 57.94L53.8 68.6C57.33 71.16 62.07 67.71 60.72 63.57L55.12 46.33C54.52 44.47 55.18 42.44 56.76 41.3L71.42 30.64C74.95 28.08 73.14 22.51 68.78 22.51L50.65 22.51C48.7 22.51 46.98 21.25 46.37 19.4L40.77 2.16C39.43 -1.98 33.56 -1.98 32.22 2.16Z" fill="#F5F07A" fill-opacity="1.000000" fill-rule="evenodd"/>
	<path id="Star 1" d="M26.62 19.4C26.01 21.25 24.29 22.51 22.34 22.51L4.21 22.51C-0.15 22.51 -1.96 28.08 1.57 30.64L16.23 41.3C17.81 42.44 18.47 44.47 17.87 46.33L12.27 63.57C10.92 67.71 15.66 71.16 19.19 68.6L33.85 57.94C35.43 56.8 37.56 56.8 39.14 57.94L53.8 68.6C57.33 71.16 62.07 67.71 60.72 63.57L55.12 46.33C54.52 44.47 55.18 42.44 56.76 41.3L71.42 30.64C74.95 28.08 73.14 22.51 68.78 22.51L50.65 22.51C48.7 22.51 46.98 21.25 46.37 19.4L40.77 2.16C39.43 -1.98 33.56 -1.98 32.22 2.16L26.62 19.4ZM28.22 19.92C27.39 22.47 25.02 24.19 22.34 24.19L4.21 24.19C1.49 24.19 0.35 27.68 2.56 29.28L17.22 39.94C19.39 41.51 20.3 44.3 19.47 46.85L13.87 64.09C13.02 66.68 15.99 68.83 18.2 67.23L32.86 56.58C35.03 55 37.96 55 40.13 56.58L54.79 67.23C57 68.83 59.97 66.68 59.12 64.09L53.52 46.85C52.69 44.3 53.6 41.51 55.77 39.94L70.43 29.28C72.64 27.68 71.5 24.19 68.78 24.19L50.65 24.19C47.97 24.19 45.6 22.47 44.77 19.92L39.17 2.68C38.33 0.09 34.66 0.09 33.82 2.68L28.22 19.92Z" fill="#333232" fill-opacity="1.000000" fill-rule="evenodd"/>
</svg>
