<svg width="74.000000" height="70.000000" viewBox="0 0 74 70" fill="none" xmlns="http://www.w3.org/2000/svg" xmlns:xlink="http://www.w3.org/1999/xlink">
	<desc>
			Created with Pixso.
	</desc>
	<defs/>
	<path id="Star 5" d="M32.15 2.16L26.54 19.4C25.94 21.25 24.22 22.51 22.27 22.51L4.14 22.51C-0.22 22.51 -2.03 28.08 1.5 30.64L16.16 41.3C17.74 42.44 18.4 44.47 17.79 46.33L12.19 63.57C10.85 67.71 15.59 71.16 19.11 68.6L33.78 57.94C35.36 56.8 37.49 56.8 39.07 57.94L53.73 68.6C57.26 71.16 62 67.71 60.65 63.57L55.05 46.33C54.45 44.47 55.11 42.44 56.69 41.3L71.35 30.64C74.88 28.08 73.06 22.51 68.71 22.51L50.58 22.51C48.63 22.51 46.9 21.25 46.3 19.4L40.7 2.16C39.35 -1.98 33.49 -1.98 32.15 2.16Z" fill="#F5F5F5" fill-opacity="1.000000" fill-rule="evenodd"/>
	<path id="Star 5" d="M26.54 19.4C25.94 21.25 24.22 22.51 22.27 22.51L4.14 22.51C-0.22 22.51 -2.03 28.08 1.5 30.64L16.16 41.3C17.74 42.44 18.4 44.47 17.79 46.33L12.19 63.57C10.85 67.71 15.59 71.16 19.11 68.6L33.78 57.94C35.36 56.8 37.49 56.8 39.07 57.94L53.73 68.6C57.26 71.16 62 67.71 60.65 63.57L55.05 46.33C54.45 44.47 55.11 42.44 56.69 41.3L71.35 30.64C74.88 28.08 73.06 22.51 68.71 22.51L50.58 22.51C48.63 22.51 46.9 21.25 46.3 19.4L40.7 2.16C39.35 -1.98 33.49 -1.98 32.15 2.16L26.54 19.4ZM28.15 19.92C27.32 22.47 24.94 24.19 22.27 24.19L4.14 24.19C1.41 24.19 0.28 27.68 2.49 29.28L17.15 39.94C19.32 41.51 20.22 44.3 19.4 46.85L13.79 64.09C12.95 66.68 15.92 68.83 18.12 67.23L32.79 56.58C34.96 55 37.89 55 40.06 56.58L54.72 67.23C56.93 68.83 59.89 66.68 59.05 64.09L53.45 46.85C52.62 44.3 53.53 41.51 55.7 39.94L70.36 29.28C72.57 27.68 71.43 24.19 68.71 24.19L50.58 24.19C47.9 24.19 45.53 22.47 44.7 19.92L39.1 2.68C38.26 0.09 34.59 0.09 33.75 2.68L28.15 19.92Z" fill="#333232" fill-opacity="1.000000" fill-rule="evenodd"/>
</svg>
