<svg width="385" height="385" viewBox="0 0 385 385" fill="none" xmlns="http://www.w3.org/2000/svg">
<path d="M136.233 288.942C139.442 287.806 142.73 286.905 146.07 286.247L146.474 287.729C146.52 287.904 146.626 288.057 146.775 288.159C146.923 288.262 147.104 288.307 147.283 288.288L160.508 286.748C164.146 278.451 170.826 265.881 170.922 265.688C170.826 262.55 170.922 259.913 170.922 256.91C163.357 259.721 149.362 265.053 142.047 268.46C141.882 268.567 141.754 268.722 141.681 268.905C141.609 269.088 141.595 269.289 141.643 269.48C141.643 269.48 141.777 269.962 141.951 270.655C138.37 270.655 127.648 270.135 125.068 272.58C124.667 273.138 124.47 273.818 124.51 274.505C124.356 277.161 125.684 297.797 127.802 303.861C128.899 307.037 131.209 306.691 132.788 303.649C134.615 299.069 135.788 294.254 136.272 289.346C136.272 289.096 136.214 289.115 136.233 288.942ZM134.02 271.713C136.368 271.521 137.1 271.559 142.143 271.405C143.048 274.832 144.915 281.877 145.878 285.477C142.481 286.003 139.129 286.782 135.848 287.806C134.826 282.497 134.215 277.117 134.02 271.713Z" fill="#333232"/>
<path d="M313.41 103.236C313.891 102.563 313.275 101.696 312.756 101.023C314.228 99.5084 315.861 98.1593 317.626 96.9995C320.604 95.5152 323.327 93.5657 325.692 91.2245C326.674 90.2042 328.521 88.106 327.829 86.874C327.135 85.642 325.903 85.565 324.229 86.2772C324.954 85.5154 325.547 84.6369 325.98 83.6785C326.519 82.177 325.249 80.9642 322.496 82.0807C323.497 80.483 323.728 78.8082 322.034 77.9997C320.667 77.3452 318.665 78.9045 317.51 79.9247C315.242 81.9064 313.114 84.0417 311.139 86.3157C309.926 83.7747 308.001 80.8487 305.595 81.7727C303.188 82.6967 305.056 86.8355 306.288 89.0877L301.918 92.11C301.258 91.7535 300.511 91.5869 299.762 91.6287C294.796 92.4757 271.984 109.839 269.674 109.839C267.903 109.839 242.609 97.7117 220.741 94.2082C220.699 94.0771 220.62 93.9605 220.515 93.8719C220.409 93.7834 220.281 93.7265 220.144 93.7077C216.33 93.0569 212.463 92.7668 208.594 92.8415C208.477 92.8494 208.363 92.8827 208.26 92.9392C208.156 92.9958 208.067 93.0741 207.997 93.1687H206.38C205.995 91.6095 204.571 88.0097 204.07 86.6237C205.379 85.488 207.189 84.9105 208.132 83.0817C209.865 79.6937 209.788 73.8032 209.306 70.0302C211.482 68.3747 211.539 65.7182 211.039 63.004C210.846 61.9067 210.249 59.4235 209.326 58.8075C208.806 58.461 207.709 58.8075 206.765 59.154C205.822 56.9595 205.822 57.9605 206.207 57.075C206.386 56.6669 206.49 56.2301 206.515 55.7852C207.535 56.0932 209.653 54.0527 208.921 51.3577C208.538 50.393 208.068 49.4651 207.516 48.5857C207.786 47.9312 208.363 47.142 206.554 44.7357C205.774 43.8951 204.762 43.3054 203.647 43.0417H202.761C202.123 42.1144 201.185 41.4347 200.105 41.1167C198.474 40.701 196.746 40.943 195.292 41.7905C194.907 42.0792 194.599 42.4642 194.214 42.7337C193.344 42.2052 192.345 41.9257 191.327 41.9257C190.308 41.9257 189.31 42.2052 188.439 42.7337C187.93 42.9337 187.466 43.2345 187.075 43.6183C186.685 44.002 186.376 44.4607 186.168 44.9667C185.225 44.6413 184.224 44.516 183.23 44.5989C182.235 44.6817 181.269 44.9709 180.393 45.448C177.067 47.2512 174.58 50.2845 173.463 53.8987C173.432 54.4437 173.432 54.99 173.463 55.535H173.251C170.364 55.1115 166.687 61.9645 169.632 67.2967C169.979 67.932 170.421 68.5287 170.845 69.2217C172.077 71.1467 171.596 71.7242 174.348 74.0727C175.157 74.7657 175.292 74.708 175.792 75.1315C176.293 75.555 176.1 75.3432 176.389 76.4212C176.546 77.0563 176.828 77.6538 177.218 78.1791C177.608 78.7045 178.098 79.1473 178.66 79.482C178.865 81.3649 179.668 83.1325 180.951 84.5255C181.357 84.9802 181.831 85.3698 182.356 85.6805C182.498 85.7603 182.656 85.8064 182.818 85.8152C183.396 89.3957 184.108 94.0542 184.416 96.037L182.703 96.961C180.461 97.8629 178.281 98.9111 176.177 100.099C176.012 100.213 175.895 100.384 175.85 100.58C173.809 101.658 171.884 102.678 170.787 103.333C155.503 112.399 112.094 172.171 111.651 174.904C111.602 175.061 111.602 175.229 111.651 175.385C112.273 176.378 113.031 177.279 113.903 178.061C113.635 178.551 113.312 179.01 112.941 179.428C109.091 181.95 103.316 185.703 100.217 189.053C99.9991 189.247 99.8361 189.494 99.7434 189.77C99.6507 190.046 99.6316 190.341 99.6879 190.627C99.7443 190.913 99.8742 191.179 100.065 191.399C100.255 191.619 100.5 191.786 100.775 191.883C101.352 192.075 101.449 192.017 105.202 189.958C104.171 190.863 103.327 191.961 102.719 193.192C102.469 194.25 103.431 194.866 104.644 194.674C105.326 194.495 105.976 194.209 106.569 193.827C106.222 194.363 106.037 194.988 106.037 195.627C106.037 196.266 106.222 196.891 106.569 197.427C108.494 199.852 113.538 192.21 116.194 190.323C117.272 191.69 118.735 194.886 121.064 194.039C123.085 193.288 120.872 188.841 121.064 187.551C121.848 186.799 122.684 186.105 123.567 185.472C125.052 186.574 126.75 187.354 128.552 187.763C131.729 187.763 164.877 154.307 167.399 151.631C166.494 160.139 161.932 196.657 162.895 203.76C163.337 206.975 171.057 207.437 174.31 207.61C173.328 230.71 172.674 265.706 172.5 266.072C167.399 277.064 166.013 280.067 164.3 283.397C161.181 289.365 148.053 311.387 146.57 316.392C146.359 317.181 146.339 317.489 147.167 318.952C144.687 321.56 142.384 324.332 140.276 327.249C139.217 329.174 143.76 347.115 146.975 353.467C147.706 354.892 148.9 357.086 150.498 357.028C155.31 356.855 155.291 339.569 155.156 334.737C155.155 334.588 155.101 334.444 155.002 334.333C155.874 333.031 156.826 331.784 157.851 330.598C158.463 331.019 159.107 331.393 159.776 331.715C160.431 332.003 161.162 331.503 161.701 331.06C168.111 326.017 202.684 282.935 210.095 262.607C213.464 253.329 217.949 240.508 219.22 231.422C219.997 225.677 220.068 219.859 219.432 214.097C219.432 214.016 219.464 213.937 219.522 213.879C219.58 213.822 219.658 213.789 219.74 213.789C219.821 213.789 219.9 213.822 219.958 213.879C220.015 213.937 220.048 214.016 220.048 214.097C221.012 219.892 221.2 225.79 220.606 231.634C219.181 244.243 209.229 270.519 203.916 280.182C208.498 279.335 217.815 277.487 222.319 276.14C237.334 271.578 251.194 257.968 252.407 242.683C252.799 235.483 252.799 228.266 252.407 221.066C252.277 211.125 250.985 201.234 248.557 191.594C252.638 189.38 256.372 186.781 257.585 184.394C260.184 179.293 253.312 149.937 251.81 141.698C260.03 142.603 274.025 144.239 280.551 139.138C288.02 133.132 304.151 116.23 313.41 103.236ZM154.116 333.678C150.651 331.58 145.8 326.594 145.069 322.686C145.858 321.685 146.686 320.761 147.456 319.722C150.065 323.703 153.318 327.222 157.081 330.136C156.024 331.257 155.034 332.44 154.116 333.678ZM307.154 89.6267C307.254 89.5632 307.325 89.4639 307.354 89.3494C307.382 89.2348 307.366 89.1136 307.308 89.0107C306.634 87.7595 304.613 83.3512 306.018 82.8507C306.827 82.5427 307.539 83.0432 308.136 83.717C309.047 84.873 309.756 86.1747 310.234 87.567C310.27 87.6802 310.335 87.7816 310.424 87.8603C310.513 87.939 310.622 87.992 310.738 88.0138C310.855 88.0355 310.975 88.0252 311.087 87.9837C311.198 87.9423 311.296 87.8715 311.37 87.7787C313.295 85.642 317.799 80.7717 320.34 79.4627C322.265 78.4617 322.727 80.3097 318.011 84.6217C316.928 85.4477 315.887 86.3279 314.893 87.259C314.838 87.3345 314.808 87.4255 314.808 87.5188C314.808 87.6122 314.838 87.7031 314.893 87.7787C314.893 88.2792 315.297 88.8375 315.99 88.3177C317.663 86.8489 319.432 85.492 321.283 84.256C322.229 83.5844 323.328 83.1608 324.479 83.024C323.901 84.795 318.531 89.6075 318.069 90.1465C317.922 90.2778 317.833 90.4614 317.821 90.6578C317.808 90.8541 317.873 91.0476 318.002 91.1964C318.131 91.3453 318.313 91.4376 318.509 91.4537C318.705 91.4697 318.899 91.4082 319.051 91.2822C321.187 89.8962 324.922 86.6622 326.212 87.1435C327.501 87.6247 323.671 91.2052 322.708 92.0522C317.183 96.8455 318.608 93.7655 312.217 100.272C309.435 97.2245 306.24 94.5809 302.726 92.418L307.154 89.6267ZM223.513 181.699C223.186 179.043 222.781 176.175 222.281 173.191L223.109 172.094C226.959 167.146 228.113 159.273 227.748 153.094C229.807 162.122 231.444 170.996 232.695 179.813L223.513 181.699ZM194.888 115.787C189.825 111.937 181.682 105.296 176.947 100.753L184.647 96.9032C191.718 103.508 197.77 111.124 202.607 119.503C210.003 133.09 215.49 147.632 218.912 162.719L191.462 123.892L195.042 116.461C195.089 116.347 195.1 116.221 195.072 116.1C195.045 115.979 194.98 115.87 194.888 115.787ZM207.901 93.958C208.017 94.1697 209.345 96.9995 211.366 101.947C211.366 102.158 211 106.971 210.827 108.665C208.37 107.691 206.053 106.397 203.936 104.815C204.359 103.14 206.265 95.5365 206.4 93.8232L207.901 93.958ZM201.067 114.632C201.202 114.286 201.337 113.824 201.491 113.285L202.78 113.959C203.512 114.44 203.223 112.977 203.878 117.212C203.878 117.924 204.07 118.713 204.109 119.58C203.223 117.982 202.126 116.269 201.087 114.632H201.067ZM199.989 113.015C196.352 107.857 192.213 103.073 187.631 98.732L202.126 105.027C201.568 106.355 200.759 110.417 200.009 113.015H199.989ZM214.793 124.296C212.868 119.041 211.385 113.169 210.654 111.629C210.697 111.149 210.697 110.666 210.654 110.186C210.932 110.289 211.224 110.354 211.52 110.378C211.706 110.38 211.886 110.315 212.027 110.195C212.169 110.075 212.262 109.907 212.29 109.724C212.444 109.088 212.694 105.874 212.733 105.161C218.333 119.3 223.007 133.787 226.728 148.532C215.851 125.393 217.526 132.092 214.812 124.296H214.793ZM230.712 161.044C226.323 140.004 218.604 113.766 209.826 94.3237C213.05 94.3255 216.268 94.583 219.451 95.0937C221.087 109.724 219.72 109.223 220.818 109.801C221.915 110.378 228.518 113.035 229.499 113.439C229.403 114.921 230.789 157.31 230.732 161.044H230.712ZM208.555 60.0395C209.559 62.2294 209.913 64.6613 209.576 67.0465C209.419 67.6535 209.097 68.2052 208.645 68.6401C208.194 69.0749 207.63 69.376 207.018 69.5097C206.405 69.6433 205.768 69.6044 205.176 69.3973C204.584 69.1901 204.061 68.8228 203.666 68.3362C202.747 66.4013 202.056 64.3665 201.606 62.2725C202.126 61.5987 207.67 60.2512 208.555 60.0395ZM182.068 79.2895C181.364 78.9693 180.645 78.6866 179.911 78.4425C179.419 78.2402 178.98 77.928 178.628 77.5297C178.275 77.1315 178.018 76.6577 177.877 76.1448C177.736 75.6319 177.714 75.0935 177.813 74.5708C177.912 74.0481 178.129 73.5551 178.448 73.1295C179.661 72.1092 180.758 72.167 181.759 73.6877C182.395 74.862 182.376 74.9582 182.664 75.0737C182.747 75.1102 182.837 75.1286 182.927 75.1276C183.018 75.1267 183.107 75.1063 183.189 75.0681C183.271 75.0298 183.344 74.9744 183.403 74.9057C183.462 74.8369 183.505 74.7564 183.53 74.6695C183.816 73.4646 183.862 72.2153 183.665 70.9927C183.434 69.6645 183.396 63.774 183.434 63.5815C183.997 63.8779 184.628 64.0175 185.263 63.9857C188.747 63.851 189.44 62.0607 190.826 60.5977C192.424 60.7517 192.751 61.5217 194.561 60.5977C195.408 60.1157 196.185 59.5199 196.871 58.8267C197.424 59.0532 197.958 59.3236 198.468 59.6352C199.622 60.19 200.923 60.3604 202.181 60.1213C203.439 59.8823 204.587 59.2464 205.456 58.307C205.668 58.7112 205.86 59.1155 206.034 59.539C204.265 60.0879 202.599 60.9271 201.106 62.0222C200.779 62.4265 201.26 64.621 201.375 65.1407C199.763 65.3436 198.202 65.8463 196.775 66.623C196.486 65.622 195.851 63.7547 194.85 63.235C194.548 63.1428 194.227 63.1428 193.925 63.235C192.193 63.5045 185.975 65.3717 185.225 66.392C184.57 67.1042 186.437 72.6097 187.015 73.5145C189.229 76.941 195.716 75.94 196.929 71.936C197.229 70.5922 197.229 69.1987 196.929 67.855C197.487 67.855 199.161 67.2582 199.354 67.2005C200.682 70.1842 201.067 70.3575 202.607 73.5722C202.396 73.7455 202.049 74.0342 201.76 74.2267C200.393 75.1315 200.105 74.9775 200.182 75.3625C200.204 75.4389 200.254 75.5045 200.321 75.547C200.388 75.5896 200.469 75.6061 200.548 75.5935C201.355 75.478 202.145 75.258 202.896 74.939C203.346 74.7713 203.716 74.4418 203.936 74.015C204.475 72.8022 201.491 68.24 200.316 66.8732C200.547 66.8732 201.086 66.4882 201.491 66.2765C202.03 68.4325 202.396 70.1265 204.475 70.9735C205.075 71.2003 205.716 71.3036 206.357 71.2771C206.999 71.2507 207.629 71.095 208.209 70.8195C208.517 74.2075 208.459 79.713 206.842 82.716C206.014 84.2752 203.974 84.872 202.665 86.1617C202.28 86.5275 202.53 87.0472 202.665 87.6055C204.802 93.5537 204.84 93.5345 204.725 94.3045C204.158 97.5004 203.367 100.652 202.357 103.737C201.876 103.525 196.466 100.657 185.879 96.5375C185.552 94.3622 183.8 82.7545 183.242 80.6177C183.28 79.867 183.184 79.6937 182.068 79.1932V79.2895ZM195.543 71.4355C194.927 73.5337 192.02 74.4385 189.941 73.861C187.862 73.2835 187.727 72.2247 186.745 69.7222C186.285 68.7662 185.967 67.748 185.802 66.7C186.437 66.007 193.387 64.5825 194.253 64.4477C195.468 66.5262 195.924 68.962 195.543 71.3392V71.4355ZM120.217 187.012C119.486 187.725 120.467 190.054 120.622 192.075C120.622 192.248 120.621 192.999 120.506 193.057C119.447 193.403 118.465 191.806 117.869 190.843C117.272 189.881 116.675 188.572 115.732 188.918C113.807 189.823 109.341 195.752 107.589 196.368C106.704 194.674 111.767 189.842 111.94 189.573C112.014 189.449 112.053 189.307 112.052 189.163C112.052 189.019 112.011 188.877 111.936 188.754C111.861 188.631 111.753 188.531 111.624 188.465C111.496 188.399 111.352 188.369 111.208 188.379C110.862 188.379 110.631 188.687 110.092 189.168C108.452 190.769 106.576 192.106 104.528 193.134C106.385 191.004 108.371 188.992 110.477 187.109C110.581 187.002 110.654 186.869 110.689 186.724C110.689 186.724 110.284 185.703 109.495 186.108C108.379 186.724 102.95 189.861 101.237 190.67C101.006 190.516 101.141 190.285 101.237 190.054C103.951 186.724 109.919 182.681 113.576 180.121C114.005 179.679 114.363 179.172 114.635 178.619C117.168 180.976 119.87 183.145 122.72 185.107C121.842 185.682 121.006 186.319 120.217 187.012ZM165.012 204.511C164.589 204.241 164.28 203.991 164.223 203.644C163.164 195.79 169.054 151.284 168.958 149.533C168.958 149.43 168.938 149.328 168.898 149.234C168.858 149.139 168.8 149.053 168.726 148.981C168.652 148.91 168.565 148.853 168.47 148.816C168.374 148.778 168.272 148.76 168.169 148.763C167.187 148.763 168.92 148.763 144.395 172.248C142.778 173.768 130.42 185.588 128.36 186.377C125.53 186.165 114.885 177.676 113.152 175C116.502 168.224 157.119 112.476 171.172 103.949C172.25 103.294 174.098 102.274 176.119 101.196C176.818 101.855 177.572 102.454 178.372 102.986C182.838 107.221 189.055 112.496 193.772 116.461L190.095 123.757C190.039 123.854 190.01 123.963 190.01 124.075C190.01 124.186 190.039 124.296 190.095 124.392C219.951 167.223 219.509 166.742 219.701 166.742C221.615 176.64 222.805 186.663 223.263 196.734C223.263 199.448 223.263 199.217 223.378 199.024C223.493 198.832 223.378 199.159 223.378 199.159C218.72 204.241 172.616 208.977 165.012 204.511ZM271.426 140.735C262.706 141.948 252.85 140.139 250.944 140.062C249.885 134.93 247.774 130.073 244.745 125.797C244.699 125.735 244.631 125.693 244.555 125.678C244.479 125.664 244.4 125.679 244.334 125.72C244.268 125.762 244.221 125.826 244.201 125.901C244.181 125.976 244.19 126.056 244.226 126.125C245.342 128.396 249.077 138.194 250.001 140.581C249.712 141.505 258.702 178.677 256.161 183.682C253.889 188.206 240.665 193.904 235.891 195.54C234.947 184.824 233.404 174.168 231.27 163.624C231.925 158.08 231.078 125.124 230.828 112.938C230.82 112.797 230.773 112.66 230.691 112.544C230.61 112.429 230.497 112.338 230.366 112.284L221.723 108.646C221.683 104.071 221.394 99.502 220.856 94.959C242.436 98.6935 267.576 111.033 269.674 111.052C272.716 111.052 295.315 93.727 299.993 93.034C302.072 92.7067 311.004 100.503 312.044 102.659C302.919 115.402 286.884 132.15 279.453 137.944C277.06 139.545 274.296 140.506 271.426 140.735Z" fill="#333232"/>
<path d="M193.558 67.5857C193.534 67.4593 193.485 67.3389 193.415 67.2313C193.344 67.1237 193.253 67.0311 193.147 66.9587C193.04 66.8863 192.921 66.8355 192.795 66.8094C192.669 66.7832 192.539 66.7821 192.413 66.8061C192.286 66.8301 192.166 66.8788 192.058 66.9493C191.951 67.0199 191.858 67.1109 191.786 67.2173C191.713 67.3237 191.662 67.4432 191.636 67.5692C191.61 67.6952 191.609 67.825 191.633 67.9514C192.018 69.8764 192.095 70.3192 192.942 70.3192C193.102 70.3198 193.26 70.2804 193.401 70.2046C193.542 70.1288 193.662 70.0191 193.75 69.8853C193.838 69.7515 193.891 69.5979 193.904 69.4383C193.918 69.2788 193.892 69.1184 193.828 68.9717C193.77 68.6637 193.597 67.7589 193.558 67.5857ZM199.449 80.3292C200.7 80.6949 201.893 80.0982 201.855 79.7902C201.816 79.4822 201.855 79.6362 200.161 79.001C199.025 78.5775 197.774 77.076 197.331 77.307C196.888 77.5379 197.562 78.77 197.716 79.001C198.128 79.6258 198.738 80.0937 199.449 80.3292ZM234.657 62.0417C232.135 72.6099 230.287 81.5805 229.979 83.3707C229.775 84.1496 229.735 84.9627 229.864 85.7577C230.884 87.9329 244.07 92.2257 245.745 91.3787C247.42 90.5317 251.77 80.7334 256.833 70.6272C259.934 70.7263 263.038 70.5005 266.092 69.9534C269.308 69.3634 272.438 68.374 275.409 67.0082C281.916 64.0052 289.038 51.1462 290.001 44.6782C290.722 37.6559 289.235 30.5833 285.746 24.4464C269.596 -3.5623 222.221 11.5104 226.071 42.6184C227.171 49.7365 230.133 56.4374 234.657 62.0417ZM246.399 84.9685C246.399 85.2765 246.053 85.2379 244.474 84.9685C241.246 84.5627 238.12 83.5642 235.254 82.0232C233.906 81.2917 233.54 81.1377 233.675 80.8104C233.81 80.4832 234.099 80.5987 236.178 81.1762C236.37 81.1762 242.338 83.1012 244.051 83.698C246.265 84.699 246.399 84.699 246.399 84.9685ZM246.053 53.6487C248.108 53.7553 250.157 53.331 252.001 52.4167C253.715 53.2471 255.569 53.7498 257.468 53.8989C254.234 59.9242 247.67 72.2057 245.552 78.7507L237.39 76.4985C239.315 71.763 243.57 60.6749 246.014 53.6487H246.053ZM245.379 52.0509C243.942 51.8338 242.616 51.1514 241.604 50.1082C240.592 49.0651 239.951 47.7189 239.777 46.2759C239.238 42.4259 241.702 38.1139 245.418 39.1342C247.747 39.7694 248.036 41.6174 247.631 43.9467C247.285 45.6407 246.034 49.8949 245.341 51.9739L245.379 52.0509ZM250.615 47.4309C250.821 46.1713 251.293 44.9702 252.001 43.9082C252.338 43.3293 252.83 42.8564 253.422 42.5433C254.014 42.2303 254.682 42.0896 255.351 42.1372C256.775 42.5607 257.391 45.2557 256.217 46.9497C255.088 48.4473 253.683 49.715 252.078 50.6842C251.526 50.36 251.086 49.8745 250.817 49.293C250.549 48.7114 250.465 48.0616 250.577 47.4309H250.615ZM232.924 22.9642C241.548 12.5884 257.776 8.46895 269.499 12.7424C275.868 14.9286 281.225 19.3549 284.572 25.1972C287.891 31.0368 289.311 37.7645 288.634 44.4472C287.748 50.4339 280.934 62.8694 274.947 65.6222C269.473 68.119 263.501 69.3305 257.487 69.1642C256.833 69.1642 256.14 69.1642 255.89 69.6262C254.754 71.9362 252.675 76.4022 250.634 80.5987C249.225 79.9183 247.764 79.3519 246.265 78.9047C248.498 72.5137 255.543 59.9627 258.893 53.8797C261.795 54.1283 264.712 53.6245 267.363 52.4167C268.079 52.0397 268.672 51.4663 269.074 50.7638C269.476 50.0612 269.669 49.2587 269.63 48.4503C269.592 47.6419 269.324 46.8613 268.857 46.1999C268.391 45.5386 267.745 45.0241 266.997 44.7167C264.013 43.2537 261.337 46.7572 259.778 49.7024C259.355 50.4724 258.873 51.3772 258.334 52.3974C256.777 52.2951 255.242 51.9777 253.772 51.4542C255.236 50.4254 256.534 49.179 257.622 47.7582C258.232 46.8378 258.54 45.7509 258.506 44.6476C258.471 43.5442 258.095 42.4787 257.43 41.5982C256.907 40.9909 256.18 40.5952 255.386 40.4853C254.592 40.3754 253.786 40.559 253.118 41.0014C251.769 41.8298 250.689 43.0297 250.006 44.457C249.323 45.8843 249.067 47.4785 249.268 49.0479C249.477 49.9339 249.954 50.7338 250.634 51.3387C249.372 51.8617 248.016 52.1236 246.65 52.1087C247.42 49.8372 248.671 45.7369 248.998 44.0622C249.203 43.1074 249.249 42.1252 249.133 41.1554C248.984 40.323 248.598 39.5513 248.02 38.9332C247.443 38.315 246.7 37.8768 245.88 37.6712C241.202 36.3429 237.756 41.5212 238.43 46.3529C238.62 48.0845 239.363 49.7086 240.549 50.9846C241.735 52.2606 243.3 53.1205 245.013 53.4369C242.549 60.3669 238.699 71.5512 236.774 76.3252L232.539 75.228C235.254 61.599 235.581 61.9262 235.196 61.7529C230.822 56.1763 228.023 49.5288 227.092 42.5029C226.638 39.0192 226.923 35.4789 227.928 32.1126C228.933 28.7462 230.635 25.6291 232.924 22.9642ZM259.643 52.5129C260.991 50.0682 263.686 44.7167 266.304 46.0257C266.827 46.2367 267.283 46.5866 267.623 47.0378C267.962 47.4891 268.171 48.0243 268.229 48.5859C268.19 51.9739 262.916 52.5707 259.566 52.5129H259.643ZM333.332 61.0022C335.652 59.6379 338.392 59.1722 341.032 59.6932C343.933 59.7451 346.703 60.9047 348.776 62.9343C350.848 64.9638 352.065 67.7094 352.178 70.6079C350.434 69.596 348.395 69.2153 346.403 69.5299C341.571 69.9534 335.257 72.5714 336.104 77.2299C336.797 81.0799 341.879 80.5602 345.729 79.5207C349.579 78.4812 352.64 76.5947 353.429 72.8795C358.107 76.2867 359.204 82.2542 359.397 88.0869C359.397 88.1686 359.429 88.247 359.487 88.3047C359.545 88.3625 359.623 88.3949 359.705 88.3949C359.786 88.3949 359.865 88.3625 359.923 88.3047C359.98 88.247 360.013 88.1686 360.013 88.0869C360.148 81.5612 358.973 75.1702 353.641 71.4549C353.696 69.7836 353.411 68.1185 352.804 66.5605C352.196 65.0025 351.279 63.584 350.107 62.3908C348.936 61.1976 347.534 60.2546 345.988 59.6188C344.441 58.9831 342.781 58.6679 341.109 58.6922C338.437 58.302 335.712 58.8605 333.409 60.2707C332.697 60.6172 333.024 61.1369 333.332 61.0022ZM350.888 74.8045C348.713 77.6535 342.553 79.1357 339.704 78.6544C338.645 78.4812 337.779 78.0385 337.548 76.9412C336.855 73.0912 343.496 70.993 347.462 70.8582C349.077 70.7344 350.687 71.1472 352.043 72.0324C351.898 73.0389 351.5 73.9923 350.888 74.8045ZM324.516 38.4989C326.576 35.9579 325.19 31.5304 319.434 31.5112C317.201 31.5112 316.123 33.7827 316.277 35.9579C316.623 41.1362 322.456 40.9822 324.516 38.4989ZM317.624 35.8617C317.624 34.5912 318.221 32.9357 319.549 32.9549C322.649 32.9549 324.073 34.3987 324.073 35.9964C323.996 39.6347 317.374 41.5212 317.624 35.8617ZM316.835 254.099C299.914 247.342 292.06 280.048 278.239 308.153C278.151 309.334 278.19 310.522 278.354 311.695C278.354 314.64 278.682 334.14 280.395 336.354C280.857 337.24 282.801 336.354 283.706 335.796C291.39 331.039 298.631 325.601 305.343 319.549C305.4 319.484 305.443 319.407 305.47 319.324C305.496 319.242 305.505 319.154 305.497 319.068C309.077 313.966 322.495 287.401 325.748 274.08C328.019 264.648 325.767 257.622 316.835 254.099ZM322.88 278.546C313.821 277.386 305.063 274.525 297.065 270.115C301.57 261.587 307.133 251.866 316.315 255.523C326.537 259.585 326.325 267.997 322.88 278.489V278.546ZM290.848 328.596C290.256 328.101 289.611 327.675 288.923 327.326C286.321 326.003 283.316 325.715 280.51 326.517C280.318 324.227 279.221 309.327 279.221 309.192C293.639 314.467 289.192 312.176 303.475 319.279C301.974 320.704 296.334 324.65 290.848 328.558V328.596ZM300.781 272.887C302.658 273.913 304.585 274.844 306.556 275.678C302.143 282.609 298.244 289.853 294.89 297.354C291.656 304.11 291.772 304.072 288.48 311.445C286.555 310.829 284.63 310.251 282.705 309.674C284.784 305.535 299.568 275.274 300.781 272.848V272.887ZM289.231 311.637C295.487 300.414 301.859 286.458 307.326 275.928C309.251 276.737 311.176 277.391 313.1 277.969C312.08 279.894 309.097 285.014 308.307 286.497C307.518 287.979 299.606 303.571 299.048 304.765C298.163 306.69 295.737 312.061 294.986 313.774C293.023 312.908 291.136 312.253 289.154 311.599L289.231 311.637ZM295.679 314.024C296.854 311.887 301.685 302.917 302.282 301.762C303.187 299.972 313.274 279.355 313.832 278.161C315.603 278.662 317.47 279.085 318.664 279.316C315.141 288.941 304.996 307.479 301.339 316.623C298.009 315.064 297.258 314.679 295.602 313.986L295.679 314.024ZM296.854 270.673L300.299 272.598C293.355 284.424 287.307 296.752 282.204 309.481L279.317 308.596C290.501 284.764 291.021 281.646 296.777 270.635L296.854 270.673ZM304.785 318.298L301.878 316.912C305.016 310.752 314.833 294.947 319.318 279.451C320.396 279.644 321.455 279.817 322.475 279.952C317.528 293.151 311.589 305.957 304.708 318.259L304.785 318.298ZM244.474 330.791C245.242 330.156 245.79 329.296 246.042 328.332C246.294 327.368 246.237 326.35 245.88 325.42C245.716 324.079 245.101 322.833 244.135 321.888C243.17 320.943 241.911 320.355 240.567 320.22C239.222 320.086 237.872 320.413 236.738 321.148C235.605 321.884 234.755 322.983 234.33 324.265C231.866 322.667 229.19 320.973 226.63 319.356C228.555 316.796 234.214 317.932 234.792 320.03C234.804 320.112 234.849 320.185 234.916 320.234C234.983 320.283 235.066 320.303 235.148 320.29C235.229 320.277 235.303 320.233 235.351 320.166C235.4 320.099 235.42 320.016 235.408 319.934C235.119 316.584 228.15 314.621 225.34 318.567C222.857 317.046 219.777 315.198 217.197 313.793C219.411 311.868 224.358 312.946 224.897 314.948C224.922 315.017 224.971 315.074 225.035 315.11C225.098 315.146 225.173 315.158 225.244 315.144C225.316 315.13 225.381 315.091 225.426 315.034C225.472 314.977 225.496 314.906 225.494 314.833C225.244 311.714 218.795 309.616 215.869 313.042C214.643 312.355 213.354 311.788 212.019 311.348C211.775 311.247 211.507 311.219 211.247 311.267C210.988 311.315 210.748 311.437 210.556 311.618C205.686 317.682 189.265 333.428 181.681 335.257C181.49 335.286 181.31 335.364 181.16 335.484C181.009 335.605 180.893 335.763 180.822 335.942C180.752 336.122 180.73 336.317 180.759 336.507C180.788 336.698 180.867 336.877 180.988 337.028C182.653 338.718 184.561 340.152 186.647 341.282C184.722 343.207 183.221 344.94 182.104 346.191C181.527 346.807 181.219 358.588 181.719 361.187C181.794 361.441 181.958 361.66 182.181 361.803C184.607 363.458 215.85 376.972 219.045 375.162C221.182 373.949 246.688 347.404 247.092 346.595C247.708 345.325 247.497 336.855 247.458 333.467C247.304 332.446 245.398 331.349 244.474 330.791ZM182.874 356.22V351.927C190.863 355.777 209.151 363.631 216.081 365.826C217.852 366.403 218.006 366.326 218.93 365.826C224.223 362.438 242.915 341.378 246.342 338.164V342.225C235.947 352.64 218.294 370.889 217.967 369.849C216.061 369.734 184.53 356.99 182.874 356.22ZM243.993 324.304C244.685 325.47 245.057 326.798 245.071 328.154C245.064 328.585 244.958 329.009 244.761 329.393C244.565 329.777 244.282 330.11 243.935 330.367C242.318 329.289 239.258 327.287 235.639 324.939C237.621 321.031 242.03 320.973 243.916 324.304H243.993ZM182.393 336.624C190.594 334.198 206.167 319.183 211.403 312.677C212.663 313.027 213.878 313.525 215.022 314.159C213.097 317.739 215.157 321.666 215.888 321.108C216.292 320.8 215.561 320.685 215.445 318.798C215.396 317.42 215.708 316.053 216.35 314.833C219.007 316.219 222.125 318.028 224.762 319.549C223.145 323.149 225.09 326.71 225.763 326.19C226.437 325.67 225.455 325.786 225.34 323.899C225.293 322.662 225.53 321.431 226.033 320.3C228.747 321.897 231.519 323.553 234.06 325.112C233.668 326.071 233.513 327.111 233.607 328.142C233.701 329.174 234.041 330.168 234.599 331.041C234.624 331.074 234.656 331.102 234.692 331.122C234.728 331.143 234.767 331.156 234.808 331.162C234.85 331.167 234.891 331.164 234.931 331.154C234.971 331.143 235.009 331.124 235.042 331.099C235.075 331.074 235.102 331.042 235.123 331.006C235.144 330.97 235.157 330.931 235.162 330.89C235.168 330.848 235.165 330.807 235.154 330.767C235.143 330.727 235.125 330.689 235.1 330.656C234.754 329.891 234.583 329.059 234.599 328.22C234.616 327.381 234.82 326.556 235.196 325.805C239.681 328.539 243.3 330.829 244.417 331.58C244.205 331.773 224.127 349.637 217.293 354.95C212.808 353.775 189.265 342.091 182.393 336.624ZM183.125 347.346C191.845 351.196 211.653 360.128 216.215 360.994C217.005 361.148 217.313 361.206 218.814 360.012C225.224 354.873 246.072 333.062 246.265 333.293C246.274 333.351 246.274 333.409 246.265 333.467V337.317C241.972 340.762 218.102 365.826 217.717 364.632C215.792 364.632 184.511 351.87 182.913 351.157C182.874 350.349 183.048 348.193 183.125 347.346ZM218.179 373.872C216.254 374.97 186.936 363.054 183.009 360.628C182.862 359.402 182.791 358.168 182.797 356.932C191.229 361.09 215.753 371.447 218.006 371.351C221.297 371.177 244.571 344.978 246.226 343.149C246.245 344.133 246.148 345.115 245.937 346.075C245.61 346.711 219.449 373.16 218.179 373.872ZM58.6925 265.36C58.8273 267.42 58.9235 269.21 58.9235 270.885C58.9235 271.14 59.0249 271.385 59.2054 271.566C59.3859 271.746 59.6308 271.847 59.886 271.847C60.1413 271.847 60.3861 271.746 60.5666 271.566C60.7471 271.385 60.8485 271.14 60.8485 270.885C60.8485 269.095 60.7523 267.324 60.6175 265.225C60.5997 264.97 60.4811 264.732 60.288 264.565C60.0948 264.397 59.8429 264.312 59.5876 264.33C59.3324 264.348 59.0947 264.467 58.9268 264.66C58.7589 264.853 58.6747 265.105 58.6925 265.36ZM352.005 226.764C351.879 226.771 351.756 226.804 351.643 226.859C351.53 226.915 351.429 226.992 351.347 227.087C351.264 227.182 351.202 227.293 351.163 227.413C351.124 227.532 351.109 227.659 351.119 227.784C351.235 229.555 351.35 231.461 351.35 233.309C351.35 233.564 351.452 233.809 351.632 233.99C351.813 234.17 352.057 234.271 352.313 234.271C352.568 234.271 352.813 234.17 352.993 233.99C353.174 233.809 353.275 233.564 353.275 233.309C353.275 231.384 353.16 229.459 353.025 227.649C353.018 227.524 352.985 227.401 352.93 227.288C352.874 227.175 352.797 227.074 352.702 226.992C352.607 226.909 352.496 226.846 352.376 226.807C352.257 226.768 352.13 226.753 352.005 226.764ZM53.7068 260.567C53.962 260.567 54.2069 260.466 54.3874 260.285C54.5679 260.105 54.6693 259.86 54.6693 259.604C54.6693 259.349 54.5679 259.104 54.3874 258.924C54.2069 258.743 53.962 258.642 53.7068 258.642C51.3775 258.642 49.4333 258.815 47.5083 258.777C47.2512 258.777 47.0044 258.877 46.8208 259.057C46.6372 259.237 46.5316 259.482 46.5265 259.739C46.5265 259.994 46.6279 260.239 46.8084 260.42C46.9889 260.6 47.2337 260.702 47.489 260.702C49.4718 260.74 51.647 260.663 53.7068 260.567ZM346.037 221.066C343.727 221.066 341.783 221.201 339.839 221.22C339.583 221.22 339.339 221.321 339.158 221.502C338.978 221.682 338.876 221.927 338.876 222.182C338.876 222.438 338.978 222.683 339.158 222.863C339.339 223.044 339.583 223.145 339.839 223.145C341.918 223.145 344.074 223.145 346.153 222.991C346.408 222.976 346.647 222.86 346.816 222.668C346.986 222.477 347.073 222.226 347.057 221.971C347.042 221.715 346.926 221.477 346.735 221.307C346.543 221.137 346.293 221.051 346.037 221.066ZM58.1728 248.67C58.2883 250.441 58.4038 252.347 58.4038 254.195C58.4087 254.449 58.5117 254.691 58.6911 254.87C58.8706 255.05 59.1125 255.153 59.3663 255.158C59.6215 255.158 59.8664 255.056 60.0469 254.876C60.2274 254.695 60.3288 254.45 60.3288 254.195C60.3288 252.27 60.2133 250.345 60.0978 248.536C60.0799 248.28 59.9614 248.043 59.7682 247.875C59.5751 247.707 59.3232 247.623 59.0679 247.641C58.8126 247.658 58.5749 247.777 58.407 247.97C58.2392 248.163 58.1549 248.415 58.1728 248.67ZM352.756 216.619C352.756 214.694 352.64 212.769 352.505 210.96C352.487 210.704 352.369 210.467 352.176 210.299C351.983 210.131 351.731 210.047 351.475 210.065C351.22 210.082 350.982 210.201 350.815 210.394C350.647 210.587 350.562 210.839 350.58 211.094C350.696 212.865 350.811 214.771 350.811 216.619C350.811 216.874 350.913 217.119 351.093 217.3C351.274 217.48 351.519 217.582 351.774 217.582C352.031 217.582 352.278 217.481 352.461 217.301C352.645 217.121 352.75 216.876 352.756 216.619ZM72.3793 260.317C72.5057 260.312 72.6299 260.282 72.7448 260.229C72.8597 260.176 72.963 260.101 73.0488 260.008C73.1346 259.915 73.2013 259.806 73.2449 259.687C73.2886 259.568 73.3084 259.442 73.3033 259.316C73.2838 259.064 73.1699 258.829 72.9842 258.657C72.7985 258.486 72.5549 258.391 72.3023 258.392C69.973 258.488 68.0288 258.565 66.0845 258.526C65.8293 258.526 65.5844 258.628 65.4039 258.808C65.2234 258.989 65.122 259.234 65.122 259.489C65.122 259.744 65.2234 259.989 65.4039 260.17C65.5844 260.35 65.8293 260.451 66.0845 260.451C68.1443 260.49 70.3003 260.413 72.3793 260.317ZM364.71 220.816C362.785 220.912 360.648 220.97 358.511 220.97C358.384 220.965 358.257 220.985 358.138 221.03C358.02 221.075 357.911 221.144 357.819 221.232C357.728 221.32 357.655 221.426 357.605 221.543C357.555 221.66 357.529 221.786 357.53 221.913C357.529 222.17 357.63 222.417 357.81 222.6C357.99 222.784 358.235 222.89 358.492 222.895C360.687 222.895 362.458 222.895 364.787 222.741C364.913 222.736 365.037 222.706 365.152 222.653C365.267 222.6 365.371 222.525 365.456 222.432C365.542 222.339 365.609 222.23 365.652 222.111C365.696 221.992 365.716 221.866 365.711 221.74C365.687 221.489 365.572 221.257 365.387 221.086C365.202 220.916 364.961 220.819 364.71 220.816ZM28.1428 203.279C28.393 203.471 82.678 195.425 85.0073 194C85.1363 193.906 85.2392 193.781 85.3066 193.636C85.3739 193.491 85.4034 193.332 85.3923 193.173C85.3923 190.689 82.139 167.378 80.5798 161.564C80.3873 160.852 80.1948 160.14 79.752 159.889C76.8068 158.118 24.9088 167.897 21.8095 169.899C21.7255 169.949 21.653 170.016 21.5966 170.096C21.5402 170.175 21.5012 170.266 21.4823 170.361C20.8278 172.691 26.468 202.124 28.1428 203.279ZM22.6565 170.823C26.3525 169.149 73.4573 160.525 78.8473 161.198C80.1563 164.567 83.6598 189.246 83.8908 192.865C81.215 193.654 28.8743 202.644 28.6818 202.682C28.4893 202.721 28.47 202.952 28.0658 201.739C26.3718 196.657 22.5603 175.174 22.6565 170.823Z" fill="#333232"/>
<path d="M89.2433 195.714C89.348 195.519 89.3948 195.299 89.378 195.079C89.378 192.018 84.989 158.042 83.4298 155.327C83.3075 155.127 83.1345 154.963 82.9282 154.852C82.722 154.74 82.4899 154.685 82.2555 154.692C75.8068 153.903 21.4063 164.529 17.8258 167.012C17.3253 167.359 17.4023 168.225 17.46 169.149C17.768 174.212 23.235 207.514 25.16 207.322C25.3718 207.322 25.2948 207.168 24.7943 208.188C21.7913 214.367 16.0933 234.156 16.2088 238.141C16.2088 239.816 16.5938 241.991 18.2493 241.875C30.1265 240.412 88.3578 231.172 105.105 227.727C105.76 227.592 106.183 226.995 106.164 226.013C105.966 224.378 105.471 222.792 104.701 221.336C102.353 216.927 92.612 199.468 89.2433 195.714ZM25.2755 206.725C23.774 204.8 18.2493 171.632 18.6728 167.955C22.9078 165.761 76.5768 155.385 82.1978 156.232C83.7378 160.467 87.7225 191.055 87.9728 194.732C81.1583 197.081 33.9765 204.704 25.2755 206.725ZM26.1225 207.302C27.7395 206.898 82.8138 197.677 87.8573 196.349C90.61 198.909 103.046 221.028 103.854 222.914C92.8045 224.839 27.2583 235.792 17.614 237.255C17.7488 231.423 23.7355 211.037 26.1225 207.302Z" fill="#333232"/>
<path d="M33.3606 227.264C35.0353 227.013 70.5708 222.74 83.4106 219.256C83.4897 219.235 83.5575 219.184 83.599 219.114C83.6405 219.044 83.6524 218.96 83.632 218.88C83.6115 218.801 83.5605 218.733 83.4901 218.692C83.4197 218.65 83.3357 218.639 83.2566 218.659C80.7348 219.179 49.9733 223.279 33.3221 226.667C33.2761 226.659 33.2288 226.661 33.1838 226.674C33.1388 226.686 33.0973 226.709 33.0625 226.74C33.0276 226.771 33.0003 226.81 32.9825 226.853C32.9648 226.897 32.9572 226.943 32.9602 226.99C32.9632 227.037 32.9768 227.082 32.9999 227.123C33.0231 227.163 33.0551 227.198 33.0937 227.224C33.1323 227.251 33.1764 227.268 33.2226 227.275C33.2688 227.282 33.316 227.278 33.3606 227.264ZM59.3288 93.3222C58.6097 94.9464 58.0051 96.6188 57.5193 98.3272C57.4907 98.6014 57.5663 98.8763 57.7311 99.0972C59.6753 102.023 79.5991 124.488 84.7966 127.645C85.5088 128.088 86.3558 128.396 86.8756 127.76C90.6512 123.062 95.5786 119.422 101.178 117.192C105.736 115.58 110.514 114.677 115.346 114.516C119.196 114.17 119.87 113.785 121.352 111.263C123.101 107.945 125.421 104.96 128.205 102.447C131.756 99.3421 135.697 96.7147 139.929 94.6312C140.119 94.5233 140.268 94.3548 140.352 94.1525C140.435 93.9502 140.449 93.7257 140.391 93.5147C139.74 91.8588 138.879 90.2932 137.83 88.8562C138.523 88.6252 139.293 88.4135 139.293 87.7205C139.293 85.7955 122.507 61.502 117.849 56.9205C117.368 56.4392 116.675 55.804 116.039 55.8425C106.414 56.3815 97.0396 65.4675 91.6111 73.3985C85.3933 73.1675 81.3701 72.6092 74.2861 75.593C69.2851 77.7158 64.7763 80.8484 61.0421 84.7945C60.4646 85.3912 56.5376 89.5492 56.4798 89.8765C56.4221 90.2037 56.5376 90.2037 59.3288 93.3222ZM136.329 92.7832C128.302 94.15 123.181 100.83 119.408 108.087C117.733 111.321 117.887 111.475 116.116 111.436C113.019 111.261 109.913 111.377 106.838 111.783C104.582 112.12 102.365 112.675 100.216 113.438C95.3263 115.171 89.7246 120.715 86.7408 124.834C86.6774 124.919 86.5969 124.99 86.5044 125.041C86.4119 125.092 86.3096 125.124 86.2041 125.133C86.0987 125.142 85.9926 125.129 85.8926 125.094C85.7927 125.059 85.7013 125.003 85.6243 124.931C79.3681 118.482 68.2993 107.163 62.7361 100.656C62.4666 100.368 62.9286 99.9442 63.1981 100.252C66.7978 104.102 76.0956 113.323 86.0671 123.352C89.4358 119.059 94.6333 113.862 99.7731 112.052C102.576 111.053 105.492 110.406 108.455 110.127C111.229 109.917 114.016 109.917 116.79 110.127C117.926 108.818 123.547 93.9575 136.29 92.302C136.328 92.3294 136.358 92.3648 136.38 92.4057C136.402 92.4465 136.414 92.4917 136.416 92.538C136.418 92.5842 136.409 92.6303 136.391 92.6727C136.372 92.7152 136.345 92.753 136.31 92.7832H136.329ZM116.02 57.4017C119.87 60.0967 135.54 83.293 137.58 87.3547C134.039 88.4766 130.621 89.9535 127.378 91.763C124.306 93.3028 121.617 95.5084 119.505 98.2191C117.394 100.93 115.914 104.077 115.173 107.432C108.262 96.1905 98.6181 83.8127 92.2078 74.7075C92.5928 74.4572 103.411 58.1525 116.02 57.4017ZM74.7096 76.6517C81.7358 73.822 85.6243 74.4765 91.4378 74.7267C97.2128 84.5827 107.589 98.4812 114.422 107.586C108.115 106.094 101.478 107.007 95.8076 110.147C92.4003 112.072 88.2423 116.692 85.6821 119.56C81.9861 116.595 60.6571 93.8805 57.2306 90.0305C62.5051 84.063 67.3753 79.5777 74.7096 76.5747V76.6517ZM39.4821 125.604C39.0063 125.271 38.4438 125.082 37.863 125.061C37.2821 125.041 36.7077 125.189 36.2096 125.489C35.8468 125.651 35.5195 125.882 35.2462 126.171C34.973 126.459 34.7592 126.798 34.6171 127.169C34.475 127.54 34.4074 127.935 34.418 128.332C34.4287 128.73 34.5174 129.121 34.6792 129.483C34.841 129.846 35.0727 130.173 35.3609 130.447C35.6492 130.72 35.9885 130.934 36.3594 131.076C36.7304 131.218 37.1256 131.286 37.5227 131.275C37.9197 131.264 38.3108 131.176 38.6736 131.014C39.2531 130.887 39.7804 130.587 40.1856 130.154C40.5908 129.721 40.8547 129.174 40.9424 128.588C41.0301 128.001 40.9374 127.402 40.6766 126.869C40.4158 126.336 39.9992 125.895 39.4821 125.604ZM38.2116 129.454C36.8641 129.878 36.0556 129.454 35.7283 128.8C35.1123 127.433 35.8823 125.335 37.8843 125.951C39.2896 126.471 40.4253 128.838 38.2116 129.551V129.454ZM137.368 37.5165C137.927 38.6522 140.525 38.2287 141.661 37.863C142.258 37.6705 142.643 37.4587 142.701 36.8812C142.874 35.4375 143.066 22.925 142.412 21.7122C142.344 21.5851 142.241 21.4807 142.114 21.4122C141.987 21.3437 141.843 21.3142 141.7 21.3272C139.646 21.3215 137.602 21.6199 135.636 22.2127C134.847 22.694 136.675 36.246 137.368 37.5165ZM136.04 22.6747C137.818 22.4204 139.617 22.3366 141.411 22.4245C141.526 23.849 141.218 36.1882 141.199 36.3807C140.386 36.6722 139.517 36.7774 138.658 36.6887C138.523 36.246 138.292 35.0525 138.004 33.551C137.155 29.9632 136.5 26.3326 136.04 22.6747ZM37.6148 109.357C37.7995 109.452 38.0041 109.501 38.2116 109.501C38.4191 109.501 38.6236 109.452 38.8083 109.357C39.552 108.899 40.1419 108.228 40.5023 107.432C40.5513 107.305 40.5664 107.167 40.5461 107.032C40.5259 106.897 40.471 106.77 40.3868 106.662C39.4628 105.565 29.3758 93.8805 28.1438 94.612C26.6312 95.5912 25.1961 96.6853 23.8511 97.8845C23.7969 97.933 23.7534 97.9923 23.7236 98.0586C23.6938 98.1249 23.6782 98.1968 23.6778 98.2695C23.6393 99.2705 34.8428 108.241 37.6148 109.357ZM28.3748 95.1125C29.7801 96.1327 34.5156 101.985 38.9046 107.163C38.7158 107.46 38.482 107.727 38.2116 107.952C33.5971 104.999 29.1913 101.731 25.0253 98.1732C26.0697 97.0767 27.1889 96.054 28.3748 95.1125ZM58.6166 52.647C59.0401 45.178 63.3906 41.713 67.9336 40.8275C66.6438 45.563 66.8556 51.723 71.5333 52.5122C73.7663 52.878 74.8636 51.723 76.4806 50.3755C83.3913 44.6005 77.8088 38.8255 70.0126 39.2297C72.9193 31.2602 79.6376 24.773 88.5503 24.5612C88.632 24.5612 88.7104 24.5288 88.7681 24.471C88.8259 24.4133 88.8583 24.3349 88.8583 24.2532C88.8583 24.1716 88.8259 24.0932 88.7681 24.0355C88.7104 23.9777 88.632 23.9452 88.5503 23.9452C78.9253 23.7527 71.3601 30.6827 68.3763 39.3452C63.2366 40.2307 58.1353 44.0807 58.0006 52.5315C57.993 52.5719 57.9935 52.6135 58.0019 52.6538C58.0104 52.694 58.0267 52.7322 58.05 52.7662C58.0732 52.8002 58.1029 52.8292 58.1374 52.8517C58.1718 52.8742 58.2104 52.8897 58.2508 52.8972C58.2913 52.9048 58.3328 52.9044 58.3731 52.8959C58.4134 52.8874 58.4516 52.8711 58.4855 52.8479C58.5195 52.8246 58.5485 52.7949 58.571 52.7605C58.5935 52.726 58.609 52.6874 58.6166 52.647ZM69.5698 40.5965C72.4381 40.404 76.7116 41.2895 77.8858 43.8882C78.5596 45.3705 77.8858 47.1992 75.4988 49.2012C74.8508 49.8505 74.1115 50.4017 73.3043 50.8375C70.4168 52.0695 67.2213 48.5082 69.5698 40.5965ZM75.0753 312.849C73.2155 312.351 71.2749 312.23 69.3675 312.493C67.4602 312.756 65.6248 313.398 63.9692 314.381C62.3136 315.364 60.8714 316.668 59.7274 318.216C58.5833 319.765 57.7606 321.527 57.3076 323.398C56.4524 327.286 57.1767 331.354 59.3211 334.708C61.4655 338.062 64.8543 340.426 68.7421 341.281C72.6299 342.137 76.6981 341.412 80.0519 339.268C83.4056 337.124 85.7702 333.735 86.6253 329.847C86.9906 327.972 86.9812 326.043 86.5975 324.172C86.2138 322.3 85.4635 320.523 84.3898 318.943C83.3161 317.363 81.9403 316.011 80.3417 314.965C78.743 313.919 76.9532 313.2 75.0753 312.849ZM81.0236 328.538C80.2512 331.618 78.4021 334.321 75.8107 336.157C73.2192 337.993 70.0564 338.841 66.8941 338.548C63.9912 337.414 61.5812 335.292 60.0883 332.556C58.5954 329.82 58.1152 326.646 58.7321 323.591C59.4524 320.435 61.2843 317.645 63.8928 315.729C66.5014 313.813 69.7123 312.9 72.9386 313.157C75.8702 314.368 78.2805 316.575 79.7453 319.388C81.2102 322.202 81.6355 325.442 80.9466 328.538H81.0236Z" fill="#333232"/>
<path d="M100.716 318.335C99.0406 317.757 97.2445 317.618 95.4996 317.931C94.7764 316.273 93.8864 314.693 92.8431 313.215C94.0944 312.079 97.5209 308.922 96.6931 307.44C93.7473 303.916 90.2498 300.893 86.3366 298.489C84.7026 297.573 82.9034 296.991 81.0429 296.775C79.8109 296.949 76.8849 301.742 76.2304 302.82C75.8069 302.82 74.3054 302.339 74.1899 302.281C74.1899 300.895 73.7856 295.89 72.5344 295.312C71.1352 294.797 69.6822 294.442 68.2031 294.254C66.8364 294.042 54.5356 296.294 53.6309 297.95C53.0341 299.066 54.4201 303.282 54.8244 304.456C53.7862 305.028 52.7892 305.671 51.8406 306.381C49.9156 307.748 50.4354 307.69 50.0889 307.536C49.6701 307.336 49.2214 307.206 48.7606 307.151C47.2229 306.25 45.42 305.909 43.6594 306.189C41.8884 306.766 37.7111 316.276 37.0374 318.72C36.8169 319.337 36.7573 320 36.8641 320.645C37.3261 321.916 40.4061 322.936 41.6959 323.34C41.3397 325.817 41.3397 328.333 41.6959 330.809C40.0019 331.271 36.4791 332.311 36.6716 334.043C36.8641 335.776 41.3686 347.21 43.2359 348.115C44.2588 348.687 45.3899 349.039 46.5568 349.149C47.7237 349.258 48.9005 349.122 50.0119 348.75C50.6378 348.438 51.2423 348.084 51.8214 347.692C52.5914 348.269 53.3999 348.789 54.2276 349.289C53.6309 350.772 52.3026 354.083 52.7261 355.584C52.9379 356.373 53.5731 356.624 54.4586 356.951C56.9034 357.836 70.0704 360.993 72.0724 360.647C72.8231 360.531 73.2274 359.742 73.4584 358.991C73.8861 357.283 74.1377 355.535 74.2091 353.775C75.1978 353.677 76.1808 353.529 77.1544 353.332C77.749 354.378 78.5096 355.321 79.4066 356.123C80.3884 356.816 81.2161 356.47 82.3326 355.757C82.8716 356.45 83.6801 357.413 84.5464 357.509C86.7216 357.759 95.7114 349.289 96.6354 347.557C97.4054 346.113 94.5949 343.534 93.3436 342.398C94.6972 340.361 95.7598 338.145 96.5006 335.814C97.8891 336.024 99.2942 336.101 100.697 336.045C101.332 336.045 102.064 335.814 102.333 335.218C103.508 332.542 103.161 322.397 102.333 319.818C102.218 319.067 101.352 318.566 100.716 318.335ZM101.178 320.106C101.833 322.609 102.045 332.061 101.082 334.505C99.4178 334.67 97.7384 334.592 96.0964 334.274C95.9211 334.244 95.7409 334.281 95.5913 334.377C95.4416 334.474 95.3334 334.622 95.2879 334.794C94.5213 337.397 93.3311 339.855 91.7651 342.071C91.6536 342.217 91.6033 342.402 91.6249 342.585C91.6464 342.768 91.7381 342.936 91.8806 343.052C93.2313 344.123 94.3788 345.427 95.2686 346.902C94.3061 348.481 86.7794 355.372 84.7004 355.95C84.3924 355.95 83.5454 354.795 83.3336 354.487C82.6226 353.418 81.9796 352.306 81.4086 351.157C81.3253 350.989 81.1824 350.859 81.0079 350.791C80.8334 350.723 80.6399 350.723 80.4654 350.791C74.8829 352.889 72.7654 351.657 72.7654 353.043C72.7679 355.118 72.4297 357.18 71.7644 359.145C67.2405 358.654 62.7856 357.659 58.4819 356.181C58.6897 354.126 59.2634 352.124 60.1759 350.271C60.7534 348.981 58.4434 349.347 54.1314 344.958C53.9926 344.83 53.8104 344.758 53.6213 344.758C53.4321 344.758 53.2499 344.83 53.1111 344.958C51.1861 346.537 48.6836 348.077 48.1831 347.826C47.2014 347.345 42.6776 337.085 42.4081 335.006C43.7773 334.052 45.3316 333.396 46.9704 333.081C47.1452 333.032 47.2961 332.92 47.3952 332.768C47.4943 332.616 47.5349 332.433 47.5094 332.253C47.0376 329.527 47.0376 326.74 47.5094 324.014C47.5388 323.846 47.5035 323.674 47.4107 323.531C47.3178 323.388 47.1742 323.285 47.0089 323.244C45.5577 322.864 44.1605 322.301 42.8509 321.569C42.4274 321.261 42.4659 321.281 42.5044 320.953C43.7504 316.46 45.7485 312.21 48.4141 308.383C49.4536 308.094 52.2641 310.154 53.2266 310.886C53.3272 310.983 53.4619 311.038 53.602 311.038C53.7422 311.038 53.8768 310.983 53.9774 310.886C54.8619 309.968 55.8143 309.119 56.8264 308.345C59.7524 306.131 60.5416 306.42 60.2914 305.65C59.4065 303.718 58.9094 301.632 58.8284 299.509C59.1267 299.261 59.4653 299.066 59.8294 298.931C61.6266 298.221 63.473 297.642 65.3541 297.199C67.6343 296.563 69.9779 296.183 72.3419 296.063C72.7461 296.236 73.1119 297.988 73.2081 298.527C73.9204 302.377 73.4391 303.166 73.9974 303.224C79.4836 303.763 80.6001 305.284 80.9851 304.61C82.0526 302.744 83.2967 300.984 84.7004 299.355C85.1046 298.951 85.0854 298.758 86.2981 299.451C89.9212 301.819 93.1661 304.72 95.9231 308.056C96.2119 308.556 93.7094 311.213 91.8806 312.772C91.2454 313.33 92.1501 313.581 93.8056 316.738C95.4611 319.895 95.0761 320.78 95.9616 320.588C97.6687 320.179 99.4254 320.017 101.178 320.106ZM368.349 159.253C364.314 157.605 360.082 156.486 355.76 155.923C352.603 155.423 348.887 154.922 345.75 154.518C348.772 150.244 357.723 139.426 359.225 136.789C359.648 136.076 358.84 135.075 358.243 134.479C354.893 130.898 348.425 129.551 343.459 128.781C340.61 128.319 328.713 126.856 326.692 127.818C324.267 128.973 306.326 155.923 305.787 160.023C305.787 160.716 306.018 160.986 306.691 161.236C309.521 162.276 322.284 163.893 325.133 164.566C321.283 171.304 304.17 194.077 302.495 197.291C302.091 198.1 302.341 198.581 302.822 198.735C304.555 199.423 306.337 199.976 308.154 200.391C308.847 200.602 310.368 199.659 312.582 198.312C322.515 192.344 365.134 164.201 368.407 160.562C368.497 160.477 368.568 160.373 368.615 160.258C368.661 160.143 368.683 160.019 368.677 159.895C368.672 159.771 368.64 159.649 368.583 159.538C368.526 159.428 368.447 159.331 368.349 159.253ZM326.981 182.353C310.618 193.153 305.094 196.31 304.901 196.444C307.538 192.421 323.92 169.976 326.731 164.605C326.78 164.501 326.805 164.388 326.804 164.273C326.804 164.158 326.778 164.045 326.728 163.942C326.678 163.839 326.606 163.748 326.516 163.676C326.427 163.604 326.323 163.553 326.211 163.527C324.286 162.834 310.272 161.332 306.961 160.158C307.384 156.578 324.863 129.512 326.981 128.434C329.098 127.356 349.638 129.801 353.488 132.554C351.467 136.5 340.302 150.321 338.492 153.536C338.127 154.191 338.011 154.826 338.723 154.999C339.436 155.172 357.531 157.29 361.477 158.58C356.664 162.603 332.371 178.734 326.981 182.276V182.353ZM203.492 64.6589C203.492 64.8322 203.608 65.0439 203.896 66.1604C203.972 66.4026 204.139 66.6061 204.361 66.7281C204.584 66.8501 204.845 66.8812 205.09 66.8149C205.335 66.7435 205.542 66.5776 205.664 66.3537C205.787 66.1299 205.816 65.8665 205.744 65.6214C205.552 64.8707 205.379 64.2354 205.263 63.9274C205.151 63.7161 204.964 63.554 204.739 63.4729C204.514 63.3919 204.267 63.3976 204.045 63.4889C203.824 63.5803 203.645 63.7507 203.543 63.967C203.44 64.1834 203.422 64.43 203.492 64.6589Z" fill="#333232"/>
</svg>
