<svg width="17" height="16" viewBox="0 0 17 16" fill="none" xmlns="http://www.w3.org/2000/svg">
<path d="M7.73456 0.974544C7.9879 0.194828 9.09099 0.194828 9.34434 0.974543L10.5841 4.79024C10.7386 5.26559 11.1815 5.58742 11.6814 5.58742H15.6934C16.5133 5.58742 16.8541 6.63652 16.1909 7.11841L12.945 9.47664C12.5407 9.77042 12.3715 10.2912 12.5259 10.7665L13.7657 14.5822C14.0191 15.3619 13.1267 16.0103 12.4634 15.5284L9.21757 13.1702C8.81322 12.8764 8.26568 12.8764 7.86133 13.1702L4.6155 15.5284C3.95223 16.0103 3.05982 15.3619 3.31316 14.5822L4.55296 10.7665C4.7074 10.2912 4.53821 9.77042 4.13385 9.47664L0.888029 7.11841C0.224763 6.63652 0.565636 5.58742 1.38548 5.58742H5.39754C5.89735 5.58742 6.34031 5.26559 6.49476 4.79024L7.73456 0.974544Z" stroke="black" stroke-width="0.307377"/>
</svg>
