<svg width="42" height="41" viewBox="0 0 42 41" fill="none" xmlns="http://www.w3.org/2000/svg">
<path d="M19.4539 2.46979C19.9406 0.972068 22.0594 0.972068 22.5461 2.46978L26.0323 13.1993C26.3502 14.1776 27.2618 14.8399 28.2905 14.8399H39.5721C41.1469 14.8399 41.8017 16.8551 40.5276 17.7807L31.4006 24.4119C30.5684 25.0165 30.2202 26.0882 30.538 27.0665L34.0243 37.796C34.5109 39.2937 32.7967 40.5392 31.5227 39.6135L22.3956 32.9824C21.5634 32.3777 20.4366 32.3777 19.6044 32.9824L10.4773 39.6135C9.2033 40.5392 7.4891 39.2937 7.97573 37.796L11.462 27.0665C11.7798 26.0882 11.4316 25.0165 10.5994 24.4119L1.47237 17.7807C0.198336 16.8551 0.853104 14.8399 2.4279 14.8399H13.7095C14.7382 14.8399 15.6498 14.1776 15.9677 13.1993L19.4539 2.46979Z" fill="#F5F5F5" stroke="#333232" stroke-width="0.748721"/>
</svg>
