<svg width="42" height="40" viewBox="0 0 42 40" fill="none" xmlns="http://www.w3.org/2000/svg">
<path d="M19.4539 1.96979C19.9406 0.472068 22.0594 0.472068 22.5461 1.96978L26.0323 12.6993C26.3502 13.6776 27.2618 14.3399 28.2905 14.3399H39.5721C41.1469 14.3399 41.8017 16.3551 40.5276 17.2807L31.4006 23.9119C30.5684 24.5165 30.2202 25.5882 30.538 26.5665L34.0243 37.296C34.5109 38.7937 32.7967 40.0392 31.5227 39.1135L22.3956 32.4824C21.5634 31.8777 20.4366 31.8777 19.6044 32.4824L10.4773 39.1135C9.2033 40.0392 7.4891 38.7937 7.97573 37.296L11.462 26.5665C11.7798 25.5882 11.4316 24.5165 10.5994 23.9119L1.47237 17.2807C0.198336 16.3551 0.853104 14.3399 2.4279 14.3399H13.7095C14.7382 14.3399 15.6498 13.6776 15.9677 12.6993L19.4539 1.96979Z" stroke="#F5F07A" stroke-width="0.748721"/>
</svg>
