<svg width="43" height="40" viewBox="0 0 43 40" fill="none" xmlns="http://www.w3.org/2000/svg">
<path d="M19.9676 1.96979C20.4542 0.472068 22.5731 0.472068 23.0597 1.96978L26.546 12.6993C26.8638 13.6776 27.7755 14.3399 28.8041 14.3399H40.0858C41.6606 14.3399 42.3153 16.3551 41.0413 17.2807L31.9142 23.9119C31.0821 24.5165 30.7338 25.5882 31.0517 26.5665L34.5379 37.296C35.0246 38.7937 33.3104 40.0392 32.0363 39.1135L22.9093 32.4824C22.0771 31.8777 20.9502 31.8777 20.1181 32.4824L10.991 39.1135C9.71697 40.0392 8.00277 38.7937 8.48941 37.296L11.9756 26.5665C12.2935 25.5882 11.9453 24.5165 11.1131 23.9119L1.98604 17.2807C0.712008 16.3551 1.36678 14.3399 2.94157 14.3399H14.2232C15.2519 14.3399 16.1635 13.6776 16.4814 12.6993L19.9676 1.96979Z" fill="#F5F5F5" stroke="#333232" stroke-width="0.748721"/>
</svg>
